  0
SECTION
  2
HEADER
  9
$ACADVER
  1
AC1024
  9
$ACADMAINTVER
 70
6
  9
$DWGCODEPAGE
  3
ANSI_1252
  9
$LASTSAVEDBY
  1
ezdxf
  9
$INSBASE
 10
0.0
 20
0.0
 30
0.0
  9
$EXTMIN
 10
1e+20
 20
1e+20
 30
1e+20
  9
$EXTMAX
 10
-1e+20
 20
-1e+20
 30
-1e+20
  9
$LIMMIN
 10
0.0
 20
0.0
  9
$LIMMAX
 10
420.0
 20
297.0
  9
$ORTHOMODE
 70
0
  9
$REGENMODE
 70
1
  9
$FILLMODE
 70
1
  9
$QTEXTMODE
 70
0
  9
$MIRRTEXT
 70
1
  9
$LTSCALE
 40
1.0
  9
$ATTMODE
 70
1
  9
$TEXTSIZE
 40
2.5
  9
$TRACEWID
 40
1.0
  9
$TEXTSTYLE
  7
OpenSans
  9
$CLAYER
  8
0
  9
$CELTYPE
  6
ByLayer
  9
$CECOLOR
 62
256
  9
$CELTSCALE
 40
1.0
  9
$DISPSILH
 70
0
  9
$DIMSCALE
 40
1.0
  9
$DIMASZ
 40
0.175
  9
$DIMEXO
 40
0.125
  9
$DIMDLI
 40
3.75
  9
$DIMRND
 40
0.0
  9
$DIMDLE
 40
0.0
  9
$DIMEXE
 40
0.375
  9
$DIMTP
 40
0.0
  9
$DIMTM
 40
0.0
  9
$DIMTXT
 40
0.25
  9
$DIMCEN
 40
2.5
  9
$DIMTSZ
 40
0.0
  9
$DIMTOL
 70
0
  9
$DIMLIM
 70
0
  9
$DIMTIH
 70
0
  9
$DIMTOH
 70
0
  9
$DIMSE1
 70
0
  9
$DIMSE2
 70
0
  9
$DIMTAD
 70
1
  9
$DIMZIN
 70
12
  9
$DIMBLK
  1
ARCHTICK
  9
$DIMASO
 70
1
  9
$DIMSHO
 70
1
  9
$DIMPOST
  1

  9
$DIMAPOST
  1

  9
$DIMALT
 70
0
  9
$DIMALTD
 70
3
  9
$DIMALTF
 40
0.03937007874
  9
$DIMLFAC
 40
100.0
  9
$DIMTOFL
 70
1
  9
$DIMTVP
 40
0.0
  9
$DIMTIX
 70
0
  9
$DIMSOXD
 70
0
  9
$DIMSAH
 70
0
  9
$DIMBLK1
  1

  9
$DIMBLK2
  1

  9
$DIMSTYLE
  2
EZDXF
  9
$DIMCLRD
 70
0
  9
$DIMCLRE
 70
0
  9
$DIMCLRT
 70
0
  9
$DIMTFAC
 40
0.5
  9
$DIMGAP
 40
0.1
  9
$DIMJUST
 70
0
  9
$DIMSD1
 70
0
  9
$DIMSD2
 70
0
  9
$DIMTOLJ
 70
0
  9
$DIMTZIN
 70
8
  9
$DIMALTZ
 70
0
  9
$DIMALTTZ
 70
0
  9
$DIMUPT
 70
1
  9
$DIMDEC
 70
2
  9
$DIMTDEC
 70
2
  9
$DIMALTU
 70
2
  9
$DIMALTTD
 70
3
  9
$DIMTXSTY
  7
OpenSansCondensed-Light
  9
$DIMAUNIT
 70
0
  9
$DIMADEC
 70
2
  9
$DIMALTRND
 40
0.0
  9
$DIMAZIN
 70
3
  9
$DIMDSEP
 70
46
  9
$DIMATFIT
 70
3
  9
$DIMFRAC
 70
0
  9
$DIMLDRBLK
  1

  9
$DIMLUNIT
 70
2
  9
$DIMLWD
 70
-2
  9
$DIMLWE
 70
-2
  9
$DIMTMOVE
 70
2
  9
$DIMFXL
 40
1.0
  9
$DIMFXLON
 70
0
  9
$DIMJOGANG
 40
0.785398163397
  9
$DIMTFILL
 70
0
  9
$DIMTFILLCLR
 70
0
  9
$DIMARCSYM
 70
0
  9
$DIMLTYPE
  6

  9
$DIMLTEX1
  6

  9
$DIMLTEX2
  6

  9
$DIMTXTDIRECTION
 70
0
  9
$LUNITS
 70
2
  9
$LUPREC
 70
4
  9
$SKETCHINC
 40
1.0
  9
$FILLETRAD
 40
10.0
  9
$AUNITS
 70
0
  9
$AUPREC
 70
2
  9
$MENU
  1
.
  9
$ELEVATION
 40
0.0
  9
$PELEVATION
 40
0.0
  9
$THICKNESS
 40
0.0
  9
$LIMCHECK
 70
0
  9
$CHAMFERA
 40
0.0
  9
$CHAMFERB
 40
0.0
  9
$CHAMFERC
 40
0.0
  9
$CHAMFERD
 40
0.0
  9
$SKPOLY
 70
0
  9
$TDCREATE
 40
2461314.8235185184
  9
$TDUCREATE
 40
2458532.153996898
  9
$TDUPDATE
 40
2461314.8235185184
  9
$TDUUPDATE
 40
2458532.1544311
  9
$TDINDWG
 40
0.0
  9
$TDUSRTIMER
 40
0.0
  9
$USRTIMER
 70
1
  9
$ANGBASE
 50
0.0
  9
$ANGDIR
 70
0
  9
$PDMODE
 70
0
  9
$PDSIZE
 40
0.0
  9
$PLINEWID
 40
0.0
  9
$SPLFRAME
 70
0
  9
$SPLINETYPE
 70
6
  9
$SPLINESEGS
 70
8
  9
$HANDSEED
  5
BE
  9
$SURFTAB1
 70
6
  9
$SURFTAB2
 70
6
  9
$SURFTYPE
 70
6
  9
$SURFU
 70
6
  9
$SURFV
 70
6
  9
$UCSBASE
  2

  9
$UCSNAME
  2

  9
$UCSORG
 10
0.0
 20
0.0
 30
0.0
  9
$UCSXDIR
 10
1.0
 20
0.0
 30
0.0
  9
$UCSYDIR
 10
0.0
 20
1.0
 30
0.0
  9
$UCSORTHOREF
  2

  9
$UCSORTHOVIEW
 70
0
  9
$UCSORGTOP
 10
0.0
 20
0.0
 30
0.0
  9
$UCSORGBOTTOM
 10
0.0
 20
0.0
 30
0.0
  9
$UCSORGLEFT
 10
0.0
 20
0.0
 30
0.0
  9
$UCSORGRIGHT
 10
0.0
 20
0.0
 30
0.0
  9
$UCSORGFRONT
 10
0.0
 20
0.0
 30
0.0
  9
$UCSORGBACK
 10
0.0
 20
0.0
 30
0.0
  9
$PUCSBASE
  2

  9
$PUCSNAME
  2

  9
$PUCSORG
 10
0.0
 20
0.0
 30
0.0
  9
$PUCSXDIR
 10
1.0
 20
0.0
 30
0.0
  9
$PUCSYDIR
 10
0.0
 20
1.0
 30
0.0
  9
$PUCSORTHOREF
  2

  9
$PUCSORTHOVIEW
 70
0
  9
$PUCSORGTOP
 10
0.0
 20
0.0
 30
0.0
  9
$PUCSORGBOTTOM
 10
0.0
 20
0.0
 30
0.0
  9
$PUCSORGLEFT
 10
0.0
 20
0.0
 30
0.0
  9
$PUCSORGRIGHT
 10
0.0
 20
0.0
 30
0.0
  9
$PUCSORGFRONT
 10
0.0
 20
0.0
 30
0.0
  9
$PUCSORGBACK
 10
0.0
 20
0.0
 30
0.0
  9
$USERI1
 70
0
  9
$USERI2
 70
0
  9
$USERI3
 70
0
  9
$USERI4
 70
0
  9
$USERI5
 70
0
  9
$USERR1
 40
0.0
  9
$USERR2
 40
0.0
  9
$USERR3
 40
0.0
  9
$USERR4
 40
0.0
  9
$USERR5
 40
0.0
  9
$WORLDVIEW
 70
1
  9
$SHADEDGE
 70
3
  9
$SHADEDIF
 70
70
  9
$TILEMODE
 70
1
  9
$MAXACTVP
 70
64
  9
$PINSBASE
 10
0.0
 20
0.0
 30
0.0
  9
$PLIMCHECK
 70
0
  9
$PEXTMIN
 10
1e+20
 20
1e+20
 30
1e+20
  9
$PEXTMAX
 10
-1e+20
 20
-1e+20
 30
-1e+20
  9
$PLIMMIN
 10
0.0
 20
0.0
  9
$PLIMMAX
 10
420.0
 20
297.0
  9
$UNITMODE
 70
0
  9
$VISRETAIN
 70
1
  9
$PLINEGEN
 70
0
  9
$PSLTSCALE
 70
1
  9
$TREEDEPTH
 70
3020
  9
$CMLSTYLE
  2
Standard
  9
$CMLJUST
 70
0
  9
$CMLSCALE
 40
20.0
  9
$PROXYGRAPHICS
 70
1
  9
$MEASUREMENT
 70
1
  9
$CELWEIGHT
370
-1
  9
$ENDCAPS
280
0
  9
$JOINSTYLE
280
0
  9
$LWDISPLAY
290
0
  9
$INSUNITS
 70
4
  9
$HYPERLINKBASE
  1

  9
$STYLESHEET
  1

  9
$XEDIT
290
1
  9
$CEPSNTYPE
380
0
  9
$PSTYLEMODE
290
1
  9
$FINGERPRINTGUID
  2
{D711103D-C4FC-4F39-8F8B-3A6BA141739A}
  9
$VERSIONGUID
  2
{BFA010DF-D5D4-4B21-8304-27F95AA50C5C}
  9
$EXTNAMES
290
1
  9
$PSVPSCALE
 40
0.0
  9
$OLESTARTUP
290
0
  9
$SORTENTS
280
127
  9
$INDEXCTL
280
0
  9
$HIDETEXT
280
1
  9
$XCLIPFRAME
280
1
  9
$HALOGAP
280
0
  9
$OBSCOLOR
 70
257
  9
$OBSLTYPE
280
0
  9
$INTERSECTIONDISPLAY
280
0
  9
$INTERSECTIONCOLOR
 70
257
  9
$DIMASSOC
280
2
  9
$PROJECTNAME
  1

  9
$CAMERADISPLAY
290
0
  9
$LENSLENGTH
 40
50.0
  9
$CAMERAHEIGHT
 40
0.0
  9
$STEPSPERSEC
 40
24.0
  9
$STEPSIZE
 40
100.0
  9
$3DDWFPREC
 40
2.0
  9
$PSOLWIDTH
 40
0.005
  9
$PSOLHEIGHT
 40
0.08
  9
$LOFTANG1
 40
1.570796326795
  9
$LOFTANG2
 40
1.570796326795
  9
$LOFTMAG1
 40
0.0
  9
$LOFTMAG2
 40
0.0
  9
$LOFTPARAM
 70
7
  9
$LOFTNORMALS
280
1
  9
$LATITUDE
 40
37.795
  9
$LONGITUDE
 40
-122.394
  9
$NORTHDIRECTION
 40
0.0
  9
$TIMEZONE
 70
-8000
  9
$LIGHTGLYPHDISPLAY
280
1
  9
$TILEMODELIGHTSYNCH
280
1
  9
$CMATERIAL
347
20
  9
$SOLIDHIST
280
0
  9
$SHOWHIST
280
1
  9
$DWFFRAME
280
2
  9
$DGNFRAME
280
2
  9
$REALWORLDSCALE
290
1
  9
$INTERFERECOLOR
 62
256
  9
$CSHADOW
280
0
  9
$SHADOWPLANELOCATION
 40
0.0
  0
ENDSEC
  0
SECTION
  2
CLASSES
  0
CLASS
  1
ACDBDICTIONARYWDFLT
  2
AcDbDictionaryWithDefault
  3
ObjectDBX Classes
 90
0
 91
0
280
0
281
0
  0
CLASS
  1
SUN
  2
AcDbSun
  3
SCENEOE
 90
1153
 91
0
280
0
281
0
  0
CLASS
  1
VISUALSTYLE
  2
AcDbVisualStyle
  3
ObjectDBX Classes
 90
4095
 91
0
280
0
281
0
  0
CLASS
  1
MATERIAL
  2
AcDbMaterial
  3
ObjectDBX Classes
 90
1153
 91
0
280
0
281
0
  0
CLASS
  1
SCALE
  2
AcDbScale
  3
ObjectDBX Classes
 90
1153
 91
0
280
0
281
0
  0
CLASS
  1
TABLESTYLE
  2
AcDbTableStyle
  3
ObjectDBX Classes
 90
4095
 91
0
280
0
281
0
  0
CLASS
  1
MLEADERSTYLE
  2
AcDbMLeaderStyle
  3
ACDB_MLEADERSTYLE_CLASS
 90
4095
 91
0
280
0
281
0
  0
CLASS
  1
DICTIONARYVAR
  2
AcDbDictionaryVar
  3
ObjectDBX Classes
 90
0
 91
0
280
0
281
0
  0
CLASS
  1
CELLSTYLEMAP
  2
AcDbCellStyleMap
  3
ObjectDBX Classes
 90
1152
 91
0
280
0
281
0
  0
CLASS
  1
MENTALRAYRENDERSETTINGS
  2
AcDbMentalRayRenderSettings
  3
SCENEOE
 90
1024
 91
0
280
0
281
0
  0
CLASS
  1
ACDBDETAILVIEWSTYLE
  2
AcDbDetailViewStyle
  3
ObjectDBX Classes
 90
1025
 91
0
280
0
281
0
  0
CLASS
  1
ACDBSECTIONVIEWSTYLE
  2
AcDbSectionViewStyle
  3
ObjectDBX Classes
 90
1025
 91
0
280
0
281
0
  0
CLASS
  1
RASTERVARIABLES
  2
AcDbRasterVariables
  3
ISM
 90
0
 91
0
280
0
281
0
  0
CLASS
  1
ACDBPLACEHOLDER
  2
AcDbPlaceHolder
  3
ObjectDBX Classes
 90
0
 91
0
280
0
281
0
  0
CLASS
  1
LAYOUT
  2
AcDbLayout
  3
ObjectDBX Classes
 90
0
 91
0
280
0
281
0
  0
ENDSEC
  0
SECTION
  2
TABLES
  0
TABLE
  2
VPORT
  5
8
330
0
100
AcDbSymbolTable
 70
1
  0
VPORT
  5
23
330
8
100
AcDbSymbolTableRecord
100
AcDbViewportTableRecord
  2
*Active
 70
0
 10
0.0
 20
0.0
 11
1.0
 21
1.0
 12
0.0
 22
0.0
 13
0.0
 23
0.0
 14
0.5
 24
0.5
 15
0.5
 25
0.5
 16
0.0
 26
0.0
 36
1.0
 17
0.0
 27
0.0
 37
0.0
 40
1000.0
 41
1.34
 42
50.0
 43
0.0
 44
0.0
 50
0.0
 51
0.0
 71
0
 72
1000
 73
1
 74
3
 75
0
 76
0
 77
0
 78
0
281
0
 65
0
146
0.0
  0
ENDTAB
  0
TABLE
  2
LTYPE
  5
2
330
0
100
AcDbSymbolTable
 70
21
  0
LTYPE
  5
24
330
2
100
AcDbSymbolTableRecord
100
AcDbLinetypeTableRecord
  2
ByBlock
 70
0
  3

 72
65
 73
0
 40
0.0
  0
LTYPE
  5
25
330
2
100
AcDbSymbolTableRecord
100
AcDbLinetypeTableRecord
  2
ByLayer
 70
0
  3

 72
65
 73
0
 40
0.0
  0
LTYPE
  5
26
330
2
100
AcDbSymbolTableRecord
100
AcDbLinetypeTableRecord
  2
Continuous
 70
0
  3

 72
65
 73
0
 40
0.0
  0
LTYPE
  5
2F
330
2
100
AcDbSymbolTableRecord
100
AcDbLinetypeTableRecord
  2
CENTER
 70
0
  3
Center ____ _ ____ _ ____ _ ____ _ ____ _ ____
 72
65
 73
4
 40
5.08
 49
3.175
 74
0
 49
-0.635
 74
0
 49
0.635
 74
0
 49
-0.635
 74
0
  0
LTYPE
  5
30
330
2
100
AcDbSymbolTableRecord
100
AcDbLinetypeTableRecord
  2
CENTERX2
 70
0
  3
Center (2x) ________  __  ________  __  ________
 72
65
 73
4
 40
8.89
 49
6.35
 74
0
 49
-0.635
 74
0
 49
1.27
 74
0
 49
-0.635
 74
0
  0
LTYPE
  5
31
330
2
100
AcDbSymbolTableRecord
100
AcDbLinetypeTableRecord
  2
CENTER2
 70
0
  3
Center (.5x) ____ _ ____ _ ____ _ ____ _ ____
 72
65
 73
4
 40
2.54
 49
1.587
 74
0
 49
-0.318
 74
0
 49
0.318
 74
0
 49
-0.318
 74
0
  0
LTYPE
  5
32
330
2
100
AcDbSymbolTableRecord
100
AcDbLinetypeTableRecord
  2
DASHED
 70
0
  3
Dashed __ __ __ __ __ __ __ __ __ __ __ __ __ _
 72
65
 73
2
 40
1.524
 49
1.27
 74
0
 49
-0.254
 74
0
  0
LTYPE
  5
33
330
2
100
AcDbSymbolTableRecord
100
AcDbLinetypeTableRecord
  2
DASHEDX2
 70
0
  3
Dashed (2x) ____  ____  ____  ____  ____  ____
 72
65
 73
2
 40
3.048
 49
2.54
 74
0
 49
-0.508
 74
0
  0
LTYPE
  5
34
330
2
100
AcDbSymbolTableRecord
100
AcDbLinetypeTableRecord
  2
DASHED2
 70
0
  3
Dashed (.5x) _ _ _ _ _ _ _ _ _ _ _ _ _ _
 72
65
 73
2
 40
0.762
 49
0.635
 74
0
 49
-0.127
 74
0
  0
LTYPE
  5
35
330
2
100
AcDbSymbolTableRecord
100
AcDbLinetypeTableRecord
  2
PHANTOM
 70
0
  3
Phantom ______  __  __  ______  __  __  ______
 72
65
 73
6
 40
6.35
 49
3.175
 74
0
 49
-0.635
 74
0
 49
0.635
 74
0
 49
-0.635
 74
0
 49
0.635
 74
0
 49
-0.635
 74
0
  0
LTYPE
  5
36
330
2
100
AcDbSymbolTableRecord
100
AcDbLinetypeTableRecord
  2
PHANTOMX2
 70
0
  3
Phantom (2x)____________    ____    ____    ____________
 72
65
 73
6
 40
10.795
 49
6.35
 74
0
 49
-0.635
 74
0
 49
1.27
 74
0
 49
-0.635
 74
0
 49
1.27
 74
0
 49
-0.635
 74
0
  0
LTYPE
  5
37
330
2
100
AcDbSymbolTableRecord
100
AcDbLinetypeTableRecord
  2
PHANTOM2
 70
0
  3
Phantom (.5x) ___ _ _ ___ _ _ ___ _ _ ___ _ _ ___
 72
65
 73
6
 40
3.175
 49
1.587
 74
0
 49
-0.318
 74
0
 49
0.318
 74
0
 49
-0.318
 74
0
 49
0.318
 74
0
 49
-0.318
 74
0
  0
LTYPE
  5
38
330
2
100
AcDbSymbolTableRecord
100
AcDbLinetypeTableRecord
  2
DASHDOT
 70
0
  3
Dash dot __ . __ . __ . __ . __ . __ . __ . __
 72
65
 73
4
 40
3.556
 49
2.54
 74
0
 49
-0.508
 74
0
 49
0.0
 74
0
 49
-0.508
 74
0
  0
LTYPE
  5
39
330
2
100
AcDbSymbolTableRecord
100
AcDbLinetypeTableRecord
  2
DASHDOTX2
 70
0
  3
Dash dot (2x) ____  .  ____  .  ____  .  ____
 72
65
 73
4
 40
6.096
 49
5.08
 74
0
 49
-0.508
 74
0
 49
0.0
 74
0
 49
-0.508
 74
0
  0
LTYPE
  5
3A
330
2
100
AcDbSymbolTableRecord
100
AcDbLinetypeTableRecord
  2
DASHDOT2
 70
0
  3
Dash dot (.5x) _ . _ . _ . _ . _ . _ . _ . _
 72
65
 73
4
 40
1.778
 49
1.27
 74
0
 49
-0.254
 74
0
 49
0.0
 74
0
 49
-0.254
 74
0
  0
LTYPE
  5
3B
330
2
100
AcDbSymbolTableRecord
100
AcDbLinetypeTableRecord
  2
DOT
 70
0
  3
Dot .  .  .  .  .  .  .  .  .  .  .  .  .  .  .  .
 72
65
 73
2
 40
0.508
 49
0.0
 74
0
 49
-0.508
 74
0
  0
LTYPE
  5
3C
330
2
100
AcDbSymbolTableRecord
100
AcDbLinetypeTableRecord
  2
DOTX2
 70
0
  3
Dot (2x) .    .    .    .    .    .    .    . 
 72
65
 73
2
 40
1.016
 49
0.0
 74
0
 49
-1.016
 74
0
  0
LTYPE
  5
3D
330
2
100
AcDbSymbolTableRecord
100
AcDbLinetypeTableRecord
  2
DOT2
 70
0
  3
Dot (.5) . . . . . . . . . . . . . . . . . . . 
 72
65
 73
2
 40
0.254
 49
0.0
 74
0
 49
-0.254
 74
0
  0
LTYPE
  5
3E
330
2
100
AcDbSymbolTableRecord
100
AcDbLinetypeTableRecord
  2
DIVIDE
 70
0
  3
Divide __ . . __ . . __ . . __ . . __ . . __
 72
65
 73
6
 40
4.064
 49
2.54
 74
0
 49
-0.508
 74
0
 49
0.0
 74
0
 49
-0.508
 74
0
 49
0.0
 74
0
 49
-0.508
 74
0
  0
LTYPE
  5
3F
330
2
100
AcDbSymbolTableRecord
100
AcDbLinetypeTableRecord
  2
DIVIDEX2
 70
0
  3
Divide (2x) ____  . .  ____  . .  ____  . .  ____
 72
65
 73
6
 40
6.604
 49
5.08
 74
0
 49
-0.508
 74
0
 49
0.0
 74
0
 49
-0.508
 74
0
 49
0.0
 74
0
 49
-0.508
 74
0
  0
LTYPE
  5
40
330
2
100
AcDbSymbolTableRecord
100
AcDbLinetypeTableRecord
  2
DIVIDE2
 70
0
  3
Divide(.5x) _ . _ . _ . _ . _ . _ . _ . _
 72
65
 73
6
 40
2.032
 49
1.27
 74
0
 49
-0.254
 74
0
 49
0.0
 74
0
 49
-0.254
 74
0
 49
0.0
 74
0
 49
-0.254
 74
0
  0
ENDTAB
  0
TABLE
  2
LAYER
  5
1
330
0
100
AcDbSymbolTable
 70
11
  0
LAYER
  5
27
330
1
100
AcDbSymbolTableRecord
100
AcDbLayerTableRecord
  2
0
 70
0
 62
7
  6
Continuous
370
-3
390
13
347
21
  0
LAYER
  5
28
330
1
100
AcDbSymbolTableRecord
100
AcDbLayerTableRecord
  2
Defpoints
 70
0
 62
7
  6
Continuous
290
0
370
-3
390
13
347
21
  0
LAYER
  5
8A
330
1
100
AcDbSymbolTableRecord
100
AcDbLayerTableRecord
  2
CUT_OUTSIDE
 70
0
 62
1
  6
Continuous
370
-3
390
13
347
21
1001
AcAecLayerStandard
1000

1000
Profile cut, OUTSIDE the line, through 18 mm (add tabs)
  0
LAYER
  5
8C
330
1
100
AcDbSymbolTableRecord
100
AcDbLayerTableRecord
  2
CUT_INSIDE
 70
0
 62
5
  6
Continuous
370
-3
390
13
347
21
1001
AcAecLayerStandard
1000

1000
Profile cut, INSIDE the line, through 18 mm (windows, holes, slots, letters)
  0
LAYER
  5
8D
330
1
100
AcDbSymbolTableRecord
100
AcDbLayerTableRecord
  2
CUT_DOOR
 70
0
 62
6
  6
Continuous
370
-3
390
13
347
21
1001
AcAecLayerStandard
1000

1000
Door openings: cut ON the line, through — the loose piece becomes the door
  0
LAYER
  5
8E
330
1
100
AcDbSymbolTableRecord
100
AcDbLayerTableRecord
  2
DRILL_7
 70
0
 62
3
  6
Continuous
370
-3
390
13
347
21
1001
AcAecLayerStandard
1000

1000
Drill 7 mm through (confirmat screw shank holes)
  0
LAYER
  5
8F
330
1
100
AcDbSymbolTableRecord
100
AcDbLayerTableRecord
  2
DRILL_10
 70
0
 62
4
  6
Continuous
370
-3
390
13
347
21
1001
AcAecLayerStandard
1000

1000
Drill 10 mm through (M8 T-nuts / bolts / levelling feet)
  0
LAYER
  5
90
330
1
100
AcDbSymbolTableRecord
100
AcDbLayerTableRecord
  2
POCKET_8
 70
0
 62
30
  6
Continuous
370
-3
390
13
347
21
1001
AcAecLayerStandard
1000

1000
Pocket 8 mm deep (LED strip channels)
  0
LAYER
  5
91
330
1
100
AcDbSymbolTableRecord
100
AcDbLayerTableRecord
  2
ENGRAVE_V
 70
0
 62
2
  6
Continuous
370
-3
390
13
347
21
1001
AcAecLayerStandard
1000

1000
V-bit engrave 3 mm deep, 60/90 deg (decoration, text)
  0
LAYER
  5
92
330
1
100
AcDbSymbolTableRecord
100
AcDbLayerTableRecord
  2
SHEET
 70
0
 62
8
  6
Continuous
370
-3
390
13
347
21
1001
AcAecLayerStandard
1000

1000
Sheet outline 1220 x 2440 — do not cut
  0
LAYER
  5
93
330
1
100
AcDbSymbolTableRecord
100
AcDbLayerTableRecord
  2
LABELS
 70
0
 62
7
  6
Continuous
370
-3
390
13
347
21
1001
AcAecLayerStandard
1000

1000
Part names — do not cut
  0
ENDTAB
  0
TABLE
  2
STYLE
  5
5
330
0
100
AcDbSymbolTable
 70
26
  0
STYLE
  5
29
330
5
100
AcDbSymbolTableRecord
100
AcDbTextStyleTableRecord
  2
Standard
 70
0
 40
0.0
 41
1.0
 50
0.0
 71
0
 42
2.5
  3
txt
  4

  0
STYLE
  5
41
330
5
100
AcDbSymbolTableRecord
100
AcDbTextStyleTableRecord
  2
OpenSans-Light
 70
0
 40
0.0
 41
1.0
 50
0.0
 71
0
 42
2.5
  3
OpenSans-Light.ttf
  4

  0
STYLE
  5
42
330
5
100
AcDbSymbolTableRecord
100
AcDbTextStyleTableRecord
  2
OpenSans-Light-Italic
 70
0
 40
0.0
 41
1.0
 50
0.0
 71
0
 42
2.5
  3
OpenSans-LightItalic.ttf
  4

  0
STYLE
  5
43
330
5
100
AcDbSymbolTableRecord
100
AcDbTextStyleTableRecord
  2
OpenSans
 70
0
 40
0.0
 41
1.0
 50
0.0
 71
0
 42
2.5
  3
OpenSans-Regular.ttf
  4

  0
STYLE
  5
44
330
5
100
AcDbSymbolTableRecord
100
AcDbTextStyleTableRecord
  2
OpenSans-Italic
 70
0
 40
0.0
 41
1.0
 50
0.0
 71
0
 42
2.5
  3
OpenSans-Italic.ttf
  4

  0
STYLE
  5
45
330
5
100
AcDbSymbolTableRecord
100
AcDbTextStyleTableRecord
  2
OpenSans-SemiBold
 70
0
 40
0.0
 41
1.0
 50
0.0
 71
0
 42
2.5
  3
OpenSans-SemiBold.ttf
  4

  0
STYLE
  5
46
330
5
100
AcDbSymbolTableRecord
100
AcDbTextStyleTableRecord
  2
OpenSans-SemiBoldItalic
 70
0
 40
0.0
 41
1.0
 50
0.0
 71
0
 42
2.5
  3
OpenSans-SemiBoldItalic.ttf
  4

  0
STYLE
  5
47
330
5
100
AcDbSymbolTableRecord
100
AcDbTextStyleTableRecord
  2
OpenSans-Bold
 70
0
 40
0.0
 41
1.0
 50
0.0
 71
0
 42
2.5
  3
OpenSans-Bold.ttf
  4

  0
STYLE
  5
48
330
5
100
AcDbSymbolTableRecord
100
AcDbTextStyleTableRecord
  2
OpenSans-BoldItalic
 70
0
 40
0.0
 41
1.0
 50
0.0
 71
0
 42
2.5
  3
OpenSans-BoldItalic.ttf
  4

  0
STYLE
  5
49
330
5
100
AcDbSymbolTableRecord
100
AcDbTextStyleTableRecord
  2
OpenSans-ExtraBold
 70
0
 40
0.0
 41
1.0
 50
0.0
 71
0
 42
2.5
  3
OpenSans-ExtraBold.ttf
  4

  0
STYLE
  5
4A
330
5
100
AcDbSymbolTableRecord
100
AcDbTextStyleTableRecord
  2
OpenSans-ExtraBoldItalic
 70
0
 40
0.0
 41
1.0
 50
0.0
 71
0
 42
2.5
  3
OpenSans-ExtraBoldItalic.ttf
  4

  0
STYLE
  5
4B
330
5
100
AcDbSymbolTableRecord
100
AcDbTextStyleTableRecord
  2
OpenSansCondensed-Bold
 70
0
 40
0.0
 41
1.0
 50
0.0
 71
0
 42
2.5
  3
OpenSansCondensed-Bold.ttf
  4

  0
STYLE
  5
4C
330
5
100
AcDbSymbolTableRecord
100
AcDbTextStyleTableRecord
  2
OpenSansCondensed-Light
 70
0
 40
0.0
 41
1.0
 50
0.0
 71
0
 42
2.5
  3
OpenSansCondensed-Light.ttf
  4

  0
STYLE
  5
4D
330
5
100
AcDbSymbolTableRecord
100
AcDbTextStyleTableRecord
  2
OpenSansCondensed-Italic
 70
0
 40
0.0
 41
1.0
 50
0.0
 71
0
 42
2.5
  3
OpenSansCondensed-LightItalic.ttf
  4

  0
STYLE
  5
4E
330
5
100
AcDbSymbolTableRecord
100
AcDbTextStyleTableRecord
  2
LiberationSans
 70
0
 40
0.0
 41
1.0
 50
0.0
 71
0
 42
2.5
  3
LiberationSans-Regular.ttf
  4

  0
STYLE
  5
4F
330
5
100
AcDbSymbolTableRecord
100
AcDbTextStyleTableRecord
  2
LiberationSans-Bold
 70
0
 40
0.0
 41
1.0
 50
0.0
 71
0
 42
2.5
  3
LiberationSans-Bold.ttf
  4

  0
STYLE
  5
50
330
5
100
AcDbSymbolTableRecord
100
AcDbTextStyleTableRecord
  2
LiberationSans-BoldItalic
 70
0
 40
0.0
 41
1.0
 50
0.0
 71
0
 42
2.5
  3
LiberationSans-BoldItalic.ttf
  4

  0
STYLE
  5
51
330
5
100
AcDbSymbolTableRecord
100
AcDbTextStyleTableRecord
  2
LiberationSans-Italic
 70
0
 40
0.0
 41
1.0
 50
0.0
 71
0
 42
2.5
  3
LiberationSans-Italic.ttf
  4

  0
STYLE
  5
52
330
5
100
AcDbSymbolTableRecord
100
AcDbTextStyleTableRecord
  2
LiberationSerif
 70
0
 40
0.0
 41
1.0
 50
0.0
 71
0
 42
2.5
  3
LiberationSerif-Regular.ttf
  4

  0
STYLE
  5
53
330
5
100
AcDbSymbolTableRecord
100
AcDbTextStyleTableRecord
  2
LiberationSerif-Bold
 70
0
 40
0.0
 41
1.0
 50
0.0
 71
0
 42
2.5
  3
LiberationSerif-Bold.ttf
  4

  0
STYLE
  5
54
330
5
100
AcDbSymbolTableRecord
100
AcDbTextStyleTableRecord
  2
LiberationSerif-BoldItalic
 70
0
 40
0.0
 41
1.0
 50
0.0
 71
0
 42
2.5
  3
LiberationSerif-BoldItalic.ttf
  4

  0
STYLE
  5
55
330
5
100
AcDbSymbolTableRecord
100
AcDbTextStyleTableRecord
  2
LiberationSerif-Italic
 70
0
 40
0.0
 41
1.0
 50
0.0
 71
0
 42
2.5
  3
LiberationSerif-Italic.ttf
  4

  0
STYLE
  5
56
330
5
100
AcDbSymbolTableRecord
100
AcDbTextStyleTableRecord
  2
LiberationMono
 70
0
 40
0.0
 41
1.0
 50
0.0
 71
0
 42
2.5
  3
LiberationMono-Regular.ttf
  4

  0
STYLE
  5
57
330
5
100
AcDbSymbolTableRecord
100
AcDbTextStyleTableRecord
  2
LiberationMono-Bold
 70
0
 40
0.0
 41
1.0
 50
0.0
 71
0
 42
2.5
  3
LiberationMono-Bold.ttf
  4

  0
STYLE
  5
58
330
5
100
AcDbSymbolTableRecord
100
AcDbTextStyleTableRecord
  2
LiberationMono-BoldItalic
 70
0
 40
0.0
 41
1.0
 50
0.0
 71
0
 42
2.5
  3
LiberationMono-BoldItalic.ttf
  4

  0
STYLE
  5
59
330
5
100
AcDbSymbolTableRecord
100
AcDbTextStyleTableRecord
  2
LiberationMono-Italic
 70
0
 40
0.0
 41
1.0
 50
0.0
 71
0
 42
2.5
  3
LiberationMono-Italic.ttf
  4

  0
ENDTAB
  0
TABLE
  2
VIEW
  5
7
330
0
100
AcDbSymbolTable
 70
0
  0
ENDTAB
  0
TABLE
  2
UCS
  5
6
330
0
100
AcDbSymbolTable
 70
0
  0
ENDTAB
  0
TABLE
  2
APPID
  5
3
330
0
100
AcDbSymbolTable
 70
4
  0
APPID
  5
2A
330
3
100
AcDbSymbolTableRecord
100
AcDbRegAppTableRecord
  2
ACAD
 70
0
  0
APPID
  5
8B
330
3
100
AcDbSymbolTableRecord
100
AcDbRegAppTableRecord
  2
AcAecLayerStandard
 70
0
  0
APPID
  5
BB
330
3
100
AcDbSymbolTableRecord
100
AcDbRegAppTableRecord
  2
HATCHBACKGROUNDCOLOR
 70
0
  0
APPID
  5
BC
330
3
100
AcDbSymbolTableRecord
100
AcDbRegAppTableRecord
  2
EZDXF
 70
0
  0
ENDTAB
  0
TABLE
  2
DIMSTYLE
  5
4
330
0
100
AcDbSymbolTable
 70
12
100
AcDbDimStyleTable
  0
DIMSTYLE
105
2B
330
4
100
AcDbSymbolTableRecord
100
AcDbDimStyleTableRecord
  2
Standard
 70
0
 40
1.0
 41
2.5
 42
0.625
 43
3.75
 44
1.25
 45
0.0
 46
0.0
 47
0.0
 48
0.0
 49
2.5
140
2.5
141
2.5
142
0.0
143
0.03937007874
144
1.0
145
0.0
146
1.0
147
0.625
148
0.0
 69
0
 70
0
 71
0
 72
0
 73
0
 74
0
 75
0
 76
0
 77
1
 78
8
 79
3
170
0
171
3
172
1
173
0
174
0
175
0
176
0
177
0
178
0
179
2
271
2
272
2
273
2
274
3
275
0
276
0
277
2
278
44
279
0
280
0
281
0
282
0
283
0
284
8
285
0
286
0
288
0
289
3
290
0
371
-2
372
-2
  0
DIMSTYLE
105
73
330
4
100
AcDbSymbolTableRecord
100
AcDbDimStyleTableRecord
  2
EZDXF
 70
0
 40
1.0
 41
0.175
 42
0.125
 43
3.75
 44
0.375
 45
0.0
 46
0.0
 47
0.0
 48
0.0
 49
2.5
140
0.25
141
2.5
142
0.0
143
0.03937007874
144
100.0
145
0.0
146
0.5
147
0.1
148
0.0
 69
0
 70
0
 71
0
 72
0
 73
0
 74
0
 75
0
 76
0
 77
1
 78
12
 79
3
170
0
171
3
172
1
173
0
174
0
175
0
176
0
177
0
178
0
179
2
271
2
272
2
273
2
274
3
275
0
276
0
277
2
278
46
279
2
280
0
281
0
282
0
283
0
284
8
285
0
286
0
288
1
289
3
290
0
340
4C
342
74
371
-2
372
-2
  0
DIMSTYLE
105
7C
330
4
100
AcDbSymbolTableRecord
100
AcDbDimStyleTableRecord
  2
EZ_M_100_H25_CM
 70
0
 40
1.0
 41
0.25
 42
0.125
 43
3.75
 44
0.375
 45
0.0
 46
0.0
 47
0.0
 48
0.0
 49
2.5
140
0.25
141
2.5
142
0.125
143
0.03937007874
144
100.0
145
0.0
146
0.5
147
0.1
148
0.0
 69
0
 70
0
 71
0
 72
0
 73
0
 74
0
 75
0
 76
0
 77
1
 78
12
 79
3
170
0
171
3
172
1
173
0
174
0
175
0
176
0
177
0
178
0
179
2
271
2
272
2
273
2
274
3
275
0
276
0
277
2
278
46
279
2
280
0
281
0
282
0
283
0
284
8
285
0
286
0
288
1
289
3
290
0
340
4C
371
-2
372
-2
  0
DIMSTYLE
105
7D
330
4
100
AcDbSymbolTableRecord
100
AcDbDimStyleTableRecord
  2
EZ_M_50_H25_CM
 70
0
 40
1.0
 41
0.125
 42
0.0625
 43
3.75
 44
0.1875
 45
0.0
 46
0.0
 47
0.0
 48
0.0
 49
2.5
140
0.125
141
2.5
142
0.0625
143
0.03937007874
144
100.0
145
0.0
146
0.5
147
0.05
148
0.0
 69
0
 70
0
 71
0
 72
0
 73
0
 74
0
 75
0
 76
0
 77
1
 78
12
 79
3
170
0
171
3
172
1
173
0
174
0
175
0
176
0
177
0
178
0
179
2
271
2
272
2
273
2
274
3
275
0
276
0
277
2
278
46
279
2
280
0
281
0
282
0
283
0
284
8
285
0
286
0
288
1
289
3
290
0
340
4C
371
-2
372
-2
  0
DIMSTYLE
105
7E
330
4
100
AcDbSymbolTableRecord
100
AcDbDimStyleTableRecord
  2
EZ_M_25_H25_CM
 70
0
 40
1.0
 41
0.0625
 42
0.03125
 43
3.75
 44
0.09375
 45
0.0
 46
0.0
 47
0.0
 48
0.0
 49
2.5
140
0.0625
141
2.5
142
0.03125
143
0.03937007874
144
100.0
145
0.0
146
0.5
147
0.025
148
0.0
 69
0
 70
0
 71
0
 72
0
 73
0
 74
0
 75
0
 76
0
 77
1
 78
12
 79
3
170
0
171
3
172
1
173
0
174
0
175
0
176
0
177
0
178
0
179
2
271
2
272
2
273
2
274
3
275
0
276
0
277
2
278
46
279
2
280
0
281
0
282
0
283
0
284
8
285
0
286
0
288
1
289
3
290
0
340
4C
371
-2
372
-2
  0
DIMSTYLE
105
7F
330
4
100
AcDbSymbolTableRecord
100
AcDbDimStyleTableRecord
  2
EZ_M_20_H25_CM
 70
0
 40
1.0
 41
0.05
 42
0.025
 43
3.75
 44
0.07500000000000001
 45
0.0
 46
0.0
 47
0.0
 48
0.0
 49
2.5
140
0.05
141
2.5
142
0.025
143
0.03937007874
144
100.0
145
0.0
146
0.5
147
0.020000000000000004
148
0.0
 69
0
 70
0
 71
0
 72
0
 73
0
 74
0
 75
0
 76
0
 77
1
 78
12
 79
3
170
0
171
3
172
1
173
0
174
0
175
0
176
0
177
0
178
0
179
2
271
2
272
2
273
2
274
3
275
0
276
0
277
2
278
46
279
2
280
0
281
0
282
0
283
0
284
8
285
0
286
0
288
1
289
3
290
0
340
4C
371
-2
372
-2
  0
DIMSTYLE
105
80
330
4
100
AcDbSymbolTableRecord
100
AcDbDimStyleTableRecord
  2
EZ_M_10_H25_CM
 70
0
 40
1.0
 41
0.025
 42
0.0125
 43
3.75
 44
0.037500000000000006
 45
0.0
 46
0.0
 47
0.0
 48
0.0
 49
2.5
140
0.025
141
2.5
142
0.0125
143
0.03937007874
144
100.0
145
0.0
146
0.5
147
0.010000000000000002
148
0.0
 69
0
 70
0
 71
0
 72
0
 73
0
 74
0
 75
0
 76
0
 77
1
 78
12
 79
3
170
0
171
3
172
1
173
0
174
0
175
0
176
0
177
0
178
0
179
2
271
2
272
2
273
2
274
3
275
0
276
0
277
2
278
46
279
2
280
0
281
0
282
0
283
0
284
8
285
0
286
0
288
1
289
3
290
0
340
4C
371
-2
372
-2
  0
DIMSTYLE
105
81
330
4
100
AcDbSymbolTableRecord
100
AcDbDimStyleTableRecord
  2
EZ_M_5_H25_CM
 70
0
 40
1.0
 41
0.0125
 42
0.00625
 43
3.75
 44
0.018750000000000003
 45
0.0
 46
0.0
 47
0.0
 48
0.0
 49
2.5
140
0.0125
141
2.5
142
0.00625
143
0.03937007874
144
100.0
145
0.0
146
0.5
147
0.005000000000000001
148
0.0
 69
0
 70
0
 71
0
 72
0
 73
0
 74
0
 75
0
 76
0
 77
1
 78
12
 79
3
170
0
171
3
172
1
173
0
174
0
175
0
176
0
177
0
178
0
179
2
271
2
272
2
273
2
274
3
275
0
276
0
277
2
278
46
279
2
280
0
281
0
282
0
283
0
284
8
285
0
286
0
288
1
289
3
290
0
340
4C
371
-2
372
-2
  0
DIMSTYLE
105
82
330
4
100
AcDbSymbolTableRecord
100
AcDbDimStyleTableRecord
  2
EZ_M_1_H25_CM
 70
0
 40
1.0
 41
0.0025
 42
0.00125
 43
3.75
 44
0.00375
 45
0.0
 46
0.0
 47
0.0
 48
0.0
 49
2.5
140
0.0025
141
2.5
142
0.00125
143
0.03937007874
144
100.0
145
0.0
146
0.5
147
0.001
148
0.0
 69
0
 70
0
 71
0
 72
0
 73
0
 74
0
 75
0
 76
0
 77
1
 78
12
 79
3
170
0
171
3
172
1
173
0
174
0
175
0
176
0
177
0
178
0
179
2
271
2
272
2
273
2
274
3
275
0
276
0
277
2
278
46
279
2
280
0
281
0
282
0
283
0
284
8
285
0
286
0
288
1
289
3
290
0
340
4C
371
-2
372
-2
  0
DIMSTYLE
105
83
330
4
100
AcDbSymbolTableRecord
100
AcDbDimStyleTableRecord
  2
EZ_RADIUS
 70
0
 40
1.0
 41
0.25
 42
0.125
 43
3.75
 44
0.375
 45
0.0
 46
0.0
 47
0.0
 48
0.0
 49
2.5
140
0.25
141
0.0
142
0.0
143
0.03937007874
144
100.0
145
0.0
146
0.5
147
0.1
148
0.0
 69
0
 70
0
 71
0
 72
0
 73
0
 74
0
 75
0
 76
0
 77
1
 78
12
 79
3
170
0
171
3
172
0
173
0
174
0
175
0
176
0
177
0
178
0
179
2
271
2
272
2
273
2
274
3
275
0
276
0
277
2
278
46
279
1
280
0
281
0
282
0
283
0
284
8
285
0
286
0
288
1
289
3
290
0
340
4C
342
84
371
-2
372
-2
  0
DIMSTYLE
105
88
330
4
100
AcDbSymbolTableRecord
100
AcDbDimStyleTableRecord
  2
EZ_RADIUS_INSIDE
 70
0
 40
1.0
 41
0.25
 42
0.125
 43
3.75
 44
0.375
 45
0.0
 46
0.0
 47
0.0
 48
0.0
 49
2.5
140
0.25
141
0.0
142
0.0
143
0.03937007874
144
100.0
145
0.0
146
0.5
147
0.1
148
0.0
 69
0
 70
0
 71
0
 72
0
 73
0
 74
0
 75
0
 76
0
 77
0
 78
12
 79
3
170
0
171
3
172
0
173
0
174
1
175
0
176
0
177
0
178
0
179
2
271
2
272
2
273
2
274
3
275
0
276
0
277
2
278
46
279
0
280
0
281
0
282
0
283
0
284
8
285
0
286
0
288
1
289
0
290
0
340
4C
342
84
371
-2
372
-2
  0
DIMSTYLE
105
89
330
4
100
AcDbSymbolTableRecord
100
AcDbDimStyleTableRecord
  2
EZ_CURVED
 70
0
 40
1.0
 41
0.25
 42
0.125
 43
3.75
 44
0.375
 45
0.0
 46
0.0
 47
0.0
 48
0.0
 49
2.5
140
0.25
141
2.5
142
0.0
143
0.03937007874
144
100.0
145
0.0
146
0.5
147
0.1
148
0.0
 69
0
 70
0
 71
0
 72
0
 73
0
 74
0
 75
0
 76
0
 77
1
 78
12
 79
2
 90
2
170
0
171
3
172
1
173
0
174
0
175
0
176
0
177
0
178
0
179
2
271
2
272
2
273
2
274
3
275
0
276
0
277
2
278
46
279
2
280
0
281
0
282
0
283
0
284
8
285
0
286
0
288
1
289
3
290
0
340
4C
371
-2
372
-2
  0
ENDTAB
  0
TABLE
  2
BLOCK_RECORD
  5
9
330
0
100
AcDbSymbolTable
 70
5
  0
BLOCK_RECORD
  5
17
330
9
100
AcDbSymbolTableRecord
100
AcDbBlockTableRecord
  2
*Model_Space
340
1A
 70
0
280
1
281
0
  0
BLOCK_RECORD
  5
1B
330
9
100
AcDbSymbolTableRecord
100
AcDbBlockTableRecord
  2
*Paper_Space
340
1E
 70
0
280
1
281
0
  0
BLOCK_RECORD
  5
74
330
9
100
AcDbSymbolTableRecord
100
AcDbBlockTableRecord
  2
_ARCHTICK
340
0
 70
0
280
1
281
0
  0
BLOCK_RECORD
  5
78
330
9
100
AcDbSymbolTableRecord
100
AcDbBlockTableRecord
  2
_CLOSEDFILLED
340
0
 70
0
280
1
281
0
  0
BLOCK_RECORD
  5
84
330
9
100
AcDbSymbolTableRecord
100
AcDbBlockTableRecord
  2
_CLOSEDBLANK
340
0
 70
0
280
1
281
0
  0
ENDTAB
  0
ENDSEC
  0
SECTION
  2
BLOCKS
  0
BLOCK
  5
18
330
17
100
AcDbEntity
  8
0
100
AcDbBlockBegin
  2
*Model_Space
 70
0
 10
0.0
 20
0.0
 30
0.0
  3
*Model_Space
  1

  0
ENDBLK
  5
19
330
17
100
AcDbEntity
  8
0
100
AcDbBlockEnd
  0
BLOCK
  5
1C
330
1B
100
AcDbEntity
  8
0
100
AcDbBlockBegin
  2
*Paper_Space
 70
0
 10
0.0
 20
0.0
 30
0.0
  3
*Paper_Space
  1

  0
ENDBLK
  5
1D
330
1B
100
AcDbEntity
  8
0
100
AcDbBlockEnd
  0
BLOCK
  5
75
330
74
100
AcDbEntity
  8
0
100
AcDbBlockBegin
  2
_ARCHTICK
 70
0
 10
0.0
 20
0.0
 30
0.0
  3
_ARCHTICK
  1

  0
LWPOLYLINE
  5
77
330
74
100
AcDbEntity
  8
0
  6
BYBLOCK
 62
0
100
AcDbPolyline
 90
2
 70
0
 43
0.15
 10
-0.5
 20
-0.5
 10
0.5
 20
0.5
  0
ENDBLK
  5
76
330
74
100
AcDbEntity
  8
0
100
AcDbBlockEnd
  0
BLOCK
  5
79
330
78
100
AcDbEntity
  8
0
100
AcDbBlockBegin
  2
_CLOSEDFILLED
 70
0
 10
0.0
 20
0.0
 30
0.0
  3
_CLOSEDFILLED
  1

  0
SOLID
  5
7B
330
78
100
AcDbEntity
  8
0
  6
BYBLOCK
 62
0
100
AcDbTrace
 10
-1.0
 20
0.16439898372402537
 30
0.0
 11
0.0
 21
0.0
 31
0.0
 12
-1.0
 22
-0.16439898372402537
 32
0.0
 13
-1.0
 23
-0.16439898372402537
 33
0.0
  0
ENDBLK
  5
7A
330
78
100
AcDbEntity
  8
0
100
AcDbBlockEnd
  0
BLOCK
  5
85
330
84
100
AcDbEntity
  8
0
100
AcDbBlockBegin
  2
_CLOSEDBLANK
 70
0
 10
0.0
 20
0.0
 30
0.0
  3
_CLOSEDBLANK
  1

  0
LWPOLYLINE
  5
87
330
84
100
AcDbEntity
  8
0
  6
BYBLOCK
 62
0
100
AcDbPolyline
 90
3
 70
1
 10
-1.0
 20
0.16439898372402537
 10
0.0
 20
0.0
 10
-1.0
 20
-0.16439898372402537
  0
ENDBLK
  5
86
330
84
100
AcDbEntity
  8
0
100
AcDbBlockEnd
  0
ENDSEC
  0
SECTION
  2
ENTITIES
  0
LWPOLYLINE
  5
94
330
17
100
AcDbEntity
  8
SHEET
100
AcDbPolyline
 90
4
 70
1
 10
0.0
 20
0.0
 10
350.0
 20
0.0
 10
350.0
 20
1160.0
 10
0.0
 20
1160.0
  0
LWPOLYLINE
  5
95
330
17
100
AcDbEntity
  8
CUT_OUTSIDE
100
AcDbPolyline
 90
4
 70
1
 10
342.0
 20
572.0
 10
8.0
 20
572.0
 10
8.0
 20
8.0
 10
342.0
 20
8.0
  0
LWPOLYLINE
  5
96
330
17
100
AcDbEntity
  8
CUT_INSIDE
100
AcDbPolyline
 90
193
 70
1
 10
322.0
 20
81.0
 10
321.995
 20
80.902
 10
321.981
 20
80.805
 10
321.957
 20
80.71
 10
321.924
 20
80.617
 10
321.882
 20
80.529
 10
321.831
 20
80.444
 10
321.773
 20
80.366
 10
321.707
 20
80.293
 10
321.634
 20
80.227
 10
321.556
 20
80.169
 10
321.471
 20
80.118
 10
321.383
 20
80.076
 10
321.29
 20
80.043
 10
321.195
 20
80.019
 10
321.098
 20
80.005
 10
321.0
 20
80.0
 10
172.036
 20
80.0
 10
171.964
 20
80.003
 10
168.782
 20
80.232
 10
168.709
 20
80.24
 10
168.636
 20
80.254
 10
165.65
 20
80.922
 10
165.578
 20
80.941
 10
165.508
 20
80.965
 10
162.666
 20
82.061
 10
162.539
 20
82.121
 10
159.826
 20
83.635
 10
159.718
 20
83.704
 10
157.124
 20
85.626
 10
157.036
 20
85.699
 10
154.554
 20
88.019
 10
154.485
 20
88.09
 10
152.108
 20
90.796
 10
152.056
 20
90.861
 10
149.781
 20
93.939
 10
149.741
 20
93.998
 10
147.564
 20
97.432
 10
147.534
 20
97.485
 10
145.45
 20
101.259
 10
145.426
 20
101.304
 10
143.43
 20
105.402
 10
143.412
 20
105.441
 10
141.497
 20
109.845
 10
141.483
 20
109.879
 10
139.644
 20
114.572
 10
139.633
 20
114.601
 10
137.862
 20
119.567
 10
137.853
 20
119.592
 10
136.144
 20
124.814
 10
136.137
 20
124.835
 10
134.483
 20
130.295
 10
134.477
 20
130.313
 10
132.87
 20
135.995
 10
132.866
 20
136.01
 10
131.299
 20
141.898
 10
131.296
 20
141.91
 10
129.762
 20
147.987
 10
129.759
 20
147.997
 10
128.251
 20
154.246
 10
128.249
 20
154.254
 10
126.759
 20
160.659
 10
126.757
 20
160.665
 10
125.278
 20
167.209
 10
125.277
 20
167.213
 10
123.801
 20
173.88
 10
123.8
 20
173.882
 10
122.32
 20
180.655
 10
122.32
 20
180.657
 10
120.828
 20
187.519
 10
119.318
 20
194.454
 10
117.781
 20
201.445
 10
116.211
 20
208.476
 10
114.599
 20
215.529
 10
112.938
 20
222.59
 10
111.222
 20
229.641
 10
109.441
 20
236.669
 10
109.439
 20
236.675
 10
107.589
 20
243.653
 10
107.587
 20
243.659
 10
105.658
 20
250.579
 10
105.656
 20
250.586
 10
103.642
 20
257.43
 10
103.639
 20
257.437
 10
101.531
 20
264.19
 10
101.529
 20
264.198
 10
99.32
 20
270.842
 10
99.316
 20
270.852
 10
96.999
 20
277.371
 10
96.995
 20
277.382
 10
94.563
 20
283.761
 10
94.558
 20
283.772
 10
92.156
 20
289.62
 10
92.124
 20
289.712
 10
92.1
 20
289.806
 10
92.086
 20
289.903
 10
92.081
 20
290.0
 10
92.086
 20
290.097
 10
92.1
 20
290.194
 10
92.124
 20
290.288
 10
92.156
 20
290.38
 10
94.558
 20
296.228
 10
94.563
 20
296.239
 10
96.995
 20
302.618
 10
96.999
 20
302.629
 10
99.316
 20
309.148
 10
99.32
 20
309.158
 10
101.529
 20
315.802
 10
101.531
 20
315.81
 10
103.639
 20
322.563
 10
103.642
 20
322.57
 10
105.656
 20
329.414
 10
105.658
 20
329.421
 10
107.587
 20
336.341
 10
107.589
 20
336.347
 10
109.439
 20
343.325
 10
109.441
 20
343.331
 10
111.219
 20
350.35
 10
112.937
 20
357.402
 10
114.597
 20
364.465
 10
116.209
 20
371.52
 10
117.78
 20
378.552
 10
119.317
 20
385.544
 10
120.828
 20
392.48
 10
122.32
 20
399.343
 10
122.32
 20
399.345
 10
123.8
 20
406.118
 10
123.801
 20
406.12
 10
125.277
 20
412.787
 10
125.278
 20
412.791
 10
126.757
 20
419.335
 10
126.759
 20
419.341
 10
128.249
 20
425.746
 10
128.251
 20
425.754
 10
129.759
 20
432.003
 10
129.762
 20
432.013
 10
131.296
 20
438.09
 10
131.299
 20
438.102
 10
132.866
 20
443.99
 10
132.87
 20
444.005
 10
134.477
 20
449.687
 10
134.483
 20
449.705
 10
136.137
 20
455.165
 10
136.144
 20
455.186
 10
137.853
 20
460.408
 10
137.862
 20
460.433
 10
139.633
 20
465.399
 10
139.644
 20
465.428
 10
141.483
 20
470.121
 10
141.497
 20
470.155
 10
143.412
 20
474.559
 10
143.43
 20
474.598
 10
145.426
 20
478.696
 10
145.45
 20
478.741
 10
147.534
 20
482.515
 10
147.564
 20
482.568
 10
149.741
 20
486.002
 10
149.781
 20
486.061
 10
152.056
 20
489.139
 10
152.108
 20
489.204
 10
154.485
 20
491.91
 10
154.554
 20
491.981
 10
157.036
 20
494.301
 10
157.124
 20
494.374
 10
159.718
 20
496.296
 10
159.826
 20
496.365
 10
162.539
 20
497.879
 10
162.666
 20
497.939
 10
165.508
 20
499.035
 10
165.578
 20
499.059
 10
165.65
 20
499.078
 10
168.636
 20
499.746
 10
168.709
 20
499.76
 10
168.782
 20
499.768
 10
171.964
 20
499.997
 10
172.036
 20
500.0
 10
321.0
 20
500.0
 10
321.098
 20
499.995
 10
321.195
 20
499.981
 10
321.29
 20
499.957
 10
321.383
 20
499.924
 10
321.471
 20
499.882
 10
321.556
 20
499.831
 10
321.634
 20
499.773
 10
321.707
 20
499.707
 10
321.773
 20
499.634
 10
321.831
 20
499.556
 10
321.882
 20
499.471
 10
321.924
 20
499.383
 10
321.957
 20
499.29
 10
321.981
 20
499.195
 10
321.995
 20
499.098
 10
322.0
 20
499.0
  0
LWPOLYLINE
  5
97
330
17
100
AcDbEntity
  8
CUT_INSIDE
100
AcDbPolyline
 90
201
 70
1
 10
45.34
 20
289.992
 10
45.34
 20
289.992
 10
45.414
 20
290.0
 10
45.34
 20
290.008
 10
45.34
 20
290.008
 10
45.271
 20
290.014
 10
45.153
 20
290.03
 10
44.988
 20
290.058
 10
44.717
 20
290.116
 10
44.546
 20
290.161
 10
44.141
 20
290.286
 10
43.963
 20
290.351
 10
43.458
 20
290.561
 10
43.274
 20
290.649
 10
42.707
 20
290.956
 10
42.517
 20
291.073
 10
41.93
 20
291.482
 10
41.739
 20
291.634
 10
41.17
 20
292.143
 10
40.984
 20
292.334
 10
40.47
 20
292.936
 10
40.299
 20
293.168
 10
39.867
 20
293.853
 10
39.79
 20
293.987
 10
39.723
 20
294.125
 10
39.396
 20
294.88
 10
39.338
 20
295.03
 10
39.292
 20
295.184
 10
39.087
 20
295.996
 10
39.053
 20
296.157
 10
39.032
 20
296.321
 10
38.961
 20
297.175
 10
38.954
 20
297.34
 10
38.96
 20
297.505
 10
39.032
 20
298.384
 10
39.052
 20
298.546
 10
39.085
 20
298.706
 10
39.305
 20
299.587
 10
39.35
 20
299.741
 10
39.407
 20
299.89
 10
39.773
 20
300.745
 10
39.841
 20
300.888
 10
39.92
 20
301.025
 10
40.423
 20
301.822
 10
40.512
 20
301.952
 10
40.612
 20
302.075
 10
41.233
 20
302.783
 10
41.344
 20
302.899
 10
41.463
 20
303.006
 10
42.18
 20
303.597
 10
42.311
 20
303.697
 10
42.45
 20
303.786
 10
43.236
 20
304.241
 10
43.388
 20
304.32
 10
43.545
 20
304.386
 10
44.377
 20
304.694
 10
44.545
 20
304.747
 10
44.717
 20
304.786
 10
45.581
 20
304.941
 10
45.757
 20
304.965
 10
45.934
 20
304.973
 10
46.826
 20
304.973
 10
46.998
 20
304.965
 10
47.169
 20
304.943
 10
48.092
 20
304.782
 10
48.248
 20
304.749
 10
48.401
 20
304.703
 10
49.359
 20
304.373
 10
49.618
 20
304.263
 10
50.608
 20
303.756
 10
50.812
 20
303.637
 10
51.827
 20
302.956
 10
51.979
 20
302.843
 10
53.008
 20
302.002
 10
53.117
 20
301.906
 10
54.151
 20
300.927
 10
54.225
 20
300.853
 10
55.258
 20
299.767
 10
55.304
 20
299.717
 10
56.332
 20
298.56
 10
56.355
 20
298.534
 10
57.378
 20
297.342
 10
57.381
 20
297.338
 10
58.386
 20
296.16
 10
58.394
 20
296.152
 10
59.367
 20
295.037
 10
59.383
 20
295.019
 10
60.32
 20
293.997
 10
60.344
 20
293.971
 10
61.238
 20
293.063
 10
61.272
 20
293.03
 10
62.113
 20
292.252
 10
62.156
 20
292.214
 10
62.96
 20
291.552
 10
62.959
 20
291.551
 10
63.07
 20
291.456
 10
63.208
 20
291.313
 10
63.332
 20
291.155
 10
63.439
 20
290.987
 10
63.529
 20
290.809
 10
63.6
 20
290.622
 10
63.653
 20
290.43
 10
63.686
 20
290.233
 10
63.699
 20
290.033
 10
63.692
 20
289.834
 10
63.666
 20
289.636
 10
63.62
 20
289.442
 10
63.554
 20
289.253
 10
63.471
 20
289.072
 10
63.369
 20
288.9
 10
63.251
 20
288.739
 10
63.118
 20
288.59
 10
62.97
 20
288.456
 10
62.156
 20
287.786
 10
62.113
 20
287.748
 10
61.272
 20
286.97
 10
61.238
 20
286.937
 10
60.344
 20
286.029
 10
60.32
 20
286.003
 10
59.383
 20
284.981
 10
59.367
 20
284.963
 10
58.394
 20
283.848
 10
58.386
 20
283.84
 10
57.381
 20
282.662
 10
57.378
 20
282.658
 10
56.355
 20
281.466
 10
56.332
 20
281.44
 10
55.304
 20
280.283
 10
55.258
 20
280.233
 10
54.225
 20
279.147
 10
54.151
 20
279.073
 10
53.117
 20
278.094
 10
53.008
 20
277.998
 10
51.979
 20
277.157
 10
51.827
 20
277.044
 10
50.812
 20
276.363
 10
50.608
 20
276.244
 10
49.618
 20
275.737
 10
49.359
 20
275.627
 10
48.401
 20
275.297
 10
48.248
 20
275.251
 10
48.092
 20
275.218
 10
47.169
 20
275.057
 10
46.998
 20
275.035
 10
46.826
 20
275.027
 10
45.934
 20
275.027
 10
45.757
 20
275.035
 10
45.581
 20
275.059
 10
44.717
 20
275.214
 10
44.545
 20
275.253
 10
44.377
 20
275.306
 10
43.545
 20
275.614
 10
43.388
 20
275.68
 10
43.236
 20
275.759
 10
42.45
 20
276.214
 10
42.311
 20
276.303
 10
42.18
 20
276.403
 10
41.463
 20
276.994
 10
41.344
 20
277.101
 10
41.233
 20
277.217
 10
40.612
 20
277.925
 10
40.512
 20
278.048
 10
40.423
 20
278.178
 10
39.92
 20
278.975
 10
39.841
 20
279.112
 10
39.773
 20
279.255
 10
39.407
 20
280.11
 10
39.35
 20
280.259
 10
39.305
 20
280.413
 10
39.085
 20
281.294
 10
39.052
 20
281.454
 10
39.032
 20
281.616
 10
38.96
 20
282.495
 10
38.954
 20
282.66
 10
38.961
 20
282.825
 10
39.032
 20
283.679
 10
39.053
 20
283.843
 10
39.087
 20
284.004
 10
39.292
 20
284.816
 10
39.338
 20
284.97
 10
39.396
 20
285.12
 10
39.723
 20
285.875
 10
39.79
 20
286.013
 10
39.867
 20
286.147
 10
40.299
 20
286.832
 10
40.47
 20
287.064
 10
40.984
 20
287.666
 10
41.17
 20
287.857
 10
41.739
 20
288.366
 10
41.93
 20
288.518
 10
42.517
 20
288.927
 10
42.707
 20
289.044
 10
43.274
 20
289.351
 10
43.458
 20
289.439
 10
43.963
 20
289.649
 10
44.141
 20
289.714
 10
44.546
 20
289.839
 10
44.717
 20
289.884
 10
44.988
 20
289.942
 10
45.153
 20
289.97
 10
45.271
 20
289.986
  0
LWPOLYLINE
  5
98
330
17
100
AcDbEntity
  8
ENGRAVE_V
100
AcDbPolyline
 90
5
 70
1
 10
328.0
 20
558.0
 10
328.0
 20
22.0
 10
22.0
 20
22.0
 10
22.0
 20
558.0
 10
328.0
 20
558.0
  0
LWPOLYLINE
  5
99
330
17
100
AcDbEntity
  8
ENGRAVE_V
100
AcDbPolyline
 90
321
 70
1
 10
334.0
 20
81.0
 10
333.986
 20
80.411
 10
333.981
 20
80.313
 10
333.865
 20
79.141
 10
333.851
 20
79.044
 10
333.621
 20
77.889
 10
333.597
 20
77.794
 10
333.255
 20
76.667
 10
333.222
 20
76.575
 10
332.772
 20
75.487
 10
332.73
 20
75.398
 10
332.175
 20
74.359
 10
332.124
 20
74.275
 10
331.47
 20
73.296
 10
331.412
 20
73.217
 10
330.664
 20
72.307
 10
330.599
 20
72.234
 10
329.766
 20
71.401
 10
329.693
 20
71.336
 10
328.783
 20
70.588
 10
328.704
 20
70.53
 10
327.725
 20
69.876
 10
327.641
 20
69.825
 10
326.602
 20
69.27
 10
326.513
 20
69.228
 10
325.425
 20
68.778
 10
325.333
 20
68.745
 10
324.206
 20
68.403
 10
324.111
 20
68.379
 10
322.956
 20
68.149
 10
322.859
 20
68.135
 10
321.687
 20
68.019
 10
321.589
 20
68.014
 10
321.0
 20
68.0
 10
172.036
 20
68.0
 10
171.604
 20
68.008
 10
171.532
 20
68.01
 10
171.101
 20
68.034
 10
167.919
 20
68.263
 10
167.476
 20
68.303
 10
167.403
 20
68.311
 10
166.522
 20
68.441
 10
166.45
 20
68.454
 10
166.014
 20
68.543
 10
163.028
 20
69.212
 10
162.597
 20
69.317
 10
162.525
 20
69.336
 10
161.676
 20
69.593
 10
161.606
 20
69.617
 10
161.19
 20
69.769
 10
158.348
 20
70.865
 10
157.571
 20
71.197
 10
157.443
 20
71.257
 10
156.692
 20
71.642
 10
153.979
 20
73.155
 10
153.318
 20
73.553
 10
153.21
 20
73.623
 10
152.575
 20
74.062
 10
149.981
 20
75.984
 10
149.444
 20
76.406
 10
149.356
 20
76.479
 10
148.844
 20
76.931
 10
146.361
 20
79.251
 10
145.939
 20
79.666
 10
145.87
 20
79.736
 10
145.469
 20
80.171
 10
143.092
 20
82.877
 10
142.766
 20
83.264
 10
142.714
 20
83.33
 10
142.405
 20
83.73
 10
140.13
 20
86.808
 10
139.881
 20
87.157
 10
139.841
 20
87.216
 10
139.605
 20
87.574
 10
137.428
 20
91.009
 10
137.239
 20
91.318
 10
137.208
 20
91.37
 10
137.028
 20
91.685
 10
134.944
 20
95.459
 10
134.8
 20
95.73
 10
134.776
 20
95.775
 10
134.638
 20
96.049
 10
132.642
 20
100.146
 10
132.531
 20
100.381
 10
132.513
 20
100.42
 10
132.407
 20
100.657
 10
130.492
 20
105.061
 10
130.407
 20
105.263
 10
130.393
 20
105.297
 10
130.311
 20
105.5
 10
128.471
 20
110.194
 10
128.405
 20
110.367
 10
128.394
 20
110.396
 10
128.33
 20
110.571
 10
126.559
 20
115.536
 10
126.507
 20
115.685
 10
126.499
 20
115.71
 10
126.449
 20
115.859
 10
124.74
 20
121.08
 10
124.699
 20
121.207
 10
124.692
 20
121.228
 10
124.653
 20
121.355
 10
122.998
 20
126.815
 10
122.967
 20
126.922
 10
122.961
 20
126.94
 10
122.93
 20
127.047
 10
121.323
 20
132.729
 10
121.298
 20
132.819
 10
121.294
 20
132.834
 10
121.27
 20
132.924
 10
119.703
 20
138.812
 10
119.683
 20
138.886
 10
119.68
 20
138.899
 10
119.661
 20
138.973
 10
118.127
 20
145.05
 10
118.112
 20
145.11
 10
118.109
 20
145.121
 10
118.094
 20
145.181
 10
116.586
 20
151.43
 10
116.575
 20
151.478
 10
116.573
 20
151.486
 10
116.561
 20
151.534
 10
115.071
 20
157.939
 10
115.063
 20
157.976
 10
115.061
 20
157.982
 10
115.053
 20
158.019
 10
113.573
 20
164.562
 10
113.568
 20
164.588
 10
113.567
 20
164.593
 10
113.561
 20
164.619
 10
112.085
 20
171.285
 10
112.081
 20
171.302
 10
112.081
 20
171.304
 10
112.077
 20
171.32
 10
110.597
 20
178.093
 10
110.595
 20
178.101
 10
109.103
 20
184.968
 10
107.595
 20
191.889
 10
106.065
 20
198.849
 10
104.506
 20
205.831
 10
102.909
 20
212.819
 10
101.268
 20
219.797
 10
99.576
 20
226.748
 10
97.825
 20
233.658
 10
96.009
 20
240.504
 10
94.122
 20
247.273
 10
92.158
 20
253.947
 10
90.109
 20
260.508
 10
87.971
 20
266.94
 10
85.738
 20
273.224
 10
83.405
 20
279.342
 10
81.056
 20
285.061
 10
80.847
 20
285.606
 10
80.815
 20
285.698
 10
80.478
 20
286.817
 10
80.454
 20
286.912
 10
80.228
 20
288.059
 10
80.214
 20
288.155
 10
80.1
 20
289.318
 10
80.095
 20
289.416
 10
80.095
 20
290.584
 10
80.1
 20
290.682
 10
80.214
 20
291.845
 10
80.228
 20
291.941
 10
80.454
 20
293.088
 10
80.478
 20
293.183
 10
80.815
 20
294.302
 10
80.847
 20
294.394
 10
81.056
 20
294.94
 10
83.4
 20
300.646
 10
85.734
 20
306.766
 10
87.968
 20
313.051
 10
90.107
 20
319.483
 10
92.156
 20
326.045
 10
94.12
 20
332.72
 10
96.008
 20
339.49
 10
97.823
 20
346.337
 10
99.573
 20
353.243
 10
101.266
 20
360.195
 10
102.907
 20
367.175
 10
104.504
 20
374.164
 10
106.064
 20
381.148
 10
107.595
 20
388.109
 10
109.102
 20
395.032
 10
110.594
 20
401.892
 10
110.595
 20
401.9
 10
112.077
 20
408.68
 10
112.081
 20
408.696
 10
112.081
 20
408.698
 10
112.085
 20
408.715
 10
113.561
 20
415.381
 10
113.567
 20
415.407
 10
113.568
 20
415.412
 10
113.573
 20
415.438
 10
115.053
 20
421.981
 10
115.061
 20
422.018
 10
115.063
 20
422.024
 10
115.071
 20
422.061
 10
116.561
 20
428.466
 10
116.573
 20
428.514
 10
116.575
 20
428.522
 10
116.586
 20
428.57
 10
118.094
 20
434.819
 10
118.109
 20
434.879
 10
118.112
 20
434.89
 10
118.127
 20
434.95
 10
119.661
 20
441.027
 10
119.68
 20
441.101
 10
119.683
 20
441.114
 10
119.703
 20
441.188
 10
121.27
 20
447.076
 10
121.294
 20
447.166
 10
121.298
 20
447.181
 10
121.323
 20
447.271
 10
122.93
 20
452.953
 10
122.961
 20
453.06
 10
122.967
 20
453.078
 10
122.998
 20
453.185
 10
124.653
 20
458.645
 10
124.692
 20
458.772
 10
124.699
 20
458.793
 10
124.74
 20
458.92
 10
126.449
 20
464.141
 10
126.499
 20
464.29
 10
126.507
 20
464.315
 10
126.559
 20
464.464
 10
128.33
 20
469.429
 10
128.394
 20
469.604
 10
128.405
 20
469.633
 10
128.471
 20
469.806
 10
130.311
 20
474.5
 10
130.393
 20
474.703
 10
130.407
 20
474.737
 10
130.492
 20
474.939
 10
132.407
 20
479.343
 10
132.513
 20
479.58
 10
132.531
 20
479.619
 10
132.642
 20
479.854
 10
134.638
 20
483.951
 10
134.776
 20
484.225
 10
134.8
 20
484.27
 10
134.944
 20
484.541
 10
137.028
 20
488.315
 10
137.208
 20
488.63
 10
137.239
 20
488.682
 10
137.428
 20
488.991
 10
139.605
 20
492.426
 10
139.841
 20
492.784
 10
139.881
 20
492.843
 10
140.13
 20
493.192
 10
142.405
 20
496.27
 10
142.714
 20
496.67
 10
142.766
 20
496.736
 10
143.092
 20
497.123
 10
145.469
 20
499.829
 10
145.87
 20
500.264
 10
145.939
 20
500.334
 10
146.361
 20
500.749
 10
148.844
 20
503.069
 10
149.356
 20
503.521
 10
149.444
 20
503.594
 10
149.981
 20
504.016
 10
152.575
 20
505.938
 10
153.21
 20
506.377
 10
153.318
 20
506.447
 10
153.979
 20
506.845
 10
156.692
 20
508.358
 10
157.443
 20
508.743
 10
157.571
 20
508.803
 10
158.348
 20
509.135
 10
161.19
 20
510.231
 10
161.606
 20
510.383
 10
161.676
 20
510.407
 10
162.525
 20
510.664
 10
162.597
 20
510.683
 10
163.028
 20
510.788
 10
166.014
 20
511.457
 10
166.45
 20
511.546
 10
166.522
 20
511.559
 10
167.403
 20
511.689
 10
167.476
 20
511.697
 10
167.919
 20
511.737
 10
171.101
 20
511.966
 10
171.532
 20
511.99
 10
171.604
 20
511.992
 10
172.036
 20
512.0
 10
321.0
 20
512.0
 10
321.589
 20
511.986
 10
321.687
 20
511.981
 10
322.859
 20
511.865
 10
322.956
 20
511.851
 10
324.111
 20
511.621
 10
324.206
 20
511.597
 10
325.333
 20
511.255
 10
325.425
 20
511.222
 10
326.513
 20
510.772
 10
326.602
 20
510.73
 10
327.641
 20
510.175
 10
327.725
 20
510.124
 10
328.704
 20
509.47
 10
328.783
 20
509.412
 10
329.693
 20
508.664
 10
329.766
 20
508.599
 10
330.599
 20
507.766
 10
330.664
 20
507.693
 10
331.412
 20
506.783
 10
331.47
 20
506.704
 10
332.124
 20
505.725
 10
332.175
 20
505.641
 10
332.73
 20
504.602
 10
332.772
 20
504.513
 10
333.222
 20
503.425
 10
333.255
 20
503.333
 10
333.597
 20
502.206
 10
333.621
 20
502.111
 10
333.851
 20
500.956
 10
333.865
 20
500.859
 10
333.981
 20
499.687
 10
333.986
 20
499.589
 10
334.0
 20
499.0
 10
334.0
 20
81.0
  0
LWPOLYLINE
  5
9A
330
17
100
AcDbEntity
  8
ENGRAVE_V
100
AcDbPolyline
 90
256
 70
1
 10
44.693
 20
90.532
 10
44.695
 20
90.43
 10
44.7
 20
90.328
 10
44.708
 20
90.227
 10
44.719
 20
90.125
 10
44.733
 20
90.023
 10
44.751
 20
89.921
 10
44.772
 20
89.819
 10
44.795
 20
89.717
 10
44.996
 20
89.073
 10
45.377
 20
88.381
 10
45.939
 20
87.642
 10
46.681
 20
86.854
 10
47.604
 20
86.019
 10
48.707
 20
85.137
 10
49.99
 20
84.206
 10
51.455
 20
83.228
 10
51.696
 20
83.067
 10
51.944
 20
82.907
 10
52.199
 20
82.748
 10
52.461
 20
82.591
 10
52.73
 20
82.434
 10
53.006
 20
82.278
 10
53.288
 20
82.124
 10
53.578
 20
81.971
 10
53.873
 20
81.818
 10
54.174
 20
81.665
 10
54.479
 20
81.512
 10
54.788
 20
81.359
 10
55.103
 20
81.206
 10
55.422
 20
81.053
 10
55.746
 20
80.9
 10
56.075
 20
80.747
 10
56.457
 20
80.572
 10
56.84
 20
80.42
 10
57.222
 20
80.292
 10
57.604
 20
80.187
 10
57.986
 20
80.105
 10
58.368
 20
80.047
 10
58.751
 20
80.012
 10
59.133
 20
80.0
 10
59.378
 20
80.005
 10
59.619
 20
80.021
 10
59.858
 20
80.048
 10
60.093
 20
80.085
 10
60.325
 20
80.133
 10
60.553
 20
80.191
 10
60.779
 20
80.26
 10
61.002
 20
80.34
 10
61.79
 20
80.693
 10
62.473
 20
81.14
 10
63.051
 20
81.682
 10
63.524
 20
82.319
 10
63.892
 20
83.05
 10
64.155
 20
83.875
 10
64.313
 20
84.795
 10
64.365
 20
85.81
 10
64.36
 20
86.124
 10
64.346
 20
86.438
 10
64.322
 20
86.753
 10
64.289
 20
87.067
 10
64.246
 20
87.381
 10
64.193
 20
87.695
 10
64.131
 20
88.01
 10
64.059
 20
88.324
 10
63.95
 20
88.748
 10
63.828
 20
89.172
 10
63.691
 20
89.596
 10
63.541
 20
90.018
 10
63.377
 20
90.441
 10
63.199
 20
90.862
 10
63.008
 20
91.284
 10
62.802
 20
91.704
 10
62.585
 20
92.121
 10
62.359
 20
92.528
 10
62.125
 20
92.928
 10
61.881
 20
93.318
 10
61.628
 20
93.7
 10
61.366
 20
94.074
 10
61.095
 20
94.439
 10
60.815
 20
94.796
 10
60.529
 20
95.139
 10
60.24
 20
95.464
 10
59.949
 20
95.77
 10
59.655
 20
96.057
 10
59.359
 20
96.326
 10
59.06
 20
96.577
 10
58.758
 20
96.808
 10
58.453
 20
97.022
 10
64.399
 20
97.429
 10
60.662
 20
99.807
 10
39.597
 20
98.414
 10
43.742
 20
95.9
 10
56.687
 20
96.988
 10
56.764
 20
96.848
 10
56.842
 20
96.703
 10
56.921
 20
96.551
 10
57.001
 20
96.393
 10
57.082
 20
96.228
 10
57.164
 20
96.057
 10
57.248
 20
95.88
 10
57.332
 20
95.696
 10
57.418
 20
95.508
 10
57.504
 20
95.314
 10
57.592
 20
95.117
 10
57.68
 20
94.915
 10
57.77
 20
94.709
 10
57.861
 20
94.499
 10
57.953
 20
94.284
 10
58.046
 20
94.066
 10
58.205
 20
93.677
 10
58.361
 20
93.277
 10
58.513
 20
92.864
 10
58.662
 20
92.439
 10
58.806
 20
92.002
 10
58.947
 20
91.553
 10
59.084
 20
91.091
 10
59.218
 20
90.617
 10
59.341
 20
90.136
 10
59.448
 20
89.652
 10
59.539
 20
89.166
 10
59.613
 20
88.676
 10
59.67
 20
88.185
 10
59.712
 20
87.69
 10
59.736
 20
87.193
 10
59.744
 20
86.693
 10
59.744
 20
86.557
 10
59.729
 20
86.117
 10
59.683
 20
85.695
 10
59.606
 20
85.293
 10
59.498
 20
84.909
 10
59.36
 20
84.545
 10
59.19
 20
84.2
 10
58.99
 20
83.874
 10
58.759
 20
83.567
 10
58.453
 20
83.193
 10
58.148
 20
82.869
 10
57.842
 20
82.594
 10
57.536
 20
82.37
 10
57.23
 20
82.195
 10
56.925
 20
82.07
 10
56.619
 20
81.996
 10
56.313
 20
81.971
 10
56.162
 20
81.975
 10
56.014
 20
81.988
 10
55.869
 20
82.009
 10
55.727
 20
82.039
 10
55.588
 20
82.077
 10
55.453
 20
82.123
 10
55.321
 20
82.179
 10
55.192
 20
82.242
 10
54.971
 20
82.363
 10
54.75
 20
82.485
 10
54.529
 20
82.611
 10
54.308
 20
82.739
 10
54.088
 20
82.87
 10
53.867
 20
83.004
 10
53.646
 20
83.14
 10
53.425
 20
83.279
 10
53.205
 20
83.419
 10
52.986
 20
83.56
 10
52.767
 20
83.701
 10
52.55
 20
83.843
 10
52.334
 20
83.986
 10
52.119
 20
84.129
 10
51.905
 20
84.273
 10
51.692
 20
84.417
 10
51.257
 20
84.737
 10
50.851
 20
85.088
 10
50.476
 20
85.468
 10
50.13
 20
85.878
 10
49.813
 20
86.317
 10
49.526
 20
86.787
 10
49.27
 20
87.286
 10
49.042
 20
87.814
 10
49.018
 20
87.873
 10
48.996
 20
87.931
 10
48.975
 20
87.988
 10
48.957
 20
88.044
 10
48.941
 20
88.098
 10
48.928
 20
88.152
 10
48.916
 20
88.204
 10
48.906
 20
88.256
 10
48.898
 20
88.306
 10
48.892
 20
88.356
 10
48.886
 20
88.404
 10
48.881
 20
88.451
 10
48.877
 20
88.497
 10
48.875
 20
88.543
 10
48.873
 20
88.587
 10
48.872
 20
88.63
 10
48.913
 20
88.986
 10
49.034
 20
89.309
 10
49.236
 20
89.598
 10
49.518
 20
89.853
 10
49.881
 20
90.074
 10
50.325
 20
90.26
 10
50.849
 20
90.413
 10
51.455
 20
90.532
 10
51.521
 20
90.384
 10
51.584
 20
90.243
 10
51.644
 20
90.112
 10
51.701
 20
89.989
 10
51.754
 20
89.874
 10
51.805
 20
89.768
 10
51.852
 20
89.67
 10
51.896
 20
89.581
 10
51.938
 20
89.496
 10
51.978
 20
89.41
 10
52.016
 20
89.324
 10
52.053
 20
89.237
 10
52.089
 20
89.15
 10
52.122
 20
89.062
 10
52.154
 20
88.973
 10
52.185
 20
88.884
 10
52.216
 20
88.79
 10
52.248
 20
88.684
 10
52.281
 20
88.567
 10
52.317
 20
88.439
 10
52.354
 20
88.299
 10
52.392
 20
88.149
 10
52.432
 20
87.987
 10
52.474
 20
87.814
 10
56.925
 20
86.353
 10
56.522
 20
87.333
 10
56.062
 20
88.233
 10
55.545
 20
89.053
 10
54.971
 20
89.793
 10
54.339
 20
90.454
 10
53.65
 20
91.036
 10
52.904
 20
91.537
 10
52.1
 20
91.959
 10
51.522
 20
92.206
 10
50.96
 20
92.42
 10
50.414
 20
92.601
 10
49.883
 20
92.749
 10
49.369
 20
92.864
 10
48.87
 20
92.947
 10
48.388
 20
92.996
 10
47.921
 20
93.012
 10
47.573
 20
93.003
 10
47.241
 20
92.974
 10
46.925
 20
92.926
 10
46.626
 20
92.86
 10
46.343
 20
92.774
 10
46.077
 20
92.668
 10
45.827
 20
92.544
 10
45.594
 20
92.401
 10
45.383
 20
92.238
 10
45.2
 20
92.055
 10
45.045
 20
91.851
 10
44.919
 20
91.628
 10
44.82
 20
91.384
 10
44.75
 20
91.12
 10
44.708
 20
90.836
 10
44.693
 20
90.532
  0
LWPOLYLINE
  5
9B
330
17
100
AcDbEntity
  8
ENGRAVE_V
100
AcDbPolyline
 90
35
 70
1
 10
51.319
 20
106.806
 10
47.276
 20
108.845
 10
47.352
 20
108.437
 10
47.428
 20
108.029
 10
47.505
 20
107.622
 10
47.581
 20
107.214
 10
47.658
 20
106.806
 10
47.734
 20
106.399
 10
47.811
 20
105.991
 10
47.887
 20
105.583
 10
47.964
 20
105.176
 10
48.04
 20
104.768
 10
48.116
 20
104.36
 10
48.193
 20
103.952
 10
48.269
 20
103.545
 10
48.346
 20
103.137
 10
48.422
 20
102.729
 10
48.499
 20
102.322
 10
52.542
 20
100.283
 10
52.465
 20
100.691
 10
52.389
 20
101.099
 10
52.312
 20
101.506
 10
52.236
 20
101.914
 10
52.16
 20
102.322
 10
52.083
 20
102.729
 10
52.007
 20
103.137
 10
51.93
 20
103.545
 10
51.854
 20
103.952
 10
51.777
 20
104.36
 10
51.701
 20
104.768
 10
51.624
 20
105.176
 10
51.548
 20
105.583
 10
51.472
 20
105.991
 10
51.395
 20
106.399
 10
51.319
 20
106.806
  0
LWPOLYLINE
  5
9C
330
17
100
AcDbEntity
  8
ENGRAVE_V
100
AcDbPolyline
 90
59
 70
1
 10
56.075
 20
107.656
 10
56.007
 20
107.554
 10
56.566
 20
107.327
 10
57.071
 20
107.072
 10
57.522
 20
106.788
 10
57.918
 20
106.475
 10
58.261
 20
106.134
 10
58.549
 20
105.764
 10
58.783
 20
105.365
 10
58.963
 20
104.938
 10
59.038
 20
104.712
 10
59.111
 20
104.459
 10
59.18
 20
104.179
 10
59.248
 20
103.872
 10
59.312
 20
103.538
 10
59.374
 20
103.176
 10
59.433
 20
102.788
 10
59.49
 20
102.373
 10
59.544
 20
101.93
 10
59.595
 20
101.458
 10
59.643
 20
100.959
 10
59.689
 20
100.432
 10
59.733
 20
99.876
 10
59.773
 20
99.293
 10
59.811
 20
98.681
 10
59.846
 20
98.041
 10
64.399
 20
97.429
 10
64.309
 20
98.591
 10
64.193
 20
99.665
 10
64.05
 20
100.651
 10
63.881
 20
101.549
 10
63.685
 20
102.358
 10
63.463
 20
103.08
 10
63.214
 20
103.713
 10
62.938
 20
104.258
 10
62.696
 20
104.646
 10
62.409
 20
105.012
 10
62.08
 20
105.355
 10
61.707
 20
105.677
 10
61.29
 20
105.976
 10
60.83
 20
106.252
 10
60.326
 20
106.506
 10
59.778
 20
106.738
 10
59.509
 20
106.846
 10
59.244
 20
106.946
 10
58.985
 20
107.041
 10
58.729
 20
107.129
 10
58.479
 20
107.211
 10
58.234
 20
107.286
 10
57.993
 20
107.355
 10
57.757
 20
107.418
 10
57.526
 20
107.474
 10
57.301
 20
107.522
 10
57.082
 20
107.563
 10
56.869
 20
107.596
 10
56.662
 20
107.622
 10
56.461
 20
107.641
 10
56.265
 20
107.652
 10
56.075
 20
107.656
  0
LWPOLYLINE
  5
9D
330
17
100
AcDbEntity
  8
ENGRAVE_V
100
AcDbPolyline
 90
121
 70
1
 10
55.158
 20
123.284
 10
55.118
 20
123.274
 10
55.082
 20
123.259
 10
55.052
 20
123.24
 10
55.026
 20
123.216
 10
55.005
 20
123.189
 10
54.989
 20
123.157
 10
54.978
 20
123.121
 10
54.971
 20
123.08
 10
54.97
 20
123.04
 10
54.976
 20
123.002
 10
54.989
 20
122.967
 10
55.009
 20
122.936
 10
55.036
 20
122.908
 10
55.07
 20
122.883
 10
55.11
 20
122.861
 10
55.158
 20
122.843
 10
55.596
 20
122.628
 10
56.009
 20
122.39
 10
56.398
 20
122.131
 10
56.763
 20
121.849
 10
57.103
 20
121.545
 10
57.419
 20
121.218
 10
57.711
 20
120.869
 10
57.978
 20
120.498
 10
58.244
 20
120.086
 10
58.5
 20
119.663
 10
58.745
 20
119.23
 10
58.98
 20
118.787
 10
59.204
 20
118.334
 10
59.417
 20
117.871
 10
59.62
 20
117.397
 10
59.812
 20
116.914
 10
59.998
 20
116.424
 10
60.18
 20
115.93
 10
60.359
 20
115.432
 10
60.534
 20
114.931
 10
60.707
 20
114.426
 10
60.876
 20
113.917
 10
61.042
 20
113.404
 10
61.205
 20
112.888
 10
61.389
 20
112.305
 10
61.565
 20
111.761
 10
61.735
 20
111.258
 10
61.898
 20
110.794
 10
62.053
 20
110.37
 10
62.202
 20
109.986
 10
62.344
 20
109.642
 10
62.479
 20
109.337
 10
62.608
 20
109.069
 10
62.732
 20
108.832
 10
62.851
 20
108.627
 10
62.964
 20
108.454
 10
63.071
 20
108.313
 10
63.174
 20
108.204
 10
63.271
 20
108.126
 10
63.363
 20
108.08
 10
63.45
 20
108.063
 10
63.532
 20
108.071
 10
63.609
 20
108.104
 10
63.681
 20
108.161
 10
63.749
 20
108.244
 10
63.812
 20
108.351
 10
63.87
 20
108.484
 10
63.923
 20
108.641
 10
63.973
 20
108.82
 10
64.02
 20
109.017
 10
64.064
 20
109.232
 10
64.106
 20
109.465
 10
64.145
 20
109.716
 10
64.181
 20
109.985
 10
64.215
 20
110.272
 10
64.246
 20
110.578
 10
64.275
 20
110.897
 10
64.3
 20
111.227
 10
64.323
 20
111.568
 10
64.344
 20
111.92
 10
64.362
 20
112.282
 10
64.377
 20
112.654
 10
64.389
 20
113.038
 10
64.399
 20
113.431
 10
64.403
 20
114.064
 10
64.38
 20
114.671
 10
64.331
 20
115.251
 10
64.255
 20
115.805
 10
64.152
 20
116.334
 10
64.023
 20
116.836
 10
63.868
 20
117.313
 10
63.686
 20
117.763
 10
63.481
 20
118.191
 10
63.259
 20
118.601
 10
63.018
 20
118.992
 10
62.76
 20
119.364
 10
62.483
 20
119.718
 10
62.189
 20
120.053
 10
61.876
 20
120.37
 10
61.545
 20
120.668
 10
61.377
 20
120.804
 10
61.196
 20
120.938
 10
61.001
 20
121.071
 10
60.793
 20
121.203
 10
60.572
 20
121.334
 10
60.338
 20
121.464
 10
60.09
 20
121.593
 10
59.829
 20
121.721
 10
59.559
 20
121.847
 10
59.284
 20
121.971
 10
59.003
 20
122.092
 10
58.717
 20
122.21
 10
58.425
 20
122.325
 10
58.129
 20
122.438
 10
57.826
 20
122.548
 10
57.519
 20
122.656
 10
57.211
 20
122.758
 10
56.906
 20
122.854
 10
56.606
 20
122.943
 10
56.309
 20
123.025
 10
56.015
 20
123.1
 10
55.726
 20
123.169
 10
55.44
 20
123.23
 10
55.158
 20
123.284
  0
LWPOLYLINE
  5
9E
330
17
100
AcDbEntity
  8
ENGRAVE_V
100
AcDbPolyline
 90
186
 70
1
 10
64.127
 20
131.812
 10
64.127
 20
131.812
 10
64.028
 20
132.268
 10
63.901
 20
132.72
 10
63.746
 20
133.166
 10
63.562
 20
133.608
 10
63.351
 20
134.046
 10
63.111
 20
134.478
 10
62.843
 20
134.906
 10
62.547
 20
135.328
 10
62.23
 20
135.742
 10
61.897
 20
136.144
 10
61.548
 20
136.532
 10
61.184
 20
136.908
 10
60.805
 20
137.271
 10
60.41
 20
137.622
 10
60.0
 20
137.959
 10
59.575
 20
138.284
 10
59.138
 20
138.593
 10
58.695
 20
138.881
 10
58.246
 20
139.149
 10
57.791
 20
139.397
 10
57.329
 20
139.625
 10
56.861
 20
139.832
 10
56.386
 20
140.02
 10
55.905
 20
140.187
 10
55.423
 20
140.331
 10
54.944
 20
140.449
 10
54.47
 20
140.541
 10
53.998
 20
140.607
 10
53.531
 20
140.647
 10
53.067
 20
140.661
 10
52.607
 20
140.65
 10
52.151
 20
140.612
 10
51.704
 20
140.543
 10
51.273
 20
140.44
 10
50.857
 20
140.301
 10
50.457
 20
140.127
 10
50.071
 20
139.919
 10
49.702
 20
139.675
 10
49.347
 20
139.396
 10
49.008
 20
139.083
 10
48.933
 20
139.002
 10
48.862
 20
138.912
 10
48.793
 20
138.813
 10
48.728
 20
138.705
 10
48.666
 20
138.588
 10
48.607
 20
138.462
 10
48.551
 20
138.326
 10
48.499
 20
138.182
 10
48.458
 20
138.037
 10
48.437
 20
137.899
 10
48.437
 20
137.767
 10
48.456
 20
137.643
 10
48.496
 20
137.525
 10
48.556
 20
137.415
 10
48.636
 20
137.311
 10
48.737
 20
137.214
 10
48.97
 20
137.015
 10
49.21
 20
136.827
 10
49.458
 20
136.648
 10
49.713
 20
136.479
 10
49.976
 20
136.321
 10
50.246
 20
136.172
 10
50.524
 20
136.034
 10
50.809
 20
135.906
 10
51.097
 20
135.782
 10
51.384
 20
135.654
 10
51.671
 20
135.525
 10
51.956
 20
135.392
 10
52.24
 20
135.257
 10
52.523
 20
135.119
 10
52.805
 20
134.979
 10
53.085
 20
134.836
 10
53.214
 20
134.78
 10
53.343
 20
134.73
 10
53.475
 20
134.686
 10
53.608
 20
134.649
 10
53.742
 20
134.618
 10
53.878
 20
134.594
 10
54.016
 20
134.576
 10
54.156
 20
134.564
 10
54.294
 20
134.562
 10
54.428
 20
134.572
 10
54.559
 20
134.596
 10
54.686
 20
134.632
 10
54.81
 20
134.681
 10
54.93
 20
134.742
 10
55.046
 20
134.817
 10
55.158
 20
134.904
 10
55.271
 20
135.022
 10
55.371
 20
135.155
 10
55.46
 20
135.304
 10
55.536
 20
135.469
 10
55.6
 20
135.648
 10
55.652
 20
135.843
 10
55.691
 20
136.054
 10
55.718
 20
136.28
 10
55.736
 20
136.511
 10
55.745
 20
136.739
 10
55.746
 20
136.964
 10
55.74
 20
137.184
 10
55.725
 20
137.401
 10
55.702
 20
137.614
 10
55.672
 20
137.824
 10
55.633
 20
138.029
 10
55.696
 20
138.071
 10
55.764
 20
138.111
 10
55.838
 20
138.15
 10
55.918
 20
138.187
 10
56.004
 20
138.222
 10
56.095
 20
138.256
 10
56.193
 20
138.288
 10
56.296
 20
138.318
 10
56.398
 20
138.343
 10
56.492
 20
138.36
 10
56.579
 20
138.367
 10
56.657
 20
138.365
 10
56.727
 20
138.354
 10
56.79
 20
138.334
 10
56.844
 20
138.305
 10
56.891
 20
138.267
 10
57.033
 20
138.138
 10
57.173
 20
138.004
 10
57.309
 20
137.866
 10
57.443
 20
137.724
 10
57.573
 20
137.577
 10
57.7
 20
137.426
 10
57.823
 20
137.271
 10
57.944
 20
137.112
 10
58.06
 20
136.949
 10
58.171
 20
136.781
 10
58.277
 20
136.609
 10
58.377
 20
136.433
 10
58.472
 20
136.252
 10
58.562
 20
136.067
 10
58.646
 20
135.878
 10
58.725
 20
135.685
 10
59.021
 20
134.954
 10
59.316
 20
134.22
 10
59.607
 20
133.484
 10
59.897
 20
132.746
 10
60.185
 20
132.006
 10
60.471
 20
131.264
 10
60.754
 20
130.52
 10
61.036
 20
129.773
 10
61.322
 20
129.031
 10
61.619
 20
128.3
 10
61.929
 20
127.579
 10
62.25
 20
126.869
 10
62.583
 20
126.169
 10
62.928
 20
125.48
 10
63.284
 20
124.801
 10
63.652
 20
124.134
 10
63.67
 20
124.102
 10
63.693
 20
124.074
 10
63.719
 20
124.051
 10
63.749
 20
124.032
 10
63.783
 20
124.017
 10
63.82
 20
124.006
 10
63.862
 20
124.0
 10
63.906
 20
123.998
 10
63.951
 20
124.0
 10
63.99
 20
124.008
 10
64.025
 20
124.022
 10
64.055
 20
124.04
 10
64.08
 20
124.064
 10
64.101
 20
124.093
 10
64.116
 20
124.128
 10
64.127
 20
124.168
 10
64.168
 20
124.636
 10
64.207
 20
125.107
 10
64.243
 20
125.581
 10
64.276
 20
126.057
 10
64.306
 20
126.537
 10
64.334
 20
127.018
 10
64.359
 20
127.503
 10
64.382
 20
127.99
 10
64.397
 20
128.477
 10
64.398
 20
128.961
 10
64.386
 20
129.443
 10
64.361
 20
129.922
 10
64.322
 20
130.399
 10
64.271
 20
130.872
 10
64.206
 20
131.344
 10
64.127
 20
131.812
  0
LWPOLYLINE
  5
9F
330
17
100
AcDbEntity
  8
ENGRAVE_V
100
AcDbPolyline
 90
73
 70
1
 10
48.363
 20
157.939
 10
48.42
 20
157.936
 10
48.473
 20
157.926
 10
48.522
 20
157.91
 10
48.567
 20
157.888
 10
48.607
 20
157.859
 10
48.643
 20
157.824
 10
48.675
 20
157.783
 10
48.703
 20
157.735
 10
48.876
 20
157.366
 10
49.04
 20
156.991
 10
49.195
 20
156.608
 10
49.34
 20
156.219
 10
49.475
 20
155.823
 10
49.601
 20
155.419
 10
49.717
 20
155.009
 10
49.824
 20
154.592
 10
49.925
 20
154.17
 10
50.025
 20
153.744
 10
50.125
 20
153.314
 10
50.223
 20
152.881
 10
50.32
 20
152.444
 10
50.416
 20
152.003
 10
50.511
 20
151.558
 10
50.605
 20
151.11
 10
50.375
 20
151.339
 10
50.144
 20
151.57
 10
49.912
 20
151.8
 10
49.679
 20
152.031
 10
49.445
 20
152.263
 10
49.21
 20
152.495
 10
48.974
 20
152.728
 10
48.737
 20
152.961
 10
48.503
 20
153.199
 10
48.28
 20
153.445
 10
48.066
 20
153.698
 10
47.862
 20
153.96
 10
47.667
 20
154.229
 10
47.482
 20
154.506
 10
47.306
 20
154.792
 10
47.14
 20
155.085
 10
47.107
 20
155.136
 10
47.078
 20
155.189
 10
47.052
 20
155.243
 10
47.029
 20
155.297
 10
47.01
 20
155.353
 10
46.993
 20
155.41
 10
46.98
 20
155.468
 10
46.97
 20
155.527
 10
46.962
 20
155.586
 10
46.955
 20
155.646
 10
46.949
 20
155.705
 10
46.944
 20
155.764
 10
46.941
 20
155.824
 10
46.938
 20
155.883
 10
46.936
 20
155.943
 10
46.936
 20
156.002
 10
46.942
 20
156.187
 10
46.96
 20
156.366
 10
46.991
 20
156.541
 10
47.034
 20
156.711
 10
47.088
 20
156.877
 10
47.156
 20
157.037
 10
47.235
 20
157.193
 10
47.327
 20
157.344
 10
47.428
 20
157.484
 10
47.538
 20
157.604
 10
47.655
 20
157.707
 10
47.781
 20
157.79
 10
47.914
 20
157.855
 10
48.056
 20
157.902
 10
48.205
 20
157.93
 10
48.363
 20
157.939
  0
LWPOLYLINE
  5
A0
330
17
100
AcDbEntity
  8
ENGRAVE_V
100
AcDbPolyline
 90
244
 70
1
 10
55.056
 20
146.693
 10
55.055
 20
146.779
 10
55.054
 20
146.865
 10
55.051
 20
146.953
 10
55.047
 20
147.041
 10
55.043
 20
147.131
 10
55.037
 20
147.222
 10
55.03
 20
147.314
 10
55.022
 20
147.407
 10
55.013
 20
147.501
 10
55.003
 20
147.596
 10
54.992
 20
147.692
 10
54.979
 20
147.789
 10
54.966
 20
147.887
 10
54.952
 20
147.986
 10
54.936
 20
148.087
 10
54.92
 20
148.188
 10
54.893
 20
148.361
 10
54.863
 20
148.538
 10
54.829
 20
148.722
 10
54.793
 20
148.91
 10
54.753
 20
149.104
 10
54.71
 20
149.303
 10
54.664
 20
149.507
 10
54.614
 20
149.717
 10
54.563
 20
149.929
 10
54.511
 20
150.141
 10
54.459
 20
150.352
 10
54.406
 20
150.562
 10
54.353
 20
150.772
 10
54.299
 20
150.981
 10
54.244
 20
151.19
 10
54.19
 20
151.399
 10
54.136
 20
151.602
 10
54.084
 20
151.797
 10
54.036
 20
151.982
 10
53.99
 20
152.159
 10
53.947
 20
152.326
 10
53.906
 20
152.485
 10
53.868
 20
152.634
 10
53.833
 20
152.775
 10
53.833
 20
152.775
 10
53.738
 20
153.028
 10
53.64
 20
153.28
 10
53.538
 20
153.53
 10
53.434
 20
153.777
 10
53.326
 20
154.022
 10
53.215
 20
154.265
 10
53.101
 20
154.506
 10
52.983
 20
154.745
 10
52.863
 20
154.981
 10
52.741
 20
155.214
 10
52.617
 20
155.444
 10
52.491
 20
155.671
 10
52.362
 20
155.895
 10
52.232
 20
156.115
 10
52.099
 20
156.332
 10
51.964
 20
156.546
 10
51.713
 20
156.929
 10
51.451
 20
157.297
 10
51.18
 20
157.649
 10
50.898
 20
157.986
 10
50.606
 20
158.307
 10
50.305
 20
158.613
 10
49.993
 20
158.904
 10
49.671
 20
159.179
 10
49.338
 20
159.443
 10
48.995
 20
159.7
 10
48.64
 20
159.951
 10
48.274
 20
160.194
 10
47.896
 20
160.43
 10
47.508
 20
160.66
 10
47.109
 20
160.883
 10
46.698
 20
161.099
 10
46.569
 20
161.162
 10
46.437
 20
161.217
 10
46.301
 20
161.264
 10
46.163
 20
161.302
 10
46.021
 20
161.332
 10
45.876
 20
161.353
 10
45.728
 20
161.366
 10
45.577
 20
161.37
 10
45.343
 20
161.359
 10
45.116
 20
161.327
 10
44.897
 20
161.272
 10
44.685
 20
161.196
 10
44.481
 20
161.098
 10
44.284
 20
160.979
 10
44.094
 20
160.837
 10
43.912
 20
160.674
 10
43.745
 20
160.495
 10
43.6
 20
160.308
 10
43.477
 20
160.111
 10
43.377
 20
159.905
 10
43.299
 20
159.69
 10
43.243
 20
159.467
 10
43.21
 20
159.234
 10
43.199
 20
158.992
 10
43.204
 20
158.756
 10
43.221
 20
158.523
 10
43.249
 20
158.293
 10
43.288
 20
158.066
 10
43.338
 20
157.843
 10
43.399
 20
157.622
 10
43.472
 20
157.405
 10
43.555
 20
157.191
 10
43.645
 20
156.985
 10
43.737
 20
156.792
 10
43.83
 20
156.612
 10
43.925
 20
156.444
 10
44.021
 20
156.289
 10
44.119
 20
156.147
 10
44.219
 20
156.017
 10
44.32
 20
155.9
 10
44.704
 20
155.494
 10
45.091
 20
155.092
 10
45.481
 20
154.694
 10
45.874
 20
154.299
 10
46.271
 20
153.908
 10
46.67
 20
153.521
 10
47.073
 20
153.137
 10
47.479
 20
152.758
 10
47.888
 20
152.38
 10
48.299
 20
152.005
 10
48.712
 20
151.631
 10
49.127
 20
151.258
 10
49.545
 20
150.888
 10
49.964
 20
150.518
 10
50.385
 20
150.151
 10
50.809
 20
149.785
 10
50.858
 20
149.536
 10
50.905
 20
149.284
 10
50.948
 20
149.027
 10
50.987
 20
148.766
 10
51.024
 20
148.5
 10
51.057
 20
148.23
 10
51.088
 20
147.957
 10
51.115
 20
147.678
 10
51.081
 20
147.644
 10
50.88
 20
147.736
 10
50.687
 20
147.823
 10
50.5
 20
147.906
 10
50.321
 20
147.984
 10
50.148
 20
148.058
 10
49.982
 20
148.129
 10
49.823
 20
148.194
 10
49.671
 20
148.256
 10
49.525
 20
148.314
 10
49.385
 20
148.368
 10
49.251
 20
148.42
 10
49.123
 20
148.468
 10
49.001
 20
148.513
 10
48.884
 20
148.555
 10
48.773
 20
148.594
 10
48.669
 20
148.63
 10
48.647
 20
148.638
 10
48.618
 20
148.645
 10
48.579
 20
148.65
 10
48.533
 20
148.655
 10
48.477
 20
148.659
 10
48.414
 20
148.662
 10
48.342
 20
148.663
 10
48.261
 20
148.664
 10
48.221
 20
148.663
 10
48.187
 20
148.662
 10
48.157
 20
148.659
 10
48.133
 20
148.655
 10
48.115
 20
148.65
 10
48.102
 20
148.645
 10
48.094
 20
148.638
 10
48.091
 20
148.63
 10
48.093
 20
148.62
 10
48.097
 20
148.608
 10
48.105
 20
148.595
 10
48.116
 20
148.579
 10
48.131
 20
148.561
 10
48.148
 20
148.54
 10
48.169
 20
148.518
 10
48.193
 20
148.494
 10
48.464
 20
148.367
 10
48.717
 20
148.224
 10
48.953
 20
148.065
 10
49.17
 20
147.891
 10
49.369
 20
147.7
 10
49.55
 20
147.494
 10
49.713
 20
147.271
 10
49.858
 20
147.033
 10
50.063
 20
146.576
 10
50.255
 20
145.971
 10
50.433
 20
145.217
 10
50.597
 20
144.315
 10
50.747
 20
143.264
 10
50.883
 20
142.064
 10
51.006
 20
140.716
 10
51.115
 20
139.219
 10
55.6
 20
138.471
 10
55.572
 20
138.707
 10
55.541
 20
138.957
 10
55.506
 20
139.221
 10
55.468
 20
139.499
 10
55.426
 20
139.79
 10
55.38
 20
140.096
 10
55.33
 20
140.415
 10
55.277
 20
140.747
 10
55.22
 20
141.086
 10
55.161
 20
141.424
 10
55.099
 20
141.76
 10
55.035
 20
142.094
 10
54.968
 20
142.426
 10
54.898
 20
142.757
 10
54.825
 20
143.087
 10
54.75
 20
143.414
 10
54.674
 20
143.732
 10
54.599
 20
144.029
 10
54.526
 20
144.307
 10
54.453
 20
144.565
 10
54.381
 20
144.804
 10
54.311
 20
145.023
 10
54.241
 20
145.222
 10
54.173
 20
145.402
 10
54.2
 20
145.394
 10
54.23
 20
145.387
 10
54.263
 20
145.381
 10
54.3
 20
145.377
 10
54.34
 20
145.373
 10
54.383
 20
145.37
 10
54.429
 20
145.369
 10
54.478
 20
145.368
 10
54.568
 20
145.375
 10
54.648
 20
145.395
 10
54.72
 20
145.428
 10
54.784
 20
145.474
 10
54.839
 20
145.534
 10
54.886
 20
145.607
 10
54.924
 20
145.693
 10
54.954
 20
145.793
 10
54.978
 20
145.9
 10
54.999
 20
146.008
 10
55.016
 20
146.118
 10
55.03
 20
146.23
 10
55.042
 20
146.344
 10
55.05
 20
146.458
 10
55.054
 20
146.575
 10
55.056
 20
146.693
  0
LWPOLYLINE
  5
A1
330
17
100
AcDbEntity
  8
ENGRAVE_V
100
AcDbPolyline
 90
35
 70
1
 10
49.79
 20
182.401
 10
47.547
 20
179.989
 10
47.76
 20
179.818
 10
47.974
 20
179.647
 10
48.189
 20
179.474
 10
48.405
 20
179.301
 10
48.622
 20
179.126
 10
48.841
 20
178.95
 10
49.06
 20
178.774
 10
49.28
 20
178.596
 10
49.501
 20
178.418
 10
49.722
 20
178.241
 10
49.943
 20
178.065
 10
50.163
 20
177.891
 10
50.384
 20
177.717
 10
50.605
 20
177.545
 10
50.826
 20
177.373
 10
51.047
 20
177.203
 10
53.289
 20
179.615
 10
53.069
 20
179.793
 10
52.849
 20
179.971
 10
52.629
 20
180.148
 10
52.41
 20
180.324
 10
52.192
 20
180.5
 10
51.974
 20
180.676
 10
51.756
 20
180.851
 10
51.539
 20
181.025
 10
51.323
 20
181.199
 10
51.105
 20
181.372
 10
50.887
 20
181.545
 10
50.669
 20
181.717
 10
50.45
 20
181.889
 10
50.23
 20
182.06
 10
50.01
 20
182.231
 10
49.79
 20
182.401
  0
LWPOLYLINE
  5
A2
330
17
100
AcDbEntity
  8
ENGRAVE_V
100
AcDbPolyline
 90
137
 70
1
 10
58.827
 20
180.634
 10
58.83
 20
180.567
 10
58.84
 20
180.503
 10
58.856
 20
180.44
 10
58.878
 20
180.379
 10
58.907
 20
180.321
 10
58.942
 20
180.265
 10
58.983
 20
180.211
 10
59.031
 20
180.159
 10
59.185
 20
179.976
 10
59.324
 20
179.787
 10
59.448
 20
179.59
 10
59.558
 20
179.386
 10
59.652
 20
179.174
 10
59.732
 20
178.955
 10
59.796
 20
178.728
 10
59.846
 20
178.494
 10
59.945
 20
177.863
 10
60.036
 20
177.227
 10
60.121
 20
176.587
 10
60.199
 20
175.941
 10
60.27
 20
175.291
 10
60.334
 20
174.637
 10
60.391
 20
173.977
 10
60.441
 20
173.313
 10
60.494
 20
172.65
 10
60.559
 20
171.997
 10
60.636
 20
171.353
 10
60.725
 20
170.718
 10
60.827
 20
170.092
 10
60.941
 20
169.474
 10
61.067
 20
168.866
 10
61.205
 20
168.267
 10
61.232
 20
168.188
 10
61.261
 20
168.119
 10
61.291
 20
168.06
 10
61.324
 20
168.012
 10
61.359
 20
167.975
 10
61.396
 20
167.949
 10
61.436
 20
167.933
 10
61.477
 20
167.928
 10
61.495
 20
167.929
 10
61.513
 20
167.934
 10
61.533
 20
167.942
 10
61.554
 20
167.953
 10
61.575
 20
167.967
 10
61.598
 20
167.985
 10
61.622
 20
168.006
 10
61.647
 20
168.029
 10
61.749
 20
168.166
 10
61.868
 20
168.354
 10
62.004
 20
168.595
 10
62.157
 20
168.887
 10
62.327
 20
169.232
 10
62.513
 20
169.628
 10
62.717
 20
170.077
 10
62.938
 20
170.578
 10
63.046
 20
170.843
 10
63.148
 20
171.095
 10
63.245
 20
171.333
 10
63.337
 20
171.559
 10
63.424
 20
171.771
 10
63.505
 20
171.969
 10
63.581
 20
172.155
 10
63.652
 20
172.327
 10
63.716
 20
172.487
 10
63.775
 20
172.634
 10
63.827
 20
172.769
 10
63.872
 20
172.892
 10
63.912
 20
173.003
 10
63.945
 20
173.101
 10
63.971
 20
173.188
 10
63.991
 20
173.262
 10
64.087
 20
173.581
 10
64.17
 20
173.894
 10
64.24
 20
174.201
 10
64.297
 20
174.502
 10
64.342
 20
174.796
 10
64.374
 20
175.084
 10
64.393
 20
175.365
 10
64.399
 20
175.64
 10
64.392
 20
175.921
 10
64.369
 20
176.189
 10
64.332
 20
176.442
 10
64.28
 20
176.68
 10
64.213
 20
176.905
 10
64.131
 20
177.115
 10
64.035
 20
177.31
 10
63.923
 20
177.492
 10
63.797
 20
177.665
 10
63.656
 20
177.837
 10
63.5
 20
178.007
 10
63.329
 20
178.175
 10
63.143
 20
178.342
 10
62.942
 20
178.508
 10
62.727
 20
178.671
 10
62.496
 20
178.834
 10
62.344
 20
178.929
 10
62.191
 20
179.027
 10
62.038
 20
179.128
 10
61.885
 20
179.233
 10
61.732
 20
179.34
 10
61.579
 20
179.451
 10
61.426
 20
179.566
 10
61.273
 20
179.683
 10
61.124
 20
179.803
 10
60.98
 20
179.925
 10
60.843
 20
180.049
 10
60.713
 20
180.176
 10
60.589
 20
180.304
 10
60.471
 20
180.435
 10
60.359
 20
180.567
 10
60.254
 20
180.702
 10
60.204
 20
180.814
 10
60.137
 20
180.91
 10
60.055
 20
180.992
 10
59.957
 20
181.059
 10
59.843
 20
181.111
 10
59.713
 20
181.148
 10
59.567
 20
181.17
 10
59.405
 20
181.178
 10
59.346
 20
181.176
 10
59.29
 20
181.169
 10
59.236
 20
181.159
 10
59.184
 20
181.144
 10
59.134
 20
181.125
 10
59.086
 20
181.101
 10
59.041
 20
181.074
 10
58.997
 20
181.042
 10
58.957
 20
181.006
 10
58.923
 20
180.965
 10
58.893
 20
180.921
 10
58.87
 20
180.872
 10
58.851
 20
180.819
 10
58.838
 20
180.762
 10
58.83
 20
180.7
 10
58.827
 20
180.634
  0
LWPOLYLINE
  5
A3
330
17
100
AcDbEntity
  8
ENGRAVE_V
100
AcDbPolyline
 90
35
 70
1
 10
43.063
 20
196.569
 10
40.82
 20
194.156
 10
41.033
 20
193.986
 10
41.247
 20
193.814
 10
41.462
 20
193.642
 10
41.678
 20
193.468
 10
41.895
 20
193.294
 10
42.114
 20
193.118
 10
42.333
 20
192.941
 10
42.553
 20
192.763
 10
42.774
 20
192.585
 10
42.995
 20
192.409
 10
43.216
 20
192.233
 10
43.436
 20
192.058
 10
43.657
 20
191.885
 10
43.878
 20
191.712
 10
44.099
 20
191.541
 10
44.32
 20
191.37
 10
46.562
 20
193.783
 10
46.342
 20
193.961
 10
46.122
 20
194.138
 10
45.902
 20
194.315
 10
45.683
 20
194.492
 10
45.465
 20
194.668
 10
45.247
 20
194.843
 10
45.029
 20
195.018
 10
44.812
 20
195.193
 10
44.596
 20
195.366
 10
44.378
 20
195.54
 10
44.16
 20
195.713
 10
43.942
 20
195.885
 10
43.723
 20
196.057
 10
43.503
 20
196.228
 10
43.283
 20
196.398
 10
43.063
 20
196.569
  0
LWPOLYLINE
  5
A4
330
17
100
AcDbEntity
  8
ENGRAVE_V
100
AcDbPolyline
 90
234
 70
1
 10
57.876
 20
188.822
 10
57.957
 20
188.326
 10
58.031
 20
187.856
 10
58.097
 20
187.413
 10
58.156
 20
186.996
 10
58.208
 20
186.606
 10
58.252
 20
186.242
 10
58.288
 20
185.905
 10
58.318
 20
185.595
 10
58.341
 20
185.306
 10
58.36
 20
185.035
 10
58.375
 20
184.782
 10
58.385
 20
184.546
 10
58.392
 20
184.327
 10
58.394
 20
184.126
 10
58.392
 20
183.943
 10
58.385
 20
183.777
 10
58.376
 20
183.624
 10
58.364
 20
183.481
 10
58.35
 20
183.346
 10
58.334
 20
183.221
 10
58.316
 20
183.104
 10
58.296
 20
182.997
 10
58.274
 20
182.898
 10
58.25
 20
182.809
 10
58.174
 20
182.602
 10
58.083
 20
182.406
 10
57.976
 20
182.222
 10
57.855
 20
182.048
 10
57.717
 20
181.886
 10
57.565
 20
181.735
 10
57.397
 20
181.595
 10
57.213
 20
181.467
 10
57.019
 20
181.353
 10
56.819
 20
181.26
 10
56.614
 20
181.186
 10
56.402
 20
181.131
 10
56.185
 20
181.096
 10
55.962
 20
181.081
 10
55.732
 20
181.086
 10
55.498
 20
181.11
 10
55.482
 20
181.109
 10
55.468
 20
181.107
 10
55.456
 20
181.103
 10
55.447
 20
181.097
 10
55.439
 20
181.09
 10
55.434
 20
181.081
 10
55.431
 20
181.071
 10
55.43
 20
181.059
 10
55.431
 20
181.046
 10
55.434
 20
181.034
 10
55.439
 20
181.023
 10
55.447
 20
181.012
 10
55.456
 20
181.002
 10
55.468
 20
180.992
 10
55.482
 20
180.983
 10
55.498
 20
180.974
 10
56.0
 20
180.721
 10
56.488
 20
180.489
 10
56.962
 20
180.277
 10
57.421
 20
180.086
 10
57.867
 20
179.916
 10
58.297
 20
179.767
 10
58.714
 20
179.638
 10
59.116
 20
179.53
 10
59.501
 20
179.447
 10
59.868
 20
179.395
 10
60.215
 20
179.373
 10
60.543
 20
179.381
 10
60.852
 20
179.42
 10
61.142
 20
179.489
 10
61.412
 20
179.588
 10
61.664
 20
179.717
 10
61.893
 20
179.88
 10
62.097
 20
180.081
 10
62.276
 20
180.32
 10
62.428
 20
180.596
 10
62.556
 20
180.91
 10
62.658
 20
181.262
 10
62.734
 20
181.651
 10
62.785
 20
182.078
 10
62.808
 20
182.547
 10
62.799
 20
183.062
 10
62.759
 20
183.624
 10
62.688
 20
184.231
 10
62.585
 20
184.885
 10
62.451
 20
185.585
 10
62.285
 20
186.331
 10
62.089
 20
187.123
 10
62.158
 20
187.114
 10
62.229
 20
187.103
 10
62.302
 20
187.091
 10
62.378
 20
187.077
 10
62.455
 20
187.061
 10
62.535
 20
187.044
 10
62.616
 20
187.025
 10
62.7
 20
187.005
 10
62.783
 20
186.984
 10
62.862
 20
186.963
 10
62.936
 20
186.943
 10
63.006
 20
186.924
 10
63.072
 20
186.905
 10
63.133
 20
186.887
 10
63.191
 20
186.869
 10
63.244
 20
186.852
 10
63.278
 20
186.846
 10
63.311
 20
186.844
 10
63.343
 20
186.848
 10
63.376
 20
186.856
 10
63.407
 20
186.869
 10
63.438
 20
186.887
 10
63.469
 20
186.909
 10
63.499
 20
186.937
 10
63.526
 20
186.966
 10
63.549
 20
186.995
 10
63.566
 20
187.023
 10
63.579
 20
187.051
 10
63.588
 20
187.079
 10
63.591
 20
187.105
 10
63.59
 20
187.132
 10
63.584
 20
187.157
 10
63.555
 20
187.239
 10
63.519
 20
187.315
 10
63.476
 20
187.384
 10
63.427
 20
187.446
 10
63.37
 20
187.502
 10
63.307
 20
187.552
 10
63.236
 20
187.596
 10
63.159
 20
187.633
 10
63.077
 20
187.666
 10
62.994
 20
187.698
 10
62.91
 20
187.728
 10
62.823
 20
187.756
 10
62.736
 20
187.783
 10
62.646
 20
187.808
 10
62.555
 20
187.832
 10
62.462
 20
187.854
 10
62.372
 20
187.875
 10
62.286
 20
187.897
 10
62.206
 20
187.92
 10
62.131
 20
187.943
 10
62.062
 20
187.967
 10
61.997
 20
187.991
 10
61.939
 20
188.016
 10
61.885
 20
188.041
 10
61.739
 20
188.718
 10
61.59
 20
189.39
 10
61.437
 20
190.058
 10
61.282
 20
190.721
 10
61.123
 20
191.379
 10
60.961
 20
192.032
 10
60.796
 20
192.68
 10
60.628
 20
193.324
 10
60.458
 20
193.956
 10
60.29
 20
194.569
 10
60.123
 20
195.164
 10
59.957
 20
195.74
 10
59.792
 20
196.298
 10
59.628
 20
196.837
 10
59.465
 20
197.358
 10
59.303
 20
197.86
 10
54.682
 20
200.0
 10
54.737
 20
199.864
 10
54.782
 20
199.729
 10
54.818
 20
199.595
 10
54.844
 20
199.461
 10
54.86
 20
199.327
 10
54.867
 20
199.194
 10
54.864
 20
199.062
 10
54.852
 20
198.93
 10
54.83
 20
198.801
 10
54.799
 20
198.678
 10
54.758
 20
198.561
 10
54.708
 20
198.45
 10
54.648
 20
198.345
 10
54.578
 20
198.245
 10
54.499
 20
198.151
 10
54.41
 20
198.063
 10
54.092
 20
197.983
 10
53.781
 20
197.894
 10
53.478
 20
197.796
 10
53.183
 20
197.69
 10
52.896
 20
197.575
 10
52.617
 20
197.452
 10
52.346
 20
197.32
 10
52.083
 20
197.18
 10
51.832
 20
197.029
 10
51.596
 20
196.866
 10
51.375
 20
196.69
 10
51.17
 20
196.501
 10
50.98
 20
196.299
 10
50.806
 20
196.084
 10
50.647
 20
195.857
 10
50.503
 20
195.617
 10
50.382
 20
195.372
 10
50.289
 20
195.131
 10
50.225
 20
194.893
 10
50.189
 20
194.657
 10
50.182
 20
194.425
 10
50.204
 20
194.197
 10
50.254
 20
193.971
 10
50.333
 20
193.749
 10
50.435
 20
193.529
 10
50.554
 20
193.313
 10
50.69
 20
193.1
 10
50.843
 20
192.891
 10
51.013
 20
192.684
 10
51.2
 20
192.481
 10
51.404
 20
192.281
 10
51.624
 20
192.084
 10
51.858
 20
191.891
 10
52.099
 20
191.702
 10
52.348
 20
191.517
 10
52.605
 20
191.336
 10
52.871
 20
191.16
 10
53.144
 20
190.988
 10
53.425
 20
190.82
 10
53.714
 20
190.657
 10
54.006
 20
190.498
 10
54.297
 20
190.346
 10
54.586
 20
190.199
 10
54.873
 20
190.058
 10
55.159
 20
189.923
 10
55.443
 20
189.794
 10
55.726
 20
189.67
 10
56.007
 20
189.553
 10
56.282
 20
189.441
 10
56.544
 20
189.335
 10
56.796
 20
189.235
 10
57.035
 20
189.141
 10
57.263
 20
189.052
 10
57.479
 20
188.97
 10
57.683
 20
188.893
 10
57.876
 20
188.822
  0
LWPOLYLINE
  5
A5
330
17
100
AcDbEntity
  8
ENGRAVE_V
100
AcDbPolyline
 90
66
 70
1
 10
56.449
 20
194.598
 10
56.49
 20
194.614
 10
56.529
 20
194.628
 10
56.564
 20
194.639
 10
56.598
 20
194.649
 10
56.628
 20
194.656
 10
56.656
 20
194.662
 10
56.681
 20
194.665
 10
56.704
 20
194.666
 10
56.725
 20
194.662
 10
56.745
 20
194.649
 10
56.765
 20
194.628
 10
56.784
 20
194.598
 10
56.803
 20
194.56
 10
56.822
 20
194.513
 10
56.839
 20
194.458
 10
56.857
 20
194.394
 10
57.808
 20
189.638
 10
57.587
 20
189.74
 10
57.366
 20
189.841
 10
57.145
 20
189.943
 10
56.925
 20
190.045
 10
56.704
 20
190.147
 10
56.483
 20
190.249
 10
56.262
 20
190.351
 10
56.041
 20
190.453
 10
55.825
 20
190.56
 10
55.619
 20
190.676
 10
55.422
 20
190.802
 10
55.234
 20
190.937
 10
55.056
 20
191.082
 10
54.888
 20
191.237
 10
54.729
 20
191.401
 10
54.58
 20
191.574
 10
54.494
 20
191.686
 10
54.421
 20
191.8
 10
54.362
 20
191.917
 10
54.317
 20
192.037
 10
54.286
 20
192.159
 10
54.268
 20
192.284
 10
54.264
 20
192.412
 10
54.274
 20
192.542
 10
54.296
 20
192.672
 10
54.325
 20
192.796
 10
54.364
 20
192.916
 10
54.41
 20
193.031
 10
54.466
 20
193.141
 10
54.529
 20
193.246
 10
54.601
 20
193.347
 10
54.682
 20
193.443
 10
54.769
 20
193.543
 10
54.858
 20
193.638
 10
54.951
 20
193.729
 10
55.047
 20
193.817
 10
55.147
 20
193.899
 10
55.249
 20
193.978
 10
55.355
 20
194.052
 10
55.464
 20
194.122
 10
55.576
 20
194.189
 10
55.691
 20
194.254
 10
55.809
 20
194.317
 10
55.931
 20
194.377
 10
56.056
 20
194.436
 10
56.183
 20
194.492
 10
56.315
 20
194.546
 10
56.449
 20
194.598
  0
LWPOLYLINE
  5
A6
330
17
100
AcDbEntity
  8
ENGRAVE_V
100
AcDbPolyline
 90
874
 70
1
 10
71.0
 20
394.269
 10
70.988
 20
393.748
 10
70.95
 20
393.252
 10
70.888
 20
392.781
 10
70.802
 20
392.336
 10
70.69
 20
391.916
 10
70.554
 20
391.521
 10
70.393
 20
391.152
 10
70.207
 20
390.807
 10
70.004
 20
390.496
 10
69.79
 20
390.227
 10
69.565
 20
389.999
 10
69.33
 20
389.812
 10
69.085
 20
389.667
 10
68.829
 20
389.564
 10
68.563
 20
389.501
 10
68.286
 20
389.481
 10
68.077
 20
389.494
 10
67.864
 20
389.535
 10
67.647
 20
389.603
 10
67.424
 20
389.698
 10
67.197
 20
389.82
 10
66.965
 20
389.97
 10
66.728
 20
390.146
 10
66.486
 20
390.35
 10
66.245
 20
390.584
 10
66.01
 20
390.852
 10
65.78
 20
391.154
 10
65.556
 20
391.49
 10
65.338
 20
391.859
 10
65.125
 20
392.263
 10
64.919
 20
392.7
 10
64.717
 20
393.171
 10
64.419
 20
393.924
 10
64.149
 20
394.688
 10
63.906
 20
395.464
 10
63.692
 20
396.251
 10
63.506
 20
397.05
 10
63.348
 20
397.86
 10
63.218
 20
398.681
 10
63.116
 20
399.514
 10
63.034
 20
400.356
 10
62.963
 20
401.205
 10
62.903
 20
402.061
 10
62.853
 20
402.923
 10
62.815
 20
403.791
 10
62.788
 20
404.667
 10
62.771
 20
405.549
 10
62.766
 20
406.437
 10
62.377
 20
406.671
 10
61.975
 20
406.898
 10
61.558
 20
407.119
 10
61.126
 20
407.333
 10
60.681
 20
407.542
 10
60.221
 20
407.744
 10
59.747
 20
407.94
 10
59.258
 20
408.13
 10
58.76
 20
408.315
 10
58.256
 20
408.495
 10
57.746
 20
408.671
 10
57.23
 20
408.843
 10
56.709
 20
409.01
 10
56.182
 20
409.174
 10
55.649
 20
409.333
 10
55.111
 20
409.487
 10
54.571
 20
409.638
 10
54.036
 20
409.785
 10
53.504
 20
409.927
 10
52.976
 20
410.067
 10
52.452
 20
410.202
 10
51.931
 20
410.333
 10
51.415
 20
410.461
 10
50.902
 20
410.585
 10
51.22
 20
410.442
 10
51.548
 20
410.288
 10
51.887
 20
410.122
 10
52.236
 20
409.945
 10
52.596
 20
409.756
 10
52.966
 20
409.556
 10
53.347
 20
409.344
 10
53.738
 20
409.121
 10
54.133
 20
408.888
 10
54.525
 20
408.647
 10
54.913
 20
408.396
 10
55.298
 20
408.138
 10
55.679
 20
407.87
 10
56.057
 20
407.594
 10
56.432
 20
407.31
 10
56.803
 20
407.017
 10
57.165
 20
406.716
 10
57.511
 20
406.407
 10
57.842
 20
406.09
 10
58.157
 20
405.766
 10
58.456
 20
405.435
 10
58.739
 20
405.096
 10
59.007
 20
404.749
 10
59.258
 20
404.394
 10
59.537
 20
403.95
 10
59.779
 20
403.502
 10
59.983
 20
403.05
 10
60.15
 20
402.595
 10
60.281
 20
402.135
 10
60.373
 20
401.672
 10
60.429
 20
401.205
 10
60.448
 20
400.734
 10
60.435
 20
400.39
 10
60.396
 20
400.058
 10
60.332
 20
399.738
 10
60.242
 20
399.431
 10
60.126
 20
399.136
 10
59.985
 20
398.853
 10
59.817
 20
398.583
 10
59.624
 20
398.325
 10
59.404
 20
398.089
 10
59.154
 20
397.885
 10
58.874
 20
397.712
 10
58.565
 20
397.57
 10
58.226
 20
397.46
 10
57.857
 20
397.382
 10
57.46
 20
397.334
 10
57.032
 20
397.319
 10
56.986
 20
397.319
 10
56.939
 20
397.32
 10
56.891
 20
397.321
 10
56.841
 20
397.322
 10
56.791
 20
397.325
 10
56.74
 20
397.327
 10
56.689
 20
397.33
 10
56.636
 20
397.334
 10
56.582
 20
397.338
 10
56.529
 20
397.342
 10
56.476
 20
397.347
 10
56.422
 20
397.353
 10
56.369
 20
397.359
 10
56.315
 20
397.365
 10
56.262
 20
397.372
 10
56.209
 20
397.38
 10
55.824
 20
397.448
 10
55.431
 20
397.533
 10
55.031
 20
397.633
 10
54.623
 20
397.749
 10
54.207
 20
397.881
 10
53.784
 20
398.029
 10
53.353
 20
398.192
 10
52.915
 20
398.371
 10
52.473
 20
398.561
 10
52.033
 20
398.758
 10
51.595
 20
398.961
 10
51.158
 20
399.171
 10
50.722
 20
399.388
 10
50.287
 20
399.612
 10
49.854
 20
399.842
 10
49.423
 20
400.079
 10
48.998
 20
400.317
 10
48.583
 20
400.55
 10
48.18
 20
400.78
 10
47.788
 20
401.005
 10
47.406
 20
401.226
 10
47.036
 20
401.442
 10
46.676
 20
401.655
 10
46.327
 20
401.863
 10
45.93
 20
402.103
 10
45.531
 20
402.335
 10
45.129
 20
402.56
 10
44.726
 20
402.778
 10
44.321
 20
402.987
 10
43.914
 20
403.189
 10
43.505
 20
403.384
 10
43.095
 20
403.571
 10
42.685
 20
403.748
 10
42.279
 20
403.916
 10
41.877
 20
404.072
 10
41.478
 20
404.219
 10
41.084
 20
404.355
 10
40.693
 20
404.48
 10
40.306
 20
404.595
 10
39.923
 20
404.699
 10
39.547
 20
404.792
 10
39.183
 20
404.872
 10
38.831
 20
404.941
 10
38.49
 20
404.996
 10
38.16
 20
405.04
 10
37.841
 20
405.071
 10
37.535
 20
405.089
 10
37.239
 20
405.096
 10
37.021
 20
405.091
 10
36.809
 20
405.079
 10
36.604
 20
405.059
 10
36.404
 20
405.031
 10
36.211
 20
404.994
 10
36.024
 20
404.95
 10
35.843
 20
404.897
 10
35.669
 20
404.836
 10
35.502
 20
404.766
 10
35.345
 20
404.687
 10
35.199
 20
404.597
 10
35.062
 20
404.497
 10
34.936
 20
404.387
 10
34.819
 20
404.267
 10
34.713
 20
404.137
 10
34.616
 20
403.998
 10
34.416
 20
403.654
 10
34.243
 20
403.296
 10
34.096
 20
402.923
 10
33.976
 20
402.534
 10
33.883
 20
402.13
 10
33.816
 20
401.71
 10
33.776
 20
401.276
 10
33.762
 20
400.826
 10
33.776
 20
400.335
 10
33.818
 20
399.837
 10
33.887
 20
399.332
 10
33.984
 20
398.821
 10
34.108
 20
398.303
 10
34.26
 20
397.778
 10
34.44
 20
397.247
 10
34.647
 20
396.709
 10
34.878
 20
396.169
 10
35.128
 20
395.633
 10
35.398
 20
395.1
 10
35.688
 20
394.57
 10
35.997
 20
394.044
 10
36.325
 20
393.521
 10
36.673
 20
393.001
 10
37.041
 20
392.485
 10
37.425
 20
391.977
 10
37.821
 20
391.483
 10
38.231
 20
391.003
 10
38.653
 20
390.537
 10
39.089
 20
390.084
 10
39.537
 20
389.646
 10
39.998
 20
389.221
 10
40.472
 20
388.81
 10
40.955
 20
388.417
 10
41.442
 20
388.047
 10
41.934
 20
387.7
 10
42.431
 20
387.376
 10
42.933
 20
387.075
 10
43.44
 20
386.797
 10
43.951
 20
386.542
 10
44.467
 20
386.309
 10
44.792
 20
386.176
 10
45.111
 20
386.053
 10
45.425
 20
385.938
 10
45.733
 20
385.832
 10
46.035
 20
385.736
 10
46.331
 20
385.649
 10
46.622
 20
385.57
 10
46.907
 20
385.501
 10
47.186
 20
385.44
 10
47.46
 20
385.387
 10
47.727
 20
385.343
 10
47.99
 20
385.306
 10
48.246
 20
385.278
 10
48.497
 20
385.258
 10
48.742
 20
385.246
 10
48.981
 20
385.242
 10
49.384
 20
385.252
 10
49.769
 20
385.282
 10
50.137
 20
385.332
 10
50.487
 20
385.402
 10
50.819
 20
385.492
 10
51.134
 20
385.602
 10
51.431
 20
385.732
 10
51.71
 20
385.882
 10
51.973
 20
386.048
 10
52.218
 20
386.227
 10
52.447
 20
386.418
 10
52.66
 20
386.622
 10
52.855
 20
386.837
 10
53.034
 20
387.066
 10
53.196
 20
387.306
 10
53.342
 20
387.559
 10
53.471
 20
387.821
 10
53.582
 20
388.087
 10
53.676
 20
388.359
 10
53.754
 20
388.634
 10
53.814
 20
388.915
 10
53.857
 20
389.201
 10
53.882
 20
389.491
 10
53.891
 20
389.786
 10
53.886
 20
390.03
 10
53.87
 20
390.274
 10
53.844
 20
390.518
 10
53.807
 20
390.762
 10
53.76
 20
391.006
 10
53.702
 20
391.25
 10
53.634
 20
391.494
 10
53.555
 20
391.738
 10
53.456
 20
392.002
 10
53.342
 20
392.263
 10
53.212
 20
392.519
 10
53.067
 20
392.771
 10
52.907
 20
393.018
 10
52.732
 20
393.261
 10
52.541
 20
393.5
 10
52.335
 20
393.735
 10
52.119
 20
393.964
 10
51.895
 20
394.187
 10
51.665
 20
394.403
 10
51.428
 20
394.612
 10
51.185
 20
394.814
 10
50.934
 20
395.01
 10
50.678
 20
395.2
 10
50.414
 20
395.382
 10
50.147
 20
395.556
 10
49.879
 20
395.72
 10
49.609
 20
395.875
 10
49.339
 20
396.019
 10
49.068
 20
396.153
 10
48.796
 20
396.277
 10
48.523
 20
396.391
 10
48.249
 20
396.495
 10
47.978
 20
396.588
 10
47.713
 20
396.669
 10
47.455
 20
396.737
 10
47.204
 20
396.793
 10
46.96
 20
396.836
 10
46.722
 20
396.867
 10
46.491
 20
396.885
 10
46.266
 20
396.892
 10
46.05
 20
396.885
 10
45.844
 20
396.864
 10
45.648
 20
396.829
 10
45.462
 20
396.781
 10
45.286
 20
396.719
 10
45.12
 20
396.643
 10
44.964
 20
396.553
 10
44.818
 20
396.449
 10
44.686
 20
396.33
 10
44.571
 20
396.193
 10
44.474
 20
396.038
 10
44.395
 20
395.866
 10
44.333
 20
395.676
 10
44.289
 20
395.469
 10
44.262
 20
395.244
 10
44.254
 20
395.001
 10
44.255
 20
394.908
 10
44.259
 20
394.814
 10
44.266
 20
394.718
 10
44.276
 20
394.62
 10
44.289
 20
394.52
 10
44.305
 20
394.418
 10
44.324
 20
394.314
 10
44.345
 20
394.208
 10
44.352
 20
394.178
 10
44.358
 20
394.149
 10
44.364
 20
394.121
 10
44.368
 20
394.093
 10
44.371
 20
394.067
 10
44.374
 20
394.042
 10
44.375
 20
394.018
 10
44.376
 20
393.994
 10
44.376
 20
393.972
 10
44.376
 20
393.951
 10
44.376
 20
393.93
 10
44.376
 20
393.911
 10
44.376
 20
393.892
 10
44.376
 20
393.874
 10
44.376
 20
393.858
 10
44.376
 20
393.842
 10
44.374
 20
393.778
 10
44.368
 20
393.722
 10
44.358
 20
393.675
 10
44.345
 20
393.636
 10
44.328
 20
393.606
 10
44.307
 20
393.585
 10
44.282
 20
393.572
 10
44.254
 20
393.567
 10
44.237
 20
393.57
 10
44.218
 20
393.579
 10
44.197
 20
393.593
 10
44.174
 20
393.613
 10
44.148
 20
393.639
 10
44.119
 20
393.67
 10
44.088
 20
393.708
 10
44.055
 20
393.75
 10
44.023
 20
393.797
 10
43.993
 20
393.844
 10
43.967
 20
393.892
 10
43.945
 20
393.941
 10
43.926
 20
393.991
 10
43.91
 20
394.042
 10
43.897
 20
394.094
 10
43.888
 20
394.147
 10
43.838
 20
394.364
 10
43.794
 20
394.572
 10
43.758
 20
394.772
 10
43.728
 20
394.963
 10
43.704
 20
395.145
 10
43.688
 20
395.319
 10
43.677
 20
395.484
 10
43.674
 20
395.641
 10
43.685
 20
395.943
 10
43.718
 20
396.225
 10
43.773
 20
396.485
 10
43.85
 20
396.724
 10
43.948
 20
396.942
 10
44.069
 20
397.139
 10
44.211
 20
397.316
 10
44.376
 20
397.471
 10
44.557
 20
397.607
 10
44.751
 20
397.725
 10
44.957
 20
397.824
 10
45.176
 20
397.906
 10
45.407
 20
397.969
 10
45.651
 20
398.014
 10
45.907
 20
398.042
 10
46.175
 20
398.051
 10
46.5
 20
398.038
 10
46.834
 20
398.002
 10
47.176
 20
397.941
 10
47.528
 20
397.856
 10
47.889
 20
397.747
 10
48.259
 20
397.613
 10
48.638
 20
397.455
 10
49.026
 20
397.273
 10
49.417
 20
397.068
 10
49.802
 20
396.843
 10
50.183
 20
396.597
 10
50.559
 20
396.331
 10
50.93
 20
396.045
 10
51.297
 20
395.738
 10
51.658
 20
395.41
 10
52.015
 20
395.062
 10
52.36
 20
394.694
 10
52.687
 20
394.309
 10
52.995
 20
393.905
 10
53.285
 20
393.484
 10
53.556
 20
393.044
 10
53.808
 20
392.586
 10
54.042
 20
392.11
 10
54.257
 20
391.616
 10
54.364
 20
391.34
 10
54.457
 20
391.063
 10
54.536
 20
390.784
 10
54.6
 20
390.502
 10
54.65
 20
390.219
 10
54.686
 20
389.934
 10
54.707
 20
389.648
 10
54.714
 20
389.359
 10
54.702
 20
388.981
 10
54.666
 20
388.609
 10
54.605
 20
388.243
 10
54.52
 20
387.883
 10
54.411
 20
387.53
 10
54.277
 20
387.183
 10
54.119
 20
386.842
 10
53.937
 20
386.507
 10
53.732
 20
386.183
 10
53.507
 20
385.875
 10
53.261
 20
385.583
 10
52.995
 20
385.306
 10
52.708
 20
385.045
 10
52.401
 20
384.8
 10
52.074
 20
384.571
 10
51.726
 20
384.357
 10
51.359
 20
384.164
 10
50.976
 20
383.997
 10
50.578
 20
383.855
 10
50.163
 20
383.74
 10
49.731
 20
383.65
 10
49.284
 20
383.585
 10
48.82
 20
383.547
 10
48.34
 20
383.534
 10
48.044
 20
383.538
 10
47.748
 20
383.553
 10
47.455
 20
383.577
 10
47.162
 20
383.61
 10
46.871
 20
383.653
 10
46.582
 20
383.705
 10
46.294
 20
383.767
 10
46.007
 20
383.839
 10
45.72
 20
383.919
 10
45.431
 20
384.008
 10
45.139
 20
384.106
 10
44.845
 20
384.212
 10
44.548
 20
384.327
 10
44.249
 20
384.451
 10
43.947
 20
384.583
 10
43.644
 20
384.723
 10
43.063
 20
385.017
 10
42.495
 20
385.333
 10
41.94
 20
385.672
 10
41.398
 20
386.035
 10
40.869
 20
386.42
 10
40.353
 20
386.827
 10
39.849
 20
387.258
 10
39.359
 20
387.712
 10
38.882
 20
388.183
 10
38.422
 20
388.666
 10
37.977
 20
389.161
 10
37.548
 20
389.668
 10
37.135
 20
390.186
 10
36.737
 20
390.717
 10
36.355
 20
391.259
 10
35.989
 20
391.814
 10
35.641
 20
392.375
 10
35.313
 20
392.939
 10
35.006
 20
393.506
 10
34.719
 20
394.074
 10
34.453
 20
394.646
 10
34.208
 20
395.219
 10
33.982
 20
395.795
 10
33.778
 20
396.373
 10
33.595
 20
396.948
 10
33.437
 20
397.515
 10
33.304
 20
398.073
 10
33.194
 20
398.622
 10
33.109
 20
399.163
 10
33.049
 20
399.696
 10
33.012
 20
400.219
 10
33.0
 20
400.734
 10
33.002
 20
400.954
 10
33.009
 20
401.171
 10
33.019
 20
401.385
 10
33.034
 20
401.596
 10
33.054
 20
401.804
 10
33.077
 20
402.01
 10
33.105
 20
402.212
 10
33.137
 20
402.412
 10
33.175
 20
402.608
 10
33.218
 20
402.801
 10
33.268
 20
402.989
 10
33.324
 20
403.174
 10
33.386
 20
403.355
 10
33.455
 20
403.533
 10
33.529
 20
403.706
 10
33.61
 20
403.876
 10
33.794
 20
404.265
 10
33.996
 20
404.625
 10
34.215
 20
404.955
 10
34.452
 20
405.256
 10
34.707
 20
405.527
 10
34.979
 20
405.768
 10
35.269
 20
405.98
 10
35.577
 20
406.163
 10
35.898
 20
406.32
 10
36.228
 20
406.456
 10
36.567
 20
406.572
 10
36.915
 20
406.666
 10
37.272
 20
406.74
 10
37.638
 20
406.792
 10
38.014
 20
406.823
 10
38.398
 20
406.834
 10
38.836
 20
406.823
 10
39.282
 20
406.79
 10
39.734
 20
406.735
 10
40.194
 20
406.659
 10
40.66
 20
406.56
 10
41.134
 20
406.439
 10
41.615
 20
406.297
 10
42.104
 20
406.132
 10
42.594
 20
405.951
 10
43.08
 20
405.757
 10
43.564
 20
405.551
 10
44.044
 20
405.332
 10
44.521
 20
405.101
 10
44.994
 20
404.857
 10
45.464
 20
404.601
 10
45.931
 20
404.333
 10
46.368
 20
404.075
 10
46.81
 20
403.817
 10
47.256
 20
403.562
 10
47.707
 20
403.308
 10
48.163
 20
403.055
 10
48.624
 20
402.803
 10
49.09
 20
402.553
 10
49.56
 20
402.305
 10
50.031
 20
402.061
 10
50.498
 20
401.826
 10
50.961
 20
401.598
 10
51.421
 20
401.379
 10
51.876
 20
401.167
 10
52.328
 20
400.964
 10
52.776
 20
400.769
 10
53.22
 20
400.582
 10
53.656
 20
400.406
 10
54.081
 20
400.243
 10
54.495
 20
400.093
 10
54.897
 20
399.957
 10
55.288
 20
399.834
 10
55.667
 20
399.724
 10
56.035
 20
399.628
 10
56.392
 20
399.545
 10
56.468
 20
399.53
 10
56.544
 20
399.516
 10
56.62
 20
399.503
 10
56.697
 20
399.492
 10
56.773
 20
399.481
 10
56.849
 20
399.471
 10
56.925
 20
399.462
 10
57.002
 20
399.453
 10
57.077
 20
399.446
 10
57.15
 20
399.44
 10
57.222
 20
399.435
 10
57.291
 20
399.431
 10
57.359
 20
399.427
 10
57.425
 20
399.425
 10
57.489
 20
399.423
 10
57.551
 20
399.423
 10
57.808
 20
399.431
 10
58.048
 20
399.455
 10
58.27
 20
399.496
 10
58.473
 20
399.553
 10
58.658
 20
399.625
 10
58.826
 20
399.715
 10
58.975
 20
399.82
 10
59.106
 20
399.941
 10
59.22
 20
400.075
 10
59.319
 20
400.218
 10
59.403
 20
400.369
 10
59.472
 20
400.528
 10
59.525
 20
400.697
 10
59.563
 20
400.873
 10
59.586
 20
401.059
 10
59.594
 20
401.253
 10
59.578
 20
401.575
 10
59.531
 20
401.903
 10
59.452
 20
402.235
 10
59.342
 20
402.572
 10
59.201
 20
402.913
 10
59.028
 20
403.26
 10
58.823
 20
403.611
 10
58.587
 20
403.967
 10
58.381
 20
404.248
 10
58.159
 20
404.527
 10
57.92
 20
404.803
 10
57.665
 20
405.076
 10
57.394
 20
405.348
 10
57.106
 20
405.617
 10
56.803
 20
405.883
 10
56.483
 20
406.148
 10
56.151
 20
406.409
 10
55.811
 20
406.665
 10
55.463
 20
406.917
 10
55.107
 20
407.166
 10
54.743
 20
407.409
 10
54.37
 20
407.649
 10
53.99
 20
407.884
 10
53.601
 20
408.115
 10
53.208
 20
408.341
 10
52.814
 20
408.561
 10
52.419
 20
408.775
 10
52.023
 20
408.984
 10
51.626
 20
409.187
 10
51.228
 20
409.384
 10
50.829
 20
409.576
 10
50.429
 20
409.762
 10
50.032
 20
409.941
 10
49.641
 20
410.114
 10
49.256
 20
410.281
 10
48.878
 20
410.44
 10
48.505
 20
410.593
 10
48.139
 20
410.739
 10
47.779
 20
410.879
 10
47.425
 20
411.012
 10
47.082
 20
411.138
 10
46.753
 20
411.256
 10
46.438
 20
411.367
 10
46.137
 20
411.47
 10
45.85
 20
411.565
 10
45.578
 20
411.652
 10
45.321
 20
411.733
 10
45.077
 20
411.805
 10
45.007
 20
411.825
 10
44.934
 20
411.856
 10
44.858
 20
411.898
 10
44.78
 20
411.95
 10
44.698
 20
412.012
 10
44.614
 20
412.085
 10
44.527
 20
412.169
 10
44.437
 20
412.262
 10
44.351
 20
412.361
 10
44.276
 20
412.459
 10
44.214
 20
412.556
 10
44.162
 20
412.651
 10
44.122
 20
412.746
 10
44.093
 20
412.84
 10
44.076
 20
412.933
 10
44.071
 20
413.025
 10
44.074
 20
413.085
 10
44.086
 20
413.144
 10
44.105
 20
413.201
 10
44.132
 20
413.257
 10
44.166
 20
413.312
 10
44.208
 20
413.365
 10
44.257
 20
413.417
 10
44.315
 20
413.467
 10
44.381
 20
413.514
 10
44.459
 20
413.554
 10
44.549
 20
413.588
 10
44.65
 20
413.616
 10
44.763
 20
413.637
 10
44.886
 20
413.653
 10
45.022
 20
413.662
 10
45.169
 20
413.665
 10
45.331
 20
413.661
 10
45.514
 20
413.648
 10
45.716
 20
413.627
 10
45.939
 20
413.597
 10
46.181
 20
413.558
 10
46.444
 20
413.511
 10
46.726
 20
413.455
 10
47.029
 20
413.391
 10
47.476
 20
413.289
 10
47.934
 20
413.18
 10
48.403
 20
413.066
 10
48.882
 20
412.945
 10
49.371
 20
412.818
 10
49.871
 20
412.685
 10
50.381
 20
412.545
 10
50.902
 20
412.4
 10
51.429
 20
412.249
 10
51.959
 20
412.094
 10
52.491
 20
411.934
 10
53.025
 20
411.771
 10
53.562
 20
411.603
 10
54.101
 20
411.43
 10
54.643
 20
411.254
 10
55.187
 20
411.073
 10
55.729
 20
410.889
 10
56.263
 20
410.702
 10
56.79
 20
410.513
 10
57.31
 20
410.322
 10
57.823
 20
410.128
 10
58.329
 20
409.932
 10
58.828
 20
409.734
 10
59.319
 20
409.533
 10
59.8
 20
409.331
 10
60.265
 20
409.128
 10
60.715
 20
408.925
 10
61.149
 20
408.721
 10
61.569
 20
408.517
 10
61.973
 20
408.312
 10
62.362
 20
408.107
 10
62.735
 20
407.901
 10
62.735
 20
408.12
 10
62.733
 20
408.348
 10
62.731
 20
408.587
 10
62.728
 20
408.835
 10
62.723
 20
409.094
 10
62.718
 20
409.362
 10
62.712
 20
409.641
 10
62.705
 20
409.929
 10
62.695
 20
410.224
 10
62.682
 20
410.519
 10
62.665
 20
410.816
 10
62.644
 20
411.115
 10
62.619
 20
411.415
 10
62.59
 20
411.716
 10
62.558
 20
412.019
 10
62.522
 20
412.323
 10
62.481
 20
412.626
 10
62.434
 20
412.922
 10
62.382
 20
413.213
 10
62.323
 20
413.498
 10
62.26
 20
413.777
 10
62.19
 20
414.05
 10
62.115
 20
414.318
 10
62.034
 20
414.58
 10
61.946
 20
414.833
 10
61.851
 20
415.074
 10
61.748
 20
415.302
 10
61.637
 20
415.518
 10
61.519
 20
415.722
 10
61.393
 20
415.913
 10
61.26
 20
416.091
 10
61.119
 20
416.258
 10
60.969
 20
416.408
 10
60.81
 20
416.538
 10
60.641
 20
416.648
 10
60.463
 20
416.738
 10
60.275
 20
416.808
 10
60.078
 20
416.858
 10
59.871
 20
416.888
 10
59.655
 20
416.898
 10
59.472
 20
416.898
 10
59.408
 20
416.9
 10
59.352
 20
416.904
 10
59.305
 20
416.911
 10
59.266
 20
416.921
 10
59.236
 20
416.934
 10
59.215
 20
416.95
 10
59.202
 20
416.968
 10
59.197
 20
416.99
 10
59.205
 20
417.021
 10
59.228
 20
417.052
 10
59.266
 20
417.085
 10
59.319
 20
417.119
 10
59.388
 20
417.154
 10
59.472
 20
417.19
 10
59.571
 20
417.226
 10
59.685
 20
417.264
 10
59.708
 20
417.271
 10
59.731
 20
417.278
 10
59.754
 20
417.285
 10
59.777
 20
417.291
 10
59.8
 20
417.296
 10
59.823
 20
417.301
 10
59.846
 20
417.306
 10
59.868
 20
417.31
 10
59.892
 20
417.313
 10
59.916
 20
417.316
 10
59.941
 20
417.319
 10
59.967
 20
417.321
 10
59.995
 20
417.323
 10
60.023
 20
417.324
 10
60.052
 20
417.325
 10
60.082
 20
417.325
 10
60.245
 20
417.317
 10
60.413
 20
417.292
 10
60.586
 20
417.25
 10
60.764
 20
417.192
 10
60.948
 20
417.117
 10
61.137
 20
417.025
 10
61.331
 20
416.916
 10
61.53
 20
416.791
 10
61.728
 20
416.647
 10
61.916
 20
416.48
 10
62.096
 20
416.29
 10
62.266
 20
416.078
 10
62.428
 20
415.844
 10
62.58
 20
415.588
 10
62.723
 20
415.309
 10
62.857
 20
415.007
 10
62.966
 20
414.711
 10
63.063
 20
414.385
 10
63.149
 20
414.03
 10
63.223
 20
413.646
 10
63.286
 20
413.233
 10
63.337
 20
412.791
 10
63.378
 20
412.32
 10
63.406
 20
411.82
 10
63.428
 20
411.301
 10
63.448
 20
410.773
 10
63.466
 20
410.236
 10
63.482
 20
409.689
 10
63.497
 20
409.134
 10
63.509
 20
408.569
 10
63.52
 20
407.996
 10
63.528
 20
407.413
 10
64.098
 20
407.02
 10
64.647
 20
406.602
 10
65.176
 20
406.16
 10
65.686
 20
405.694
 10
66.175
 20
405.203
 10
66.645
 20
404.689
 10
67.094
 20
404.149
 10
67.523
 20
403.586
 10
67.93
 20
403.01
 10
68.312
 20
402.432
 10
68.67
 20
401.853
 10
69.002
 20
401.272
 10
69.31
 20
400.69
 10
69.593
 20
400.106
 10
69.852
 20
399.521
 10
70.085
 20
398.935
 10
70.203
 20
398.616
 10
70.312
 20
398.301
 10
70.412
 20
397.989
 10
70.504
 20
397.681
 10
70.588
 20
397.376
 10
70.663
 20
397.074
 10
70.729
 20
396.775
 10
70.787
 20
396.48
 10
70.837
 20
396.189
 10
70.88
 20
395.901
 10
70.917
 20
395.619
 10
70.947
 20
395.34
 10
70.97
 20
395.066
 10
70.987
 20
394.796
 10
70.997
 20
394.53
 10
71.0
 20
394.269
  0
LWPOLYLINE
  5
A7
330
17
100
AcDbEntity
  8
ENGRAVE_V
100
AcDbPolyline
 90
89
 70
1
 10
70.146
 20
394.482
 10
70.143
 20
394.706
 10
70.135
 20
394.934
 10
70.12
 20
395.167
 10
70.1
 20
395.405
 10
70.075
 20
395.647
 10
70.043
 20
395.895
 10
70.006
 20
396.147
 10
69.963
 20
396.404
 10
69.914
 20
396.662
 10
69.86
 20
396.92
 10
69.8
 20
397.177
 10
69.734
 20
397.433
 10
69.663
 20
397.688
 10
69.586
 20
397.942
 10
69.503
 20
398.195
 10
69.414
 20
398.447
 10
69.213
 20
398.965
 10
68.99
 20
399.483
 10
68.746
 20
400.0
 10
68.48
 20
400.517
 10
68.193
 20
401.033
 10
67.884
 20
401.549
 10
67.554
 20
402.065
 10
67.203
 20
402.579
 10
66.829
 20
403.084
 10
66.43
 20
403.568
 10
66.007
 20
404.031
 10
65.56
 20
404.474
 10
65.088
 20
404.897
 10
64.593
 20
405.299
 10
64.073
 20
405.68
 10
63.528
 20
406.041
 10
63.531
 20
405.522
 10
63.54
 20
405.0
 10
63.556
 20
404.477
 10
63.578
 20
403.952
 10
63.606
 20
403.425
 10
63.64
 20
402.896
 10
63.68
 20
402.365
 10
63.726
 20
401.832
 10
63.781
 20
401.3
 10
63.846
 20
400.771
 10
63.922
 20
400.244
 10
64.008
 20
399.72
 10
64.105
 20
399.199
 10
64.212
 20
398.681
 10
64.33
 20
398.166
 10
64.458
 20
397.654
 10
64.6
 20
397.147
 10
64.758
 20
396.646
 10
64.934
 20
396.152
 10
65.125
 20
395.664
 10
65.334
 20
395.183
 10
65.559
 20
394.709
 10
65.801
 20
394.242
 10
66.059
 20
393.781
 10
66.249
 20
393.45
 10
66.435
 20
393.143
 10
66.618
 20
392.861
 10
66.799
 20
392.603
 10
66.977
 20
392.369
 10
67.152
 20
392.16
 10
67.324
 20
391.975
 10
67.493
 20
391.814
 10
67.658
 20
391.674
 10
67.819
 20
391.554
 10
67.975
 20
391.451
 10
68.126
 20
391.368
 10
68.272
 20
391.303
 10
68.413
 20
391.256
 10
68.55
 20
391.228
 10
68.682
 20
391.219
 10
68.846
 20
391.234
 10
69.001
 20
391.277
 10
69.147
 20
391.35
 10
69.285
 20
391.452
 10
69.414
 20
391.582
 10
69.534
 20
391.742
 10
69.646
 20
391.931
 10
69.75
 20
392.149
 10
69.843
 20
392.389
 10
69.923
 20
392.644
 10
69.991
 20
392.913
 10
70.047
 20
393.198
 10
70.09
 20
393.497
 10
70.121
 20
393.81
 10
70.14
 20
394.139
 10
70.146
 20
394.482
  0
LWPOLYLINE
  5
A8
330
17
100
AcDbEntity
  8
ENGRAVE_V
100
AcDbPolyline
 90
153
 70
1
 10
58.801
 20
416.41
 10
58.787
 20
416.108
 10
58.745
 20
415.826
 10
58.674
 20
415.565
 10
58.576
 20
415.324
 10
58.45
 20
415.103
 10
58.295
 20
414.903
 10
58.112
 20
414.724
 10
57.901
 20
414.565
 10
57.67
 20
414.426
 10
57.428
 20
414.305
 10
57.173
 20
414.203
 10
56.906
 20
414.119
 10
56.628
 20
414.054
 10
56.337
 20
414.007
 10
56.035
 20
413.98
 10
55.721
 20
413.97
 10
55.422
 20
413.977
 10
55.12
 20
413.999
 10
54.816
 20
414.035
 10
54.508
 20
414.085
 10
54.198
 20
414.149
 10
53.885
 20
414.228
 10
53.569
 20
414.321
 10
53.25
 20
414.428
 10
52.903
 20
414.556
 10
52.564
 20
414.696
 10
52.233
 20
414.847
 10
51.909
 20
415.011
 10
51.592
 20
415.187
 10
51.283
 20
415.374
 10
50.982
 20
415.574
 10
50.689
 20
415.785
 10
50.406
 20
416.005
 10
50.137
 20
416.231
 10
49.882
 20
416.463
 10
49.64
 20
416.7
 10
49.413
 20
416.943
 10
49.199
 20
417.192
 10
48.999
 20
417.446
 10
48.813
 20
417.706
 10
48.645
 20
417.969
 10
48.499
 20
418.231
 10
48.376
 20
418.493
 10
48.275
 20
418.755
 10
48.197
 20
419.016
 10
48.141
 20
419.276
 10
48.108
 20
419.536
 10
48.096
 20
419.795
 10
48.11
 20
420.098
 10
48.15
 20
420.38
 10
48.216
 20
420.641
 10
48.31
 20
420.882
 10
48.43
 20
421.102
 10
48.577
 20
421.302
 10
48.75
 20
421.482
 10
48.95
 20
421.64
 10
49.171
 20
421.78
 10
49.406
 20
421.901
 10
49.655
 20
422.003
 10
49.919
 20
422.086
 10
50.196
 20
422.152
 10
50.488
 20
422.198
 10
50.795
 20
422.226
 10
51.116
 20
422.235
 10
51.346
 20
422.23
 10
51.579
 20
422.216
 10
51.815
 20
422.192
 10
52.053
 20
422.159
 10
52.295
 20
422.116
 10
52.539
 20
422.064
 10
52.787
 20
422.002
 10
53.037
 20
421.93
 10
53.288
 20
421.851
 10
53.538
 20
421.764
 10
53.787
 20
421.671
 10
54.036
 20
421.572
 10
54.283
 20
421.466
 10
54.529
 20
421.353
 10
54.775
 20
421.233
 10
55.019
 20
421.107
 10
55.112
 20
421.211
 10
55.193
 20
421.326
 10
55.261
 20
421.451
 10
55.317
 20
421.587
 10
55.36
 20
421.733
 10
55.391
 20
421.89
 10
55.41
 20
422.057
 10
55.416
 20
422.235
 10
55.407
 20
422.445
 10
55.381
 20
422.647
 10
55.339
 20
422.841
 10
55.278
 20
423.028
 10
55.201
 20
423.207
 10
55.107
 20
423.379
 10
54.995
 20
423.543
 10
54.867
 20
423.699
 10
54.716
 20
423.851
 10
54.539
 20
424.002
 10
54.335
 20
424.152
 10
54.104
 20
424.301
 10
53.847
 20
424.45
 10
53.563
 20
424.597
 10
53.252
 20
424.743
 10
52.915
 20
424.888
 10
52.919
 20
424.974
 10
52.932
 20
425.049
 10
52.954
 20
425.111
 10
52.984
 20
425.163
 10
53.022
 20
425.203
 10
53.069
 20
425.232
 10
53.125
 20
425.249
 10
53.189
 20
425.254
 10
53.528
 20
425.107
 10
53.844
 20
424.954
 10
54.136
 20
424.796
 10
54.405
 20
424.633
 10
54.651
 20
424.465
 10
54.873
 20
424.291
 10
55.072
 20
424.112
 10
55.248
 20
423.928
 10
55.401
 20
423.735
 10
55.533
 20
423.528
 10
55.643
 20
423.309
 10
55.732
 20
423.078
 10
55.8
 20
422.833
 10
55.846
 20
422.575
 10
55.87
 20
422.305
 10
55.873
 20
422.022
 10
55.867
 20
421.85
 10
55.848
 20
421.686
 10
55.817
 20
421.53
 10
55.774
 20
421.381
 10
55.718
 20
421.24
 10
55.65
 20
421.107
 10
55.57
 20
420.981
 10
55.477
 20
420.863
 10
55.821
 20
420.644
 10
56.151
 20
420.416
 10
56.467
 20
420.177
 10
56.769
 20
419.929
 10
57.058
 20
419.67
 10
57.332
 20
419.402
 10
57.593
 20
419.123
 10
57.84
 20
418.835
 10
58.065
 20
418.54
 10
58.261
 20
418.243
 10
58.426
 20
417.943
 10
58.561
 20
417.641
 10
58.666
 20
417.337
 10
58.741
 20
417.031
 10
58.786
 20
416.722
 10
58.801
 20
416.41
  0
LWPOLYLINE
  5
A9
330
17
100
AcDbEntity
  8
ENGRAVE_V
100
AcDbPolyline
 90
153
 70
1
 10
58.13
 20
416.837
 10
58.121
 20
417.012
 10
58.093
 20
417.188
 10
58.046
 20
417.363
 10
57.981
 20
417.539
 10
57.898
 20
417.714
 10
57.795
 20
417.889
 10
57.675
 20
418.065
 10
57.535
 20
418.24
 10
57.384
 20
418.413
 10
57.227
 20
418.583
 10
57.066
 20
418.749
 10
56.899
 20
418.911
 10
56.726
 20
419.069
 10
56.549
 20
419.224
 10
56.366
 20
419.374
 10
56.178
 20
419.521
 10
55.991
 20
419.66
 10
55.81
 20
419.79
 10
55.636
 20
419.908
 10
55.469
 20
420.016
 10
55.309
 20
420.114
 10
55.155
 20
420.201
 10
55.007
 20
420.278
 10
54.867
 20
420.344
 10
54.653
 20
420.229
 10
54.452
 20
420.126
 10
54.266
 20
420.036
 10
54.093
 20
419.959
 10
53.934
 20
419.895
 10
53.789
 20
419.844
 10
53.658
 20
419.806
 10
53.54
 20
419.78
 10
53.433
 20
419.762
 10
53.333
 20
419.747
 10
53.241
 20
419.734
 10
53.155
 20
419.723
 10
53.077
 20
419.715
 10
53.005
 20
419.709
 10
52.941
 20
419.705
 10
52.884
 20
419.704
 10
52.744
 20
419.709
 10
52.612
 20
419.723
 10
52.488
 20
419.747
 10
52.374
 20
419.78
 10
52.267
 20
419.823
 10
52.17
 20
419.875
 10
52.081
 20
419.937
 10
52.0
 20
420.009
 10
51.929
 20
420.085
 10
51.867
 20
420.161
 10
51.814
 20
420.238
 10
51.771
 20
420.314
 10
51.738
 20
420.39
 10
51.714
 20
420.466
 10
51.7
 20
420.543
 10
51.695
 20
420.619
 10
51.701
 20
420.724
 10
51.718
 20
420.825
 10
51.746
 20
420.922
 10
51.787
 20
421.015
 10
51.838
 20
421.105
 10
51.901
 20
421.191
 10
51.975
 20
421.273
 10
52.061
 20
421.351
 10
51.978
 20
421.365
 10
51.896
 20
421.379
 10
51.816
 20
421.392
 10
51.737
 20
421.404
 10
51.66
 20
421.415
 10
51.584
 20
421.425
 10
51.509
 20
421.434
 10
51.436
 20
421.442
 10
51.364
 20
421.449
 10
51.292
 20
421.456
 10
51.221
 20
421.461
 10
51.15
 20
421.465
 10
51.08
 20
421.468
 10
51.01
 20
421.471
 10
50.94
 20
421.472
 10
50.872
 20
421.473
 10
50.678
 20
421.468
 10
50.493
 20
421.455
 10
50.318
 20
421.432
 10
50.151
 20
421.4
 10
49.994
 20
421.36
 10
49.845
 20
421.31
 10
49.706
 20
421.251
 10
49.575
 20
421.183
 10
49.458
 20
421.106
 10
49.355
 20
421.018
 10
49.269
 20
420.921
 10
49.198
 20
420.813
 10
49.143
 20
420.696
 10
49.104
 20
420.568
 10
49.08
 20
420.431
 10
49.072
 20
420.283
 10
49.081
 20
420.122
 10
49.107
 20
419.959
 10
49.149
 20
419.794
 10
49.209
 20
419.628
 10
49.287
 20
419.459
 10
49.381
 20
419.288
 10
49.493
 20
419.116
 10
49.621
 20
418.941
 10
49.764
 20
418.767
 10
49.919
 20
418.595
 10
50.084
 20
418.426
 10
50.262
 20
418.259
 10
50.45
 20
418.094
 10
50.65
 20
417.932
 10
50.862
 20
417.772
 10
51.085
 20
417.615
 10
51.317
 20
417.461
 10
51.556
 20
417.313
 10
51.801
 20
417.169
 10
52.053
 20
417.032
 10
52.312
 20
416.899
 10
52.578
 20
416.771
 10
52.85
 20
416.649
 10
53.128
 20
416.532
 10
53.363
 20
416.436
 10
53.594
 20
416.345
 10
53.822
 20
416.26
 10
54.047
 20
416.181
 10
54.268
 20
416.108
 10
54.487
 20
416.04
 10
54.701
 20
415.978
 10
54.913
 20
415.922
 10
55.12
 20
415.872
 10
55.323
 20
415.829
 10
55.522
 20
415.792
 10
55.717
 20
415.762
 10
55.907
 20
415.739
 10
56.093
 20
415.722
 10
56.275
 20
415.712
 10
56.453
 20
415.709
 10
56.638
 20
415.713
 10
56.815
 20
415.726
 10
56.982
 20
415.747
 10
57.139
 20
415.777
 10
57.287
 20
415.816
 10
57.425
 20
415.863
 10
57.553
 20
415.919
 10
57.673
 20
415.983
 10
57.78
 20
416.057
 10
57.873
 20
416.139
 10
57.951
 20
416.232
 10
58.016
 20
416.334
 10
58.066
 20
416.445
 10
58.101
 20
416.566
 10
58.123
 20
416.697
 10
58.13
 20
416.837
  0
LWPOLYLINE
  5
AA
330
17
100
AcDbEntity
  8
ENGRAVE_V
100
AcDbPolyline
 90
363
 70
1
 10
58.801
 20
425.773
 10
58.799
 20
425.687
 10
58.791
 20
425.597
 10
58.78
 20
425.502
 10
58.763
 20
425.403
 10
58.741
 20
425.3
 10
58.715
 20
425.192
 10
58.684
 20
425.081
 10
58.648
 20
424.965
 10
58.606
 20
424.848
 10
58.556
 20
424.736
 10
58.498
 20
424.627
 10
58.431
 20
424.522
 10
58.357
 20
424.421
 10
58.274
 20
424.324
 10
58.183
 20
424.231
 10
58.084
 20
424.141
 10
57.975
 20
424.059
 10
57.853
 20
423.988
 10
57.718
 20
423.928
 10
57.57
 20
423.878
 10
57.409
 20
423.84
 10
57.235
 20
423.812
 10
57.049
 20
423.796
 10
56.849
 20
423.791
 10
56.647
 20
423.799
 10
56.437
 20
423.823
 10
56.22
 20
423.863
 10
55.995
 20
423.92
 10
55.763
 20
423.993
 10
55.522
 20
424.082
 10
55.275
 20
424.187
 10
55.019
 20
424.309
 10
54.764
 20
424.437
 10
54.516
 20
424.561
 10
54.276
 20
424.681
 10
54.043
 20
424.797
 10
53.818
 20
424.909
 10
53.601
 20
425.018
 10
53.391
 20
425.123
 10
53.189
 20
425.224
 10
53.185
 20
425.145
 10
53.172
 20
425.077
 10
53.151
 20
425.019
 10
53.121
 20
424.972
 10
53.082
 20
424.936
 10
53.035
 20
424.909
 10
52.979
 20
424.894
 10
52.915
 20
424.888
 10
52.886
 20
424.899
 10
52.844
 20
424.917
 10
52.791
 20
424.941
 10
52.724
 20
424.972
 10
52.646
 20
425.01
 10
52.555
 20
425.054
 10
52.451
 20
425.105
 10
52.335
 20
425.163
 10
52.211
 20
425.225
 10
52.08
 20
425.291
 10
51.944
 20
425.359
 10
51.802
 20
425.43
 10
51.654
 20
425.504
 10
51.501
 20
425.58
 10
51.341
 20
425.66
 10
51.177
 20
425.742
 10
51.01
 20
425.826
 10
50.844
 20
425.909
 10
50.68
 20
425.992
 10
50.517
 20
426.074
 10
50.356
 20
426.156
 10
50.196
 20
426.237
 10
50.037
 20
426.318
 10
49.88
 20
426.398
 10
49.729
 20
426.476
 10
49.586
 20
426.55
 10
49.452
 20
426.619
 10
49.328
 20
426.684
 10
49.212
 20
426.745
 10
49.106
 20
426.801
 10
49.008
 20
426.853
 10
48.92
 20
426.901
 10
48.762
 20
426.999
 10
48.626
 20
427.111
 10
48.511
 20
427.236
 10
48.417
 20
427.374
 10
48.343
 20
427.526
 10
48.291
 20
427.69
 10
48.259
 20
427.869
 10
48.249
 20
428.06
 10
48.249
 20
429.951
 10
48.349
 20
429.823
 10
48.452
 20
429.698
 10
48.557
 20
429.577
 10
48.664
 20
429.459
 10
48.774
 20
429.345
 10
48.886
 20
429.233
 10
49.001
 20
429.125
 10
49.118
 20
429.021
 10
49.248
 20
428.915
 10
49.403
 20
428.803
 10
49.582
 20
428.684
 10
49.785
 20
428.56
 10
50.013
 20
428.429
 10
50.264
 20
428.292
 10
50.541
 20
428.149
 10
50.841
 20
427.999
 10
50.848
 20
427.996
 10
50.868
 20
427.986
 10
50.901
 20
427.969
 10
50.948
 20
427.946
 10
51.008
 20
427.916
 10
51.081
 20
427.879
 10
51.168
 20
427.836
 10
51.268
 20
427.786
 10
51.378
 20
427.731
 10
51.496
 20
427.672
 10
51.62
 20
427.611
 10
51.752
 20
427.546
 10
51.891
 20
427.477
 10
52.037
 20
427.405
 10
52.19
 20
427.33
 10
52.351
 20
427.252
 10
52.515
 20
427.172
 10
52.68
 20
427.092
 10
52.845
 20
427.012
 10
53.01
 20
426.932
 10
53.176
 20
426.852
 10
53.343
 20
426.772
 10
53.51
 20
426.692
 10
53.677
 20
426.612
 10
53.842
 20
426.533
 10
53.999
 20
426.458
 10
54.151
 20
426.386
 10
54.295
 20
426.318
 10
54.433
 20
426.253
 10
54.564
 20
426.191
 10
54.688
 20
426.133
 10
54.806
 20
426.078
 10
55.014
 20
425.983
 10
55.211
 20
425.897
 10
55.397
 20
425.819
 10
55.572
 20
425.75
 10
55.736
 20
425.689
 10
55.889
 20
425.638
 10
56.032
 20
425.594
 10
56.163
 20
425.559
 10
56.288
 20
425.531
 10
56.41
 20
425.506
 10
56.53
 20
425.485
 10
56.647
 20
425.468
 10
56.762
 20
425.455
 10
56.875
 20
425.445
 10
56.985
 20
425.439
 10
57.093
 20
425.437
 10
57.329
 20
425.448
 10
57.533
 20
425.479
 10
57.706
 20
425.532
 10
57.848
 20
425.605
 10
57.958
 20
425.699
 10
58.037
 20
425.815
 10
58.084
 20
425.951
 10
58.1
 20
426.108
 10
58.081
 20
426.296
 10
58.025
 20
426.493
 10
57.932
 20
426.7
 10
57.802
 20
426.917
 10
57.635
 20
427.142
 10
57.43
 20
427.378
 10
57.189
 20
427.623
 10
56.91
 20
427.877
 10
56.652
 20
428.09
 10
56.382
 20
428.302
 10
56.1
 20
428.513
 10
55.805
 20
428.724
 10
55.497
 20
428.933
 10
55.177
 20
429.141
 10
54.845
 20
429.348
 10
54.501
 20
429.555
 10
54.149
 20
429.759
 10
53.794
 20
429.962
 10
53.436
 20
430.161
 10
53.075
 20
430.359
 10
52.711
 20
430.554
 10
52.345
 20
430.747
 10
51.976
 20
430.937
 10
51.604
 20
431.125
 10
51.235
 20
431.309
 10
50.875
 20
431.488
 10
50.526
 20
431.662
 10
50.185
 20
431.83
 10
49.855
 20
431.994
 10
49.534
 20
432.152
 10
49.222
 20
432.304
 10
48.92
 20
432.452
 10
48.762
 20
432.544
 10
48.626
 20
432.652
 10
48.511
 20
432.776
 10
48.417
 20
432.917
 10
48.343
 20
433.074
 10
48.291
 20
433.247
 10
48.259
 20
433.436
 10
48.249
 20
433.641
 10
48.249
 20
435.319
 10
48.395
 20
435.151
 10
48.558
 20
434.982
 10
48.738
 20
434.813
 10
48.935
 20
434.644
 10
49.149
 20
434.474
 10
49.381
 20
434.304
 10
49.63
 20
434.133
 10
49.896
 20
433.961
 10
50.18
 20
433.788
 10
50.483
 20
433.61
 10
50.805
 20
433.428
 10
51.146
 20
433.241
 10
51.506
 20
433.05
 10
51.886
 20
432.855
 10
52.284
 20
432.656
 10
52.701
 20
432.452
 10
52.82
 20
432.397
 10
52.945
 20
432.337
 10
53.079
 20
432.275
 10
53.22
 20
432.208
 10
53.369
 20
432.137
 10
53.525
 20
432.063
 10
53.689
 20
431.985
 10
53.86
 20
431.903
 10
54.037
 20
431.82
 10
54.217
 20
431.74
 10
54.399
 20
431.662
 10
54.585
 20
431.586
 10
54.773
 20
431.513
 10
54.964
 20
431.443
 10
55.158
 20
431.374
 10
55.355
 20
431.308
 10
55.553
 20
431.247
 10
55.751
 20
431.195
 10
55.949
 20
431.15
 10
56.148
 20
431.114
 10
56.346
 20
431.085
 10
56.544
 20
431.065
 10
56.742
 20
431.053
 10
56.941
 20
431.049
 10
57.191
 20
431.061
 10
57.408
 20
431.097
 10
57.591
 20
431.156
 10
57.741
 20
431.24
 10
57.858
 20
431.347
 10
57.941
 20
431.478
 10
57.991
 20
431.633
 10
58.008
 20
431.811
 10
57.986
 20
432.07
 10
57.918
 20
432.326
 10
57.806
 20
432.581
 10
57.65
 20
432.833
 10
57.448
 20
433.084
 10
57.202
 20
433.332
 10
56.911
 20
433.579
 10
56.575
 20
433.824
 10
56.204
 20
434.068
 10
55.808
 20
434.31
 10
55.388
 20
434.552
 10
54.943
 20
434.793
 10
54.473
 20
435.032
 10
53.979
 20
435.271
 10
53.459
 20
435.509
 10
52.915
 20
435.746
 10
52.915
 20
435.803
 10
52.917
 20
435.855
 10
52.919
 20
435.901
 10
52.923
 20
435.94
 10
52.927
 20
435.973
 10
52.932
 20
436.0
 10
52.938
 20
436.021
 10
52.945
 20
436.035
 10
52.956
 20
436.047
 10
52.972
 20
436.057
 10
52.994
 20
436.067
 10
53.022
 20
436.077
 10
53.055
 20
436.087
 10
53.094
 20
436.095
 10
53.139
 20
436.104
 10
53.189
 20
436.112
 10
53.397
 20
436.026
 10
53.61
 20
435.935
 10
53.826
 20
435.841
 10
54.047
 20
435.742
 10
54.272
 20
435.639
 10
54.502
 20
435.531
 10
54.735
 20
435.419
 10
54.974
 20
435.303
 10
55.212
 20
435.183
 10
55.449
 20
435.059
 10
55.683
 20
434.932
 10
55.915
 20
434.8
 10
56.145
 20
434.665
 10
56.372
 20
434.526
 10
56.596
 20
434.383
 10
56.819
 20
434.236
 10
57.034
 20
434.085
 10
57.24
 20
433.931
 10
57.435
 20
433.773
 10
57.619
 20
433.611
 10
57.793
 20
433.445
 10
57.957
 20
433.275
 10
58.11
 20
433.102
 10
58.252
 20
432.925
 10
58.381
 20
432.743
 10
58.492
 20
432.558
 10
58.587
 20
432.368
 10
58.664
 20
432.174
 10
58.724
 20
431.975
 10
58.767
 20
431.772
 10
58.792
 20
431.565
 10
58.801
 20
431.354
 10
58.792
 20
431.168
 10
58.766
 20
430.99
 10
58.722
 20
430.821
 10
58.66
 20
430.66
 10
58.581
 20
430.508
 10
58.484
 20
430.365
 10
58.369
 20
430.23
 10
58.237
 20
430.104
 10
58.088
 20
429.989
 10
57.925
 20
429.89
 10
57.747
 20
429.806
 10
57.554
 20
429.738
 10
57.347
 20
429.684
 10
57.125
 20
429.646
 10
56.887
 20
429.623
 10
56.636
 20
429.616
 10
56.428
 20
429.62
 10
56.216
 20
429.635
 10
56.001
 20
429.658
 10
55.782
 20
429.692
 10
55.559
 20
429.735
 10
55.332
 20
429.787
 10
55.101
 20
429.849
 10
54.867
 20
429.921
 10
55.096
 20
429.789
 10
55.324
 20
429.652
 10
55.553
 20
429.51
 10
55.782
 20
429.364
 10
56.01
 20
429.213
 10
56.239
 20
429.057
 10
56.468
 20
428.896
 10
56.697
 20
428.731
 10
56.92
 20
428.562
 10
57.134
 20
428.39
 10
57.338
 20
428.215
 10
57.532
 20
428.037
 10
57.715
 20
427.857
 10
57.889
 20
427.673
 10
58.053
 20
427.487
 10
58.206
 20
427.298
 10
58.346
 20
427.107
 10
58.466
 20
426.917
 10
58.569
 20
426.726
 10
58.652
 20
426.535
 10
58.717
 20
426.345
 10
58.764
 20
426.154
 10
58.792
 20
425.963
 10
58.801
 20
425.773
  0
LWPOLYLINE
  5
AB
330
17
100
AcDbEntity
  8
ENGRAVE_V
100
AcDbPolyline
 90
305
 70
1
 10
52.823
 20
435.776
 10
52.684
 20
435.839
 10
52.525
 20
435.908
 10
52.347
 20
435.981
 10
52.149
 20
436.058
 10
51.931
 20
436.141
 10
51.694
 20
436.228
 10
51.437
 20
436.32
 10
51.161
 20
436.417
 10
50.871
 20
436.516
 10
50.573
 20
436.617
 10
50.267
 20
436.718
 10
49.953
 20
436.821
 10
49.63
 20
436.924
 10
49.3
 20
437.028
 10
48.961
 20
437.134
 10
48.615
 20
437.24
 10
48.266
 20
437.343
 10
47.923
 20
437.44
 10
47.584
 20
437.53
 10
47.25
 20
437.614
 10
46.921
 20
437.69
 10
46.596
 20
437.76
 10
46.276
 20
437.824
 10
45.961
 20
437.88
 10
45.844
 20
437.906
 10
45.734
 20
437.936
 10
45.632
 20
437.97
 10
45.538
 20
438.01
 10
45.453
 20
438.054
 10
45.375
 20
438.103
 10
45.306
 20
438.157
 10
45.245
 20
438.216
 10
45.191
 20
438.277
 10
45.145
 20
438.34
 10
45.105
 20
438.403
 10
45.073
 20
438.467
 10
45.048
 20
438.533
 10
45.03
 20
438.599
 10
45.02
 20
438.666
 10
45.016
 20
438.734
 10
45.022
 20
438.833
 10
45.04
 20
438.929
 10
45.07
 20
439.023
 10
45.111
 20
439.116
 10
45.165
 20
439.206
 10
45.23
 20
439.295
 10
45.308
 20
439.381
 10
45.397
 20
439.466
 10
45.498
 20
439.545
 10
45.608
 20
439.613
 10
45.728
 20
439.671
 10
45.859
 20
439.718
 10
45.999
 20
439.755
 10
46.149
 20
439.781
 10
46.31
 20
439.797
 10
46.48
 20
439.802
 10
46.69
 20
439.794
 10
46.892
 20
439.77
 10
47.086
 20
439.731
 10
47.273
 20
439.676
 10
47.452
 20
439.605
 10
47.624
 20
439.519
 10
47.788
 20
439.416
 10
47.944
 20
439.299
 10
48.095
 20
439.169
 10
48.245
 20
439.033
 10
48.393
 20
438.889
 10
48.539
 20
438.738
 10
48.682
 20
438.58
 10
48.824
 20
438.415
 10
48.965
 20
438.243
 10
49.103
 20
438.063
 10
49.11
 20
438.14
 10
49.117
 20
438.218
 10
49.123
 20
438.296
 10
49.129
 20
438.376
 10
49.135
 20
438.457
 10
49.14
 20
438.538
 10
49.144
 20
438.62
 10
49.148
 20
438.704
 10
49.152
 20
438.789
 10
49.155
 20
438.875
 10
49.158
 20
438.964
 10
49.16
 20
439.055
 10
49.162
 20
439.147
 10
49.163
 20
439.241
 10
49.163
 20
439.338
 10
49.164
 20
439.436
 10
49.161
 20
439.794
 10
49.152
 20
440.151
 10
49.138
 20
440.507
 10
49.118
 20
440.862
 10
49.092
 20
441.216
 10
49.061
 20
441.569
 10
49.024
 20
441.921
 10
48.981
 20
442.272
 10
49.025
 20
442.286
 10
49.067
 20
442.299
 10
49.105
 20
442.309
 10
49.141
 20
442.318
 10
49.174
 20
442.324
 10
49.204
 20
442.329
 10
49.231
 20
442.332
 10
49.255
 20
442.333
 10
49.358
 20
442.329
 10
49.467
 20
442.319
 10
49.583
 20
442.301
 10
49.705
 20
442.276
 10
49.834
 20
442.244
 10
49.97
 20
442.204
 10
50.112
 20
442.158
 10
50.262
 20
442.104
 10
50.412
 20
442.047
 10
50.559
 20
441.989
 10
50.702
 20
441.931
 10
50.841
 20
441.872
 10
50.976
 20
441.812
 10
51.108
 20
441.753
 10
51.236
 20
441.692
 10
51.36
 20
441.632
 10
51.435
 20
441.597
 10
51.524
 20
441.555
 10
51.628
 20
441.506
 10
51.745
 20
441.449
 10
51.875
 20
441.384
 10
52.02
 20
441.311
 10
52.178
 20
441.231
 10
52.351
 20
441.144
 10
52.533
 20
441.051
 10
52.721
 20
440.957
 10
52.914
 20
440.861
 10
53.113
 20
440.762
 10
53.318
 20
440.662
 10
53.529
 20
440.56
 10
53.745
 20
440.457
 10
53.967
 20
440.351
 10
54.192
 20
440.246
 10
54.415
 20
440.146
 10
54.638
 20
440.05
 10
54.859
 20
439.958
 10
55.08
 20
439.871
 10
55.299
 20
439.787
 10
55.518
 20
439.709
 10
55.736
 20
439.634
 10
55.949
 20
439.566
 10
56.154
 20
439.507
 10
56.351
 20
439.457
 10
56.54
 20
439.417
 10
56.721
 20
439.385
 10
56.894
 20
439.362
 10
57.059
 20
439.349
 10
57.215
 20
439.344
 10
57.401
 20
439.354
 10
57.562
 20
439.382
 10
57.698
 20
439.43
 10
57.81
 20
439.497
 10
57.897
 20
439.583
 10
57.958
 20
439.687
 10
57.996
 20
439.811
 10
58.008
 20
439.954
 10
57.987
 20
440.106
 10
57.923
 20
440.273
 10
57.817
 20
440.453
 10
57.669
 20
440.648
 10
57.478
 20
440.857
 10
57.245
 20
441.081
 10
56.969
 20
441.319
 10
56.651
 20
441.571
 10
56.296
 20
441.83
 10
55.908
 20
442.089
 10
55.489
 20
442.348
 10
55.038
 20
442.608
 10
54.555
 20
442.867
 10
54.04
 20
443.126
 10
53.494
 20
443.385
 10
52.915
 20
443.644
 10
52.919
 20
443.73
 10
52.932
 20
443.805
 10
52.954
 20
443.867
 10
52.984
 20
443.919
 10
53.022
 20
443.959
 10
53.069
 20
443.988
 10
53.125
 20
444.005
 10
53.189
 20
444.01
 10
53.398
 20
443.924
 10
53.611
 20
443.832
 10
53.828
 20
443.735
 10
54.051
 20
443.633
 10
54.278
 20
443.526
 10
54.51
 20
443.413
 10
54.747
 20
443.295
 10
54.989
 20
443.172
 10
55.231
 20
443.044
 10
55.47
 20
442.913
 10
55.706
 20
442.779
 10
55.938
 20
442.642
 10
56.167
 20
442.501
 10
56.393
 20
442.357
 10
56.615
 20
442.209
 10
56.834
 20
442.059
 10
57.046
 20
441.905
 10
57.249
 20
441.748
 10
57.443
 20
441.588
 10
57.627
 20
441.426
 10
57.801
 20
441.26
 10
57.966
 20
441.092
 10
58.121
 20
440.921
 10
58.267
 20
440.747
 10
58.399
 20
440.571
 10
58.514
 20
440.393
 10
58.611
 20
440.213
 10
58.69
 20
440.03
 10
58.752
 20
439.847
 10
58.796
 20
439.661
 10
58.823
 20
439.473
 10
58.831
 20
439.283
 10
58.824
 20
439.138
 10
58.802
 20
438.994
 10
58.765
 20
438.849
 10
58.713
 20
438.704
 10
58.647
 20
438.559
 10
58.566
 20
438.414
 10
58.47
 20
438.269
 10
58.359
 20
438.124
 10
58.231
 20
437.989
 10
58.085
 20
437.871
 10
57.921
 20
437.771
 10
57.737
 20
437.69
 10
57.536
 20
437.626
 10
57.315
 20
437.581
 10
57.076
 20
437.554
 10
56.819
 20
437.545
 10
56.583
 20
437.551
 10
56.349
 20
437.568
 10
56.116
 20
437.596
 10
55.885
 20
437.636
 10
55.655
 20
437.688
 10
55.426
 20
437.751
 10
55.199
 20
437.825
 10
54.974
 20
437.911
 10
54.75
 20
438.004
 10
54.53
 20
438.1
 10
54.314
 20
438.198
 10
54.101
 20
438.3
 10
53.891
 20
438.404
 10
53.684
 20
438.511
 10
53.481
 20
438.621
 10
53.281
 20
438.734
 10
53.086
 20
438.847
 10
52.896
 20
438.957
 10
52.712
 20
439.065
 10
52.534
 20
439.169
 10
52.361
 20
439.27
 10
52.194
 20
439.369
 10
52.033
 20
439.465
 10
51.878
 20
439.558
 10
51.729
 20
439.644
 10
51.588
 20
439.718
 10
51.455
 20
439.781
 10
51.329
 20
439.832
 10
51.211
 20
439.872
 10
51.1
 20
439.901
 10
50.997
 20
439.918
 10
50.902
 20
439.924
 10
50.77
 20
439.913
 10
50.647
 20
439.881
 10
50.533
 20
439.827
 10
50.429
 20
439.752
 10
50.335
 20
439.656
 10
50.25
 20
439.538
 10
50.175
 20
439.398
 10
50.109
 20
439.238
 10
50.051
 20
439.06
 10
50.001
 20
438.869
 10
49.956
 20
438.665
 10
49.919
 20
438.448
 10
49.888
 20
438.219
 10
49.863
 20
437.977
 10
49.846
 20
437.721
 10
49.835
 20
437.453
 10
50.174
 20
437.321
 10
50.49
 20
437.196
 10
50.784
 20
437.08
 10
51.055
 20
436.973
 10
51.302
 20
436.874
 10
51.527
 20
436.784
 10
51.729
 20
436.703
 10
51.909
 20
436.63
 10
52.075
 20
436.562
 10
52.24
 20
436.495
 10
52.403
 20
436.428
 10
52.564
 20
436.363
 10
52.723
 20
436.299
 10
52.881
 20
436.235
 10
53.036
 20
436.173
 10
53.189
 20
436.112
 10
53.184
 20
436.0
 10
53.167
 20
435.908
 10
53.138
 20
435.836
 10
53.098
 20
435.784
 10
53.046
 20
435.752
 10
52.984
 20
435.74
 10
52.909
 20
435.748
 10
52.823
 20
435.776
  0
LWPOLYLINE
  5
AC
330
17
100
AcDbEntity
  8
ENGRAVE_V
100
AcDbPolyline
 90
291
 70
1
 10
67.127
 20
444.071
 10
67.125
 20
443.98
 10
67.12
 20
443.887
 10
67.112
 20
443.795
 10
67.1
 20
443.702
 10
67.085
 20
443.608
 10
67.067
 20
443.514
 10
67.045
 20
443.419
 10
67.02
 20
443.324
 10
66.996
 20
443.229
 10
66.977
 20
443.133
 10
66.964
 20
443.036
 10
66.955
 20
442.939
 10
66.952
 20
442.842
 10
66.954
 20
442.744
 10
66.962
 20
442.645
 10
66.974
 20
442.547
 10
66.918
 20
442.598
 10
66.84
 20
442.659
 10
66.741
 20
442.731
 10
66.62
 20
442.813
 10
66.478
 20
442.906
 10
66.314
 20
443.01
 10
66.129
 20
443.124
 10
65.922
 20
443.248
 10
65.698
 20
443.38
 10
65.461
 20
443.519
 10
65.21
 20
443.663
 10
64.946
 20
443.812
 10
64.669
 20
443.968
 10
64.378
 20
444.129
 10
64.074
 20
444.295
 10
63.757
 20
444.468
 10
63.429
 20
444.644
 10
63.095
 20
444.821
 10
62.755
 20
445.0
 10
62.407
 20
445.181
 10
62.053
 20
445.363
 10
61.693
 20
445.546
 10
61.325
 20
445.73
 10
60.951
 20
445.917
 10
60.574
 20
446.103
 10
60.198
 20
446.287
 10
59.823
 20
446.47
 10
59.449
 20
446.652
 10
59.076
 20
446.833
 10
58.704
 20
447.012
 10
58.333
 20
447.189
 10
57.962
 20
447.365
 10
57.596
 20
447.537
 10
57.236
 20
447.704
 10
56.883
 20
447.863
 10
56.537
 20
448.017
 10
56.197
 20
448.165
 10
55.864
 20
448.306
 10
55.537
 20
448.441
 10
55.217
 20
448.57
 10
54.909
 20
448.69
 10
54.616
 20
448.8
 10
54.339
 20
448.898
 10
54.078
 20
448.985
 10
53.832
 20
449.062
 10
53.602
 20
449.127
 10
53.388
 20
449.182
 10
53.189
 20
449.226
 10
53.188
 20
449.188
 10
53.186
 20
449.151
 10
53.181
 20
449.115
 10
53.174
 20
449.081
 10
53.166
 20
449.047
 10
53.155
 20
449.014
 10
53.143
 20
448.982
 10
53.128
 20
448.951
 10
53.112
 20
448.923
 10
53.092
 20
448.9
 10
53.07
 20
448.881
 10
53.045
 20
448.867
 10
53.016
 20
448.858
 10
52.985
 20
448.854
 10
52.952
 20
448.854
 10
52.915
 20
448.86
 10
52.906
 20
448.862
 10
52.881
 20
448.871
 10
52.838
 20
448.885
 10
52.778
 20
448.905
 10
52.7
 20
448.931
 10
52.606
 20
448.962
 10
52.495
 20
449.0
 10
52.366
 20
449.043
 10
52.225
 20
449.088
 10
52.077
 20
449.134
 10
51.922
 20
449.18
 10
51.76
 20
449.226
 10
51.59
 20
449.271
 10
51.414
 20
449.317
 10
51.23
 20
449.363
 10
51.039
 20
449.409
 10
50.847
 20
449.451
 10
50.659
 20
449.489
 10
50.475
 20
449.52
 10
50.296
 20
449.546
 10
50.121
 20
449.566
 10
49.95
 20
449.58
 10
49.783
 20
449.589
 10
49.621
 20
449.591
 10
49.516
 20
449.59
 10
49.415
 20
449.586
 10
49.318
 20
449.579
 10
49.225
 20
449.569
 10
49.135
 20
449.556
 10
49.049
 20
449.54
 10
48.967
 20
449.521
 10
48.889
 20
449.5
 10
48.817
 20
449.475
 10
48.754
 20
449.445
 10
48.699
 20
449.41
 10
48.653
 20
449.37
 10
48.615
 20
449.326
 10
48.586
 20
449.277
 10
48.566
 20
449.223
 10
48.554
 20
449.165
 10
48.31
 20
450.689
 10
48.302
 20
450.735
 10
48.295
 20
450.779
 10
48.289
 20
450.822
 10
48.283
 20
450.865
 10
48.278
 20
450.906
 10
48.273
 20
450.947
 10
48.268
 20
450.986
 10
48.264
 20
451.025
 10
48.26
 20
451.063
 10
48.257
 20
451.099
 10
48.255
 20
451.135
 10
48.253
 20
451.17
 10
48.251
 20
451.204
 10
48.25
 20
451.236
 10
48.249
 20
451.268
 10
48.249
 20
451.299
 10
48.252
 20
451.365
 10
48.261
 20
451.426
 10
48.277
 20
451.482
 10
48.298
 20
451.532
 10
48.326
 20
451.577
 10
48.36
 20
451.617
 10
48.401
 20
451.651
 10
48.447
 20
451.681
 10
48.503
 20
451.706
 10
48.572
 20
451.727
 10
48.654
 20
451.746
 10
48.748
 20
451.761
 10
48.856
 20
451.772
 10
48.976
 20
451.781
 10
49.109
 20
451.786
 10
49.255
 20
451.787
 10
49.452
 20
451.783
 10
49.662
 20
451.771
 10
49.885
 20
451.751
 10
50.121
 20
451.723
 10
50.369
 20
451.686
 10
50.63
 20
451.642
 10
50.905
 20
451.589
 10
51.192
 20
451.528
 10
51.481
 20
451.462
 10
51.761
 20
451.394
 10
52.032
 20
451.323
 10
52.294
 20
451.25
 10
52.546
 20
451.174
 10
52.79
 20
451.096
 10
53.025
 20
451.016
 10
53.25
 20
450.933
 10
53.108
 20
451.02
 10
52.957
 20
451.114
 10
52.796
 20
451.213
 10
52.625
 20
451.318
 10
52.445
 20
451.43
 10
52.255
 20
451.548
 10
52.056
 20
451.672
 10
51.848
 20
451.803
 10
51.634
 20
451.939
 10
51.419
 20
452.08
 10
51.203
 20
452.226
 10
50.986
 20
452.378
 10
50.768
 20
452.535
 10
50.549
 20
452.697
 10
50.33
 20
452.865
 10
50.109
 20
453.038
 10
49.893
 20
453.214
 10
49.685
 20
453.392
 10
49.487
 20
453.572
 10
49.297
 20
453.754
 10
49.117
 20
453.938
 10
48.945
 20
454.124
 10
48.783
 20
454.312
 10
48.63
 20
454.502
 10
48.491
 20
454.692
 10
48.37
 20
454.881
 10
48.268
 20
455.069
 10
48.184
 20
455.256
 10
48.119
 20
455.443
 10
48.072
 20
455.628
 10
48.045
 20
455.813
 10
48.035
 20
455.996
 10
48.036
 20
456.036
 10
48.039
 20
456.078
 10
48.044
 20
456.123
 10
48.051
 20
456.171
 10
48.059
 20
456.222
 10
48.07
 20
456.276
 10
48.082
 20
456.333
 10
48.096
 20
456.392
 10
48.156
 20
456.598
 10
48.229
 20
456.788
 10
48.314
 20
456.962
 10
48.413
 20
457.121
 10
48.524
 20
457.263
 10
48.648
 20
457.39
 10
48.785
 20
457.502
 10
48.935
 20
457.597
 10
49.095
 20
457.679
 10
49.262
 20
457.751
 10
49.436
 20
457.811
 10
49.617
 20
457.86
 10
49.806
 20
457.899
 10
50.001
 20
457.926
 10
50.204
 20
457.942
 10
50.414
 20
457.948
 10
50.646
 20
457.942
 10
50.883
 20
457.926
 10
51.126
 20
457.899
 10
51.375
 20
457.86
 10
51.629
 20
457.811
 10
51.889
 20
457.751
 10
52.155
 20
457.679
 10
52.427
 20
457.597
 10
52.701
 20
457.506
 10
52.973
 20
457.407
 10
53.244
 20
457.302
 10
53.513
 20
457.189
 10
53.781
 20
457.069
 10
54.048
 20
456.942
 10
54.313
 20
456.808
 10
54.577
 20
456.667
 10
54.837
 20
456.52
 10
55.091
 20
456.37
 10
55.338
 20
456.215
 10
55.58
 20
456.057
 10
55.815
 20
455.895
 10
56.044
 20
455.729
 10
56.267
 20
455.559
 10
56.483
 20
455.386
 10
56.743
 20
455.167
 10
56.99
 20
454.938
 10
57.224
 20
454.698
 10
57.444
 20
454.448
 10
57.651
 20
454.188
 10
57.844
 20
453.916
 10
58.024
 20
453.635
 10
58.191
 20
453.343
 10
58.341
 20
453.044
 10
58.471
 20
452.744
 10
58.581
 20
452.442
 10
58.671
 20
452.138
 10
58.741
 20
451.832
 10
58.791
 20
451.524
 10
58.821
 20
451.215
 10
58.831
 20
450.903
 10
58.822
 20
450.623
 10
58.795
 20
450.348
 10
58.75
 20
450.078
 10
58.687
 20
449.813
 10
58.605
 20
449.552
 10
58.506
 20
449.296
 10
58.388
 20
449.045
 10
58.252
 20
448.799
 10
65.541
 20
445.901
 10
65.761
 20
445.795
 10
65.962
 20
445.69
 10
66.146
 20
445.585
 10
66.311
 20
445.482
 10
66.458
 20
445.379
 10
66.587
 20
445.278
 10
66.698
 20
445.177
 10
66.791
 20
445.078
 10
66.87
 20
444.975
 10
66.938
 20
444.866
 10
66.996
 20
444.75
 10
67.043
 20
444.628
 10
67.08
 20
444.499
 10
67.106
 20
444.363
 10
67.122
 20
444.221
 10
67.127
 20
444.071
  0
LWPOLYLINE
  5
AD
330
17
100
AcDbEntity
  8
ENGRAVE_V
100
AcDbPolyline
 90
89
 70
1
 10
58.191
 20
449.927
 10
58.179
 20
450.144
 10
58.141
 20
450.367
 10
58.08
 20
450.597
 10
57.993
 20
450.834
 10
57.881
 20
451.078
 10
57.745
 20
451.328
 10
57.584
 20
451.585
 10
57.398
 20
451.848
 10
57.193
 20
452.114
 10
56.974
 20
452.377
 10
56.741
 20
452.638
 10
56.495
 20
452.897
 10
56.234
 20
453.153
 10
55.96
 20
453.407
 10
55.672
 20
453.658
 10
55.37
 20
453.907
 10
55.061
 20
454.15
 10
54.751
 20
454.382
 10
54.441
 20
454.605
 10
54.131
 20
454.818
 10
53.82
 20
455.021
 10
53.509
 20
455.214
 10
53.197
 20
455.396
 10
52.884
 20
455.569
 10
52.673
 20
455.68
 10
52.466
 20
455.783
 10
52.263
 20
455.878
 10
52.065
 20
455.965
 10
51.871
 20
456.046
 10
51.681
 20
456.118
 10
51.495
 20
456.183
 10
51.314
 20
456.24
 10
51.138
 20
456.29
 10
50.968
 20
456.333
 10
50.804
 20
456.37
 10
50.647
 20
456.4
 10
50.495
 20
456.423
 10
50.35
 20
456.44
 10
50.211
 20
456.45
 10
50.079
 20
456.453
 10
49.8
 20
456.44
 10
49.558
 20
456.4
 10
49.354
 20
456.333
 10
49.187
 20
456.24
 10
49.057
 20
456.12
 10
48.964
 20
455.973
 10
48.908
 20
455.8
 10
48.889
 20
455.6
 10
48.896
 20
455.497
 10
48.916
 20
455.387
 10
48.949
 20
455.27
 10
48.996
 20
455.146
 10
49.056
 20
455.015
 10
49.129
 20
454.876
 10
49.216
 20
454.731
 10
49.316
 20
454.578
 10
49.434
 20
454.418
 10
49.574
 20
454.253
 10
49.735
 20
454.081
 10
49.919
 20
453.903
 10
50.124
 20
453.719
 10
50.351
 20
453.529
 10
50.6
 20
453.332
 10
50.872
 20
453.129
 10
51.186
 20
452.905
 10
51.521
 20
452.677
 10
51.874
 20
452.442
 10
52.248
 20
452.203
 10
52.641
 20
451.958
 10
53.053
 20
451.708
 10
53.485
 20
451.453
 10
53.937
 20
451.193
 10
54.401
 20
450.929
 10
54.872
 20
450.664
 10
55.348
 20
450.397
 10
55.831
 20
450.129
 10
56.32
 20
449.86
 10
56.816
 20
449.589
 10
57.317
 20
449.316
 10
57.825
 20
449.043
 10
57.911
 20
449.136
 10
57.985
 20
449.235
 10
58.048
 20
449.338
 10
58.1
 20
449.447
 10
58.14
 20
449.56
 10
58.168
 20
449.677
 10
58.185
 20
449.8
 10
58.191
 20
449.927
  0
LWPOLYLINE
  5
AE
330
17
100
AcDbEntity
  8
ENGRAVE_V
100
AcDbPolyline
 90
409
 70
1
 10
59.045
 20
456.148
 10
58.385
 20
456.47
 10
57.717
 20
456.796
 10
57.041
 20
457.124
 10
56.357
 20
457.456
 10
55.665
 20
457.791
 10
54.965
 20
458.13
 10
54.257
 20
458.472
 10
53.54
 20
458.817
 10
52.819
 20
459.165
 10
52.096
 20
459.516
 10
51.372
 20
459.868
 10
50.647
 20
460.224
 10
49.92
 20
460.581
 10
49.191
 20
460.941
 10
48.462
 20
461.304
 10
47.73
 20
461.669
 10
47.003
 20
462.034
 10
46.284
 20
462.399
 10
45.573
 20
462.762
 10
44.871
 20
463.125
 10
44.178
 20
463.486
 10
43.493
 20
463.847
 10
42.817
 20
464.207
 10
42.149
 20
464.566
 10
41.927
 20
464.694
 10
41.717
 20
464.82
 10
41.519
 20
464.944
 10
41.333
 20
465.065
 10
41.16
 20
465.184
 10
41.0
 20
465.301
 10
40.852
 20
465.415
 10
40.716
 20
465.526
 10
40.594
 20
465.642
 10
40.489
 20
465.766
 10
40.4
 20
465.899
 10
40.327
 20
466.041
 10
40.27
 20
466.192
 10
40.23
 20
466.353
 10
40.206
 20
466.522
 10
40.197
 20
466.701
 10
40.199
 20
466.771
 10
40.203
 20
466.844
 10
40.21
 20
466.919
 10
40.22
 20
466.998
 10
40.233
 20
467.079
 10
40.249
 20
467.164
 10
40.267
 20
467.251
 10
40.289
 20
467.341
 10
40.309
 20
467.432
 10
40.325
 20
467.522
 10
40.336
 20
467.611
 10
40.342
 20
467.699
 10
40.344
 20
467.787
 10
40.34
 20
467.873
 10
40.332
 20
467.958
 10
40.319
 20
468.043
 10
40.436
 20
467.939
 10
40.573
 20
467.826
 10
40.73
 20
467.704
 10
40.907
 20
467.574
 10
41.103
 20
467.434
 10
41.32
 20
467.285
 10
41.557
 20
467.127
 10
41.814
 20
466.96
 10
42.087
 20
466.786
 10
42.374
 20
466.607
 10
42.674
 20
466.424
 10
42.988
 20
466.236
 10
43.315
 20
466.043
 10
43.655
 20
465.845
 10
44.009
 20
465.642
 10
44.376
 20
465.435
 10
44.753
 20
465.224
 10
45.137
 20
465.01
 10
45.529
 20
464.793
 10
45.927
 20
464.573
 10
46.333
 20
464.351
 10
46.746
 20
464.126
 10
47.166
 20
463.897
 10
47.593
 20
463.666
 10
48.024
 20
463.434
 10
48.457
 20
463.203
 10
48.89
 20
462.973
 10
49.324
 20
462.744
 10
49.759
 20
462.515
 10
50.195
 20
462.288
 10
50.632
 20
462.062
 10
51.07
 20
461.836
 10
51.505
 20
461.614
 10
51.932
 20
461.395
 10
52.353
 20
461.181
 10
52.766
 20
460.971
 10
53.172
 20
460.765
 10
53.572
 20
460.564
 10
53.964
 20
460.367
 10
54.348
 20
460.174
 10
54.152
 20
460.327
 10
53.958
 20
460.481
 10
53.766
 20
460.636
 10
53.578
 20
460.792
 10
53.393
 20
460.949
 10
53.21
 20
461.106
 10
53.031
 20
461.265
 10
52.854
 20
461.425
 10
52.681
 20
461.584
 10
52.515
 20
461.743
 10
52.354
 20
461.901
 10
52.198
 20
462.057
 10
52.049
 20
462.213
 10
51.905
 20
462.368
 10
51.767
 20
462.522
 10
51.634
 20
462.675
 10
51.481
 20
462.848
 10
51.325
 20
463.032
 10
51.168
 20
463.227
 10
51.009
 20
463.434
 10
50.848
 20
463.651
 10
50.685
 20
463.879
 10
50.52
 20
464.118
 10
50.353
 20
464.368
 10
50.188
 20
464.623
 10
50.029
 20
464.878
 10
49.876
 20
465.134
 10
49.728
 20
465.389
 10
49.586
 20
465.645
 10
49.45
 20
465.9
 10
49.319
 20
466.155
 10
49.194
 20
466.411
 10
49.08
 20
466.66
 10
48.981
 20
466.896
 10
48.897
 20
467.119
 10
48.828
 20
467.33
 10
48.775
 20
467.527
 10
48.737
 20
467.712
 10
48.714
 20
467.884
 10
48.706
 20
468.043
 10
48.707
 20
468.094
 10
48.708
 20
468.142
 10
48.711
 20
468.185
 10
48.714
 20
468.226
 10
48.718
 20
468.262
 10
48.723
 20
468.294
 10
48.73
 20
468.323
 10
48.737
 20
468.348
 10
48.746
 20
468.342
 10
48.775
 20
468.327
 10
48.823
 20
468.3
 10
48.889
 20
468.264
 10
48.975
 20
468.216
 10
49.08
 20
468.159
 10
49.204
 20
468.091
 10
49.347
 20
468.012
 10
49.504
 20
467.926
 10
49.673
 20
467.834
 10
49.851
 20
467.737
 10
50.041
 20
467.635
 10
50.24
 20
467.527
 10
50.45
 20
467.414
 10
50.671
 20
467.297
 10
50.902
 20
467.173
 10
51.141
 20
467.047
 10
51.384
 20
466.92
 10
51.633
 20
466.792
 10
51.886
 20
466.663
 10
52.143
 20
466.532
 10
52.406
 20
466.401
 10
52.673
 20
466.269
 10
52.945
 20
466.136
 10
53.218
 20
466.005
 10
53.488
 20
465.878
 10
53.754
 20
465.755
 10
54.017
 20
465.637
 10
54.276
 20
465.523
 10
54.532
 20
465.413
 10
54.785
 20
465.308
 10
55.035
 20
465.206
 10
55.277
 20
465.111
 10
55.508
 20
465.025
 10
55.729
 20
464.948
 10
55.938
 20
464.878
 10
56.136
 20
464.818
 10
56.324
 20
464.766
 10
56.501
 20
464.723
 10
56.666
 20
464.688
 10
56.786
 20
464.666
 10
56.901
 20
464.648
 10
57.011
 20
464.632
 10
57.116
 20
464.619
 10
57.217
 20
464.609
 10
57.312
 20
464.602
 10
57.403
 20
464.598
 10
57.49
 20
464.596
 10
57.607
 20
464.599
 10
57.714
 20
464.608
 10
57.811
 20
464.622
 10
57.897
 20
464.642
 10
57.974
 20
464.668
 10
58.041
 20
464.699
 10
58.098
 20
464.736
 10
58.145
 20
464.779
 10
58.185
 20
464.826
 10
58.219
 20
464.873
 10
58.247
 20
464.921
 10
58.271
 20
464.97
 10
58.289
 20
465.02
 10
58.303
 20
465.071
 10
58.31
 20
465.123
 10
58.313
 20
465.176
 10
58.305
 20
465.307
 10
58.28
 20
465.44
 10
58.238
 20
465.575
 10
58.18
 20
465.713
 10
58.105
 20
465.854
 10
58.013
 20
465.996
 10
57.904
 20
466.141
 10
57.779
 20
466.289
 10
57.641
 20
466.437
 10
57.494
 20
466.585
 10
57.338
 20
466.733
 10
57.173
 20
466.88
 10
56.999
 20
467.026
 10
56.816
 20
467.172
 10
56.623
 20
467.318
 10
56.422
 20
467.463
 10
56.215
 20
467.607
 10
56.004
 20
467.748
 10
55.79
 20
467.887
 10
55.572
 20
468.023
 10
55.351
 20
468.158
 10
55.127
 20
468.289
 10
54.899
 20
468.419
 10
54.669
 20
468.546
 10
54.438
 20
468.668
 10
54.21
 20
468.785
 10
53.986
 20
468.895
 10
53.765
 20
468.999
 10
53.548
 20
469.097
 10
53.333
 20
469.189
 10
53.122
 20
469.275
 10
52.915
 20
469.354
 10
52.919
 20
469.44
 10
52.932
 20
469.514
 10
52.954
 20
469.577
 10
52.984
 20
469.628
 10
53.022
 20
469.668
 10
53.069
 20
469.697
 10
53.125
 20
469.714
 10
53.189
 20
469.72
 10
53.398
 20
469.633
 10
53.612
 20
469.542
 10
53.831
 20
469.445
 10
54.055
 20
469.342
 10
54.284
 20
469.235
 10
54.519
 20
469.122
 10
54.759
 20
469.004
 10
55.004
 20
468.881
 10
55.25
 20
468.753
 10
55.493
 20
468.621
 10
55.732
 20
468.485
 10
55.968
 20
468.344
 10
56.201
 20
468.199
 10
56.431
 20
468.049
 10
56.657
 20
467.896
 10
56.88
 20
467.738
 10
57.096
 20
467.576
 10
57.303
 20
467.41
 10
57.5
 20
467.24
 10
57.688
 20
467.067
 10
57.866
 20
466.889
 10
58.035
 20
466.708
 10
58.194
 20
466.523
 10
58.343
 20
466.335
 10
58.479
 20
466.143
 10
58.597
 20
465.948
 10
58.697
 20
465.75
 10
58.778
 20
465.549
 10
58.841
 20
465.346
 10
58.887
 20
465.14
 10
58.914
 20
464.93
 10
58.923
 20
464.718
 10
58.916
 20
464.565
 10
58.896
 20
464.411
 10
58.863
 20
464.257
 10
58.816
 20
464.101
 10
58.756
 20
463.944
 10
58.683
 20
463.786
 10
58.596
 20
463.628
 10
58.496
 20
463.468
 10
58.378
 20
463.318
 10
58.239
 20
463.188
 10
58.077
 20
463.078
 10
57.894
 20
462.988
 10
57.688
 20
462.918
 10
57.461
 20
462.867
 10
57.212
 20
462.837
 10
56.941
 20
462.827
 10
56.856
 20
462.828
 10
56.77
 20
462.831
 10
56.683
 20
462.836
 10
56.594
 20
462.843
 10
56.503
 20
462.851
 10
56.412
 20
462.862
 10
56.319
 20
462.874
 10
56.224
 20
462.888
 10
56.127
 20
462.905
 10
56.027
 20
462.925
 10
55.923
 20
462.947
 10
55.816
 20
462.972
 10
55.706
 20
463.0
 10
55.592
 20
463.031
 10
55.475
 20
463.065
 10
55.355
 20
463.102
 10
55.2
 20
463.151
 10
55.041
 20
463.209
 10
54.878
 20
463.273
 10
54.71
 20
463.346
 10
54.539
 20
463.426
 10
54.363
 20
463.514
 10
54.182
 20
463.609
 10
53.998
 20
463.712
 10
53.805
 20
463.822
 10
53.6
 20
463.941
 10
53.384
 20
464.066
 10
53.155
 20
464.2
 10
52.915
 20
464.341
 10
52.662
 20
464.49
 10
52.398
 20
464.646
 10
52.122
 20
464.81
 10
51.996
 20
464.881
 10
51.876
 20
464.943
 10
51.763
 20
464.996
 10
51.657
 20
465.039
 10
51.557
 20
465.072
 10
51.464
 20
465.096
 10
51.378
 20
465.11
 10
51.299
 20
465.115
 10
51.213
 20
465.109
 10
51.138
 20
465.092
 10
51.076
 20
465.063
 10
51.024
 20
465.023
 10
50.984
 20
464.972
 10
50.955
 20
464.909
 10
50.938
 20
464.835
 10
50.933
 20
464.749
 10
50.937
 20
464.669
 10
50.952
 20
464.583
 10
50.975
 20
464.49
 10
51.009
 20
464.39
 10
51.052
 20
464.284
 10
51.104
 20
464.171
 10
51.166
 20
464.052
 10
51.238
 20
463.925
 10
51.321
 20
463.791
 10
51.419
 20
463.649
 10
51.531
 20
463.498
 10
51.657
 20
463.338
 10
51.797
 20
463.17
 10
51.952
 20
462.993
 10
52.122
 20
462.808
 10
52.305
 20
462.614
 10
52.498
 20
462.418
 10
52.713
 20
462.21
 10
52.948
 20
461.991
 10
53.205
 20
461.76
 10
53.482
 20
461.518
 10
53.78
 20
461.264
 10
54.1
 20
460.999
 10
54.44
 20
460.723
 10
54.808
 20
460.439
 10
55.212
 20
460.149
 10
55.651
 20
459.855
 10
56.125
 20
459.557
 10
56.634
 20
459.253
 10
57.179
 20
458.945
 10
57.759
 20
458.632
 10
58.374
 20
458.314
 10
58.467
 20
458.26
 10
58.548
 20
458.204
 10
58.618
 20
458.147
 10
58.675
 20
458.089
 10
58.721
 20
458.029
 10
58.754
 20
457.968
 10
58.776
 20
457.905
 10
58.786
 20
457.841
 10
58.79
 20
457.774
 10
58.794
 20
457.701
 10
58.799
 20
457.623
 10
58.805
 20
457.54
 10
58.811
 20
457.452
 10
58.817
 20
457.358
 10
58.824
 20
457.259
 10
58.831
 20
457.155
 10
58.839
 20
457.086
 10
58.846
 20
457.018
 10
58.852
 20
456.949
 10
58.858
 20
456.88
 10
58.864
 20
456.812
 10
58.869
 20
456.743
 10
58.873
 20
456.675
 10
58.877
 20
456.606
 10
58.883
 20
456.539
 10
58.893
 20
456.474
 10
58.908
 20
456.413
 10
58.927
 20
456.354
 10
58.95
 20
456.299
 10
58.977
 20
456.246
 10
59.009
 20
456.196
 10
59.045
 20
456.148
  0
LWPOLYLINE
  5
AF
330
17
100
AcDbEntity
  8
ENGRAVE_V
100
AcDbPolyline
 90
153
 70
1
 10
58.801
 20
471.184
 10
58.787
 20
470.881
 10
58.745
 20
470.6
 10
58.674
 20
470.338
 10
58.576
 20
470.097
 10
58.45
 20
469.877
 10
58.295
 20
469.677
 10
58.112
 20
469.498
 10
57.901
 20
469.339
 10
57.67
 20
469.199
 10
57.428
 20
469.079
 10
57.173
 20
468.976
 10
56.906
 20
468.893
 10
56.628
 20
468.828
 10
56.337
 20
468.781
 10
56.035
 20
468.753
 10
55.721
 20
468.744
 10
55.422
 20
468.751
 10
55.12
 20
468.773
 10
54.816
 20
468.808
 10
54.508
 20
468.858
 10
54.198
 20
468.923
 10
53.885
 20
469.001
 10
53.569
 20
469.094
 10
53.25
 20
469.201
 10
52.903
 20
469.329
 10
52.564
 20
469.469
 10
52.233
 20
469.621
 10
51.909
 20
469.785
 10
51.592
 20
469.96
 10
51.283
 20
470.148
 10
50.982
 20
470.347
 10
50.689
 20
470.559
 10
50.406
 20
470.779
 10
50.137
 20
471.005
 10
49.882
 20
471.236
 10
49.64
 20
471.474
 10
49.413
 20
471.717
 10
49.199
 20
471.965
 10
48.999
 20
472.22
 10
48.813
 20
472.48
 10
48.645
 20
472.743
 10
48.499
 20
473.005
 10
48.376
 20
473.267
 10
48.275
 20
473.528
 10
48.197
 20
473.789
 10
48.141
 20
474.05
 10
48.108
 20
474.31
 10
48.096
 20
474.569
 10
48.11
 20
474.871
 10
48.15
 20
475.153
 10
48.216
 20
475.415
 10
48.31
 20
475.655
 10
48.43
 20
475.876
 10
48.577
 20
476.076
 10
48.75
 20
476.255
 10
48.95
 20
476.414
 10
49.171
 20
476.554
 10
49.406
 20
476.674
 10
49.655
 20
476.777
 10
49.919
 20
476.86
 10
50.196
 20
476.925
 10
50.488
 20
476.972
 10
50.795
 20
477.0
 10
51.116
 20
477.009
 10
51.346
 20
477.004
 10
51.579
 20
476.99
 10
51.815
 20
476.966
 10
52.053
 20
476.933
 10
52.295
 20
476.89
 10
52.539
 20
476.837
 10
52.787
 20
476.775
 10
53.037
 20
476.704
 10
53.288
 20
476.624
 10
53.538
 20
476.538
 10
53.787
 20
476.445
 10
54.036
 20
476.346
 10
54.283
 20
476.239
 10
54.529
 20
476.126
 10
54.775
 20
476.007
 10
55.019
 20
475.88
 10
55.112
 20
475.985
 10
55.193
 20
476.1
 10
55.261
 20
476.225
 10
55.317
 20
476.361
 10
55.36
 20
476.507
 10
55.391
 20
476.664
 10
55.41
 20
476.831
 10
55.416
 20
477.009
 10
55.407
 20
477.218
 10
55.381
 20
477.421
 10
55.339
 20
477.615
 10
55.278
 20
477.802
 10
55.201
 20
477.981
 10
55.107
 20
478.152
 10
54.995
 20
478.316
 10
54.867
 20
478.473
 10
54.716
 20
478.625
 10
54.539
 20
478.776
 10
54.335
 20
478.926
 10
54.104
 20
479.075
 10
53.847
 20
479.223
 10
53.563
 20
479.37
 10
53.252
 20
479.517
 10
52.915
 20
479.662
 10
52.919
 20
479.748
 10
52.932
 20
479.822
 10
52.954
 20
479.885
 10
52.984
 20
479.937
 10
53.022
 20
479.977
 10
53.069
 20
480.005
 10
53.125
 20
480.022
 10
53.189
 20
480.028
 10
53.528
 20
479.881
 10
53.844
 20
479.728
 10
54.136
 20
479.57
 10
54.405
 20
479.407
 10
54.651
 20
479.238
 10
54.873
 20
479.065
 10
55.072
 20
478.886
 10
55.248
 20
478.701
 10
55.401
 20
478.508
 10
55.533
 20
478.302
 10
55.643
 20
478.083
 10
55.732
 20
477.851
 10
55.8
 20
477.607
 10
55.846
 20
477.349
 10
55.87
 20
477.079
 10
55.873
 20
476.795
 10
55.867
 20
476.624
 10
55.848
 20
476.46
 10
55.817
 20
476.304
 10
55.774
 20
476.155
 10
55.718
 20
476.014
 10
55.65
 20
475.88
 10
55.57
 20
475.755
 10
55.477
 20
475.636
 10
55.821
 20
475.418
 10
56.151
 20
475.189
 10
56.467
 20
474.951
 10
56.769
 20
474.702
 10
57.058
 20
474.444
 10
57.332
 20
474.175
 10
57.593
 20
473.897
 10
57.84
 20
473.608
 10
58.065
 20
473.314
 10
58.261
 20
473.017
 10
58.426
 20
472.717
 10
58.561
 20
472.415
 10
58.666
 20
472.111
 10
58.741
 20
471.804
 10
58.786
 20
471.495
 10
58.801
 20
471.184
  0
LWPOLYLINE
  5
B0
330
17
100
AcDbEntity
  8
ENGRAVE_V
100
AcDbPolyline
 90
153
 70
1
 10
58.13
 20
471.611
 10
58.121
 20
471.786
 10
58.093
 20
471.961
 10
58.046
 20
472.137
 10
57.981
 20
472.312
 10
57.898
 20
472.488
 10
57.795
 20
472.663
 10
57.675
 20
472.838
 10
57.535
 20
473.014
 10
57.384
 20
473.187
 10
57.227
 20
473.357
 10
57.066
 20
473.523
 10
56.899
 20
473.685
 10
56.726
 20
473.843
 10
56.549
 20
473.997
 10
56.366
 20
474.148
 10
56.178
 20
474.295
 10
55.991
 20
474.434
 10
55.81
 20
474.563
 10
55.636
 20
474.682
 10
55.469
 20
474.79
 10
55.309
 20
474.888
 10
55.155
 20
474.975
 10
55.007
 20
475.052
 10
54.867
 20
475.118
 10
54.653
 20
475.002
 10
54.452
 20
474.9
 10
54.266
 20
474.81
 10
54.093
 20
474.733
 10
53.934
 20
474.669
 10
53.789
 20
474.618
 10
53.658
 20
474.579
 10
53.54
 20
474.554
 10
53.433
 20
474.536
 10
53.333
 20
474.52
 10
53.241
 20
474.507
 10
53.155
 20
474.497
 10
53.077
 20
474.488
 10
53.005
 20
474.482
 10
52.941
 20
474.479
 10
52.884
 20
474.478
 10
52.744
 20
474.482
 10
52.612
 20
474.497
 10
52.488
 20
474.52
 10
52.374
 20
474.554
 10
52.267
 20
474.597
 10
52.17
 20
474.649
 10
52.081
 20
474.711
 10
52.0
 20
474.783
 10
51.929
 20
474.859
 10
51.867
 20
474.935
 10
51.814
 20
475.011
 10
51.771
 20
475.087
 10
51.738
 20
475.164
 10
51.714
 20
475.24
 10
51.7
 20
475.316
 10
51.695
 20
475.392
 10
51.701
 20
475.497
 10
51.718
 20
475.598
 10
51.746
 20
475.696
 10
51.787
 20
475.789
 10
51.838
 20
475.879
 10
51.901
 20
475.964
 10
51.975
 20
476.046
 10
52.061
 20
476.124
 10
51.978
 20
476.139
 10
51.896
 20
476.153
 10
51.816
 20
476.166
 10
51.737
 20
476.178
 10
51.66
 20
476.189
 10
51.584
 20
476.199
 10
51.509
 20
476.208
 10
51.436
 20
476.216
 10
51.364
 20
476.223
 10
51.292
 20
476.229
 10
51.221
 20
476.234
 10
51.15
 20
476.239
 10
51.08
 20
476.242
 10
51.01
 20
476.244
 10
50.94
 20
476.246
 10
50.872
 20
476.246
 10
50.678
 20
476.242
 10
50.493
 20
476.228
 10
50.318
 20
476.206
 10
50.151
 20
476.174
 10
49.994
 20
476.133
 10
49.845
 20
476.083
 10
49.706
 20
476.025
 10
49.575
 20
475.957
 10
49.458
 20
475.879
 10
49.355
 20
475.792
 10
49.269
 20
475.694
 10
49.198
 20
475.587
 10
49.143
 20
475.469
 10
49.104
 20
475.342
 10
49.08
 20
475.204
 10
49.072
 20
475.057
 10
49.081
 20
474.896
 10
49.107
 20
474.733
 10
49.149
 20
474.568
 10
49.209
 20
474.401
 10
49.287
 20
474.233
 10
49.381
 20
474.062
 10
49.493
 20
473.889
 10
49.621
 20
473.715
 10
49.764
 20
473.541
 10
49.919
 20
473.369
 10
50.084
 20
473.2
 10
50.262
 20
473.033
 10
50.45
 20
472.868
 10
50.65
 20
472.706
 10
50.862
 20
472.546
 10
51.085
 20
472.388
 10
51.317
 20
472.235
 10
51.556
 20
472.086
 10
51.801
 20
471.943
 10
52.053
 20
471.805
 10
52.312
 20
471.672
 10
52.578
 20
471.545
 10
52.85
 20
471.423
 10
53.128
 20
471.306
 10
53.363
 20
471.21
 10
53.594
 20
471.119
 10
53.822
 20
471.034
 10
54.047
 20
470.955
 10
54.268
 20
470.882
 10
54.487
 20
470.814
 10
54.701
 20
470.752
 10
54.913
 20
470.696
 10
55.12
 20
470.646
 10
55.323
 20
470.602
 10
55.522
 20
470.566
 10
55.717
 20
470.536
 10
55.907
 20
470.512
 10
56.093
 20
470.496
 10
56.275
 20
470.486
 10
56.453
 20
470.482
 10
56.638
 20
470.487
 10
56.815
 20
470.499
 10
56.982
 20
470.521
 10
57.139
 20
470.551
 10
57.287
 20
470.59
 10
57.425
 20
470.637
 10
57.553
 20
470.692
 10
57.673
 20
470.757
 10
57.78
 20
470.83
 10
57.873
 20
470.913
 10
57.951
 20
471.006
 10
58.016
 20
471.108
 10
58.066
 20
471.219
 10
58.101
 20
471.34
 10
58.123
 20
471.471
 10
58.13
 20
471.611
  0
LWPOLYLINE
  5
B1
330
17
100
AcDbEntity
  8
ENGRAVE_V
100
AcDbPolyline
 90
253
 70
1
 10
42.698
 20
485.975
 10
42.848
 20
485.875
 10
43.007
 20
485.771
 10
43.176
 20
485.665
 10
43.354
 20
485.556
 10
43.542
 20
485.444
 10
43.739
 20
485.329
 10
43.946
 20
485.211
 10
44.162
 20
485.091
 10
44.382
 20
484.97
 10
44.601
 20
484.851
 10
44.817
 20
484.735
 10
45.031
 20
484.622
 10
45.244
 20
484.511
 10
45.454
 20
484.402
 10
45.663
 20
484.295
 10
45.87
 20
484.191
 10
46.07
 20
484.091
 10
46.257
 20
483.998
 10
46.432
 20
483.91
 10
46.594
 20
483.829
 10
46.744
 20
483.754
 10
46.882
 20
483.685
 10
47.007
 20
483.622
 10
47.12
 20
483.566
 10
47.12
 20
486.372
 10
47.153
 20
486.37
 10
47.191
 20
486.365
 10
47.233
 20
486.357
 10
47.28
 20
486.345
 10
47.332
 20
486.33
 10
47.389
 20
486.312
 10
47.451
 20
486.29
 10
47.517
 20
486.265
 10
47.583
 20
486.235
 10
47.645
 20
486.199
 10
47.701
 20
486.157
 10
47.753
 20
486.109
 10
47.8
 20
486.054
 10
47.843
 20
485.993
 10
47.88
 20
485.926
 10
47.913
 20
485.853
 10
47.913
 20
483.2
 10
48.124
 20
483.107
 10
48.346
 20
483.01
 10
48.578
 20
482.91
 10
48.821
 20
482.807
 10
49.074
 20
482.701
 10
49.337
 20
482.591
 10
49.611
 20
482.478
 10
49.896
 20
482.361
 10
50.187
 20
482.243
 10
50.481
 20
482.127
 10
50.778
 20
482.011
 10
51.077
 20
481.896
 10
51.38
 20
481.782
 10
51.685
 20
481.669
 10
51.994
 20
481.557
 10
52.305
 20
481.446
 10
52.615
 20
481.338
 10
52.92
 20
481.235
 10
53.219
 20
481.136
 10
53.513
 20
481.042
 10
53.802
 20
480.953
 10
54.086
 20
480.869
 10
54.365
 20
480.789
 10
54.638
 20
480.714
 10
54.902
 20
480.646
 10
55.154
 20
480.588
 10
55.392
 20
480.538
 10
55.618
 20
480.497
 10
55.831
 20
480.465
 10
56.03
 20
480.443
 10
56.217
 20
480.429
 10
56.392
 20
480.425
 10
56.613
 20
480.428
 10
56.82
 20
480.44
 10
57.011
 20
480.459
 10
57.188
 20
480.486
 10
57.351
 20
480.52
 10
57.498
 20
480.562
 10
57.631
 20
480.611
 10
57.749
 20
480.669
 10
57.852
 20
480.736
 10
57.942
 20
480.815
 10
58.018
 20
480.907
 10
58.08
 20
481.012
 10
58.129
 20
481.128
 10
58.163
 20
481.258
 10
58.184
 20
481.399
 10
58.191
 20
481.553
 10
58.178
 20
481.758
 10
58.14
 20
481.961
 10
58.077
 20
482.162
 10
57.989
 20
482.361
 10
57.875
 20
482.558
 10
57.736
 20
482.754
 10
57.572
 20
482.947
 10
57.383
 20
483.139
 10
57.174
 20
483.328
 10
56.953
 20
483.515
 10
56.719
 20
483.7
 10
56.472
 20
483.882
 10
56.212
 20
484.062
 10
55.939
 20
484.24
 10
55.653
 20
484.415
 10
55.355
 20
484.587
 10
55.05
 20
484.756
 10
54.745
 20
484.92
 10
54.44
 20
485.079
 10
54.135
 20
485.232
 10
53.83
 20
485.38
 10
53.525
 20
485.522
 10
53.22
 20
485.66
 10
52.915
 20
485.792
 10
52.919
 20
485.878
 10
52.932
 20
485.952
 10
52.954
 20
486.015
 10
52.984
 20
486.067
 10
53.022
 20
486.107
 10
53.069
 20
486.135
 10
53.125
 20
486.152
 10
53.189
 20
486.158
 10
53.398
 20
486.072
 10
53.611
 20
485.981
 10
53.828
 20
485.885
 10
54.051
 20
485.785
 10
54.278
 20
485.679
 10
54.51
 20
485.569
 10
54.747
 20
485.454
 10
54.989
 20
485.335
 10
55.232
 20
485.211
 10
55.472
 20
485.082
 10
55.71
 20
484.949
 10
55.946
 20
484.812
 10
56.179
 20
484.671
 10
56.41
 20
484.526
 10
56.638
 20
484.376
 10
56.864
 20
484.222
 10
57.084
 20
484.063
 10
57.293
 20
483.899
 10
57.492
 20
483.731
 10
57.68
 20
483.558
 10
57.858
 20
483.38
 10
58.025
 20
483.198
 10
58.182
 20
483.011
 10
58.328
 20
482.819
 10
58.46
 20
482.622
 10
58.575
 20
482.419
 10
58.672
 20
482.212
 10
58.751
 20
481.999
 10
58.813
 20
481.781
 10
58.857
 20
481.558
 10
58.884
 20
481.329
 10
58.892
 20
481.096
 10
58.881
 20
480.788
 10
58.848
 20
480.507
 10
58.792
 20
480.251
 10
58.713
 20
480.02
 10
58.612
 20
479.816
 10
58.489
 20
479.637
 10
58.344
 20
479.484
 10
58.176
 20
479.357
 10
57.99
 20
479.25
 10
57.792
 20
479.157
 10
57.58
 20
479.078
 10
57.356
 20
479.014
 10
57.119
 20
478.964
 10
56.869
 20
478.928
 10
56.606
 20
478.907
 10
56.331
 20
478.9
 10
56.119
 20
478.904
 10
55.897
 20
478.919
 10
55.664
 20
478.943
 10
55.42
 20
478.976
 10
55.164
 20
479.019
 10
54.898
 20
479.071
 10
54.621
 20
479.133
 10
54.333
 20
479.205
 10
54.038
 20
479.283
 10
53.741
 20
479.366
 10
53.442
 20
479.453
 10
53.14
 20
479.544
 10
52.836
 20
479.639
 10
52.529
 20
479.739
 10
52.22
 20
479.843
 10
51.909
 20
479.952
 10
51.599
 20
480.062
 10
51.294
 20
480.172
 10
50.994
 20
480.281
 10
50.7
 20
480.39
 10
50.411
 20
480.499
 10
50.127
 20
480.607
 10
49.849
 20
480.714
 10
49.575
 20
480.821
 10
49.313
 20
480.925
 10
49.066
 20
481.023
 10
48.834
 20
481.116
 10
48.619
 20
481.202
 10
48.419
 20
481.283
 10
48.235
 20
481.359
 10
48.066
 20
481.428
 10
47.913
 20
481.492
 10
47.913
 20
479.54
 10
47.852
 20
479.543
 10
47.789
 20
479.553
 10
47.726
 20
479.57
 10
47.662
 20
479.593
 10
47.596
 20
479.624
 10
47.53
 20
479.66
 10
47.463
 20
479.704
 10
47.395
 20
479.754
 10
47.331
 20
479.807
 10
47.275
 20
479.862
 10
47.228
 20
479.918
 10
47.189
 20
479.975
 10
47.159
 20
480.032
 10
47.138
 20
480.091
 10
47.125
 20
480.151
 10
47.12
 20
480.211
 10
47.12
 20
481.827
 10
46.995
 20
481.89
 10
46.861
 20
481.954
 10
46.72
 20
482.021
 10
46.571
 20
482.09
 10
46.415
 20
482.162
 10
46.251
 20
482.236
 10
46.08
 20
482.313
 10
45.9
 20
482.392
 10
45.715
 20
482.475
 10
45.525
 20
482.566
 10
45.33
 20
482.664
 10
45.13
 20
482.769
 10
44.926
 20
482.881
 10
44.717
 20
483.001
 10
44.503
 20
483.127
 10
44.284
 20
483.261
 10
44.106
 20
483.379
 10
43.937
 20
483.506
 10
43.778
 20
483.64
 10
43.628
 20
483.783
 10
43.488
 20
483.934
 10
43.358
 20
484.093
 10
43.237
 20
484.26
 10
43.125
 20
484.435
 10
43.025
 20
484.616
 10
42.938
 20
484.8
 10
42.865
 20
484.988
 10
42.805
 20
485.178
 10
42.758
 20
485.373
 10
42.725
 20
485.57
 10
42.705
 20
485.771
 10
42.698
 20
485.975
  0
LWPOLYLINE
  5
B2
330
17
100
AcDbEntity
  8
ENGRAVE_V
100
AcDbPolyline
 90
153
 70
1
 10
58.801
 20
487.622
 10
58.787
 20
487.32
 10
58.745
 20
487.038
 10
58.674
 20
486.776
 10
58.576
 20
486.536
 10
58.45
 20
486.315
 10
58.295
 20
486.115
 10
58.112
 20
485.936
 10
57.901
 20
485.777
 10
57.67
 20
485.638
 10
57.428
 20
485.517
 10
57.173
 20
485.414
 10
56.906
 20
485.331
 10
56.628
 20
485.266
 10
56.337
 20
485.219
 10
56.035
 20
485.191
 10
55.721
 20
485.182
 10
55.422
 20
485.189
 10
55.12
 20
485.211
 10
54.816
 20
485.247
 10
54.508
 20
485.297
 10
54.198
 20
485.361
 10
53.885
 20
485.44
 10
53.569
 20
485.532
 10
53.25
 20
485.64
 10
52.903
 20
485.768
 10
52.564
 20
485.907
 10
52.233
 20
486.059
 10
51.909
 20
486.223
 10
51.592
 20
486.399
 10
51.283
 20
486.586
 10
50.982
 20
486.785
 10
50.689
 20
486.997
 10
50.406
 20
487.217
 10
50.137
 20
487.443
 10
49.882
 20
487.674
 10
49.64
 20
487.912
 10
49.413
 20
488.155
 10
49.199
 20
488.403
 10
48.999
 20
488.658
 10
48.813
 20
488.918
 10
48.645
 20
489.181
 10
48.499
 20
489.443
 10
48.376
 20
489.705
 10
48.275
 20
489.966
 10
48.197
 20
490.227
 10
48.141
 20
490.488
 10
48.108
 20
490.748
 10
48.096
 20
491.007
 10
48.11
 20
491.31
 10
48.15
 20
491.591
 10
48.216
 20
491.853
 10
48.31
 20
492.094
 10
48.43
 20
492.314
 10
48.577
 20
492.514
 10
48.75
 20
492.693
 10
48.95
 20
492.852
 10
49.171
 20
492.992
 10
49.406
 20
493.113
 10
49.655
 20
493.215
 10
49.919
 20
493.298
 10
50.196
 20
493.363
 10
50.488
 20
493.41
 10
50.795
 20
493.438
 10
51.116
 20
493.447
 10
51.346
 20
493.442
 10
51.579
 20
493.428
 10
51.815
 20
493.404
 10
52.053
 20
493.371
 10
52.295
 20
493.328
 10
52.539
 20
493.275
 10
52.787
 20
493.214
 10
53.037
 20
493.142
 10
53.288
 20
493.062
 10
53.538
 20
492.976
 10
53.787
 20
492.883
 10
54.036
 20
492.784
 10
54.283
 20
492.677
 10
54.529
 20
492.565
 10
54.775
 20
492.445
 10
55.019
 20
492.319
 10
55.112
 20
492.423
 10
55.193
 20
492.538
 10
55.261
 20
492.663
 10
55.317
 20
492.799
 10
55.36
 20
492.945
 10
55.391
 20
493.102
 10
55.41
 20
493.269
 10
55.416
 20
493.447
 10
55.407
 20
493.657
 10
55.381
 20
493.859
 10
55.339
 20
494.053
 10
55.278
 20
494.24
 10
55.201
 20
494.419
 10
55.107
 20
494.591
 10
54.995
 20
494.755
 10
54.867
 20
494.911
 10
54.716
 20
495.063
 10
54.539
 20
495.214
 10
54.335
 20
495.364
 10
54.104
 20
495.513
 10
53.847
 20
495.661
 10
53.563
 20
495.809
 10
53.252
 20
495.955
 10
52.915
 20
496.1
 10
52.919
 20
496.186
 10
52.932
 20
496.26
 10
52.954
 20
496.323
 10
52.984
 20
496.375
 10
53.022
 20
496.415
 10
53.069
 20
496.443
 10
53.125
 20
496.461
 10
53.189
 20
496.466
 10
53.528
 20
496.319
 10
53.844
 20
496.166
 10
54.136
 20
496.008
 10
54.405
 20
495.845
 10
54.651
 20
495.676
 10
54.873
 20
495.503
 10
55.072
 20
495.324
 10
55.248
 20
495.14
 10
55.401
 20
494.946
 10
55.533
 20
494.74
 10
55.643
 20
494.521
 10
55.732
 20
494.29
 10
55.8
 20
494.045
 10
55.846
 20
493.787
 10
55.87
 20
493.517
 10
55.873
 20
493.234
 10
55.867
 20
493.062
 10
55.848
 20
492.898
 10
55.817
 20
492.742
 10
55.774
 20
492.593
 10
55.718
 20
492.452
 10
55.65
 20
492.319
 10
55.57
 20
492.193
 10
55.477
 20
492.075
 10
55.821
 20
491.856
 10
56.151
 20
491.628
 10
56.467
 20
491.389
 10
56.769
 20
491.141
 10
57.058
 20
490.882
 10
57.332
 20
490.614
 10
57.593
 20
490.335
 10
57.84
 20
490.047
 10
58.065
 20
489.752
 10
58.261
 20
489.455
 10
58.426
 20
489.155
 10
58.561
 20
488.853
 10
58.666
 20
488.549
 10
58.741
 20
488.242
 10
58.786
 20
487.933
 10
58.801
 20
487.622
  0
LWPOLYLINE
  5
B3
330
17
100
AcDbEntity
  8
ENGRAVE_V
100
AcDbPolyline
 90
153
 70
1
 10
58.13
 20
488.049
 10
58.121
 20
488.224
 10
58.093
 20
488.4
 10
58.046
 20
488.575
 10
57.981
 20
488.75
 10
57.898
 20
488.926
 10
57.795
 20
489.101
 10
57.675
 20
489.276
 10
57.535
 20
489.452
 10
57.384
 20
489.625
 10
57.227
 20
489.795
 10
57.066
 20
489.961
 10
56.899
 20
490.123
 10
56.726
 20
490.281
 10
56.549
 20
490.435
 10
56.366
 20
490.586
 10
56.178
 20
490.733
 10
55.991
 20
490.872
 10
55.81
 20
491.002
 10
55.636
 20
491.12
 10
55.469
 20
491.228
 10
55.309
 20
491.326
 10
55.155
 20
491.413
 10
55.007
 20
491.49
 10
54.867
 20
491.556
 10
54.653
 20
491.441
 10
54.452
 20
491.338
 10
54.266
 20
491.248
 10
54.093
 20
491.171
 10
53.934
 20
491.107
 10
53.789
 20
491.056
 10
53.658
 20
491.017
 10
53.54
 20
490.992
 10
53.433
 20
490.974
 10
53.333
 20
490.959
 10
53.241
 20
490.946
 10
53.155
 20
490.935
 10
53.077
 20
490.926
 10
53.005
 20
490.92
 10
52.941
 20
490.917
 10
52.884
 20
490.916
 10
52.744
 20
490.92
 10
52.612
 20
490.935
 10
52.488
 20
490.959
 10
52.374
 20
490.992
 10
52.267
 20
491.035
 10
52.17
 20
491.087
 10
52.081
 20
491.149
 10
52.0
 20
491.221
 10
51.929
 20
491.297
 10
51.867
 20
491.373
 10
51.814
 20
491.449
 10
51.771
 20
491.526
 10
51.738
 20
491.602
 10
51.714
 20
491.678
 10
51.7
 20
491.754
 10
51.695
 20
491.831
 10
51.701
 20
491.935
 10
51.718
 20
492.037
 10
51.746
 20
492.134
 10
51.787
 20
492.227
 10
51.838
 20
492.317
 10
51.901
 20
492.402
 10
51.975
 20
492.484
 10
52.061
 20
492.563
 10
51.978
 20
492.577
 10
51.896
 20
492.591
 10
51.816
 20
492.604
 10
51.737
 20
492.616
 10
51.66
 20
492.627
 10
51.584
 20
492.637
 10
51.509
 20
492.646
 10
51.436
 20
492.654
 10
51.364
 20
492.661
 10
51.292
 20
492.667
 10
51.221
 20
492.673
 10
51.15
 20
492.677
 10
51.08
 20
492.68
 10
51.01
 20
492.683
 10
50.94
 20
492.684
 10
50.872
 20
492.685
 10
50.678
 20
492.68
 10
50.493
 20
492.666
 10
50.318
 20
492.644
 10
50.151
 20
492.612
 10
49.994
 20
492.571
 10
49.845
 20
492.522
 10
49.706
 20
492.463
 10
49.575
 20
492.395
 10
49.458
 20
492.317
 10
49.355
 20
492.23
 10
49.269
 20
492.133
 10
49.198
 20
492.025
 10
49.143
 20
491.908
 10
49.104
 20
491.78
 10
49.08
 20
491.643
 10
49.072
 20
491.495
 10
49.081
 20
491.334
 10
49.107
 20
491.171
 10
49.149
 20
491.006
 10
49.209
 20
490.839
 10
49.287
 20
490.671
 10
49.381
 20
490.5
 10
49.493
 20
490.328
 10
49.621
 20
490.153
 10
49.764
 20
489.979
 10
49.919
 20
489.807
 10
50.084
 20
489.638
 10
50.262
 20
489.471
 10
50.45
 20
489.306
 10
50.65
 20
489.144
 10
50.862
 20
488.984
 10
51.085
 20
488.827
 10
51.317
 20
488.673
 10
51.556
 20
488.525
 10
51.801
 20
488.381
 10
52.053
 20
488.243
 10
52.312
 20
488.111
 10
52.578
 20
487.983
 10
52.85
 20
487.861
 10
53.128
 20
487.744
 10
53.363
 20
487.648
 10
53.594
 20
487.557
 10
53.822
 20
487.472
 10
54.047
 20
487.393
 10
54.268
 20
487.32
 10
54.487
 20
487.252
 10
54.701
 20
487.19
 10
54.913
 20
487.134
 10
55.12
 20
487.084
 10
55.323
 20
487.041
 10
55.522
 20
487.004
 10
55.717
 20
486.974
 10
55.907
 20
486.951
 10
56.093
 20
486.934
 10
56.275
 20
486.924
 10
56.453
 20
486.921
 10
56.638
 20
486.925
 10
56.815
 20
486.938
 10
56.982
 20
486.959
 10
57.139
 20
486.989
 10
57.287
 20
487.028
 10
57.425
 20
487.075
 10
57.553
 20
487.131
 10
57.673
 20
487.195
 10
57.78
 20
487.268
 10
57.873
 20
487.351
 10
57.951
 20
487.444
 10
58.016
 20
487.546
 10
58.066
 20
487.657
 10
58.101
 20
487.778
 10
58.123
 20
487.909
 10
58.13
 20
488.049
  0
TEXT
  5
B4
330
17
100
AcDbEntity
  8
LABELS
100
AcDbText
 10
175.0
 20
290.0
 30
0.0
 40
14.0
  1
Cabinet front (print window)
 72
1
 11
175.0
 21
290.0
 31
0.0
100
AcDbText
 73
2
  0
LWPOLYLINE
  5
B5
330
17
100
AcDbEntity
  8
CUT_OUTSIDE
100
AcDbPolyline
 90
4
 70
1
 10
342.0
 20
1146.0
 10
8.0
 20
1146.0
 10
8.0
 20
582.0
 10
342.0
 20
582.0
  0
CIRCLE
  5
B6
330
17
100
AcDbEntity
  8
CUT_INSIDE
100
AcDbCircle
 10
177.0
 20
1046.0
 30
0.0
 40
14.0
  0
CIRCLE
  5
B7
330
17
100
AcDbEntity
  8
CUT_INSIDE
100
AcDbCircle
 10
282.0
 20
614.0
 30
0.0
 40
18.0
  0
LWPOLYLINE
  5
B8
330
17
100
AcDbEntity
  8
CUT_DOOR
100
AcDbPolyline
 90
4
 70
1
 10
312.0
 20
1084.0
 10
42.0
 20
1084.0
 10
42.0
 20
644.0
 10
312.0
 20
644.0
  0
TEXT
  5
B9
330
17
100
AcDbEntity
  8
LABELS
100
AcDbText
 10
175.0
 20
864.0
 30
0.0
 40
14.0
  1
Cabinet back (with door)
 72
1
 11
175.0
 21
864.0
 31
0.0
100
AcDbText
 73
2
  0
TEXT
  5
BA
330
17
100
AcDbEntity
  8
LABELS
100
AcDbText
 10
20.0
 20
1180.0
 30
0.0
 40
16.0
  1
PHOTOBOOTH WEDDING-EPSON - sheet 2: offcut at least 1160 x 350 mm - MDF 18 mm
 11
20.0
 21
1180.0
 31
0.0
100
AcDbText
  0
ENDSEC
  0
SECTION
  2
OBJECTS
  0
DICTIONARY
  5
A
330
0
100
AcDbDictionary
281
1
  3
ACAD_COLOR
350
B
  3
ACAD_GROUP
350
C
  3
ACAD_LAYOUT
350
D
  3
ACAD_MATERIAL
350
E
  3
ACAD_MLEADERSTYLE
350
F
  3
ACAD_MLINESTYLE
350
10
  3
ACAD_PLOTSETTINGS
350
11
  3
ACAD_PLOTSTYLENAME
350
12
  3
ACAD_SCALELIST
350
14
  3
ACAD_TABLESTYLE
350
15
  3
ACAD_VISUALSTYLE
350
16
  3
EZDXF_META
350
2D
  0
DICTIONARY
  5
B
330
A
100
AcDbDictionary
281
1
  0
DICTIONARY
  5
C
330
A
100
AcDbDictionary
281
1
  0
DICTIONARY
  5
D
330
A
100
AcDbDictionary
281
1
  3
Model
350
1A
  3
Layout1
350
1E
  0
DICTIONARY
  5
E
330
A
100
AcDbDictionary
281
1
  3
ByBlock
350
1F
  3
ByLayer
350
20
  3
Global
350
21
  0
DICTIONARY
  5
F
330
A
100
AcDbDictionary
281
1
  3
Standard
350
2C
  0
DICTIONARY
  5
10
330
A
100
AcDbDictionary
281
1
  3
Standard
350
22
  0
DICTIONARY
  5
11
330
A
100
AcDbDictionary
281
1
  0
ACDBDICTIONARYWDFLT
  5
12
330
A
100
AcDbDictionary
281
1
  3
Normal
350
13
100
AcDbDictionaryWithDefault
340
13
  0
ACDBPLACEHOLDER
  5
13
330
12
  0
DICTIONARY
  5
14
330
A
100
AcDbDictionary
281
1
  0
DICTIONARY
  5
15
330
A
100
AcDbDictionary
281
1
  0
DICTIONARY
  5
16
330
A
100
AcDbDictionary
281
1
  3
2dWireframe
350
5A
  3
Basic
350
5B
  3
Brighten
350
5C
  3
ColorChange
350
5D
  3
Conceptual
350
5E
  3
Dim
350
5F
  3
EdgeColorOff
350
60
  3
Facepattern
350
61
  3
Flat
350
62
  3
FlatWithEdges
350
63
  3
Gouraud
350
64
  3
GouraudWithEdges
350
65
  3
Hidden
350
66
  3
JitterOff
350
67
  3
Linepattern
350
68
  3
Modeling
350
69
  3
OverhangOff
350
6A
  3
Realistic
350
6B
  3
Shaded
350
6C
  3
Shaded with edges
350
6D
  3
Shades of Gray
350
6E
  3
Sketchy
350
6F
  3
Thicken
350
70
  3
Wireframe
350
71
  3
X-Ray
350
72
  0
LAYOUT
  5
1A
330
D
100
AcDbPlotSettings
  1

  4
A3
  6

 40
7.5
 41
20.0
 42
7.5
 43
20.0
 44
420.0
 45
297.0
 46
0.0
 47
0.0
 48
0.0
 49
0.0
140
0.0
141
0.0
142
1.0
143
1.0
 70
1024
 72
1
 73
0
 74
5
  7

 75
16
 76
0
 77
2
 78
300
147
1.0
148
0.0
149
0.0
100
AcDbLayout
  1
Model
 70
1
 71
0
 10
0.0
 20
0.0
 11
420.0
 21
297.0
 12
0.0
 22
0.0
 32
0.0
 14
1e+20
 24
1e+20
 34
1e+20
 15
-1e+20
 25
-1e+20
 35
-1e+20
146
0.0
 13
0.0
 23
0.0
 33
0.0
 16
1.0
 26
0.0
 36
0.0
 17
0.0
 27
1.0
 37
0.0
 76
1
330
17
  0
LAYOUT
  5
1E
330
D
100
AcDbPlotSettings
  1

  4
A3
  6

 40
7.5
 41
20.0
 42
7.5
 43
20.0
 44
420.0
 45
297.0
 46
0.0
 47
0.0
 48
0.0
 49
0.0
140
0.0
141
0.0
142
1.0
143
1.0
 70
0
 72
1
 73
0
 74
5
  7

 75
16
 76
0
 77
2
 78
300
147
1.0
148
0.0
149
0.0
100
AcDbLayout
  1
Layout1
 70
1
 71
1
 10
0.0
 20
0.0
 11
420.0
 21
297.0
 12
0.0
 22
0.0
 32
0.0
 14
1e+20
 24
1e+20
 34
1e+20
 15
-1e+20
 25
-1e+20
 35
-1e+20
146
0.0
 13
0.0
 23
0.0
 33
0.0
 16
1.0
 26
0.0
 36
0.0
 17
0.0
 27
1.0
 37
0.0
 76
1
330
1B
  0
MATERIAL
  5
1F
102
{ACAD_REACTORS
330
E
102
}
330
E
100
AcDbMaterial
  1
ByBlock
  2

 70
0
 40
1.0
 71
1
 41
1.0
 91
-1023410177
 42
1.0
 72
1
  3

 73
1
 74
1
 75
1
 44
0.5
 73
0
 45
1.0
 46
1.0
 77
1
  4

 78
1
 79
1
170
1
 48
1.0
171
1
  6

172
1
173
1
174
1
140
1.0
141
1.0
175
1
  7

176
1
177
1
178
1
143
1.0
179
1
  8

270
1
271
1
272
1
145
1.0
146
1.0
273
1
  9

274
1
275
1
276
1
 42
1.0
 72
1
  3

 73
1
 74
1
 75
1
 94
63
  0
MATERIAL
  5
20
102
{ACAD_REACTORS
330
E
102
}
330
E
100
AcDbMaterial
  1
ByLayer
  2

 70
0
 40
1.0
 71
1
 41
1.0
 91
-1023410177
 42
1.0
 72
1
  3

 73
1
 74
1
 75
1
 44
0.5
 73
0
 45
1.0
 46
1.0
 77
1
  4

 78
1
 79
1
170
1
 48
1.0
171
1
  6

172
1
173
1
174
1
140
1.0
141
1.0
175
1
  7

176
1
177
1
178
1
143
1.0
179
1
  8

270
1
271
1
272
1
145
1.0
146
1.0
273
1
  9

274
1
275
1
276
1
 42
1.0
 72
1
  3

 73
1
 74
1
 75
1
 94
63
  0
MATERIAL
  5
21
102
{ACAD_REACTORS
330
E
102
}
330
E
100
AcDbMaterial
  1
Global
  2

 70
0
 40
1.0
 71
1
 41
1.0
 91
-1023410177
 42
1.0
 72
1
  3

 73
1
 74
1
 75
1
 44
0.5
 73
0
 45
1.0
 46
1.0
 77
1
  4

 78
1
 79
1
170
1
 48
1.0
171
1
  6

172
1
173
1
174
1
140
1.0
141
1.0
175
1
  7

176
1
177
1
178
1
143
1.0
179
1
  8

270
1
271
1
272
1
145
1.0
146
1.0
273
1
  9

274
1
275
1
276
1
 42
1.0
 72
1
  3

 73
1
 74
1
 75
1
 94
63
  0
MLINESTYLE
  5
22
102
{ACAD_REACTORS
330
10
102
}
330
10
100
AcDbMlineStyle
  2
Standard
 70
0
  3

 62
256
 51
90.0
 52
90.0
 71
2
 49
0.5
 62
256
  6
BYLAYER
 49
-0.5
 62
256
  6
BYLAYER
  0
MLEADERSTYLE
  5
2C
102
{ACAD_REACTORS
330
F
102
}
330
F
100
AcDbMLeaderStyle
179
2
170
2
171
1
172
0
 90
2
 40
0.0
 41
0.0
173
1
 91
-1056964608
 92
-2
290
1
 42
2.0
291
1
 43
8.0
  3
Standard
 44
4.0
300

342
29
174
1
175
1
176
0
178
1
 93
-1056964608
 45
4.0
292
0
297
0
 46
4.0
 94
-1056964608
 47
1.0
 49
1.0
140
1.0
294
1
141
0.0
177
0
142
1.0
295
0
296
0
143
3.75
271
0
272
9
273
9
  0
DICTIONARY
  5
2D
330
A
100
AcDbDictionary
280
1
281
1
  3
CREATED_BY_EZDXF
350
2E
  3
WRITTEN_BY_EZDXF
350
BD
  0
DICTIONARYVAR
  5
2E
330
2D
100
DictionaryVariables
280
0
  1
1.4.4 @ 2026-09-30T19:45:52.198223+00:00
  0
VISUALSTYLE
  5
5A
102
{ACAD_REACTORS
330
16
102
}
330
16
100
AcDbVisualStyle
  2
2dWireframe
 70
4
 90
0
 40
0.6
 62
7
290
0
291
0
  0
VISUALSTYLE
  5
5B
102
{ACAD_REACTORS
330
16
102
}
330
16
100
AcDbVisualStyle
  2
Basic
 70
7
 90
1
 40
0.6
 62
7
290
0
291
1
  0
VISUALSTYLE
  5
5C
102
{ACAD_REACTORS
330
16
102
}
330
16
100
AcDbVisualStyle
  2
Brighten
 70
12
 90
2
 40
0.6
 62
7
290
0
291
1
  0
VISUALSTYLE
  5
5D
102
{ACAD_REACTORS
330
16
102
}
330
16
100
AcDbVisualStyle
  2
ColorChange
 70
16
 90
2
 40
0.6
 62
8
290
0
291
1
  0
VISUALSTYLE
  5
5E
102
{ACAD_REACTORS
330
16
102
}
330
16
100
AcDbVisualStyle
  2
Conceptual
 70
9
 90
3
 40
0.6
 62
7
290
0
291
0
  0
VISUALSTYLE
  5
5F
102
{ACAD_REACTORS
330
16
102
}
330
16
100
AcDbVisualStyle
  2
Dim
 70
11
 90
2
 40
0.6
 62
7
290
0
291
1
  0
VISUALSTYLE
  5
60
102
{ACAD_REACTORS
330
16
102
}
330
16
100
AcDbVisualStyle
  2
EdgeColorOff
 70
22
 90
2
 40
0.6
 62
7
290
0
291
1
  0
VISUALSTYLE
  5
61
102
{ACAD_REACTORS
330
16
102
}
330
16
100
AcDbVisualStyle
  2
Facepattern
 70
15
 90
2
 40
0.6
 62
7
290
0
291
1
  0
VISUALSTYLE
  5
62
102
{ACAD_REACTORS
330
16
102
}
330
16
100
AcDbVisualStyle
  2
Flat
 70
0
 90
2
 40
0.6
 62
7
290
0
291
1
  0
VISUALSTYLE
  5
63
102
{ACAD_REACTORS
330
16
102
}
330
16
100
AcDbVisualStyle
  2
FlatWithEdges
 70
1
 90
2
 40
0.6
 62
7
290
0
291
1
  0
VISUALSTYLE
  5
64
102
{ACAD_REACTORS
330
16
102
}
330
16
100
AcDbVisualStyle
  2
Gouraud
 70
2
 90
2
 40
0.6
 62
7
290
0
291
1
  0
VISUALSTYLE
  5
65
102
{ACAD_REACTORS
330
16
102
}
330
16
100
AcDbVisualStyle
  2
GouraudWithEdges
 70
3
 90
2
 40
0.6
 62
7
290
0
291
1
  0
VISUALSTYLE
  5
66
102
{ACAD_REACTORS
330
16
102
}
330
16
100
AcDbVisualStyle
  2
Hidden
 70
6
 90
1
 40
0.6
 62
7
290
0
291
0
  0
VISUALSTYLE
  5
67
102
{ACAD_REACTORS
330
16
102
}
330
16
100
AcDbVisualStyle
  2
JitterOff
 70
20
 90
2
 40
0.6
 62
7
290
0
291
1
  0
VISUALSTYLE
  5
68
102
{ACAD_REACTORS
330
16
102
}
330
16
100
AcDbVisualStyle
  2
Linepattern
 70
14
 90
2
 40
0.6
 62
7
290
0
291
1
  0
VISUALSTYLE
  5
69
102
{ACAD_REACTORS
330
16
102
}
330
16
100
AcDbVisualStyle
  2
Modeling
 70
10
 90
2
 40
0.6
 62
7
290
0
291
0
  0
VISUALSTYLE
  5
6A
102
{ACAD_REACTORS
330
16
102
}
330
16
100
AcDbVisualStyle
  2
OverhangOff
 70
21
 90
2
 40
0.6
 62
7
290
0
291
1
  0
VISUALSTYLE
  5
6B
102
{ACAD_REACTORS
330
16
102
}
330
16
100
AcDbVisualStyle
  2
Realistic
 70
8
 90
2
 40
0.6
 62
7
290
0
291
0
  0
VISUALSTYLE
  5
6C
102
{ACAD_REACTORS
330
16
102
}
330
16
100
AcDbVisualStyle
  2
Shaded
 70
27
 90
2
 40
0.6
 62
7
290
0
291
0
  0
VISUALSTYLE
  5
6D
102
{ACAD_REACTORS
330
16
102
}
330
16
100
AcDbVisualStyle
  2
Shaded with edges
 70
26
 90
2
 40
0.6
 62
7
290
0
291
0
  0
VISUALSTYLE
  5
6E
102
{ACAD_REACTORS
330
16
102
}
330
16
100
AcDbVisualStyle
  2
Shades of Gray
 70
23
 90
2
 40
0.6
 62
7
290
0
291
0
  0
VISUALSTYLE
  5
6F
102
{ACAD_REACTORS
330
16
102
}
330
16
100
AcDbVisualStyle
  2
Sketchy
 70
24
 90
1
 40
0.6
 62
7
290
0
291
0
  0
VISUALSTYLE
  5
70
102
{ACAD_REACTORS
330
16
102
}
330
16
100
AcDbVisualStyle
  2
Thicken
 70
13
 90
2
 40
0.6
 62
7
290
0
291
1
  0
VISUALSTYLE
  5
71
102
{ACAD_REACTORS
330
16
102
}
330
16
100
AcDbVisualStyle
  2
Wireframe
 70
5
 90
0
 40
0.6
 62
7
290
0
291
0
  0
VISUALSTYLE
  5
72
102
{ACAD_REACTORS
330
16
102
}
330
16
100
AcDbVisualStyle
  2
X-Ray
 70
25
 90
2
 40
0.5
 62
7
290
0
291
0
  0
DICTIONARYVAR
  5
BD
330
2D
100
DictionaryVariables
280
0
  1
1.4.4 @ 2026-09-30T19:45:52.235601+00:00
  0
ENDSEC
  0
EOF
