  0
SECTION
  2
HEADER
  9
$ACADVER
  1
AC1024
  9
$ACADMAINTVER
 70
6
  9
$DWGCODEPAGE
  3
ANSI_1252
  9
$LASTSAVEDBY
  1
ezdxf
  9
$INSBASE
 10
0.0
 20
0.0
 30
0.0
  9
$EXTMIN
 10
1e+20
 20
1e+20
 30
1e+20
  9
$EXTMAX
 10
-1e+20
 20
-1e+20
 30
-1e+20
  9
$LIMMIN
 10
0.0
 20
0.0
  9
$LIMMAX
 10
420.0
 20
297.0
  9
$ORTHOMODE
 70
0
  9
$REGENMODE
 70
1
  9
$FILLMODE
 70
1
  9
$QTEXTMODE
 70
0
  9
$MIRRTEXT
 70
1
  9
$LTSCALE
 40
1.0
  9
$ATTMODE
 70
1
  9
$TEXTSIZE
 40
2.5
  9
$TRACEWID
 40
1.0
  9
$TEXTSTYLE
  7
OpenSans
  9
$CLAYER
  8
0
  9
$CELTYPE
  6
ByLayer
  9
$CECOLOR
 62
256
  9
$CELTSCALE
 40
1.0
  9
$DISPSILH
 70
0
  9
$DIMSCALE
 40
1.0
  9
$DIMASZ
 40
0.175
  9
$DIMEXO
 40
0.125
  9
$DIMDLI
 40
3.75
  9
$DIMRND
 40
0.0
  9
$DIMDLE
 40
0.0
  9
$DIMEXE
 40
0.375
  9
$DIMTP
 40
0.0
  9
$DIMTM
 40
0.0
  9
$DIMTXT
 40
0.25
  9
$DIMCEN
 40
2.5
  9
$DIMTSZ
 40
0.0
  9
$DIMTOL
 70
0
  9
$DIMLIM
 70
0
  9
$DIMTIH
 70
0
  9
$DIMTOH
 70
0
  9
$DIMSE1
 70
0
  9
$DIMSE2
 70
0
  9
$DIMTAD
 70
1
  9
$DIMZIN
 70
12
  9
$DIMBLK
  1
ARCHTICK
  9
$DIMASO
 70
1
  9
$DIMSHO
 70
1
  9
$DIMPOST
  1

  9
$DIMAPOST
  1

  9
$DIMALT
 70
0
  9
$DIMALTD
 70
3
  9
$DIMALTF
 40
0.03937007874
  9
$DIMLFAC
 40
100.0
  9
$DIMTOFL
 70
1
  9
$DIMTVP
 40
0.0
  9
$DIMTIX
 70
0
  9
$DIMSOXD
 70
0
  9
$DIMSAH
 70
0
  9
$DIMBLK1
  1

  9
$DIMBLK2
  1

  9
$DIMSTYLE
  2
EZDXF
  9
$DIMCLRD
 70
0
  9
$DIMCLRE
 70
0
  9
$DIMCLRT
 70
0
  9
$DIMTFAC
 40
0.5
  9
$DIMGAP
 40
0.1
  9
$DIMJUST
 70
0
  9
$DIMSD1
 70
0
  9
$DIMSD2
 70
0
  9
$DIMTOLJ
 70
0
  9
$DIMTZIN
 70
8
  9
$DIMALTZ
 70
0
  9
$DIMALTTZ
 70
0
  9
$DIMUPT
 70
1
  9
$DIMDEC
 70
2
  9
$DIMTDEC
 70
2
  9
$DIMALTU
 70
2
  9
$DIMALTTD
 70
3
  9
$DIMTXSTY
  7
OpenSansCondensed-Light
  9
$DIMAUNIT
 70
0
  9
$DIMADEC
 70
2
  9
$DIMALTRND
 40
0.0
  9
$DIMAZIN
 70
3
  9
$DIMDSEP
 70
46
  9
$DIMATFIT
 70
3
  9
$DIMFRAC
 70
0
  9
$DIMLDRBLK
  1

  9
$DIMLUNIT
 70
2
  9
$DIMLWD
 70
-2
  9
$DIMLWE
 70
-2
  9
$DIMTMOVE
 70
2
  9
$DIMFXL
 40
1.0
  9
$DIMFXLON
 70
0
  9
$DIMJOGANG
 40
0.785398163397
  9
$DIMTFILL
 70
0
  9
$DIMTFILLCLR
 70
0
  9
$DIMARCSYM
 70
0
  9
$DIMLTYPE
  6

  9
$DIMLTEX1
  6

  9
$DIMLTEX2
  6

  9
$DIMTXTDIRECTION
 70
0
  9
$LUNITS
 70
2
  9
$LUPREC
 70
4
  9
$SKETCHINC
 40
1.0
  9
$FILLETRAD
 40
10.0
  9
$AUNITS
 70
0
  9
$AUPREC
 70
2
  9
$MENU
  1
.
  9
$ELEVATION
 40
0.0
  9
$PELEVATION
 40
0.0
  9
$THICKNESS
 40
0.0
  9
$LIMCHECK
 70
0
  9
$CHAMFERA
 40
0.0
  9
$CHAMFERB
 40
0.0
  9
$CHAMFERC
 40
0.0
  9
$CHAMFERD
 40
0.0
  9
$SKPOLY
 70
0
  9
$TDCREATE
 40
2461315.283877315
  9
$TDUCREATE
 40
2458532.153996898
  9
$TDUPDATE
 40
2461315.283877315
  9
$TDUUPDATE
 40
2458532.1544311
  9
$TDINDWG
 40
0.0
  9
$TDUSRTIMER
 40
0.0
  9
$USRTIMER
 70
1
  9
$ANGBASE
 50
0.0
  9
$ANGDIR
 70
0
  9
$PDMODE
 70
0
  9
$PDSIZE
 40
0.0
  9
$PLINEWID
 40
0.0
  9
$SPLFRAME
 70
0
  9
$SPLINETYPE
 70
6
  9
$SPLINESEGS
 70
8
  9
$HANDSEED
  5
15D
  9
$SURFTAB1
 70
6
  9
$SURFTAB2
 70
6
  9
$SURFTYPE
 70
6
  9
$SURFU
 70
6
  9
$SURFV
 70
6
  9
$UCSBASE
  2

  9
$UCSNAME
  2

  9
$UCSORG
 10
0.0
 20
0.0
 30
0.0
  9
$UCSXDIR
 10
1.0
 20
0.0
 30
0.0
  9
$UCSYDIR
 10
0.0
 20
1.0
 30
0.0
  9
$UCSORTHOREF
  2

  9
$UCSORTHOVIEW
 70
0
  9
$UCSORGTOP
 10
0.0
 20
0.0
 30
0.0
  9
$UCSORGBOTTOM
 10
0.0
 20
0.0
 30
0.0
  9
$UCSORGLEFT
 10
0.0
 20
0.0
 30
0.0
  9
$UCSORGRIGHT
 10
0.0
 20
0.0
 30
0.0
  9
$UCSORGFRONT
 10
0.0
 20
0.0
 30
0.0
  9
$UCSORGBACK
 10
0.0
 20
0.0
 30
0.0
  9
$PUCSBASE
  2

  9
$PUCSNAME
  2

  9
$PUCSORG
 10
0.0
 20
0.0
 30
0.0
  9
$PUCSXDIR
 10
1.0
 20
0.0
 30
0.0
  9
$PUCSYDIR
 10
0.0
 20
1.0
 30
0.0
  9
$PUCSORTHOREF
  2

  9
$PUCSORTHOVIEW
 70
0
  9
$PUCSORGTOP
 10
0.0
 20
0.0
 30
0.0
  9
$PUCSORGBOTTOM
 10
0.0
 20
0.0
 30
0.0
  9
$PUCSORGLEFT
 10
0.0
 20
0.0
 30
0.0
  9
$PUCSORGRIGHT
 10
0.0
 20
0.0
 30
0.0
  9
$PUCSORGFRONT
 10
0.0
 20
0.0
 30
0.0
  9
$PUCSORGBACK
 10
0.0
 20
0.0
 30
0.0
  9
$USERI1
 70
0
  9
$USERI2
 70
0
  9
$USERI3
 70
0
  9
$USERI4
 70
0
  9
$USERI5
 70
0
  9
$USERR1
 40
0.0
  9
$USERR2
 40
0.0
  9
$USERR3
 40
0.0
  9
$USERR4
 40
0.0
  9
$USERR5
 40
0.0
  9
$WORLDVIEW
 70
1
  9
$SHADEDGE
 70
3
  9
$SHADEDIF
 70
70
  9
$TILEMODE
 70
1
  9
$MAXACTVP
 70
64
  9
$PINSBASE
 10
0.0
 20
0.0
 30
0.0
  9
$PLIMCHECK
 70
0
  9
$PEXTMIN
 10
1e+20
 20
1e+20
 30
1e+20
  9
$PEXTMAX
 10
-1e+20
 20
-1e+20
 30
-1e+20
  9
$PLIMMIN
 10
0.0
 20
0.0
  9
$PLIMMAX
 10
420.0
 20
297.0
  9
$UNITMODE
 70
0
  9
$VISRETAIN
 70
1
  9
$PLINEGEN
 70
0
  9
$PSLTSCALE
 70
1
  9
$TREEDEPTH
 70
3020
  9
$CMLSTYLE
  2
Standard
  9
$CMLJUST
 70
0
  9
$CMLSCALE
 40
20.0
  9
$PROXYGRAPHICS
 70
1
  9
$MEASUREMENT
 70
1
  9
$CELWEIGHT
370
-1
  9
$ENDCAPS
280
0
  9
$JOINSTYLE
280
0
  9
$LWDISPLAY
290
0
  9
$INSUNITS
 70
4
  9
$HYPERLINKBASE
  1

  9
$STYLESHEET
  1

  9
$XEDIT
290
1
  9
$CEPSNTYPE
380
0
  9
$PSTYLEMODE
290
1
  9
$FINGERPRINTGUID
  2
{D8FCF201-E937-4207-BEF4-52366C49CBF6}
  9
$VERSIONGUID
  2
{20B22F8E-F4AF-479F-B581-3F821DC5332B}
  9
$EXTNAMES
290
1
  9
$PSVPSCALE
 40
0.0
  9
$OLESTARTUP
290
0
  9
$SORTENTS
280
127
  9
$INDEXCTL
280
0
  9
$HIDETEXT
280
1
  9
$XCLIPFRAME
280
1
  9
$HALOGAP
280
0
  9
$OBSCOLOR
 70
257
  9
$OBSLTYPE
280
0
  9
$INTERSECTIONDISPLAY
280
0
  9
$INTERSECTIONCOLOR
 70
257
  9
$DIMASSOC
280
2
  9
$PROJECTNAME
  1

  9
$CAMERADISPLAY
290
0
  9
$LENSLENGTH
 40
50.0
  9
$CAMERAHEIGHT
 40
0.0
  9
$STEPSPERSEC
 40
24.0
  9
$STEPSIZE
 40
100.0
  9
$3DDWFPREC
 40
2.0
  9
$PSOLWIDTH
 40
0.005
  9
$PSOLHEIGHT
 40
0.08
  9
$LOFTANG1
 40
1.570796326795
  9
$LOFTANG2
 40
1.570796326795
  9
$LOFTMAG1
 40
0.0
  9
$LOFTMAG2
 40
0.0
  9
$LOFTPARAM
 70
7
  9
$LOFTNORMALS
280
1
  9
$LATITUDE
 40
37.795
  9
$LONGITUDE
 40
-122.394
  9
$NORTHDIRECTION
 40
0.0
  9
$TIMEZONE
 70
-8000
  9
$LIGHTGLYPHDISPLAY
280
1
  9
$TILEMODELIGHTSYNCH
280
1
  9
$CMATERIAL
347
20
  9
$SOLIDHIST
280
0
  9
$SHOWHIST
280
1
  9
$DWFFRAME
280
2
  9
$DGNFRAME
280
2
  9
$REALWORLDSCALE
290
1
  9
$INTERFERECOLOR
 62
256
  9
$CSHADOW
280
0
  9
$SHADOWPLANELOCATION
 40
0.0
  0
ENDSEC
  0
SECTION
  2
CLASSES
  0
CLASS
  1
ACDBDICTIONARYWDFLT
  2
AcDbDictionaryWithDefault
  3
ObjectDBX Classes
 90
0
 91
0
280
0
281
0
  0
CLASS
  1
SUN
  2
AcDbSun
  3
SCENEOE
 90
1153
 91
0
280
0
281
0
  0
CLASS
  1
VISUALSTYLE
  2
AcDbVisualStyle
  3
ObjectDBX Classes
 90
4095
 91
0
280
0
281
0
  0
CLASS
  1
MATERIAL
  2
AcDbMaterial
  3
ObjectDBX Classes
 90
1153
 91
0
280
0
281
0
  0
CLASS
  1
SCALE
  2
AcDbScale
  3
ObjectDBX Classes
 90
1153
 91
0
280
0
281
0
  0
CLASS
  1
TABLESTYLE
  2
AcDbTableStyle
  3
ObjectDBX Classes
 90
4095
 91
0
280
0
281
0
  0
CLASS
  1
MLEADERSTYLE
  2
AcDbMLeaderStyle
  3
ACDB_MLEADERSTYLE_CLASS
 90
4095
 91
0
280
0
281
0
  0
CLASS
  1
DICTIONARYVAR
  2
AcDbDictionaryVar
  3
ObjectDBX Classes
 90
0
 91
0
280
0
281
0
  0
CLASS
  1
CELLSTYLEMAP
  2
AcDbCellStyleMap
  3
ObjectDBX Classes
 90
1152
 91
0
280
0
281
0
  0
CLASS
  1
MENTALRAYRENDERSETTINGS
  2
AcDbMentalRayRenderSettings
  3
SCENEOE
 90
1024
 91
0
280
0
281
0
  0
CLASS
  1
ACDBDETAILVIEWSTYLE
  2
AcDbDetailViewStyle
  3
ObjectDBX Classes
 90
1025
 91
0
280
0
281
0
  0
CLASS
  1
ACDBSECTIONVIEWSTYLE
  2
AcDbSectionViewStyle
  3
ObjectDBX Classes
 90
1025
 91
0
280
0
281
0
  0
CLASS
  1
RASTERVARIABLES
  2
AcDbRasterVariables
  3
ISM
 90
0
 91
0
280
0
281
0
  0
CLASS
  1
ACDBPLACEHOLDER
  2
AcDbPlaceHolder
  3
ObjectDBX Classes
 90
0
 91
0
280
0
281
0
  0
CLASS
  1
LAYOUT
  2
AcDbLayout
  3
ObjectDBX Classes
 90
0
 91
0
280
0
281
0
  0
ENDSEC
  0
SECTION
  2
TABLES
  0
TABLE
  2
VPORT
  5
8
330
0
100
AcDbSymbolTable
 70
1
  0
VPORT
  5
23
330
8
100
AcDbSymbolTableRecord
100
AcDbViewportTableRecord
  2
*Active
 70
0
 10
0.0
 20
0.0
 11
1.0
 21
1.0
 12
0.0
 22
0.0
 13
0.0
 23
0.0
 14
0.5
 24
0.5
 15
0.5
 25
0.5
 16
0.0
 26
0.0
 36
1.0
 17
0.0
 27
0.0
 37
0.0
 40
1000.0
 41
1.34
 42
50.0
 43
0.0
 44
0.0
 50
0.0
 51
0.0
 71
0
 72
1000
 73
1
 74
3
 75
0
 76
0
 77
0
 78
0
281
0
 65
0
146
0.0
  0
ENDTAB
  0
TABLE
  2
LTYPE
  5
2
330
0
100
AcDbSymbolTable
 70
21
  0
LTYPE
  5
24
330
2
100
AcDbSymbolTableRecord
100
AcDbLinetypeTableRecord
  2
ByBlock
 70
0
  3

 72
65
 73
0
 40
0.0
  0
LTYPE
  5
25
330
2
100
AcDbSymbolTableRecord
100
AcDbLinetypeTableRecord
  2
ByLayer
 70
0
  3

 72
65
 73
0
 40
0.0
  0
LTYPE
  5
26
330
2
100
AcDbSymbolTableRecord
100
AcDbLinetypeTableRecord
  2
Continuous
 70
0
  3

 72
65
 73
0
 40
0.0
  0
LTYPE
  5
2F
330
2
100
AcDbSymbolTableRecord
100
AcDbLinetypeTableRecord
  2
CENTER
 70
0
  3
Center ____ _ ____ _ ____ _ ____ _ ____ _ ____
 72
65
 73
4
 40
5.08
 49
3.175
 74
0
 49
-0.635
 74
0
 49
0.635
 74
0
 49
-0.635
 74
0
  0
LTYPE
  5
30
330
2
100
AcDbSymbolTableRecord
100
AcDbLinetypeTableRecord
  2
CENTERX2
 70
0
  3
Center (2x) ________  __  ________  __  ________
 72
65
 73
4
 40
8.89
 49
6.35
 74
0
 49
-0.635
 74
0
 49
1.27
 74
0
 49
-0.635
 74
0
  0
LTYPE
  5
31
330
2
100
AcDbSymbolTableRecord
100
AcDbLinetypeTableRecord
  2
CENTER2
 70
0
  3
Center (.5x) ____ _ ____ _ ____ _ ____ _ ____
 72
65
 73
4
 40
2.54
 49
1.587
 74
0
 49
-0.318
 74
0
 49
0.318
 74
0
 49
-0.318
 74
0
  0
LTYPE
  5
32
330
2
100
AcDbSymbolTableRecord
100
AcDbLinetypeTableRecord
  2
DASHED
 70
0
  3
Dashed __ __ __ __ __ __ __ __ __ __ __ __ __ _
 72
65
 73
2
 40
1.524
 49
1.27
 74
0
 49
-0.254
 74
0
  0
LTYPE
  5
33
330
2
100
AcDbSymbolTableRecord
100
AcDbLinetypeTableRecord
  2
DASHEDX2
 70
0
  3
Dashed (2x) ____  ____  ____  ____  ____  ____
 72
65
 73
2
 40
3.048
 49
2.54
 74
0
 49
-0.508
 74
0
  0
LTYPE
  5
34
330
2
100
AcDbSymbolTableRecord
100
AcDbLinetypeTableRecord
  2
DASHED2
 70
0
  3
Dashed (.5x) _ _ _ _ _ _ _ _ _ _ _ _ _ _
 72
65
 73
2
 40
0.762
 49
0.635
 74
0
 49
-0.127
 74
0
  0
LTYPE
  5
35
330
2
100
AcDbSymbolTableRecord
100
AcDbLinetypeTableRecord
  2
PHANTOM
 70
0
  3
Phantom ______  __  __  ______  __  __  ______
 72
65
 73
6
 40
6.35
 49
3.175
 74
0
 49
-0.635
 74
0
 49
0.635
 74
0
 49
-0.635
 74
0
 49
0.635
 74
0
 49
-0.635
 74
0
  0
LTYPE
  5
36
330
2
100
AcDbSymbolTableRecord
100
AcDbLinetypeTableRecord
  2
PHANTOMX2
 70
0
  3
Phantom (2x)____________    ____    ____    ____________
 72
65
 73
6
 40
10.795
 49
6.35
 74
0
 49
-0.635
 74
0
 49
1.27
 74
0
 49
-0.635
 74
0
 49
1.27
 74
0
 49
-0.635
 74
0
  0
LTYPE
  5
37
330
2
100
AcDbSymbolTableRecord
100
AcDbLinetypeTableRecord
  2
PHANTOM2
 70
0
  3
Phantom (.5x) ___ _ _ ___ _ _ ___ _ _ ___ _ _ ___
 72
65
 73
6
 40
3.175
 49
1.587
 74
0
 49
-0.318
 74
0
 49
0.318
 74
0
 49
-0.318
 74
0
 49
0.318
 74
0
 49
-0.318
 74
0
  0
LTYPE
  5
38
330
2
100
AcDbSymbolTableRecord
100
AcDbLinetypeTableRecord
  2
DASHDOT
 70
0
  3
Dash dot __ . __ . __ . __ . __ . __ . __ . __
 72
65
 73
4
 40
3.556
 49
2.54
 74
0
 49
-0.508
 74
0
 49
0.0
 74
0
 49
-0.508
 74
0
  0
LTYPE
  5
39
330
2
100
AcDbSymbolTableRecord
100
AcDbLinetypeTableRecord
  2
DASHDOTX2
 70
0
  3
Dash dot (2x) ____  .  ____  .  ____  .  ____
 72
65
 73
4
 40
6.096
 49
5.08
 74
0
 49
-0.508
 74
0
 49
0.0
 74
0
 49
-0.508
 74
0
  0
LTYPE
  5
3A
330
2
100
AcDbSymbolTableRecord
100
AcDbLinetypeTableRecord
  2
DASHDOT2
 70
0
  3
Dash dot (.5x) _ . _ . _ . _ . _ . _ . _ . _
 72
65
 73
4
 40
1.778
 49
1.27
 74
0
 49
-0.254
 74
0
 49
0.0
 74
0
 49
-0.254
 74
0
  0
LTYPE
  5
3B
330
2
100
AcDbSymbolTableRecord
100
AcDbLinetypeTableRecord
  2
DOT
 70
0
  3
Dot .  .  .  .  .  .  .  .  .  .  .  .  .  .  .  .
 72
65
 73
2
 40
0.508
 49
0.0
 74
0
 49
-0.508
 74
0
  0
LTYPE
  5
3C
330
2
100
AcDbSymbolTableRecord
100
AcDbLinetypeTableRecord
  2
DOTX2
 70
0
  3
Dot (2x) .    .    .    .    .    .    .    . 
 72
65
 73
2
 40
1.016
 49
0.0
 74
0
 49
-1.016
 74
0
  0
LTYPE
  5
3D
330
2
100
AcDbSymbolTableRecord
100
AcDbLinetypeTableRecord
  2
DOT2
 70
0
  3
Dot (.5) . . . . . . . . . . . . . . . . . . . 
 72
65
 73
2
 40
0.254
 49
0.0
 74
0
 49
-0.254
 74
0
  0
LTYPE
  5
3E
330
2
100
AcDbSymbolTableRecord
100
AcDbLinetypeTableRecord
  2
DIVIDE
 70
0
  3
Divide __ . . __ . . __ . . __ . . __ . . __
 72
65
 73
6
 40
4.064
 49
2.54
 74
0
 49
-0.508
 74
0
 49
0.0
 74
0
 49
-0.508
 74
0
 49
0.0
 74
0
 49
-0.508
 74
0
  0
LTYPE
  5
3F
330
2
100
AcDbSymbolTableRecord
100
AcDbLinetypeTableRecord
  2
DIVIDEX2
 70
0
  3
Divide (2x) ____  . .  ____  . .  ____  . .  ____
 72
65
 73
6
 40
6.604
 49
5.08
 74
0
 49
-0.508
 74
0
 49
0.0
 74
0
 49
-0.508
 74
0
 49
0.0
 74
0
 49
-0.508
 74
0
  0
LTYPE
  5
40
330
2
100
AcDbSymbolTableRecord
100
AcDbLinetypeTableRecord
  2
DIVIDE2
 70
0
  3
Divide(.5x) _ . _ . _ . _ . _ . _ . _ . _
 72
65
 73
6
 40
2.032
 49
1.27
 74
0
 49
-0.254
 74
0
 49
0.0
 74
0
 49
-0.254
 74
0
 49
0.0
 74
0
 49
-0.254
 74
0
  0
ENDTAB
  0
TABLE
  2
LAYER
  5
1
330
0
100
AcDbSymbolTable
 70
12
  0
LAYER
  5
27
330
1
100
AcDbSymbolTableRecord
100
AcDbLayerTableRecord
  2
0
 70
0
 62
7
  6
Continuous
370
-3
390
13
347
21
  0
LAYER
  5
28
330
1
100
AcDbSymbolTableRecord
100
AcDbLayerTableRecord
  2
Defpoints
 70
0
 62
7
  6
Continuous
290
0
370
-3
390
13
347
21
  0
LAYER
  5
8A
330
1
100
AcDbSymbolTableRecord
100
AcDbLayerTableRecord
  2
CUT_OUTSIDE
 70
0
 62
1
  6
Continuous
370
-3
390
13
347
21
1001
AcAecLayerStandard
1000

1000
Profile cut, OUTSIDE the line, through 18 mm (add tabs)
  0
LAYER
  5
8C
330
1
100
AcDbSymbolTableRecord
100
AcDbLayerTableRecord
  2
CUT_NESTED
 70
0
 62
140
  6
Continuous
370
-3
390
13
347
21
1001
AcAecLayerStandard
1000

1000
Small parts nested inside a window: cut OUTSIDE the line, BEFORE CUT_INSIDE (add tabs)
  0
LAYER
  5
8D
330
1
100
AcDbSymbolTableRecord
100
AcDbLayerTableRecord
  2
CUT_INSIDE
 70
0
 62
5
  6
Continuous
370
-3
390
13
347
21
1001
AcAecLayerStandard
1000

1000
Profile cut, INSIDE the line, through 18 mm (windows, holes, slots, letters)
  0
LAYER
  5
8E
330
1
100
AcDbSymbolTableRecord
100
AcDbLayerTableRecord
  2
CUT_DOOR
 70
0
 62
6
  6
Continuous
370
-3
390
13
347
21
1001
AcAecLayerStandard
1000

1000
Door openings: cut ON the line, through — the loose piece becomes the door
  0
LAYER
  5
8F
330
1
100
AcDbSymbolTableRecord
100
AcDbLayerTableRecord
  2
DRILL_7
 70
0
 62
3
  6
Continuous
370
-3
390
13
347
21
1001
AcAecLayerStandard
1000

1000
Drill 7 mm through (confirmat screw shank holes)
  0
LAYER
  5
90
330
1
100
AcDbSymbolTableRecord
100
AcDbLayerTableRecord
  2
DRILL_10
 70
0
 62
4
  6
Continuous
370
-3
390
13
347
21
1001
AcAecLayerStandard
1000

1000
Drill 10 mm through (M8 T-nuts / bolts / levelling feet)
  0
LAYER
  5
91
330
1
100
AcDbSymbolTableRecord
100
AcDbLayerTableRecord
  2
POCKET_8
 70
0
 62
30
  6
Continuous
370
-3
390
13
347
21
1001
AcAecLayerStandard
1000

1000
Pocket 8 mm deep (LED strip channels)
  0
LAYER
  5
92
330
1
100
AcDbSymbolTableRecord
100
AcDbLayerTableRecord
  2
ENGRAVE_V
 70
0
 62
2
  6
Continuous
370
-3
390
13
347
21
1001
AcAecLayerStandard
1000

1000
V-bit engrave 3 mm deep, 60/90 deg (decoration, text)
  0
LAYER
  5
93
330
1
100
AcDbSymbolTableRecord
100
AcDbLayerTableRecord
  2
SHEET
 70
0
 62
8
  6
Continuous
370
-3
390
13
347
21
1001
AcAecLayerStandard
1000

1000
Sheet outline 1220 x 2440 — do not cut
  0
LAYER
  5
94
330
1
100
AcDbSymbolTableRecord
100
AcDbLayerTableRecord
  2
LABELS
 70
0
 62
7
  6
Continuous
370
-3
390
13
347
21
1001
AcAecLayerStandard
1000

1000
Part names — do not cut
  0
ENDTAB
  0
TABLE
  2
STYLE
  5
5
330
0
100
AcDbSymbolTable
 70
26
  0
STYLE
  5
29
330
5
100
AcDbSymbolTableRecord
100
AcDbTextStyleTableRecord
  2
Standard
 70
0
 40
0.0
 41
1.0
 50
0.0
 71
0
 42
2.5
  3
txt
  4

  0
STYLE
  5
41
330
5
100
AcDbSymbolTableRecord
100
AcDbTextStyleTableRecord
  2
OpenSans-Light
 70
0
 40
0.0
 41
1.0
 50
0.0
 71
0
 42
2.5
  3
OpenSans-Light.ttf
  4

  0
STYLE
  5
42
330
5
100
AcDbSymbolTableRecord
100
AcDbTextStyleTableRecord
  2
OpenSans-Light-Italic
 70
0
 40
0.0
 41
1.0
 50
0.0
 71
0
 42
2.5
  3
OpenSans-LightItalic.ttf
  4

  0
STYLE
  5
43
330
5
100
AcDbSymbolTableRecord
100
AcDbTextStyleTableRecord
  2
OpenSans
 70
0
 40
0.0
 41
1.0
 50
0.0
 71
0
 42
2.5
  3
OpenSans-Regular.ttf
  4

  0
STYLE
  5
44
330
5
100
AcDbSymbolTableRecord
100
AcDbTextStyleTableRecord
  2
OpenSans-Italic
 70
0
 40
0.0
 41
1.0
 50
0.0
 71
0
 42
2.5
  3
OpenSans-Italic.ttf
  4

  0
STYLE
  5
45
330
5
100
AcDbSymbolTableRecord
100
AcDbTextStyleTableRecord
  2
OpenSans-SemiBold
 70
0
 40
0.0
 41
1.0
 50
0.0
 71
0
 42
2.5
  3
OpenSans-SemiBold.ttf
  4

  0
STYLE
  5
46
330
5
100
AcDbSymbolTableRecord
100
AcDbTextStyleTableRecord
  2
OpenSans-SemiBoldItalic
 70
0
 40
0.0
 41
1.0
 50
0.0
 71
0
 42
2.5
  3
OpenSans-SemiBoldItalic.ttf
  4

  0
STYLE
  5
47
330
5
100
AcDbSymbolTableRecord
100
AcDbTextStyleTableRecord
  2
OpenSans-Bold
 70
0
 40
0.0
 41
1.0
 50
0.0
 71
0
 42
2.5
  3
OpenSans-Bold.ttf
  4

  0
STYLE
  5
48
330
5
100
AcDbSymbolTableRecord
100
AcDbTextStyleTableRecord
  2
OpenSans-BoldItalic
 70
0
 40
0.0
 41
1.0
 50
0.0
 71
0
 42
2.5
  3
OpenSans-BoldItalic.ttf
  4

  0
STYLE
  5
49
330
5
100
AcDbSymbolTableRecord
100
AcDbTextStyleTableRecord
  2
OpenSans-ExtraBold
 70
0
 40
0.0
 41
1.0
 50
0.0
 71
0
 42
2.5
  3
OpenSans-ExtraBold.ttf
  4

  0
STYLE
  5
4A
330
5
100
AcDbSymbolTableRecord
100
AcDbTextStyleTableRecord
  2
OpenSans-ExtraBoldItalic
 70
0
 40
0.0
 41
1.0
 50
0.0
 71
0
 42
2.5
  3
OpenSans-ExtraBoldItalic.ttf
  4

  0
STYLE
  5
4B
330
5
100
AcDbSymbolTableRecord
100
AcDbTextStyleTableRecord
  2
OpenSansCondensed-Bold
 70
0
 40
0.0
 41
1.0
 50
0.0
 71
0
 42
2.5
  3
OpenSansCondensed-Bold.ttf
  4

  0
STYLE
  5
4C
330
5
100
AcDbSymbolTableRecord
100
AcDbTextStyleTableRecord
  2
OpenSansCondensed-Light
 70
0
 40
0.0
 41
1.0
 50
0.0
 71
0
 42
2.5
  3
OpenSansCondensed-Light.ttf
  4

  0
STYLE
  5
4D
330
5
100
AcDbSymbolTableRecord
100
AcDbTextStyleTableRecord
  2
OpenSansCondensed-Italic
 70
0
 40
0.0
 41
1.0
 50
0.0
 71
0
 42
2.5
  3
OpenSansCondensed-LightItalic.ttf
  4

  0
STYLE
  5
4E
330
5
100
AcDbSymbolTableRecord
100
AcDbTextStyleTableRecord
  2
LiberationSans
 70
0
 40
0.0
 41
1.0
 50
0.0
 71
0
 42
2.5
  3
LiberationSans-Regular.ttf
  4

  0
STYLE
  5
4F
330
5
100
AcDbSymbolTableRecord
100
AcDbTextStyleTableRecord
  2
LiberationSans-Bold
 70
0
 40
0.0
 41
1.0
 50
0.0
 71
0
 42
2.5
  3
LiberationSans-Bold.ttf
  4

  0
STYLE
  5
50
330
5
100
AcDbSymbolTableRecord
100
AcDbTextStyleTableRecord
  2
LiberationSans-BoldItalic
 70
0
 40
0.0
 41
1.0
 50
0.0
 71
0
 42
2.5
  3
LiberationSans-BoldItalic.ttf
  4

  0
STYLE
  5
51
330
5
100
AcDbSymbolTableRecord
100
AcDbTextStyleTableRecord
  2
LiberationSans-Italic
 70
0
 40
0.0
 41
1.0
 50
0.0
 71
0
 42
2.5
  3
LiberationSans-Italic.ttf
  4

  0
STYLE
  5
52
330
5
100
AcDbSymbolTableRecord
100
AcDbTextStyleTableRecord
  2
LiberationSerif
 70
0
 40
0.0
 41
1.0
 50
0.0
 71
0
 42
2.5
  3
LiberationSerif-Regular.ttf
  4

  0
STYLE
  5
53
330
5
100
AcDbSymbolTableRecord
100
AcDbTextStyleTableRecord
  2
LiberationSerif-Bold
 70
0
 40
0.0
 41
1.0
 50
0.0
 71
0
 42
2.5
  3
LiberationSerif-Bold.ttf
  4

  0
STYLE
  5
54
330
5
100
AcDbSymbolTableRecord
100
AcDbTextStyleTableRecord
  2
LiberationSerif-BoldItalic
 70
0
 40
0.0
 41
1.0
 50
0.0
 71
0
 42
2.5
  3
LiberationSerif-BoldItalic.ttf
  4

  0
STYLE
  5
55
330
5
100
AcDbSymbolTableRecord
100
AcDbTextStyleTableRecord
  2
LiberationSerif-Italic
 70
0
 40
0.0
 41
1.0
 50
0.0
 71
0
 42
2.5
  3
LiberationSerif-Italic.ttf
  4

  0
STYLE
  5
56
330
5
100
AcDbSymbolTableRecord
100
AcDbTextStyleTableRecord
  2
LiberationMono
 70
0
 40
0.0
 41
1.0
 50
0.0
 71
0
 42
2.5
  3
LiberationMono-Regular.ttf
  4

  0
STYLE
  5
57
330
5
100
AcDbSymbolTableRecord
100
AcDbTextStyleTableRecord
  2
LiberationMono-Bold
 70
0
 40
0.0
 41
1.0
 50
0.0
 71
0
 42
2.5
  3
LiberationMono-Bold.ttf
  4

  0
STYLE
  5
58
330
5
100
AcDbSymbolTableRecord
100
AcDbTextStyleTableRecord
  2
LiberationMono-BoldItalic
 70
0
 40
0.0
 41
1.0
 50
0.0
 71
0
 42
2.5
  3
LiberationMono-BoldItalic.ttf
  4

  0
STYLE
  5
59
330
5
100
AcDbSymbolTableRecord
100
AcDbTextStyleTableRecord
  2
LiberationMono-Italic
 70
0
 40
0.0
 41
1.0
 50
0.0
 71
0
 42
2.5
  3
LiberationMono-Italic.ttf
  4

  0
ENDTAB
  0
TABLE
  2
VIEW
  5
7
330
0
100
AcDbSymbolTable
 70
0
  0
ENDTAB
  0
TABLE
  2
UCS
  5
6
330
0
100
AcDbSymbolTable
 70
0
  0
ENDTAB
  0
TABLE
  2
APPID
  5
3
330
0
100
AcDbSymbolTable
 70
4
  0
APPID
  5
2A
330
3
100
AcDbSymbolTableRecord
100
AcDbRegAppTableRecord
  2
ACAD
 70
0
  0
APPID
  5
8B
330
3
100
AcDbSymbolTableRecord
100
AcDbRegAppTableRecord
  2
AcAecLayerStandard
 70
0
  0
APPID
  5
15A
330
3
100
AcDbSymbolTableRecord
100
AcDbRegAppTableRecord
  2
HATCHBACKGROUNDCOLOR
 70
0
  0
APPID
  5
15B
330
3
100
AcDbSymbolTableRecord
100
AcDbRegAppTableRecord
  2
EZDXF
 70
0
  0
ENDTAB
  0
TABLE
  2
DIMSTYLE
  5
4
330
0
100
AcDbSymbolTable
 70
12
100
AcDbDimStyleTable
  0
DIMSTYLE
105
2B
330
4
100
AcDbSymbolTableRecord
100
AcDbDimStyleTableRecord
  2
Standard
 70
0
 40
1.0
 41
2.5
 42
0.625
 43
3.75
 44
1.25
 45
0.0
 46
0.0
 47
0.0
 48
0.0
 49
2.5
140
2.5
141
2.5
142
0.0
143
0.03937007874
144
1.0
145
0.0
146
1.0
147
0.625
148
0.0
 69
0
 70
0
 71
0
 72
0
 73
0
 74
0
 75
0
 76
0
 77
1
 78
8
 79
3
170
0
171
3
172
1
173
0
174
0
175
0
176
0
177
0
178
0
179
2
271
2
272
2
273
2
274
3
275
0
276
0
277
2
278
44
279
0
280
0
281
0
282
0
283
0
284
8
285
0
286
0
288
0
289
3
290
0
371
-2
372
-2
  0
DIMSTYLE
105
73
330
4
100
AcDbSymbolTableRecord
100
AcDbDimStyleTableRecord
  2
EZDXF
 70
0
 40
1.0
 41
0.175
 42
0.125
 43
3.75
 44
0.375
 45
0.0
 46
0.0
 47
0.0
 48
0.0
 49
2.5
140
0.25
141
2.5
142
0.0
143
0.03937007874
144
100.0
145
0.0
146
0.5
147
0.1
148
0.0
 69
0
 70
0
 71
0
 72
0
 73
0
 74
0
 75
0
 76
0
 77
1
 78
12
 79
3
170
0
171
3
172
1
173
0
174
0
175
0
176
0
177
0
178
0
179
2
271
2
272
2
273
2
274
3
275
0
276
0
277
2
278
46
279
2
280
0
281
0
282
0
283
0
284
8
285
0
286
0
288
1
289
3
290
0
340
4C
342
74
371
-2
372
-2
  0
DIMSTYLE
105
7C
330
4
100
AcDbSymbolTableRecord
100
AcDbDimStyleTableRecord
  2
EZ_M_100_H25_CM
 70
0
 40
1.0
 41
0.25
 42
0.125
 43
3.75
 44
0.375
 45
0.0
 46
0.0
 47
0.0
 48
0.0
 49
2.5
140
0.25
141
2.5
142
0.125
143
0.03937007874
144
100.0
145
0.0
146
0.5
147
0.1
148
0.0
 69
0
 70
0
 71
0
 72
0
 73
0
 74
0
 75
0
 76
0
 77
1
 78
12
 79
3
170
0
171
3
172
1
173
0
174
0
175
0
176
0
177
0
178
0
179
2
271
2
272
2
273
2
274
3
275
0
276
0
277
2
278
46
279
2
280
0
281
0
282
0
283
0
284
8
285
0
286
0
288
1
289
3
290
0
340
4C
371
-2
372
-2
  0
DIMSTYLE
105
7D
330
4
100
AcDbSymbolTableRecord
100
AcDbDimStyleTableRecord
  2
EZ_M_50_H25_CM
 70
0
 40
1.0
 41
0.125
 42
0.0625
 43
3.75
 44
0.1875
 45
0.0
 46
0.0
 47
0.0
 48
0.0
 49
2.5
140
0.125
141
2.5
142
0.0625
143
0.03937007874
144
100.0
145
0.0
146
0.5
147
0.05
148
0.0
 69
0
 70
0
 71
0
 72
0
 73
0
 74
0
 75
0
 76
0
 77
1
 78
12
 79
3
170
0
171
3
172
1
173
0
174
0
175
0
176
0
177
0
178
0
179
2
271
2
272
2
273
2
274
3
275
0
276
0
277
2
278
46
279
2
280
0
281
0
282
0
283
0
284
8
285
0
286
0
288
1
289
3
290
0
340
4C
371
-2
372
-2
  0
DIMSTYLE
105
7E
330
4
100
AcDbSymbolTableRecord
100
AcDbDimStyleTableRecord
  2
EZ_M_25_H25_CM
 70
0
 40
1.0
 41
0.0625
 42
0.03125
 43
3.75
 44
0.09375
 45
0.0
 46
0.0
 47
0.0
 48
0.0
 49
2.5
140
0.0625
141
2.5
142
0.03125
143
0.03937007874
144
100.0
145
0.0
146
0.5
147
0.025
148
0.0
 69
0
 70
0
 71
0
 72
0
 73
0
 74
0
 75
0
 76
0
 77
1
 78
12
 79
3
170
0
171
3
172
1
173
0
174
0
175
0
176
0
177
0
178
0
179
2
271
2
272
2
273
2
274
3
275
0
276
0
277
2
278
46
279
2
280
0
281
0
282
0
283
0
284
8
285
0
286
0
288
1
289
3
290
0
340
4C
371
-2
372
-2
  0
DIMSTYLE
105
7F
330
4
100
AcDbSymbolTableRecord
100
AcDbDimStyleTableRecord
  2
EZ_M_20_H25_CM
 70
0
 40
1.0
 41
0.05
 42
0.025
 43
3.75
 44
0.07500000000000001
 45
0.0
 46
0.0
 47
0.0
 48
0.0
 49
2.5
140
0.05
141
2.5
142
0.025
143
0.03937007874
144
100.0
145
0.0
146
0.5
147
0.020000000000000004
148
0.0
 69
0
 70
0
 71
0
 72
0
 73
0
 74
0
 75
0
 76
0
 77
1
 78
12
 79
3
170
0
171
3
172
1
173
0
174
0
175
0
176
0
177
0
178
0
179
2
271
2
272
2
273
2
274
3
275
0
276
0
277
2
278
46
279
2
280
0
281
0
282
0
283
0
284
8
285
0
286
0
288
1
289
3
290
0
340
4C
371
-2
372
-2
  0
DIMSTYLE
105
80
330
4
100
AcDbSymbolTableRecord
100
AcDbDimStyleTableRecord
  2
EZ_M_10_H25_CM
 70
0
 40
1.0
 41
0.025
 42
0.0125
 43
3.75
 44
0.037500000000000006
 45
0.0
 46
0.0
 47
0.0
 48
0.0
 49
2.5
140
0.025
141
2.5
142
0.0125
143
0.03937007874
144
100.0
145
0.0
146
0.5
147
0.010000000000000002
148
0.0
 69
0
 70
0
 71
0
 72
0
 73
0
 74
0
 75
0
 76
0
 77
1
 78
12
 79
3
170
0
171
3
172
1
173
0
174
0
175
0
176
0
177
0
178
0
179
2
271
2
272
2
273
2
274
3
275
0
276
0
277
2
278
46
279
2
280
0
281
0
282
0
283
0
284
8
285
0
286
0
288
1
289
3
290
0
340
4C
371
-2
372
-2
  0
DIMSTYLE
105
81
330
4
100
AcDbSymbolTableRecord
100
AcDbDimStyleTableRecord
  2
EZ_M_5_H25_CM
 70
0
 40
1.0
 41
0.0125
 42
0.00625
 43
3.75
 44
0.018750000000000003
 45
0.0
 46
0.0
 47
0.0
 48
0.0
 49
2.5
140
0.0125
141
2.5
142
0.00625
143
0.03937007874
144
100.0
145
0.0
146
0.5
147
0.005000000000000001
148
0.0
 69
0
 70
0
 71
0
 72
0
 73
0
 74
0
 75
0
 76
0
 77
1
 78
12
 79
3
170
0
171
3
172
1
173
0
174
0
175
0
176
0
177
0
178
0
179
2
271
2
272
2
273
2
274
3
275
0
276
0
277
2
278
46
279
2
280
0
281
0
282
0
283
0
284
8
285
0
286
0
288
1
289
3
290
0
340
4C
371
-2
372
-2
  0
DIMSTYLE
105
82
330
4
100
AcDbSymbolTableRecord
100
AcDbDimStyleTableRecord
  2
EZ_M_1_H25_CM
 70
0
 40
1.0
 41
0.0025
 42
0.00125
 43
3.75
 44
0.00375
 45
0.0
 46
0.0
 47
0.0
 48
0.0
 49
2.5
140
0.0025
141
2.5
142
0.00125
143
0.03937007874
144
100.0
145
0.0
146
0.5
147
0.001
148
0.0
 69
0
 70
0
 71
0
 72
0
 73
0
 74
0
 75
0
 76
0
 77
1
 78
12
 79
3
170
0
171
3
172
1
173
0
174
0
175
0
176
0
177
0
178
0
179
2
271
2
272
2
273
2
274
3
275
0
276
0
277
2
278
46
279
2
280
0
281
0
282
0
283
0
284
8
285
0
286
0
288
1
289
3
290
0
340
4C
371
-2
372
-2
  0
DIMSTYLE
105
83
330
4
100
AcDbSymbolTableRecord
100
AcDbDimStyleTableRecord
  2
EZ_RADIUS
 70
0
 40
1.0
 41
0.25
 42
0.125
 43
3.75
 44
0.375
 45
0.0
 46
0.0
 47
0.0
 48
0.0
 49
2.5
140
0.25
141
0.0
142
0.0
143
0.03937007874
144
100.0
145
0.0
146
0.5
147
0.1
148
0.0
 69
0
 70
0
 71
0
 72
0
 73
0
 74
0
 75
0
 76
0
 77
1
 78
12
 79
3
170
0
171
3
172
0
173
0
174
0
175
0
176
0
177
0
178
0
179
2
271
2
272
2
273
2
274
3
275
0
276
0
277
2
278
46
279
1
280
0
281
0
282
0
283
0
284
8
285
0
286
0
288
1
289
3
290
0
340
4C
342
84
371
-2
372
-2
  0
DIMSTYLE
105
88
330
4
100
AcDbSymbolTableRecord
100
AcDbDimStyleTableRecord
  2
EZ_RADIUS_INSIDE
 70
0
 40
1.0
 41
0.25
 42
0.125
 43
3.75
 44
0.375
 45
0.0
 46
0.0
 47
0.0
 48
0.0
 49
2.5
140
0.25
141
0.0
142
0.0
143
0.03937007874
144
100.0
145
0.0
146
0.5
147
0.1
148
0.0
 69
0
 70
0
 71
0
 72
0
 73
0
 74
0
 75
0
 76
0
 77
0
 78
12
 79
3
170
0
171
3
172
0
173
0
174
1
175
0
176
0
177
0
178
0
179
2
271
2
272
2
273
2
274
3
275
0
276
0
277
2
278
46
279
0
280
0
281
0
282
0
283
0
284
8
285
0
286
0
288
1
289
0
290
0
340
4C
342
84
371
-2
372
-2
  0
DIMSTYLE
105
89
330
4
100
AcDbSymbolTableRecord
100
AcDbDimStyleTableRecord
  2
EZ_CURVED
 70
0
 40
1.0
 41
0.25
 42
0.125
 43
3.75
 44
0.375
 45
0.0
 46
0.0
 47
0.0
 48
0.0
 49
2.5
140
0.25
141
2.5
142
0.0
143
0.03937007874
144
100.0
145
0.0
146
0.5
147
0.1
148
0.0
 69
0
 70
0
 71
0
 72
0
 73
0
 74
0
 75
0
 76
0
 77
1
 78
12
 79
2
 90
2
170
0
171
3
172
1
173
0
174
0
175
0
176
0
177
0
178
0
179
2
271
2
272
2
273
2
274
3
275
0
276
0
277
2
278
46
279
2
280
0
281
0
282
0
283
0
284
8
285
0
286
0
288
1
289
3
290
0
340
4C
371
-2
372
-2
  0
ENDTAB
  0
TABLE
  2
BLOCK_RECORD
  5
9
330
0
100
AcDbSymbolTable
 70
5
  0
BLOCK_RECORD
  5
17
330
9
100
AcDbSymbolTableRecord
100
AcDbBlockTableRecord
  2
*Model_Space
340
1A
 70
0
280
1
281
0
  0
BLOCK_RECORD
  5
1B
330
9
100
AcDbSymbolTableRecord
100
AcDbBlockTableRecord
  2
*Paper_Space
340
1E
 70
0
280
1
281
0
  0
BLOCK_RECORD
  5
74
330
9
100
AcDbSymbolTableRecord
100
AcDbBlockTableRecord
  2
_ARCHTICK
340
0
 70
0
280
1
281
0
  0
BLOCK_RECORD
  5
78
330
9
100
AcDbSymbolTableRecord
100
AcDbBlockTableRecord
  2
_CLOSEDFILLED
340
0
 70
0
280
1
281
0
  0
BLOCK_RECORD
  5
84
330
9
100
AcDbSymbolTableRecord
100
AcDbBlockTableRecord
  2
_CLOSEDBLANK
340
0
 70
0
280
1
281
0
  0
ENDTAB
  0
ENDSEC
  0
SECTION
  2
BLOCKS
  0
BLOCK
  5
18
330
17
100
AcDbEntity
  8
0
100
AcDbBlockBegin
  2
*Model_Space
 70
0
 10
0.0
 20
0.0
 30
0.0
  3
*Model_Space
  1

  0
ENDBLK
  5
19
330
17
100
AcDbEntity
  8
0
100
AcDbBlockEnd
  0
BLOCK
  5
1C
330
1B
100
AcDbEntity
  8
0
100
AcDbBlockBegin
  2
*Paper_Space
 70
0
 10
0.0
 20
0.0
 30
0.0
  3
*Paper_Space
  1

  0
ENDBLK
  5
1D
330
1B
100
AcDbEntity
  8
0
100
AcDbBlockEnd
  0
BLOCK
  5
75
330
74
100
AcDbEntity
  8
0
100
AcDbBlockBegin
  2
_ARCHTICK
 70
0
 10
0.0
 20
0.0
 30
0.0
  3
_ARCHTICK
  1

  0
LWPOLYLINE
  5
77
330
74
100
AcDbEntity
  8
0
  6
BYBLOCK
 62
0
100
AcDbPolyline
 90
2
 70
0
 43
0.15
 10
-0.5
 20
-0.5
 10
0.5
 20
0.5
  0
ENDBLK
  5
76
330
74
100
AcDbEntity
  8
0
100
AcDbBlockEnd
  0
BLOCK
  5
79
330
78
100
AcDbEntity
  8
0
100
AcDbBlockBegin
  2
_CLOSEDFILLED
 70
0
 10
0.0
 20
0.0
 30
0.0
  3
_CLOSEDFILLED
  1

  0
SOLID
  5
7B
330
78
100
AcDbEntity
  8
0
  6
BYBLOCK
 62
0
100
AcDbTrace
 10
-1.0
 20
0.16439898372402537
 30
0.0
 11
0.0
 21
0.0
 31
0.0
 12
-1.0
 22
-0.16439898372402537
 32
0.0
 13
-1.0
 23
-0.16439898372402537
 33
0.0
  0
ENDBLK
  5
7A
330
78
100
AcDbEntity
  8
0
100
AcDbBlockEnd
  0
BLOCK
  5
85
330
84
100
AcDbEntity
  8
0
100
AcDbBlockBegin
  2
_CLOSEDBLANK
 70
0
 10
0.0
 20
0.0
 30
0.0
  3
_CLOSEDBLANK
  1

  0
LWPOLYLINE
  5
87
330
84
100
AcDbEntity
  8
0
  6
BYBLOCK
 62
0
100
AcDbPolyline
 90
3
 70
1
 10
-1.0
 20
0.16439898372402537
 10
0.0
 20
0.0
 10
-1.0
 20
-0.16439898372402537
  0
ENDBLK
  5
86
330
84
100
AcDbEntity
  8
0
100
AcDbBlockEnd
  0
ENDSEC
  0
SECTION
  2
ENTITIES
  0
LWPOLYLINE
  5
95
330
17
100
AcDbEntity
  8
SHEET
100
AcDbPolyline
 90
4
 70
1
 10
0.0
 20
0.0
 10
2440.0
 20
0.0
 10
2440.0
 20
1220.0
 10
0.0
 20
1220.0
  0
LWPOLYLINE
  5
96
330
17
100
AcDbEntity
  8
CUT_OUTSIDE
100
AcDbPolyline
 90
32
 70
1
 10
1828.0
 20
368.0
 10
1828.0
 20
8.0
 10
198.0
 20
8.0
 10
128.0
 20
8.0
 10
78.0
 20
8.0
 10
68.863
 20
8.599
 10
59.883
 20
10.385
 10
51.212
 20
13.328
 10
43.0
 20
17.378
 10
35.387
 20
22.465
 10
28.503
 20
28.503
 10
22.465
 20
35.387
 10
17.378
 20
43.0
 10
13.328
 20
51.212
 10
10.385
 20
59.883
 10
8.599
 20
68.863
 10
8.0
 20
78.0
 10
8.0
 20
298.0
 10
8.599
 20
307.137
 10
10.385
 20
316.117
 10
13.328
 20
324.788
 10
17.378
 20
333.0
 10
22.465
 20
340.613
 10
28.503
 20
347.497
 10
35.387
 20
353.535
 10
43.0
 20
358.622
 10
51.212
 20
362.672
 10
59.883
 20
365.615
 10
68.863
 20
367.401
 10
78.0
 20
368.0
 10
128.0
 20
368.0
 10
198.0
 20
368.0
  0
CIRCLE
  5
97
330
17
100
AcDbEntity
  8
CUT_INSIDE
100
AcDbCircle
 10
408.0
 20
188.0
 30
0.0
 40
131.0
  0
LWPOLYLINE
  5
98
330
17
100
AcDbEntity
  8
CUT_INSIDE
100
AcDbPolyline
 90
52
 70
1
 10
940.0
 20
286.0
 10
940.392
 20
285.974
 10
940.776
 20
285.898
 10
941.148
 20
285.772
 10
941.5
 20
285.598
 10
941.826
 20
285.38
 10
942.121
 20
285.121
 10
942.38
 20
284.826
 10
942.598
 20
284.5
 10
942.772
 20
284.148
 10
942.898
 20
283.776
 10
942.974
 20
283.392
 10
943.0
 20
283.0
 10
943.0
 20
93.0
 10
942.974
 20
92.608
 10
942.898
 20
92.224
 10
942.772
 20
91.852
 10
942.598
 20
91.5
 10
942.38
 20
91.174
 10
942.121
 20
90.879
 10
941.826
 20
90.62
 10
941.5
 20
90.402
 10
941.148
 20
90.228
 10
940.776
 20
90.102
 10
940.392
 20
90.026
 10
940.0
 20
90.0
 10
600.0
 20
90.0
 10
599.608
 20
90.026
 10
599.224
 20
90.102
 10
598.852
 20
90.228
 10
598.5
 20
90.402
 10
598.174
 20
90.62
 10
597.879
 20
90.879
 10
597.62
 20
91.174
 10
597.402
 20
91.5
 10
597.228
 20
91.852
 10
597.102
 20
92.224
 10
597.026
 20
92.608
 10
597.0
 20
93.0
 10
597.0
 20
283.0
 10
597.026
 20
283.392
 10
597.102
 20
283.776
 10
597.228
 20
284.148
 10
597.402
 20
284.5
 10
597.62
 20
284.826
 10
597.879
 20
285.121
 10
598.174
 20
285.38
 10
598.5
 20
285.598
 10
598.852
 20
285.772
 10
599.224
 20
285.898
 10
599.608
 20
285.974
 10
600.0
 20
286.0
  0
LWPOLYLINE
  5
99
330
17
100
AcDbEntity
  8
CUT_INSIDE
100
AcDbPolyline
 90
52
 70
1
 10
1433.0
 20
288.0
 10
1434.305
 20
287.914
 10
1435.588
 20
287.659
 10
1436.827
 20
287.239
 10
1438.0
 20
286.66
 10
1439.088
 20
285.934
 10
1440.071
 20
285.071
 10
1440.934
 20
284.088
 10
1441.66
 20
283.0
 10
1442.239
 20
281.827
 10
1442.659
 20
280.588
 10
1442.914
 20
279.305
 10
1443.0
 20
278.0
 10
1443.0
 20
98.0
 10
1442.914
 20
96.695
 10
1442.659
 20
95.412
 10
1442.239
 20
94.173
 10
1441.66
 20
93.0
 10
1440.934
 20
91.912
 10
1440.071
 20
90.929
 10
1439.088
 20
90.066
 10
1438.0
 20
89.34
 10
1436.827
 20
88.761
 10
1435.588
 20
88.341
 10
1434.305
 20
88.086
 10
1433.0
 20
88.0
 10
1383.0
 20
88.0
 10
1381.695
 20
88.086
 10
1380.412
 20
88.341
 10
1379.173
 20
88.761
 10
1378.0
 20
89.34
 10
1376.912
 20
90.066
 10
1375.929
 20
90.929
 10
1375.066
 20
91.912
 10
1374.34
 20
93.0
 10
1373.761
 20
94.173
 10
1373.341
 20
95.412
 10
1373.086
 20
96.695
 10
1373.0
 20
98.0
 10
1373.0
 20
278.0
 10
1373.086
 20
279.305
 10
1373.341
 20
280.588
 10
1373.761
 20
281.827
 10
1374.34
 20
283.0
 10
1375.066
 20
284.088
 10
1375.929
 20
285.071
 10
1376.912
 20
285.934
 10
1378.0
 20
286.66
 10
1379.173
 20
287.239
 10
1380.412
 20
287.659
 10
1381.695
 20
287.914
 10
1383.0
 20
288.0
  0
LWPOLYLINE
  5
9A
330
17
100
AcDbEntity
  8
CUT_INSIDE
100
AcDbPolyline
 90
13
 70
1
 10
83.335
 20
108.248
 10
83.335
 20
129.661
 10
118.251
 20
144.519
 10
83.335
 20
159.464
 10
83.335
 20
180.833
 10
148.578
 20
180.833
 10
148.578
 20
164.927
 10
100.858
 20
164.927
 10
136.036
 20
149.894
 10
136.036
 20
139.231
 10
100.858
 20
124.199
 10
148.578
 20
124.199
 10
148.578
 20
108.248
  0
LWPOLYLINE
  5
9B
330
17
100
AcDbEntity
  8
CUT_INSIDE
100
AcDbPolyline
 90
12
 70
1
 10
83.335
 20
287.635
 10
83.335
 20
333.039
 10
96.051
 20
333.039
 10
96.051
 20
304.459
 10
108.2
 20
304.459
 10
108.2
 20
331.334
 10
120.916
 20
331.334
 10
120.916
 20
304.459
 10
135.861
 20
304.459
 10
135.861
 20
334.0
 10
148.578
 20
334.0
 10
148.578
 20
287.635
  0
LWPOLYLINE
  5
9C
330
17
100
AcDbEntity
  8
CUT_INSIDE
100
AcDbPolyline
 90
196
 70
1
 10
85.389
 20
89.195
 10
99.198
 20
89.195
 10
98.615
 20
87.856
 10
98.07
 20
86.524
 10
97.561
 20
85.201
 10
97.089
 20
83.886
 10
96.654
 20
82.579
 10
96.256
 20
81.28
 10
95.895
 20
79.99
 10
95.57
 20
78.708
 10
95.284
 20
77.438
 10
95.035
 20
76.187
 10
94.825
 20
74.953
 10
94.653
 20
73.737
 10
94.519
 20
72.538
 10
94.423
 20
71.358
 10
94.366
 20
70.195
 10
94.347
 20
69.05
 10
94.373
 20
67.592
 10
94.451
 20
66.231
 10
94.58
 20
64.97
 10
94.762
 20
63.806
 10
94.996
 20
62.741
 10
95.281
 20
61.774
 10
95.618
 20
60.905
 10
96.007
 20
60.135
 10
96.451
 20
59.459
 10
96.952
 20
58.873
 10
97.511
 20
58.378
 10
98.127
 20
57.972
 10
98.8
 20
57.657
 10
99.531
 20
57.431
 10
100.319
 20
57.296
 10
101.164
 20
57.251
 10
101.801
 20
57.282
 10
102.403
 20
57.373
 10
102.968
 20
57.525
 10
103.496
 20
57.737
 10
103.989
 20
58.011
 10
104.446
 20
58.345
 10
104.866
 20
58.74
 10
105.25
 20
59.196
 10
105.609
 20
59.731
 10
105.956
 20
60.366
 10
106.289
 20
61.1
 10
106.61
 20
61.932
 10
106.918
 20
62.864
 10
107.212
 20
63.895
 10
107.494
 20
65.025
 10
107.763
 20
66.253
 10
109.205
 20
73.42
 10
109.786
 20
76.042
 10
110.439
 20
78.467
 10
111.163
 20
80.696
 10
111.958
 20
82.728
 10
112.824
 20
84.563
 10
113.76
 20
86.202
 10
114.768
 20
87.644
 10
115.847
 20
88.89
 10
117.02
 20
89.965
 10
118.311
 20
90.897
 10
119.719
 20
91.686
 10
121.244
 20
92.331
 10
122.887
 20
92.833
 10
124.647
 20
93.191
 10
126.525
 20
93.406
 10
128.52
 20
93.478
 10
131.132
 20
93.378
 10
133.571
 20
93.078
 10
135.838
 20
92.578
 10
137.932
 20
91.878
 10
139.853
 20
90.977
 10
141.601
 20
89.877
 10
143.177
 20
88.576
 10
144.579
 20
87.076
 10
145.814
 20
85.37
 10
146.883
 20
83.453
 10
147.788
 20
81.325
 10
148.529
 20
78.986
 10
149.105
 20
76.436
 10
149.516
 20
73.675
 10
149.763
 20
70.703
 10
149.845
 20
67.521
 10
149.827
 20
65.968
 10
149.772
 20
64.415
 10
149.679
 20
62.86
 10
149.55
 20
61.304
 10
149.384
 20
59.747
 10
149.182
 20
58.188
 10
148.942
 20
56.628
 10
148.665
 20
55.066
 10
148.353
 20
53.504
 10
148.004
 20
51.942
 10
147.621
 20
50.379
 10
147.201
 20
48.817
 10
146.747
 20
47.255
 10
146.256
 20
45.693
 10
145.731
 20
44.13
 10
145.169
 20
42.568
 10
130.967
 20
42.568
 10
131.772
 20
44.124
 10
132.525
 20
45.667
 10
133.228
 20
47.196
 10
133.879
 20
48.713
 10
134.478
 20
50.217
 10
135.027
 20
51.708
 10
135.524
 20
53.186
 10
135.971
 20
54.651
 10
136.365
 20
56.103
 10
136.707
 20
57.542
 10
136.996
 20
58.968
 10
137.232
 20
60.381
 10
137.417
 20
61.781
 10
137.548
 20
63.168
 10
137.627
 20
64.542
 10
137.653
 20
65.904
 10
137.624
 20
67.24
 10
137.538
 20
68.496
 10
137.395
 20
69.671
 10
137.194
 20
70.765
 10
136.936
 20
71.779
 10
136.621
 20
72.713
 10
136.248
 20
73.565
 10
135.818
 20
74.338
 10
135.334
 20
75.024
 10
134.802
 20
75.619
 10
134.22
 20
76.122
 10
133.589
 20
76.534
 10
132.909
 20
76.854
 10
132.18
 20
77.082
 10
131.401
 20
77.22
 10
130.574
 20
77.265
 10
129.831
 20
77.234
 10
129.132
 20
77.141
 10
128.476
 20
76.986
 10
127.864
 20
76.768
 10
127.296
 20
76.489
 10
126.772
 20
76.147
 10
126.291
 20
75.743
 10
125.854
 20
75.277
 10
125.445
 20
74.718
 10
125.046
 20
74.036
 10
124.658
 20
73.23
 10
124.281
 20
72.3
 10
123.915
 20
71.247
 10
123.56
 20
70.07
 10
123.216
 20
68.77
 10
122.883
 20
67.346
 10
121.441
 20
60.834
 10
120.877
 20
58.47
 10
120.236
 20
56.269
 10
119.517
 20
54.233
 10
118.72
 20
52.362
 10
117.846
 20
50.656
 10
116.893
 20
49.113
 10
115.863
 20
47.736
 10
114.755
 20
46.523
 10
113.558
 20
45.463
 10
112.261
 20
44.544
 10
110.865
 20
43.767
 10
109.369
 20
43.131
 10
107.773
 20
42.636
 10
106.077
 20
42.283
 10
104.282
 20
42.071
 10
102.388
 20
42.0
 10
100.022
 20
42.098
 10
97.796
 20
42.393
 10
95.712
 20
42.885
 10
93.768
 20
43.573
 10
91.965
 20
44.458
 10
90.302
 20
45.54
 10
88.78
 20
46.818
 10
87.399
 20
48.293
 10
86.17
 20
49.952
 10
85.104
 20
51.783
 10
84.203
 20
53.787
 10
83.466
 20
55.962
 10
82.892
 20
58.309
 10
82.482
 20
60.829
 10
82.237
 20
63.521
 10
82.155
 20
66.384
 10
82.167
 20
67.733
 10
82.205
 20
69.091
 10
82.268
 20
70.459
 10
82.357
 20
71.836
 10
82.471
 20
73.223
 10
82.609
 20
74.619
 10
82.774
 20
76.025
 10
82.963
 20
77.44
 10
83.178
 20
78.867
 10
83.418
 20
80.305
 10
83.683
 20
81.756
 10
83.974
 20
83.22
 10
84.29
 20
84.695
 10
84.631
 20
86.183
 10
84.997
 20
87.683
  0
LWPOLYLINE
  5
9D
330
17
100
AcDbEntity
  8
CUT_INSIDE
100
AcDbPolyline
 90
6
 70
1
 10
83.335
 20
230.607
 10
83.335
 20
247.431
 10
135.861
 20
247.431
 10
135.861
 20
276.972
 10
148.578
 20
276.972
 10
148.578
 20
230.607
  0
LWPOLYLINE
  5
9E
330
17
100
AcDbEntity
  8
CUT_INSIDE
100
AcDbPolyline
 90
4
 70
1
 10
83.335
 20
197.308
 10
83.335
 20
214.132
 10
148.578
 20
214.132
 10
148.578
 20
197.308
  0
LWPOLYLINE
  5
9F
330
17
100
AcDbEntity
  8
CUT_INSIDE
100
AcDbPolyline
 90
6
 70
1
 10
1068.6
 20
168.562
 10
1065.1
 20
162.5
 10
1068.6
 20
156.438
 10
1075.6
 20
156.438
 10
1079.1
 20
162.5
 10
1075.6
 20
168.562
  0
LWPOLYLINE
  5
A0
330
17
100
AcDbEntity
  8
CUT_INSIDE
100
AcDbPolyline
 90
6
 70
1
 10
1068.6
 20
185.562
 10
1065.1
 20
179.5
 10
1068.6
 20
173.438
 10
1075.6
 20
173.438
 10
1079.1
 20
179.5
 10
1075.6
 20
185.562
  0
LWPOLYLINE
  5
A1
330
17
100
AcDbEntity
  8
CUT_INSIDE
100
AcDbPolyline
 90
6
 70
1
 10
1068.6
 20
202.562
 10
1065.1
 20
196.5
 10
1068.6
 20
190.438
 10
1075.6
 20
190.438
 10
1079.1
 20
196.5
 10
1075.6
 20
202.562
  0
LWPOLYLINE
  5
A2
330
17
100
AcDbEntity
  8
CUT_INSIDE
100
AcDbPolyline
 90
6
 70
1
 10
1068.6
 20
219.562
 10
1065.1
 20
213.5
 10
1068.6
 20
207.438
 10
1075.6
 20
207.438
 10
1079.1
 20
213.5
 10
1075.6
 20
219.562
  0
LWPOLYLINE
  5
A3
330
17
100
AcDbEntity
  8
CUT_INSIDE
100
AcDbPolyline
 90
6
 70
1
 10
1053.9
 20
160.062
 10
1050.4
 20
154.0
 10
1053.9
 20
147.938
 10
1060.9
 20
147.938
 10
1064.4
 20
154.0
 10
1060.9
 20
160.062
  0
LWPOLYLINE
  5
A4
330
17
100
AcDbEntity
  8
CUT_INSIDE
100
AcDbPolyline
 90
6
 70
1
 10
1053.9
 20
177.062
 10
1050.4
 20
171.0
 10
1053.9
 20
164.938
 10
1060.9
 20
164.938
 10
1064.4
 20
171.0
 10
1060.9
 20
177.062
  0
LWPOLYLINE
  5
A5
330
17
100
AcDbEntity
  8
CUT_INSIDE
100
AcDbPolyline
 90
6
 70
1
 10
1053.9
 20
194.062
 10
1050.4
 20
188.0
 10
1053.9
 20
181.938
 10
1060.9
 20
181.938
 10
1064.4
 20
188.0
 10
1060.9
 20
194.062
  0
LWPOLYLINE
  5
A6
330
17
100
AcDbEntity
  8
CUT_INSIDE
100
AcDbPolyline
 90
6
 70
1
 10
1053.9
 20
211.062
 10
1050.4
 20
205.0
 10
1053.9
 20
198.938
 10
1060.9
 20
198.938
 10
1064.4
 20
205.0
 10
1060.9
 20
211.062
  0
LWPOLYLINE
  5
A7
330
17
100
AcDbEntity
  8
CUT_INSIDE
100
AcDbPolyline
 90
6
 70
1
 10
1053.9
 20
228.062
 10
1050.4
 20
222.0
 10
1053.9
 20
215.938
 10
1060.9
 20
215.938
 10
1064.4
 20
222.0
 10
1060.9
 20
228.062
  0
LWPOLYLINE
  5
A8
330
17
100
AcDbEntity
  8
CUT_INSIDE
100
AcDbPolyline
 90
6
 70
1
 10
1039.2
 20
151.562
 10
1035.7
 20
145.5
 10
1039.2
 20
139.438
 10
1046.2
 20
139.438
 10
1049.7
 20
145.5
 10
1046.2
 20
151.562
  0
LWPOLYLINE
  5
A9
330
17
100
AcDbEntity
  8
CUT_INSIDE
100
AcDbPolyline
 90
6
 70
1
 10
1039.2
 20
168.562
 10
1035.7
 20
162.5
 10
1039.2
 20
156.438
 10
1046.2
 20
156.438
 10
1049.7
 20
162.5
 10
1046.2
 20
168.562
  0
LWPOLYLINE
  5
AA
330
17
100
AcDbEntity
  8
CUT_INSIDE
100
AcDbPolyline
 90
6
 70
1
 10
1039.2
 20
185.562
 10
1035.7
 20
179.5
 10
1039.2
 20
173.438
 10
1046.2
 20
173.438
 10
1049.7
 20
179.5
 10
1046.2
 20
185.562
  0
LWPOLYLINE
  5
AB
330
17
100
AcDbEntity
  8
CUT_INSIDE
100
AcDbPolyline
 90
6
 70
1
 10
1039.2
 20
202.562
 10
1035.7
 20
196.5
 10
1039.2
 20
190.438
 10
1046.2
 20
190.438
 10
1049.7
 20
196.5
 10
1046.2
 20
202.562
  0
LWPOLYLINE
  5
AC
330
17
100
AcDbEntity
  8
CUT_INSIDE
100
AcDbPolyline
 90
6
 70
1
 10
1039.2
 20
219.562
 10
1035.7
 20
213.5
 10
1039.2
 20
207.438
 10
1046.2
 20
207.438
 10
1049.7
 20
213.5
 10
1046.2
 20
219.562
  0
LWPOLYLINE
  5
AD
330
17
100
AcDbEntity
  8
CUT_INSIDE
100
AcDbPolyline
 90
6
 70
1
 10
1039.2
 20
236.562
 10
1035.7
 20
230.5
 10
1039.2
 20
224.438
 10
1046.2
 20
224.438
 10
1049.7
 20
230.5
 10
1046.2
 20
236.562
  0
LWPOLYLINE
  5
AE
330
17
100
AcDbEntity
  8
CUT_INSIDE
100
AcDbPolyline
 90
6
 70
1
 10
1024.5
 20
143.062
 10
1021.0
 20
137.0
 10
1024.5
 20
130.938
 10
1031.5
 20
130.938
 10
1035.0
 20
137.0
 10
1031.5
 20
143.062
  0
LWPOLYLINE
  5
AF
330
17
100
AcDbEntity
  8
CUT_INSIDE
100
AcDbPolyline
 90
6
 70
1
 10
1024.5
 20
160.062
 10
1021.0
 20
154.0
 10
1024.5
 20
147.938
 10
1031.5
 20
147.938
 10
1035.0
 20
154.0
 10
1031.5
 20
160.062
  0
LWPOLYLINE
  5
B0
330
17
100
AcDbEntity
  8
CUT_INSIDE
100
AcDbPolyline
 90
6
 70
1
 10
1024.5
 20
177.062
 10
1021.0
 20
171.0
 10
1024.5
 20
164.938
 10
1031.5
 20
164.938
 10
1035.0
 20
171.0
 10
1031.5
 20
177.062
  0
LWPOLYLINE
  5
B1
330
17
100
AcDbEntity
  8
CUT_INSIDE
100
AcDbPolyline
 90
6
 70
1
 10
1024.5
 20
194.062
 10
1021.0
 20
188.0
 10
1024.5
 20
181.938
 10
1031.5
 20
181.938
 10
1035.0
 20
188.0
 10
1031.5
 20
194.062
  0
LWPOLYLINE
  5
B2
330
17
100
AcDbEntity
  8
CUT_INSIDE
100
AcDbPolyline
 90
6
 70
1
 10
1024.5
 20
211.062
 10
1021.0
 20
205.0
 10
1024.5
 20
198.938
 10
1031.5
 20
198.938
 10
1035.0
 20
205.0
 10
1031.5
 20
211.062
  0
LWPOLYLINE
  5
B3
330
17
100
AcDbEntity
  8
CUT_INSIDE
100
AcDbPolyline
 90
6
 70
1
 10
1024.5
 20
228.062
 10
1021.0
 20
222.0
 10
1024.5
 20
215.938
 10
1031.5
 20
215.938
 10
1035.0
 20
222.0
 10
1031.5
 20
228.062
  0
LWPOLYLINE
  5
B4
330
17
100
AcDbEntity
  8
CUT_INSIDE
100
AcDbPolyline
 90
6
 70
1
 10
1024.5
 20
245.062
 10
1021.0
 20
239.0
 10
1024.5
 20
232.938
 10
1031.5
 20
232.938
 10
1035.0
 20
239.0
 10
1031.5
 20
245.062
  0
LWPOLYLINE
  5
B5
330
17
100
AcDbEntity
  8
CUT_INSIDE
100
AcDbPolyline
 90
6
 70
1
 10
1009.8
 20
151.562
 10
1006.3
 20
145.5
 10
1009.8
 20
139.438
 10
1016.8
 20
139.438
 10
1020.3
 20
145.5
 10
1016.8
 20
151.562
  0
LWPOLYLINE
  5
B6
330
17
100
AcDbEntity
  8
CUT_INSIDE
100
AcDbPolyline
 90
6
 70
1
 10
1009.8
 20
168.562
 10
1006.3
 20
162.5
 10
1009.8
 20
156.438
 10
1016.8
 20
156.438
 10
1020.3
 20
162.5
 10
1016.8
 20
168.562
  0
LWPOLYLINE
  5
B7
330
17
100
AcDbEntity
  8
CUT_INSIDE
100
AcDbPolyline
 90
6
 70
1
 10
1009.8
 20
185.562
 10
1006.3
 20
179.5
 10
1009.8
 20
173.438
 10
1016.8
 20
173.438
 10
1020.3
 20
179.5
 10
1016.8
 20
185.562
  0
LWPOLYLINE
  5
B8
330
17
100
AcDbEntity
  8
CUT_INSIDE
100
AcDbPolyline
 90
6
 70
1
 10
1009.8
 20
202.562
 10
1006.3
 20
196.5
 10
1009.8
 20
190.438
 10
1016.8
 20
190.438
 10
1020.3
 20
196.5
 10
1016.8
 20
202.562
  0
LWPOLYLINE
  5
B9
330
17
100
AcDbEntity
  8
CUT_INSIDE
100
AcDbPolyline
 90
6
 70
1
 10
1009.8
 20
219.562
 10
1006.3
 20
213.5
 10
1009.8
 20
207.438
 10
1016.8
 20
207.438
 10
1020.3
 20
213.5
 10
1016.8
 20
219.562
  0
LWPOLYLINE
  5
BA
330
17
100
AcDbEntity
  8
CUT_INSIDE
100
AcDbPolyline
 90
6
 70
1
 10
1009.8
 20
236.562
 10
1006.3
 20
230.5
 10
1009.8
 20
224.438
 10
1016.8
 20
224.438
 10
1020.3
 20
230.5
 10
1016.8
 20
236.562
  0
LWPOLYLINE
  5
BB
330
17
100
AcDbEntity
  8
CUT_INSIDE
100
AcDbPolyline
 90
6
 70
1
 10
995.1
 20
160.062
 10
991.6
 20
154.0
 10
995.1
 20
147.938
 10
1002.1
 20
147.938
 10
1005.6
 20
154.0
 10
1002.1
 20
160.062
  0
LWPOLYLINE
  5
BC
330
17
100
AcDbEntity
  8
CUT_INSIDE
100
AcDbPolyline
 90
6
 70
1
 10
995.1
 20
177.062
 10
991.6
 20
171.0
 10
995.1
 20
164.938
 10
1002.1
 20
164.938
 10
1005.6
 20
171.0
 10
1002.1
 20
177.062
  0
LWPOLYLINE
  5
BD
330
17
100
AcDbEntity
  8
CUT_INSIDE
100
AcDbPolyline
 90
6
 70
1
 10
995.1
 20
194.062
 10
991.6
 20
188.0
 10
995.1
 20
181.938
 10
1002.1
 20
181.938
 10
1005.6
 20
188.0
 10
1002.1
 20
194.062
  0
LWPOLYLINE
  5
BE
330
17
100
AcDbEntity
  8
CUT_INSIDE
100
AcDbPolyline
 90
6
 70
1
 10
995.1
 20
211.062
 10
991.6
 20
205.0
 10
995.1
 20
198.938
 10
1002.1
 20
198.938
 10
1005.6
 20
205.0
 10
1002.1
 20
211.062
  0
LWPOLYLINE
  5
BF
330
17
100
AcDbEntity
  8
CUT_INSIDE
100
AcDbPolyline
 90
6
 70
1
 10
995.1
 20
228.062
 10
991.6
 20
222.0
 10
995.1
 20
215.938
 10
1002.1
 20
215.938
 10
1005.6
 20
222.0
 10
1002.1
 20
228.062
  0
LWPOLYLINE
  5
C0
330
17
100
AcDbEntity
  8
CUT_INSIDE
100
AcDbPolyline
 90
6
 70
1
 10
980.4
 20
168.562
 10
976.9
 20
162.5
 10
980.4
 20
156.438
 10
987.4
 20
156.438
 10
990.9
 20
162.5
 10
987.4
 20
168.562
  0
LWPOLYLINE
  5
C1
330
17
100
AcDbEntity
  8
CUT_INSIDE
100
AcDbPolyline
 90
6
 70
1
 10
980.4
 20
185.562
 10
976.9
 20
179.5
 10
980.4
 20
173.438
 10
987.4
 20
173.438
 10
990.9
 20
179.5
 10
987.4
 20
185.562
  0
LWPOLYLINE
  5
C2
330
17
100
AcDbEntity
  8
CUT_INSIDE
100
AcDbPolyline
 90
6
 70
1
 10
980.4
 20
202.562
 10
976.9
 20
196.5
 10
980.4
 20
190.438
 10
987.4
 20
190.438
 10
990.9
 20
196.5
 10
987.4
 20
202.562
  0
LWPOLYLINE
  5
C3
330
17
100
AcDbEntity
  8
CUT_INSIDE
100
AcDbPolyline
 90
6
 70
1
 10
980.4
 20
219.562
 10
976.9
 20
213.5
 10
980.4
 20
207.438
 10
987.4
 20
207.438
 10
990.9
 20
213.5
 10
987.4
 20
219.562
  0
LWPOLYLINE
  5
C4
330
17
100
AcDbEntity
  8
POCKET_8
100
AcDbPolyline
 90
112
 70
1
 10
78.0
 20
21.5
 10
77.444
 20
21.518
 10
71.179
 20
21.929
 10
70.076
 20
22.074
 10
63.918
 20
23.299
 10
62.844
 20
23.587
 10
56.899
 20
25.605
 10
55.872
 20
26.03
 10
50.241
 20
28.807
 10
49.278
 20
29.363
 10
44.057
 20
32.852
 10
43.175
 20
33.528
 10
38.454
 20
37.668
 10
37.668
 20
38.454
 10
33.528
 20
43.175
 10
32.852
 20
44.057
 10
29.363
 20
49.278
 10
28.807
 20
50.241
 10
26.03
 20
55.872
 10
25.605
 20
56.899
 10
23.587
 20
62.844
 10
23.299
 20
63.918
 10
22.074
 20
70.076
 10
21.929
 20
71.179
 10
21.518
 20
77.444
 10
21.5
 20
78.0
 10
21.5
 20
298.0
 10
21.518
 20
298.556
 10
21.929
 20
304.821
 10
22.074
 20
305.924
 10
23.299
 20
312.082
 10
23.587
 20
313.156
 10
25.605
 20
319.101
 10
26.03
 20
320.128
 10
28.807
 20
325.759
 10
29.363
 20
326.722
 10
32.852
 20
331.943
 10
33.528
 20
332.825
 10
37.668
 20
337.546
 10
38.454
 20
338.332
 10
43.175
 20
342.472
 10
44.057
 20
343.148
 10
49.278
 20
346.637
 10
50.241
 20
347.193
 10
55.872
 20
349.97
 10
56.899
 20
350.395
 10
62.844
 20
352.413
 10
63.918
 20
352.701
 10
70.076
 20
353.926
 10
71.179
 20
354.071
 10
77.444
 20
354.482
 10
78.0
 20
354.5
 10
1738.0
 20
354.5
 10
1739.658
 20
354.337
 10
1741.253
 20
353.853
 10
1742.722
 20
353.067
 10
1744.01
 20
352.01
 10
1745.067
 20
350.722
 10
1745.853
 20
349.253
 10
1746.337
 20
347.658
 10
1746.5
 20
346.0
 10
1746.337
 20
344.342
 10
1745.853
 20
342.747
 10
1745.067
 20
341.278
 10
1744.01
 20
339.99
 10
1742.722
 20
338.933
 10
1741.253
 20
338.147
 10
1739.658
 20
337.663
 10
1738.0
 20
337.5
 10
78.278
 20
337.5
 10
72.847
 20
337.144
 10
67.781
 20
336.136
 10
62.891
 20
334.476
 10
58.259
 20
332.192
 10
53.965
 20
329.323
 10
50.082
 20
325.918
 10
46.677
 20
322.035
 10
43.808
 20
317.741
 10
41.524
 20
313.109
 10
39.864
 20
308.219
 10
38.856
 20
303.153
 10
38.5
 20
297.722
 10
38.5
 20
78.278
 10
38.856
 20
72.847
 10
39.864
 20
67.781
 10
41.524
 20
62.891
 10
43.808
 20
58.259
 10
46.677
 20
53.965
 10
50.082
 20
50.082
 10
53.965
 20
46.677
 10
58.259
 20
43.808
 10
62.891
 20
41.524
 10
67.781
 20
39.864
 10
72.847
 20
38.856
 10
78.278
 20
38.5
 10
1738.0
 20
38.5
 10
1739.658
 20
38.337
 10
1741.253
 20
37.853
 10
1742.722
 20
37.067
 10
1744.01
 20
36.01
 10
1745.067
 20
34.722
 10
1745.853
 20
33.253
 10
1746.337
 20
31.658
 10
1746.5
 20
30.0
 10
1746.337
 20
28.342
 10
1745.853
 20
26.747
 10
1745.067
 20
25.278
 10
1744.01
 20
23.99
 10
1742.722
 20
22.933
 10
1741.253
 20
22.147
 10
1739.658
 20
21.663
 10
1738.0
 20
21.5
  0
LWPOLYLINE
  5
C5
330
17
100
AcDbEntity
  8
ENGRAVE_V
100
AcDbPolyline
 90
129
 70
1
 10
408.0
 20
331.0
 10
415.017
 20
330.828
 10
422.016
 20
330.311
 10
428.982
 20
329.452
 10
435.898
 20
328.252
 10
442.746
 20
326.714
 10
449.511
 20
324.842
 10
456.175
 20
322.641
 10
462.724
 20
320.115
 10
469.14
 20
317.27
 10
475.41
 20
314.115
 10
481.517
 20
310.655
 10
487.447
 20
306.9
 10
493.185
 20
302.859
 10
498.718
 20
298.54
 10
504.033
 20
293.956
 10
509.116
 20
289.116
 10
513.956
 20
284.033
 10
518.54
 20
278.718
 10
522.859
 20
273.185
 10
526.9
 20
267.447
 10
530.655
 20
261.517
 10
534.115
 20
255.41
 10
537.27
 20
249.14
 10
540.115
 20
242.724
 10
542.641
 20
236.175
 10
544.842
 20
229.511
 10
546.714
 20
222.746
 10
548.252
 20
215.898
 10
549.452
 20
208.982
 10
550.311
 20
202.016
 10
550.828
 20
195.017
 10
551.0
 20
188.0
 10
550.828
 20
180.983
 10
550.311
 20
173.984
 10
549.452
 20
167.018
 10
548.252
 20
160.102
 10
546.714
 20
153.254
 10
544.842
 20
146.489
 10
542.641
 20
139.825
 10
540.115
 20
133.276
 10
537.27
 20
126.86
 10
534.115
 20
120.59
 10
530.655
 20
114.483
 10
526.9
 20
108.553
 10
522.859
 20
102.815
 10
518.54
 20
97.282
 10
513.956
 20
91.967
 10
509.116
 20
86.884
 10
504.033
 20
82.044
 10
498.718
 20
77.46
 10
493.185
 20
73.141
 10
487.447
 20
69.1
 10
481.517
 20
65.345
 10
475.41
 20
61.885
 10
469.14
 20
58.73
 10
462.724
 20
55.885
 10
456.175
 20
53.359
 10
449.511
 20
51.158
 10
442.746
 20
49.286
 10
435.898
 20
47.748
 10
428.982
 20
46.548
 10
422.016
 20
45.689
 10
415.017
 20
45.172
 10
408.0
 20
45.0
 10
400.983
 20
45.172
 10
393.984
 20
45.689
 10
387.018
 20
46.548
 10
380.102
 20
47.748
 10
373.254
 20
49.286
 10
366.489
 20
51.158
 10
359.825
 20
53.359
 10
353.276
 20
55.885
 10
346.86
 20
58.73
 10
340.59
 20
61.885
 10
334.483
 20
65.345
 10
328.553
 20
69.1
 10
322.815
 20
73.141
 10
317.282
 20
77.46
 10
311.967
 20
82.044
 10
306.884
 20
86.884
 10
302.044
 20
91.967
 10
297.46
 20
97.282
 10
293.141
 20
102.815
 10
289.1
 20
108.553
 10
285.345
 20
114.483
 10
281.885
 20
120.59
 10
278.73
 20
126.86
 10
275.885
 20
133.276
 10
273.359
 20
139.825
 10
271.158
 20
146.489
 10
269.286
 20
153.254
 10
267.748
 20
160.102
 10
266.548
 20
167.018
 10
265.689
 20
173.984
 10
265.172
 20
180.983
 10
265.0
 20
188.0
 10
265.172
 20
195.017
 10
265.689
 20
202.016
 10
266.548
 20
208.982
 10
267.748
 20
215.898
 10
269.286
 20
222.746
 10
271.158
 20
229.511
 10
273.359
 20
236.175
 10
275.885
 20
242.724
 10
278.73
 20
249.14
 10
281.885
 20
255.41
 10
285.345
 20
261.517
 10
289.1
 20
267.447
 10
293.141
 20
273.185
 10
297.46
 20
278.718
 10
302.044
 20
284.033
 10
306.884
 20
289.116
 10
311.967
 20
293.956
 10
317.282
 20
298.54
 10
322.815
 20
302.859
 10
328.553
 20
306.9
 10
334.483
 20
310.655
 10
340.59
 20
314.115
 10
346.86
 20
317.27
 10
353.276
 20
320.115
 10
359.825
 20
322.641
 10
366.489
 20
324.842
 10
373.254
 20
326.714
 10
380.102
 20
328.252
 10
387.018
 20
329.452
 10
393.984
 20
330.311
 10
400.983
 20
330.828
 10
408.0
 20
331.0
  0
LWPOLYLINE
  5
C6
330
17
100
AcDbEntity
  8
ENGRAVE_V
100
AcDbPolyline
 90
129
 70
1
 10
408.0
 20
339.0
 10
415.409
 20
338.818
 10
422.801
 20
338.273
 10
430.156
 20
337.366
 10
437.459
 20
336.099
 10
444.69
 20
334.475
 10
451.833
 20
332.498
 10
458.87
 20
330.173
 10
465.785
 20
327.506
 10
472.561
 20
324.502
 10
479.181
 20
321.17
 10
485.63
 20
317.517
 10
491.891
 20
313.552
 10
497.951
 20
309.284
 10
503.793
 20
304.725
 10
509.405
 20
299.884
 10
514.773
 20
294.773
 10
519.884
 20
289.405
 10
524.725
 20
283.793
 10
529.284
 20
277.951
 10
533.552
 20
271.891
 10
537.517
 20
265.63
 10
541.17
 20
259.181
 10
544.502
 20
252.561
 10
547.506
 20
245.785
 10
550.173
 20
238.87
 10
552.498
 20
231.833
 10
554.475
 20
224.69
 10
556.099
 20
217.459
 10
557.366
 20
210.156
 10
558.273
 20
202.801
 10
558.818
 20
195.409
 10
559.0
 20
188.0
 10
558.818
 20
180.591
 10
558.273
 20
173.199
 10
557.366
 20
165.844
 10
556.099
 20
158.541
 10
554.475
 20
151.31
 10
552.498
 20
144.167
 10
550.173
 20
137.13
 10
547.506
 20
130.215
 10
544.502
 20
123.439
 10
541.17
 20
116.819
 10
537.517
 20
110.37
 10
533.552
 20
104.109
 10
529.284
 20
98.049
 10
524.725
 20
92.207
 10
519.884
 20
86.595
 10
514.773
 20
81.227
 10
509.405
 20
76.116
 10
503.793
 20
71.275
 10
497.951
 20
66.716
 10
491.891
 20
62.448
 10
485.63
 20
58.483
 10
479.181
 20
54.83
 10
472.561
 20
51.498
 10
465.785
 20
48.494
 10
458.87
 20
45.827
 10
451.833
 20
43.502
 10
444.69
 20
41.525
 10
437.459
 20
39.901
 10
430.156
 20
38.634
 10
422.801
 20
37.727
 10
415.409
 20
37.182
 10
408.0
 20
37.0
 10
400.591
 20
37.182
 10
393.199
 20
37.727
 10
385.844
 20
38.634
 10
378.541
 20
39.901
 10
371.31
 20
41.525
 10
364.167
 20
43.502
 10
357.13
 20
45.827
 10
350.215
 20
48.494
 10
343.439
 20
51.498
 10
336.819
 20
54.83
 10
330.37
 20
58.483
 10
324.109
 20
62.448
 10
318.049
 20
66.716
 10
312.207
 20
71.275
 10
306.595
 20
76.116
 10
301.227
 20
81.227
 10
296.116
 20
86.595
 10
291.275
 20
92.207
 10
286.716
 20
98.049
 10
282.448
 20
104.109
 10
278.483
 20
110.37
 10
274.83
 20
116.819
 10
271.498
 20
123.439
 10
268.494
 20
130.215
 10
265.827
 20
137.13
 10
263.502
 20
144.167
 10
261.525
 20
151.31
 10
259.901
 20
158.541
 10
258.634
 20
165.844
 10
257.727
 20
173.199
 10
257.182
 20
180.591
 10
257.0
 20
188.0
 10
257.182
 20
195.409
 10
257.727
 20
202.801
 10
258.634
 20
210.156
 10
259.901
 20
217.459
 10
261.525
 20
224.69
 10
263.502
 20
231.833
 10
265.827
 20
238.87
 10
268.494
 20
245.785
 10
271.498
 20
252.561
 10
274.83
 20
259.181
 10
278.483
 20
265.63
 10
282.448
 20
271.891
 10
286.716
 20
277.951
 10
291.275
 20
283.793
 10
296.116
 20
289.405
 10
301.227
 20
294.773
 10
306.595
 20
299.884
 10
312.207
 20
304.725
 10
318.049
 20
309.284
 10
324.109
 20
313.552
 10
330.37
 20
317.517
 10
336.819
 20
321.17
 10
343.439
 20
324.502
 10
350.215
 20
327.506
 10
357.13
 20
330.173
 10
364.167
 20
332.498
 10
371.31
 20
334.475
 10
378.541
 20
336.099
 10
385.844
 20
337.366
 10
393.199
 20
338.273
 10
400.591
 20
338.818
 10
408.0
 20
339.0
  0
LWPOLYLINE
  5
C7
330
17
100
AcDbEntity
  8
ENGRAVE_V
100
AcDbPolyline
 90
53
 70
1
 10
935.0
 20
298.0
 10
937.611
 20
297.829
 10
940.176
 20
297.319
 10
942.654
 20
296.478
 10
945.0
 20
295.321
 10
947.175
 20
293.867
 10
949.142
 20
292.142
 10
950.867
 20
290.175
 10
952.321
 20
288.0
 10
953.478
 20
285.654
 10
954.319
 20
283.176
 10
954.829
 20
280.611
 10
955.0
 20
278.0
 10
955.0
 20
98.0
 10
954.829
 20
95.389
 10
954.319
 20
92.824
 10
953.478
 20
90.346
 10
952.321
 20
88.0
 10
950.867
 20
85.825
 10
949.142
 20
83.858
 10
947.175
 20
82.133
 10
945.0
 20
80.679
 10
942.654
 20
79.522
 10
940.176
 20
78.681
 10
937.611
 20
78.171
 10
935.0
 20
78.0
 10
605.0
 20
78.0
 10
602.389
 20
78.171
 10
599.824
 20
78.681
 10
597.346
 20
79.522
 10
595.0
 20
80.679
 10
592.825
 20
82.133
 10
590.858
 20
83.858
 10
589.133
 20
85.825
 10
587.679
 20
88.0
 10
586.522
 20
90.346
 10
585.681
 20
92.824
 10
585.171
 20
95.389
 10
585.0
 20
98.0
 10
585.0
 20
278.0
 10
585.171
 20
280.611
 10
585.681
 20
283.176
 10
586.522
 20
285.654
 10
587.679
 20
288.0
 10
589.133
 20
290.175
 10
590.858
 20
292.142
 10
592.825
 20
293.867
 10
595.0
 20
295.321
 10
597.346
 20
296.478
 10
599.824
 20
297.319
 10
602.389
 20
297.829
 10
605.0
 20
298.0
 10
935.0
 20
298.0
  0
LWPOLYLINE
  5
C8
330
17
100
AcDbEntity
  8
ENGRAVE_V
100
AcDbPolyline
 90
38
 70
1
 10
1240.831
 20
53.0
 10
1240.831
 20
63.403
 10
1240.863
 20
64.529
 10
1240.96
 20
65.588
 10
1241.12
 20
66.579
 10
1241.346
 20
67.503
 10
1241.635
 20
68.36
 10
1241.989
 20
69.149
 10
1242.408
 20
69.871
 10
1242.89
 20
70.525
 10
1243.432
 20
71.107
 10
1244.029
 20
71.611
 10
1244.681
 20
72.038
 10
1245.387
 20
72.387
 10
1246.148
 20
72.659
 10
1246.964
 20
72.853
 10
1247.834
 20
72.969
 10
1248.759
 20
73.008
 10
1249.688
 20
72.969
 10
1250.562
 20
72.853
 10
1251.38
 20
72.659
 10
1252.143
 20
72.387
 10
1252.851
 20
72.038
 10
1253.504
 20
71.611
 10
1254.102
 20
71.107
 10
1254.644
 20
70.525
 10
1255.127
 20
69.871
 10
1255.545
 20
69.149
 10
1255.899
 20
68.36
 10
1256.189
 20
67.503
 10
1256.414
 20
66.579
 10
1256.575
 20
65.588
 10
1256.671
 20
64.529
 10
1256.704
 20
63.403
 10
1256.704
 20
59.268
 10
1265.137
 20
59.268
 10
1265.137
 20
53.0
 10
1240.831
 20
53.0
  0
LWPOLYLINE
  5
C9
330
17
100
AcDbEntity
  8
ENGRAVE_V
100
AcDbPolyline
 90
36
 70
1
 10
1245.373
 20
59.268
 10
1252.162
 20
59.268
 10
1252.162
 20
62.735
 10
1252.148
 20
63.178
 10
1252.106
 20
63.595
 10
1252.037
 20
63.986
 10
1251.94
 20
64.351
 10
1251.815
 20
64.69
 10
1251.663
 20
65.003
 10
1251.482
 20
65.29
 10
1251.274
 20
65.552
 10
1251.041
 20
65.784
 10
1250.784
 20
65.986
 10
1250.505
 20
66.157
 10
1250.202
 20
66.297
 10
1249.876
 20
66.405
 10
1249.527
 20
66.483
 10
1249.155
 20
66.529
 10
1248.759
 20
66.545
 10
1248.364
 20
66.529
 10
1247.992
 20
66.483
 10
1247.643
 20
66.405
 10
1247.318
 20
66.297
 10
1247.017
 20
66.157
 10
1246.738
 20
65.986
 10
1246.484
 20
65.784
 10
1246.252
 20
65.552
 10
1246.046
 20
65.29
 10
1245.867
 20
65.003
 10
1245.716
 20
64.69
 10
1245.593
 20
64.351
 10
1245.497
 20
63.986
 10
1245.428
 20
63.595
 10
1245.387
 20
63.178
 10
1245.373
 20
62.735
 10
1245.373
 20
59.268
  0
LWPOLYLINE
  5
CA
330
17
100
AcDbEntity
  8
ENGRAVE_V
100
AcDbPolyline
 90
13
 70
1
 10
1240.831
 20
77.436
 10
1240.831
 20
83.704
 10
1250.094
 20
83.704
 10
1250.094
 20
92.951
 10
1240.831
 20
92.951
 10
1240.831
 20
99.218
 10
1265.137
 20
99.218
 10
1265.137
 20
92.951
 10
1254.831
 20
92.951
 10
1254.831
 20
83.704
 10
1265.137
 20
83.704
 10
1265.137
 20
77.436
 10
1240.831
 20
77.436
  0
LWPOLYLINE
  5
CB
330
17
100
AcDbEntity
  8
ENGRAVE_V
100
AcDbPolyline
 90
65
 70
1
 10
1244.933
 20
116.442
 10
1244.966
 20
115.746
 10
1245.066
 20
115.09
 10
1245.231
 20
114.474
 10
1245.462
 20
113.899
 10
1245.76
 20
113.363
 10
1246.124
 20
112.868
 10
1246.554
 20
112.413
 10
1247.05
 20
111.998
 10
1247.606
 20
111.628
 10
1248.216
 20
111.307
 10
1248.88
 20
111.036
 10
1249.598
 20
110.814
 10
1250.369
 20
110.641
 10
1251.195
 20
110.517
 10
1252.075
 20
110.443
 10
1253.008
 20
110.419
 10
1253.938
 20
110.443
 10
1254.814
 20
110.517
 10
1255.637
 20
110.641
 10
1256.407
 20
110.814
 10
1257.123
 20
111.036
 10
1257.785
 20
111.307
 10
1258.394
 20
111.628
 10
1258.95
 20
111.998
 10
1259.446
 20
112.413
 10
1259.876
 20
112.868
 10
1260.24
 20
113.363
 10
1260.538
 20
113.899
 10
1260.769
 20
114.474
 10
1260.934
 20
115.09
 10
1261.034
 20
115.746
 10
1261.067
 20
116.442
 10
1261.034
 20
117.142
 10
1260.934
 20
117.802
 10
1260.769
 20
118.42
 10
1260.538
 20
118.998
 10
1260.24
 20
119.535
 10
1259.876
 20
120.032
 10
1259.446
 20
120.488
 10
1258.95
 20
120.903
 10
1258.394
 20
121.273
 10
1257.785
 20
121.594
 10
1257.123
 20
121.865
 10
1256.407
 20
122.087
 10
1255.637
 20
122.26
 10
1254.814
 20
122.383
 10
1253.938
 20
122.457
 10
1253.008
 20
122.482
 10
1252.075
 20
122.457
 10
1251.195
 20
122.383
 10
1250.369
 20
122.26
 10
1249.598
 20
122.087
 10
1248.88
 20
121.865
 10
1248.216
 20
121.594
 10
1247.606
 20
121.273
 10
1247.05
 20
120.903
 10
1246.554
 20
120.488
 10
1246.124
 20
120.032
 10
1245.76
 20
119.535
 10
1245.462
 20
118.998
 10
1245.231
 20
118.42
 10
1245.066
 20
117.802
 10
1244.966
 20
117.142
 10
1244.933
 20
116.442
  0
LWPOLYLINE
  5
CC
330
17
100
AcDbEntity
  8
ENGRAVE_V
100
AcDbPolyline
 90
65
 70
1
 10
1240.391
 20
116.442
 10
1240.444
 20
117.868
 10
1240.601
 20
119.214
 10
1240.863
 20
120.481
 10
1241.23
 20
121.668
 10
1241.701
 20
122.776
 10
1242.278
 20
123.805
 10
1242.959
 20
124.754
 10
1243.745
 20
125.624
 10
1244.623
 20
126.402
 10
1245.582
 20
127.077
 10
1246.62
 20
127.648
 10
1247.738
 20
128.115
 10
1248.935
 20
128.478
 10
1250.213
 20
128.738
 10
1251.571
 20
128.893
 10
1253.008
 20
128.945
 10
1254.442
 20
128.893
 10
1255.796
 20
128.738
 10
1257.071
 20
128.478
 10
1258.267
 20
128.115
 10
1259.383
 20
127.648
 10
1260.42
 20
127.077
 10
1261.377
 20
126.402
 10
1262.255
 20
125.624
 10
1263.041
 20
124.754
 10
1263.722
 20
123.805
 10
1264.299
 20
122.776
 10
1264.77
 20
121.668
 10
1265.137
 20
120.481
 10
1265.399
 20
119.214
 10
1265.556
 20
117.868
 10
1265.609
 20
116.442
 10
1265.556
 20
115.02
 10
1265.399
 20
113.677
 10
1265.137
 20
112.413
 10
1264.77
 20
111.227
 10
1264.299
 20
110.119
 10
1263.722
 20
109.09
 10
1263.041
 20
108.14
 10
1262.255
 20
107.269
 10
1261.377
 20
106.488
 10
1260.42
 20
105.812
 10
1259.383
 20
105.24
 10
1258.267
 20
104.772
 10
1257.071
 20
104.408
 10
1255.796
 20
104.147
 10
1254.442
 20
103.991
 10
1253.008
 20
103.939
 10
1251.571
 20
103.991
 10
1250.213
 20
104.147
 10
1248.935
 20
104.408
 10
1247.738
 20
104.772
 10
1246.62
 20
105.24
 10
1245.582
 20
105.812
 10
1244.623
 20
106.488
 10
1243.745
 20
107.269
 10
1242.959
 20
108.14
 10
1242.278
 20
109.09
 10
1241.701
 20
110.119
 10
1241.23
 20
111.227
 10
1240.863
 20
112.413
 10
1240.601
 20
113.677
 10
1240.444
 20
115.02
 10
1240.391
 20
116.442
  0
LWPOLYLINE
  5
CD
330
17
100
AcDbEntity
  8
ENGRAVE_V
100
AcDbPolyline
 90
9
 70
1
 10
1240.831
 20
130.785
 10
1240.831
 20
153.186
 10
1245.568
 20
153.186
 10
1245.568
 20
145.127
 10
1265.137
 20
145.127
 10
1265.137
 20
138.86
 10
1245.568
 20
138.86
 10
1245.568
 20
130.785
 10
1240.831
 20
130.785
  0
LWPOLYLINE
  5
CE
330
17
100
AcDbEntity
  8
ENGRAVE_V
100
AcDbPolyline
 90
65
 70
1
 10
1244.933
 20
167.528
 10
1244.966
 20
166.832
 10
1245.066
 20
166.176
 10
1245.231
 20
165.56
 10
1245.462
 20
164.984
 10
1245.76
 20
164.449
 10
1246.124
 20
163.954
 10
1246.554
 20
163.499
 10
1247.05
 20
163.084
 10
1247.606
 20
162.714
 10
1248.216
 20
162.393
 10
1248.88
 20
162.122
 10
1249.598
 20
161.899
 10
1250.369
 20
161.727
 10
1251.195
 20
161.603
 10
1252.075
 20
161.529
 10
1253.008
 20
161.505
 10
1253.938
 20
161.529
 10
1254.814
 20
161.603
 10
1255.637
 20
161.727
 10
1256.407
 20
161.899
 10
1257.123
 20
162.122
 10
1257.785
 20
162.393
 10
1258.394
 20
162.714
 10
1258.95
 20
163.084
 10
1259.446
 20
163.499
 10
1259.876
 20
163.954
 10
1260.24
 20
164.449
 10
1260.538
 20
164.984
 10
1260.769
 20
165.56
 10
1260.934
 20
166.176
 10
1261.034
 20
166.832
 10
1261.067
 20
167.528
 10
1261.034
 20
168.228
 10
1260.934
 20
168.888
 10
1260.769
 20
169.506
 10
1260.538
 20
170.084
 10
1260.24
 20
170.621
 10
1259.876
 20
171.118
 10
1259.446
 20
171.574
 10
1258.95
 20
171.989
 10
1258.394
 20
172.359
 10
1257.785
 20
172.68
 10
1257.123
 20
172.951
 10
1256.407
 20
173.173
 10
1255.637
 20
173.346
 10
1254.814
 20
173.469
 10
1253.938
 20
173.543
 10
1253.008
 20
173.568
 10
1252.075
 20
173.543
 10
1251.195
 20
173.469
 10
1250.369
 20
173.346
 10
1249.598
 20
173.173
 10
1248.88
 20
172.951
 10
1248.216
 20
172.68
 10
1247.606
 20
172.359
 10
1247.05
 20
171.989
 10
1246.554
 20
171.574
 10
1246.124
 20
171.118
 10
1245.76
 20
170.621
 10
1245.462
 20
170.084
 10
1245.231
 20
169.506
 10
1245.066
 20
168.888
 10
1244.966
 20
168.228
 10
1244.933
 20
167.528
  0
LWPOLYLINE
  5
CF
330
17
100
AcDbEntity
  8
ENGRAVE_V
100
AcDbPolyline
 90
65
 70
1
 10
1240.391
 20
167.528
 10
1240.444
 20
168.954
 10
1240.601
 20
170.3
 10
1240.863
 20
171.567
 10
1241.23
 20
172.754
 10
1241.701
 20
173.862
 10
1242.278
 20
174.891
 10
1242.959
 20
175.84
 10
1243.745
 20
176.71
 10
1244.623
 20
177.488
 10
1245.582
 20
178.163
 10
1246.62
 20
178.734
 10
1247.738
 20
179.201
 10
1248.935
 20
179.564
 10
1250.213
 20
179.823
 10
1251.571
 20
179.979
 10
1253.008
 20
180.031
 10
1254.442
 20
179.979
 10
1255.796
 20
179.823
 10
1257.071
 20
179.564
 10
1258.267
 20
179.201
 10
1259.383
 20
178.734
 10
1260.42
 20
178.163
 10
1261.377
 20
177.488
 10
1262.255
 20
176.71
 10
1263.041
 20
175.84
 10
1263.722
 20
174.891
 10
1264.299
 20
173.862
 10
1264.77
 20
172.754
 10
1265.137
 20
171.567
 10
1265.399
 20
170.3
 10
1265.556
 20
168.954
 10
1265.609
 20
167.528
 10
1265.556
 20
166.106
 10
1265.399
 20
164.763
 10
1265.137
 20
163.499
 10
1264.77
 20
162.313
 10
1264.299
 20
161.205
 10
1263.722
 20
160.176
 10
1263.041
 20
159.226
 10
1262.255
 20
158.355
 10
1261.377
 20
157.574
 10
1260.42
 20
156.898
 10
1259.383
 20
156.326
 10
1258.267
 20
155.858
 10
1257.071
 20
155.493
 10
1255.796
 20
155.233
 10
1254.442
 20
155.077
 10
1253.008
 20
155.025
 10
1251.571
 20
155.077
 10
1250.213
 20
155.233
 10
1248.935
 20
155.493
 10
1247.738
 20
155.858
 10
1246.62
 20
156.326
 10
1245.582
 20
156.898
 10
1244.623
 20
157.574
 10
1243.745
 20
158.355
 10
1242.959
 20
159.226
 10
1242.278
 20
160.176
 10
1241.701
 20
161.205
 10
1241.23
 20
162.313
 10
1240.863
 20
163.499
 10
1240.601
 20
164.763
 10
1240.444
 20
166.106
 10
1240.391
 20
167.528
  0
LWPOLYLINE
  5
D0
330
17
100
AcDbEntity
  8
ENGRAVE_V
100
AcDbPolyline
 90
36
 70
1
 10
1250.241
 20
206.111
 10
1250.23
 20
206.47
 10
1250.2
 20
206.807
 10
1250.149
 20
207.122
 10
1250.078
 20
207.414
 10
1249.986
 20
207.683
 10
1249.874
 20
207.931
 10
1249.742
 20
208.155
 10
1249.589
 20
208.358
 10
1249.417
 20
208.537
 10
1249.225
 20
208.693
 10
1249.014
 20
208.824
 10
1248.784
 20
208.932
 10
1248.534
 20
209.015
 10
1248.265
 20
209.075
 10
1247.976
 20
209.111
 10
1247.668
 20
209.123
 10
1247.364
 20
209.111
 10
1247.079
 20
209.075
 10
1246.812
 20
209.015
 10
1246.563
 20
208.932
 10
1246.334
 20
208.824
 10
1246.122
 20
208.693
 10
1245.93
 20
208.537
 10
1245.756
 20
208.358
 10
1245.601
 20
208.155
 10
1245.467
 20
207.931
 10
1245.354
 20
207.683
 10
1245.261
 20
207.414
 10
1245.189
 20
207.122
 10
1245.137
 20
206.807
 10
1245.106
 20
206.47
 10
1245.096
 20
206.111
 10
1245.096
 20
202.644
 10
1250.241
 20
202.644
 10
1250.241
 20
206.111
  0
LWPOLYLINE
  5
D1
330
17
100
AcDbEntity
  8
ENGRAVE_V
100
AcDbPolyline
 90
36
 70
1
 10
1260.871
 20
206.323
 10
1260.859
 20
206.78
 10
1260.821
 20
207.209
 10
1260.759
 20
207.608
 10
1260.672
 20
207.977
 10
1260.56
 20
208.318
 10
1260.423
 20
208.629
 10
1260.261
 20
208.911
 10
1260.074
 20
209.164
 10
1259.861
 20
209.387
 10
1259.624
 20
209.58
 10
1259.361
 20
209.744
 10
1259.072
 20
209.878
 10
1258.758
 20
209.982
 10
1258.419
 20
210.057
 10
1258.054
 20
210.101
 10
1257.664
 20
210.116
 10
1257.282
 20
210.101
 10
1256.924
 20
210.057
 10
1256.591
 20
209.983
 10
1256.282
 20
209.88
 10
1255.999
 20
209.747
 10
1255.74
 20
209.585
 10
1255.505
 20
209.393
 10
1255.295
 20
209.172
 10
1255.11
 20
208.921
 10
1254.95
 20
208.64
 10
1254.814
 20
208.329
 10
1254.703
 20
207.987
 10
1254.617
 20
207.616
 10
1254.555
 20
207.215
 10
1254.518
 20
206.784
 10
1254.506
 20
206.323
 10
1254.506
 20
202.644
 10
1260.871
 20
202.644
 10
1260.871
 20
206.323
  0
LWPOLYLINE
  5
D2
330
17
100
AcDbEntity
  8
ENGRAVE_V
100
AcDbPolyline
 90
68
 70
1
 10
1252.129
 20
212.151
 10
1252.291
 20
212.641
 10
1252.484
 20
213.103
 10
1252.708
 20
213.537
 10
1252.963
 20
213.942
 10
1253.25
 20
214.318
 10
1253.567
 20
214.666
 10
1253.915
 20
214.986
 10
1254.294
 20
215.277
 10
1254.7
 20
215.536
 10
1255.129
 20
215.761
 10
1255.579
 20
215.951
 10
1256.052
 20
216.107
 10
1256.548
 20
216.228
 10
1257.066
 20
216.315
 10
1257.606
 20
216.366
 10
1258.169
 20
216.384
 10
1259.02
 20
216.347
 10
1259.815
 20
216.235
 10
1260.554
 20
216.05
 10
1261.238
 20
215.79
 10
1261.865
 20
215.455
 10
1262.436
 20
215.047
 10
1262.952
 20
214.564
 10
1263.411
 20
214.007
 10
1263.815
 20
213.374
 10
1264.166
 20
212.664
 10
1264.462
 20
211.876
 10
1264.705
 20
211.011
 10
1264.894
 20
210.069
 10
1265.029
 20
209.05
 10
1265.11
 20
207.953
 10
1265.137
 20
206.779
 10
1265.137
 20
196.376
 10
1240.831
 20
196.376
 10
1240.831
 20
205.786
 10
1240.855
 20
207.008
 10
1240.927
 20
208.143
 10
1241.046
 20
209.19
 10
1241.213
 20
210.151
 10
1241.429
 20
211.024
 10
1241.692
 20
211.81
 10
1242.003
 20
212.508
 10
1242.361
 20
213.12
 10
1242.772
 20
213.652
 10
1243.241
 20
214.113
 10
1243.768
 20
214.504
 10
1244.351
 20
214.823
 10
1244.993
 20
215.071
 10
1245.691
 20
215.249
 10
1246.448
 20
215.355
 10
1247.261
 20
215.391
 10
1247.697
 20
215.378
 10
1248.116
 20
215.339
 10
1248.518
 20
215.274
 10
1248.904
 20
215.183
 10
1249.273
 20
215.066
 10
1249.626
 20
214.924
 10
1249.962
 20
214.755
 10
1250.281
 20
214.56
 10
1250.583
 20
214.341
 10
1250.864
 20
214.099
 10
1251.125
 20
213.832
 10
1251.366
 20
213.543
 10
1251.587
 20
213.23
 10
1251.788
 20
212.894
 10
1251.968
 20
212.534
 10
1252.129
 20
212.151
  0
LWPOLYLINE
  5
D3
330
17
100
AcDbEntity
  8
ENGRAVE_V
100
AcDbPolyline
 90
65
 70
1
 10
1244.933
 20
232.891
 10
1244.966
 20
232.195
 10
1245.066
 20
231.539
 10
1245.231
 20
230.923
 10
1245.462
 20
230.348
 10
1245.76
 20
229.812
 10
1246.124
 20
229.317
 10
1246.554
 20
228.862
 10
1247.05
 20
228.447
 10
1247.606
 20
228.077
 10
1248.216
 20
227.756
 10
1248.88
 20
227.485
 10
1249.598
 20
227.263
 10
1250.369
 20
227.09
 10
1251.195
 20
226.967
 10
1252.075
 20
226.893
 10
1253.008
 20
226.868
 10
1253.938
 20
226.893
 10
1254.814
 20
226.967
 10
1255.637
 20
227.09
 10
1256.407
 20
227.263
 10
1257.123
 20
227.485
 10
1257.785
 20
227.756
 10
1258.394
 20
228.077
 10
1258.95
 20
228.447
 10
1259.446
 20
228.862
 10
1259.876
 20
229.317
 10
1260.24
 20
229.812
 10
1260.538
 20
230.348
 10
1260.769
 20
230.923
 10
1260.934
 20
231.539
 10
1261.034
 20
232.195
 10
1261.067
 20
232.891
 10
1261.034
 20
233.591
 10
1260.934
 20
234.251
 10
1260.769
 20
234.869
 10
1260.538
 20
235.447
 10
1260.24
 20
235.985
 10
1259.876
 20
236.481
 10
1259.446
 20
236.937
 10
1258.95
 20
237.352
 10
1258.394
 20
237.722
 10
1257.785
 20
238.043
 10
1257.123
 20
238.314
 10
1256.407
 20
238.536
 10
1255.637
 20
238.709
 10
1254.814
 20
238.833
 10
1253.938
 20
238.907
 10
1253.008
 20
238.931
 10
1252.075
 20
238.907
 10
1251.195
 20
238.833
 10
1250.369
 20
238.709
 10
1249.598
 20
238.536
 10
1248.88
 20
238.314
 10
1248.216
 20
238.043
 10
1247.606
 20
237.722
 10
1247.05
 20
237.352
 10
1246.554
 20
236.937
 10
1246.124
 20
236.481
 10
1245.76
 20
235.985
 10
1245.462
 20
235.447
 10
1245.231
 20
234.869
 10
1245.066
 20
234.251
 10
1244.966
 20
233.591
 10
1244.933
 20
232.891
  0
LWPOLYLINE
  5
D4
330
17
100
AcDbEntity
  8
ENGRAVE_V
100
AcDbPolyline
 90
65
 70
1
 10
1240.391
 20
232.891
 10
1240.444
 20
234.317
 10
1240.601
 20
235.663
 10
1240.863
 20
236.93
 10
1241.23
 20
238.117
 10
1241.701
 20
239.225
 10
1242.278
 20
240.254
 10
1242.959
 20
241.203
 10
1243.745
 20
242.073
 10
1244.623
 20
242.852
 10
1245.582
 20
243.526
 10
1246.62
 20
244.097
 10
1247.738
 20
244.564
 10
1248.935
 20
244.927
 10
1250.213
 20
245.187
 10
1251.571
 20
245.342
 10
1253.008
 20
245.394
 10
1254.442
 20
245.342
 10
1255.796
 20
245.187
 10
1257.071
 20
244.927
 10
1258.267
 20
244.564
 10
1259.383
 20
244.097
 10
1260.42
 20
243.526
 10
1261.377
 20
242.852
 10
1262.255
 20
242.073
 10
1263.041
 20
241.203
 10
1263.722
 20
240.254
 10
1264.299
 20
239.225
 10
1264.77
 20
238.117
 10
1265.137
 20
236.93
 10
1265.399
 20
235.663
 10
1265.556
 20
234.317
 10
1265.609
 20
232.891
 10
1265.556
 20
231.47
 10
1265.399
 20
230.126
 10
1265.137
 20
228.862
 10
1264.77
 20
227.676
 10
1264.299
 20
226.568
 10
1263.722
 20
225.54
 10
1263.041
 20
224.589
 10
1262.255
 20
223.718
 10
1261.377
 20
222.938
 10
1260.42
 20
222.261
 10
1259.383
 20
221.689
 10
1258.267
 20
221.221
 10
1257.071
 20
220.857
 10
1255.796
 20
220.597
 10
1254.442
 20
220.441
 10
1253.008
 20
220.389
 10
1251.571
 20
220.441
 10
1250.213
 20
220.597
 10
1248.935
 20
220.857
 10
1247.738
 20
221.221
 10
1246.62
 20
221.689
 10
1245.582
 20
222.261
 10
1244.623
 20
222.938
 10
1243.745
 20
223.718
 10
1242.959
 20
224.589
 10
1242.278
 20
225.54
 10
1241.701
 20
226.568
 10
1241.23
 20
227.676
 10
1240.863
 20
228.862
 10
1240.601
 20
230.126
 10
1240.444
 20
231.47
 10
1240.391
 20
232.891
  0
LWPOLYLINE
  5
D5
330
17
100
AcDbEntity
  8
ENGRAVE_V
100
AcDbPolyline
 90
65
 70
1
 10
1244.933
 20
261.235
 10
1244.966
 20
260.538
 10
1245.066
 20
259.882
 10
1245.231
 20
259.266
 10
1245.462
 20
258.691
 10
1245.76
 20
258.155
 10
1246.124
 20
257.66
 10
1246.554
 20
257.205
 10
1247.05
 20
256.79
 10
1247.606
 20
256.42
 10
1248.216
 20
256.099
 10
1248.88
 20
255.828
 10
1249.598
 20
255.606
 10
1250.369
 20
255.433
 10
1251.195
 20
255.31
 10
1252.075
 20
255.236
 10
1253.008
 20
255.211
 10
1253.938
 20
255.236
 10
1254.814
 20
255.31
 10
1255.637
 20
255.433
 10
1256.407
 20
255.606
 10
1257.123
 20
255.828
 10
1257.785
 20
256.099
 10
1258.394
 20
256.42
 10
1258.95
 20
256.79
 10
1259.446
 20
257.205
 10
1259.876
 20
257.66
 10
1260.24
 20
258.155
 10
1260.538
 20
258.691
 10
1260.769
 20
259.266
 10
1260.934
 20
259.882
 10
1261.034
 20
260.538
 10
1261.067
 20
261.235
 10
1261.034
 20
261.935
 10
1260.934
 20
262.594
 10
1260.769
 20
263.213
 10
1260.538
 20
263.79
 10
1260.24
 20
264.328
 10
1259.876
 20
264.824
 10
1259.446
 20
265.28
 10
1258.95
 20
265.695
 10
1258.394
 20
266.065
 10
1257.785
 20
266.386
 10
1257.123
 20
266.657
 10
1256.407
 20
266.88
 10
1255.637
 20
267.052
 10
1254.814
 20
267.176
 10
1253.938
 20
267.25
 10
1253.008
 20
267.274
 10
1252.075
 20
267.25
 10
1251.195
 20
267.176
 10
1250.369
 20
267.052
 10
1249.598
 20
266.88
 10
1248.88
 20
266.657
 10
1248.216
 20
266.386
 10
1247.606
 20
266.065
 10
1247.05
 20
265.695
 10
1246.554
 20
265.28
 10
1246.124
 20
264.824
 10
1245.76
 20
264.328
 10
1245.462
 20
263.79
 10
1245.231
 20
263.213
 10
1245.066
 20
262.594
 10
1244.966
 20
261.935
 10
1244.933
 20
261.235
  0
LWPOLYLINE
  5
D6
330
17
100
AcDbEntity
  8
ENGRAVE_V
100
AcDbPolyline
 90
65
 70
1
 10
1240.391
 20
261.235
 10
1240.444
 20
262.66
 10
1240.601
 20
264.006
 10
1240.863
 20
265.273
 10
1241.23
 20
266.46
 10
1241.701
 20
267.568
 10
1242.278
 20
268.597
 10
1242.959
 20
269.546
 10
1243.745
 20
270.416
 10
1244.623
 20
271.195
 10
1245.582
 20
271.869
 10
1246.62
 20
272.44
 10
1247.738
 20
272.907
 10
1248.935
 20
273.27
 10
1250.213
 20
273.53
 10
1251.571
 20
273.686
 10
1253.008
 20
273.737
 10
1254.442
 20
273.686
 10
1255.796
 20
273.53
 10
1257.071
 20
273.27
 10
1258.267
 20
272.907
 10
1259.383
 20
272.44
 10
1260.42
 20
271.869
 10
1261.377
 20
271.195
 10
1262.255
 20
270.416
 10
1263.041
 20
269.546
 10
1263.722
 20
268.597
 10
1264.299
 20
267.568
 10
1264.77
 20
266.46
 10
1265.137
 20
265.273
 10
1265.399
 20
264.006
 10
1265.556
 20
262.66
 10
1265.609
 20
261.235
 10
1265.556
 20
259.813
 10
1265.399
 20
258.47
 10
1265.137
 20
257.205
 10
1264.77
 20
256.019
 10
1264.299
 20
254.912
 10
1263.722
 20
253.883
 10
1263.041
 20
252.933
 10
1262.255
 20
252.061
 10
1261.377
 20
251.281
 10
1260.42
 20
250.604
 10
1259.383
 20
250.032
 10
1258.267
 20
249.564
 10
1257.071
 20
249.2
 10
1255.796
 20
248.94
 10
1254.442
 20
248.784
 10
1253.008
 20
248.732
 10
1251.571
 20
248.784
 10
1250.213
 20
248.94
 10
1248.935
 20
249.2
 10
1247.738
 20
249.564
 10
1246.62
 20
250.032
 10
1245.582
 20
250.604
 10
1244.623
 20
251.281
 10
1243.745
 20
252.061
 10
1242.959
 20
252.933
 10
1242.278
 20
253.883
 10
1241.701
 20
254.912
 10
1241.23
 20
256.019
 10
1240.863
 20
257.205
 10
1240.601
 20
258.47
 10
1240.444
 20
259.813
 10
1240.391
 20
261.235
  0
LWPOLYLINE
  5
D7
330
17
100
AcDbEntity
  8
ENGRAVE_V
100
AcDbPolyline
 90
9
 70
1
 10
1240.831
 20
275.577
 10
1240.831
 20
297.978
 10
1245.568
 20
297.978
 10
1245.568
 20
289.92
 10
1265.137
 20
289.92
 10
1265.137
 20
283.652
 10
1245.568
 20
283.652
 10
1245.568
 20
275.577
 10
1240.831
 20
275.577
  0
LWPOLYLINE
  5
D8
330
17
100
AcDbEntity
  8
ENGRAVE_V
100
AcDbPolyline
 90
13
 70
1
 10
1240.831
 20
301.218
 10
1240.831
 20
307.485
 10
1250.094
 20
307.485
 10
1250.094
 20
316.732
 10
1240.831
 20
316.732
 10
1240.831
 20
323.0
 10
1265.137
 20
323.0
 10
1265.137
 20
316.732
 10
1254.831
 20
316.732
 10
1254.831
 20
307.485
 10
1265.137
 20
307.485
 10
1265.137
 20
301.218
 10
1240.831
 20
301.218
  0
LWPOLYLINE
  5
D9
330
17
100
AcDbEntity
  8
ENGRAVE_V
100
AcDbPolyline
 90
268
 70
1
 10
1193.0
 20
132.956
 10
1192.095
 20
132.706
 10
1191.201
 20
132.467
 10
1190.32
 20
132.239
 10
1189.45
 20
132.022
 10
1188.592
 20
131.817
 10
1187.746
 20
131.622
 10
1186.911
 20
131.439
 10
1186.089
 20
131.267
 10
1185.282
 20
131.106
 10
1184.494
 20
130.956
 10
1183.726
 20
130.817
 10
1182.978
 20
130.689
 10
1182.249
 20
130.572
 10
1181.539
 20
130.467
 10
1180.849
 20
130.372
 10
1180.178
 20
130.289
 10
1179.53
 20
130.216
 10
1178.91
 20
130.153
 10
1178.316
 20
130.099
 10
1177.75
 20
130.056
 10
1177.211
 20
130.022
 10
1176.699
 20
129.997
 10
1176.214
 20
129.983
 10
1175.756
 20
129.978
 10
1174.78
 20
129.998
 10
1173.832
 20
130.057
 10
1172.911
 20
130.156
 10
1172.017
 20
130.294
 10
1171.15
 20
130.473
 10
1170.31
 20
130.69
 10
1169.497
 20
130.948
 10
1168.711
 20
131.244
 10
1167.952
 20
131.573
 10
1167.219
 20
131.925
 10
1166.513
 20
132.301
 10
1165.833
 20
132.7
 10
1165.18
 20
133.123
 10
1164.553
 20
133.569
 10
1163.952
 20
134.04
 10
1163.378
 20
134.533
 10
1162.829
 20
135.044
 10
1162.304
 20
135.564
 10
1161.804
 20
136.094
 10
1161.328
 20
136.633
 10
1160.876
 20
137.183
 10
1160.449
 20
137.742
 10
1160.045
 20
138.31
 10
1159.667
 20
138.889
 10
1159.312
 20
139.47
 10
1158.981
 20
140.047
 10
1158.673
 20
140.62
 10
1158.389
 20
141.189
 10
1158.128
 20
141.753
 10
1157.892
 20
142.314
 10
1157.678
 20
142.87
 10
1157.489
 20
143.422
 10
1157.322
 20
143.962
 10
1157.178
 20
144.482
 10
1157.056
 20
144.982
 10
1156.956
 20
145.461
 10
1156.878
 20
145.92
 10
1156.822
 20
146.36
 10
1156.789
 20
146.779
 10
1156.778
 20
147.178
 10
1156.791
 20
147.569
 10
1156.831
 20
147.943
 10
1156.897
 20
148.3
 10
1156.989
 20
148.639
 10
1157.108
 20
148.961
 10
1157.253
 20
149.265
 10
1157.424
 20
149.552
 10
1157.622
 20
149.822
 10
1157.845
 20
150.08
 10
1158.09
 20
150.331
 10
1158.359
 20
150.574
 10
1158.65
 20
150.811
 10
1158.964
 20
151.041
 10
1159.301
 20
151.264
 10
1159.661
 20
151.48
 10
1160.044
 20
151.689
 10
1160.449
 20
151.896
 10
1160.874
 20
152.107
 10
1161.318
 20
152.321
 10
1161.783
 20
152.539
 10
1162.268
 20
152.76
 10
1162.774
 20
152.985
 10
1163.299
 20
153.213
 10
1163.844
 20
153.444
 10
1164.426
 20
153.707
 10
1164.971
 20
153.963
 10
1165.479
 20
154.21
 10
1165.95
 20
154.45
 10
1166.384
 20
154.682
 10
1166.782
 20
154.907
 10
1167.143
 20
155.124
 10
1167.467
 20
155.333
 10
1167.76
 20
155.54
 10
1168.028
 20
155.749
 10
1168.271
 20
155.959
 10
1168.489
 20
156.172
 10
1168.682
 20
156.387
 10
1168.85
 20
156.604
 10
1168.993
 20
156.823
 10
1169.111
 20
157.044
 10
1169.21
 20
157.27
 10
1169.296
 20
157.503
 10
1169.368
 20
157.742
 10
1169.428
 20
157.989
 10
1169.474
 20
158.242
 10
1169.507
 20
158.503
 10
1169.527
 20
158.77
 10
1169.533
 20
159.044
 10
1169.547
 20
159.452
 10
1169.588
 20
159.831
 10
1169.655
 20
160.18
 10
1169.75
 20
160.5
 10
1169.872
 20
160.791
 10
1170.021
 20
161.053
 10
1170.197
 20
161.285
 10
1170.4
 20
161.489
 10
1170.623
 20
161.666
 10
1170.86
 20
161.819
 10
1171.109
 20
161.949
 10
1171.372
 20
162.056
 10
1171.648
 20
162.138
 10
1171.938
 20
162.197
 10
1172.24
 20
162.233
 10
1172.556
 20
162.244
 10
1172.893
 20
162.23
 10
1173.215
 20
162.186
 10
1173.523
 20
162.113
 10
1173.817
 20
162.011
 10
1174.095
 20
161.88
 10
1174.36
 20
161.719
 10
1174.609
 20
161.53
 10
1174.844
 20
161.311
 10
1175.058
 20
161.065
 10
1175.243
 20
160.792
 10
1175.4
 20
160.492
 10
1175.528
 20
160.167
 10
1175.627
 20
159.815
 10
1175.699
 20
159.436
 10
1175.741
 20
159.031
 10
1175.756
 20
158.6
 10
1175.744
 20
158.065
 10
1175.71
 20
157.547
 10
1175.652
 20
157.048
 10
1175.572
 20
156.567
 10
1175.469
 20
156.103
 10
1175.343
 20
155.658
 10
1175.194
 20
155.231
 10
1175.022
 20
154.822
 10
1174.829
 20
154.427
 10
1174.615
 20
154.042
 10
1174.382
 20
153.666
 10
1174.128
 20
153.3
 10
1173.854
 20
152.944
 10
1173.56
 20
152.597
 10
1173.245
 20
152.26
 10
1172.911
 20
151.933
 10
1171.533
 20
153.178
 10
1171.873
 20
153.073
 10
1172.204
 20
152.96
 10
1172.526
 20
152.837
 10
1172.839
 20
152.706
 10
1173.143
 20
152.565
 10
1173.438
 20
152.415
 10
1173.723
 20
152.257
 10
1174.0
 20
152.089
 10
1174.265
 20
151.91
 10
1174.515
 20
151.717
 10
1174.751
 20
151.51
 10
1174.972
 20
151.289
 10
1175.179
 20
151.054
 10
1175.371
 20
150.806
 10
1175.548
 20
150.543
 10
1175.711
 20
150.267
 10
1175.857
 20
149.975
 10
1175.983
 20
149.665
 10
1176.09
 20
149.339
 10
1176.178
 20
148.994
 10
1176.246
 20
148.633
 10
1176.294
 20
148.254
 10
1176.324
 20
147.858
 10
1176.333
 20
147.444
 10
1176.326
 20
147.067
 10
1176.306
 20
146.69
 10
1176.271
 20
146.314
 10
1176.222
 20
145.939
 10
1176.16
 20
145.564
 10
1176.083
 20
145.19
 10
1175.993
 20
144.817
 10
1175.889
 20
144.444
 10
1175.771
 20
144.074
 10
1175.639
 20
143.706
 10
1175.493
 20
143.34
 10
1175.333
 20
142.978
 10
1175.16
 20
142.618
 10
1174.972
 20
142.261
 10
1174.771
 20
141.907
 10
1174.556
 20
141.556
 10
1174.327
 20
141.207
 10
1174.085
 20
140.863
 10
1173.83
 20
140.521
 10
1173.561
 20
140.183
 10
1173.28
 20
139.849
 10
1172.985
 20
139.518
 10
1172.677
 20
139.191
 10
1172.356
 20
138.867
 10
1172.021
 20
138.547
 10
1171.674
 20
138.231
 10
1171.313
 20
137.919
 10
1170.939
 20
137.611
 10
1170.552
 20
137.308
 10
1170.151
 20
137.008
 10
1169.738
 20
136.713
 10
1169.311
 20
136.422
 10
1169.0
 20
138.067
 10
1169.383
 20
137.831
 10
1169.778
 20
137.611
 10
1170.183
 20
137.408
 10
1170.6
 20
137.222
 10
1171.028
 20
137.053
 10
1171.467
 20
136.9
 10
1171.917
 20
136.764
 10
1172.378
 20
136.644
 10
1172.844
 20
136.54
 10
1173.308
 20
136.45
 10
1173.772
 20
136.374
 10
1174.233
 20
136.311
 10
1174.694
 20
136.262
 10
1175.153
 20
136.228
 10
1175.61
 20
136.207
 10
1176.067
 20
136.2
 10
1176.43
 20
136.204
 10
1176.807
 20
136.215
 10
1177.199
 20
136.234
 10
1177.606
 20
136.261
 10
1178.027
 20
136.295
 10
1178.463
 20
136.338
 10
1178.913
 20
136.387
 10
1179.378
 20
136.444
 10
1179.853
 20
136.508
 10
1180.336
 20
136.576
 10
1180.826
 20
136.65
 10
1181.322
 20
136.728
 10
1181.826
 20
136.811
 10
1182.336
 20
136.899
 10
1182.853
 20
136.991
 10
1183.378
 20
137.089
 10
1183.905
 20
137.191
 10
1184.431
 20
137.296
 10
1184.955
 20
137.405
 10
1185.478
 20
137.517
 10
1185.999
 20
137.632
 10
1186.519
 20
137.751
 10
1187.038
 20
137.874
 10
1187.556
 20
138.0
 10
1188.067
 20
138.127
 10
1188.568
 20
138.254
 10
1189.059
 20
138.38
 10
1189.539
 20
138.506
 10
1190.009
 20
138.63
 10
1190.468
 20
138.754
 10
1190.917
 20
138.877
 10
1191.356
 20
139.0
 10
1193.0
 20
132.956
  0
LWPOLYLINE
  5
DA
330
17
100
AcDbEntity
  8
ENGRAVE_V
100
AcDbPolyline
 90
114
 70
1
 10
1170.067
 20
147.356
 10
1170.063
 20
147.561
 10
1170.051
 20
147.757
 10
1170.032
 20
147.942
 10
1170.006
 20
148.117
 10
1169.971
 20
148.281
 10
1169.929
 20
148.435
 10
1169.88
 20
148.578
 10
1169.822
 20
148.711
 10
1169.757
 20
148.833
 10
1169.685
 20
148.944
 10
1169.605
 20
149.044
 10
1169.517
 20
149.133
 10
1169.421
 20
149.211
 10
1169.318
 20
149.278
 10
1169.207
 20
149.333
 10
1169.089
 20
149.378
 10
1168.964
 20
149.41
 10
1168.833
 20
149.429
 10
1168.697
 20
149.435
 10
1168.556
 20
149.428
 10
1168.408
 20
149.407
 10
1168.256
 20
149.374
 10
1168.097
 20
149.327
 10
1167.933
 20
149.267
 10
1167.638
 20
149.156
 10
1167.353
 20
149.046
 10
1167.077
 20
148.936
 10
1166.811
 20
148.828
 10
1166.555
 20
148.72
 10
1166.308
 20
148.613
 10
1166.072
 20
148.506
 10
1165.844
 20
148.4
 10
1165.626
 20
148.295
 10
1165.417
 20
148.192
 10
1165.215
 20
148.09
 10
1165.022
 20
147.989
 10
1164.838
 20
147.89
 10
1164.661
 20
147.792
 10
1164.493
 20
147.695
 10
1164.333
 20
147.6
 10
1164.183
 20
147.506
 10
1164.042
 20
147.411
 10
1163.91
 20
147.317
 10
1163.789
 20
147.222
 10
1163.677
 20
147.128
 10
1163.575
 20
147.033
 10
1163.483
 20
146.939
 10
1163.4
 20
146.844
 10
1163.327
 20
146.75
 10
1163.264
 20
146.654
 10
1163.21
 20
146.558
 10
1163.167
 20
146.461
 10
1163.133
 20
146.364
 10
1163.108
 20
146.265
 10
1163.094
 20
146.166
 10
1163.089
 20
146.067
 10
1163.095
 20
145.918
 10
1163.112
 20
145.761
 10
1163.142
 20
145.596
 10
1163.183
 20
145.422
 10
1163.236
 20
145.24
 10
1163.301
 20
145.05
 10
1163.378
 20
144.851
 10
1163.467
 20
144.644
 10
1163.564
 20
144.433
 10
1163.665
 20
144.222
 10
1163.772
 20
144.011
 10
1163.883
 20
143.8
 10
1164.0
 20
143.589
 10
1164.121
 20
143.378
 10
1164.247
 20
143.167
 10
1164.378
 20
142.956
 10
1164.511
 20
142.749
 10
1164.643
 20
142.55
 10
1164.775
 20
142.36
 10
1164.906
 20
142.178
 10
1165.036
 20
142.004
 10
1165.165
 20
141.839
 10
1165.294
 20
141.682
 10
1165.422
 20
141.533
 10
1165.546
 20
141.397
 10
1165.662
 20
141.275
 10
1165.771
 20
141.169
 10
1165.872
 20
141.078
 10
1165.966
 20
141.002
 10
1166.051
 20
140.942
 10
1166.13
 20
140.897
 10
1166.2
 20
140.867
 10
1164.733
 20
140.333
 10
1165.117
 20
140.539
 10
1165.49
 20
140.754
 10
1165.853
 20
140.98
 10
1166.206
 20
141.217
 10
1166.548
 20
141.464
 10
1166.879
 20
141.721
 10
1167.2
 20
141.989
 10
1167.511
 20
142.267
 10
1167.808
 20
142.553
 10
1168.088
 20
142.846
 10
1168.35
 20
143.145
 10
1168.594
 20
143.45
 10
1168.822
 20
143.761
 10
1169.032
 20
144.079
 10
1169.225
 20
144.403
 10
1169.4
 20
144.733
 10
1169.556
 20
145.066
 10
1169.692
 20
145.397
 10
1169.806
 20
145.727
 10
1169.9
 20
146.056
 10
1169.973
 20
146.383
 10
1170.025
 20
146.708
 10
1170.056
 20
147.033
 10
1170.067
 20
147.356
  0
LWPOLYLINE
  5
DB
330
17
100
AcDbEntity
  8
ENGRAVE_V
100
AcDbPolyline
 90
416
 70
1
 10
1175.756
 20
158.689
 10
1169.533
 20
159.133
 10
1169.53
 20
159.492
 10
1169.518
 20
159.833
 10
1169.499
 20
160.158
 10
1169.472
 20
160.467
 10
1169.438
 20
160.758
 10
1169.396
 20
161.033
 10
1169.346
 20
161.292
 10
1169.289
 20
161.533
 10
1169.218
 20
161.761
 10
1169.128
 20
161.979
 10
1169.018
 20
162.186
 10
1168.889
 20
162.383
 10
1168.74
 20
162.57
 10
1168.572
 20
162.746
 10
1168.385
 20
162.911
 10
1168.178
 20
163.067
 10
1167.947
 20
163.215
 10
1167.689
 20
163.358
 10
1167.403
 20
163.498
 10
1167.089
 20
163.633
 10
1166.747
 20
163.765
 10
1166.378
 20
163.892
 10
1165.981
 20
164.015
 10
1165.556
 20
164.133
 10
1165.097
 20
164.252
 10
1164.599
 20
164.374
 10
1164.061
 20
164.499
 10
1163.483
 20
164.628
 10
1162.866
 20
164.76
 10
1162.21
 20
164.896
 10
1161.514
 20
165.035
 10
1160.778
 20
165.178
 10
1161.844
 20
170.956
 10
1162.097
 20
170.909
 10
1162.364
 20
170.86
 10
1162.647
 20
170.807
 10
1162.944
 20
170.75
 10
1163.258
 20
170.69
 10
1163.586
 20
170.626
 10
1163.93
 20
170.559
 10
1164.289
 20
170.489
 10
1164.649
 20
170.421
 10
1164.997
 20
170.363
 10
1165.333
 20
170.313
 10
1165.656
 20
170.272
 10
1165.966
 20
170.241
 10
1166.264
 20
170.218
 10
1166.549
 20
170.205
 10
1166.822
 20
170.2
 10
1167.03
 20
170.205
 10
1167.229
 20
170.221
 10
1167.421
 20
170.247
 10
1167.606
 20
170.283
 10
1167.782
 20
170.33
 10
1167.951
 20
170.387
 10
1168.113
 20
170.455
 10
1168.267
 20
170.533
 10
1168.412
 20
170.624
 10
1168.55
 20
170.731
 10
1168.679
 20
170.852
 10
1168.8
 20
170.989
 10
1168.912
 20
171.141
 10
1169.017
 20
171.308
 10
1169.112
 20
171.491
 10
1169.2
 20
171.689
 10
1169.278
 20
171.905
 10
1169.346
 20
172.14
 10
1169.403
 20
172.396
 10
1169.45
 20
172.672
 10
1169.486
 20
172.968
 10
1169.513
 20
173.285
 10
1169.528
 20
173.621
 10
1169.533
 20
173.978
 10
1169.53
 20
174.261
 10
1169.518
 20
174.535
 10
1169.499
 20
174.798
 10
1169.472
 20
175.05
 10
1169.438
 20
175.292
 10
1169.396
 20
175.524
 10
1169.346
 20
175.745
 10
1169.289
 20
175.956
 10
1169.218
 20
176.158
 10
1169.128
 20
176.353
 10
1169.018
 20
176.541
 10
1168.889
 20
176.722
 10
1168.74
 20
176.897
 10
1168.572
 20
177.064
 10
1168.385
 20
177.224
 10
1168.178
 20
177.378
 10
1167.946
 20
177.526
 10
1167.683
 20
177.669
 10
1167.39
 20
177.809
 10
1167.067
 20
177.944
 10
1166.713
 20
178.076
 10
1166.328
 20
178.203
 10
1165.912
 20
178.326
 10
1165.467
 20
178.444
 10
1164.985
 20
178.561
 10
1164.463
 20
178.676
 10
1163.899
 20
178.791
 10
1163.294
 20
178.906
 10
1162.649
 20
179.019
 10
1161.963
 20
179.132
 10
1161.235
 20
179.244
 10
1160.467
 20
179.356
 10
1161.4
 20
185.222
 10
1161.658
 20
185.178
 10
1161.919
 20
185.133
 10
1162.185
 20
185.089
 10
1162.456
 20
185.044
 10
1162.73
 20
185.0
 10
1163.008
 20
184.956
 10
1163.291
 20
184.911
 10
1163.578
 20
184.867
 10
1163.864
 20
184.823
 10
1164.144
 20
184.781
 10
1164.419
 20
184.74
 10
1164.689
 20
184.7
 10
1164.953
 20
184.662
 10
1165.211
 20
184.625
 10
1165.464
 20
184.59
 10
1165.711
 20
184.556
 10
1165.95
 20
184.524
 10
1166.178
 20
184.497
 10
1166.394
 20
184.474
 10
1166.6
 20
184.456
 10
1166.794
 20
184.441
 10
1166.978
 20
184.431
 10
1167.15
 20
184.424
 10
1167.311
 20
184.422
 10
1167.455
 20
184.427
 10
1167.596
 20
184.443
 10
1167.735
 20
184.469
 10
1167.872
 20
184.506
 10
1168.007
 20
184.552
 10
1168.14
 20
184.61
 10
1168.271
 20
184.677
 10
1168.4
 20
184.756
 10
1168.525
 20
184.848
 10
1168.643
 20
184.958
 10
1168.755
 20
185.087
 10
1168.861
 20
185.233
 10
1168.961
 20
185.398
 10
1169.054
 20
185.581
 10
1169.141
 20
185.781
 10
1169.222
 20
186.0
 10
1169.295
 20
186.239
 10
1169.358
 20
186.501
 10
1169.412
 20
186.786
 10
1169.456
 20
187.094
 10
1169.49
 20
187.425
 10
1169.514
 20
187.779
 10
1169.528
 20
188.156
 10
1169.533
 20
188.556
 10
1169.52
 20
189.039
 10
1169.479
 20
189.49
 10
1169.411
 20
189.909
 10
1169.317
 20
190.294
 10
1169.195
 20
190.648
 10
1169.046
 20
190.968
 10
1168.87
 20
191.256
 10
1168.667
 20
191.511
 10
1168.436
 20
191.735
 10
1168.176
 20
191.929
 10
1167.889
 20
192.093
 10
1167.572
 20
192.228
 10
1167.227
 20
192.332
 10
1166.854
 20
192.407
 10
1166.452
 20
192.452
 10
1166.022
 20
192.467
 10
1165.764
 20
192.466
 10
1165.501
 20
192.464
 10
1165.234
 20
192.46
 10
1164.961
 20
192.456
 10
1164.684
 20
192.449
 10
1164.401
 20
192.442
 10
1164.114
 20
192.433
 10
1163.822
 20
192.422
 10
1163.523
 20
192.41
 10
1163.214
 20
192.396
 10
1162.895
 20
192.38
 10
1162.567
 20
192.361
 10
1162.228
 20
192.341
 10
1161.881
 20
192.318
 10
1161.523
 20
192.293
 10
1161.156
 20
192.267
 10
1160.777
 20
192.236
 10
1160.385
 20
192.201
 10
1159.98
 20
192.161
 10
1159.561
 20
192.117
 10
1159.13
 20
192.067
 10
1158.685
 20
192.012
 10
1158.227
 20
191.953
 10
1157.756
 20
191.889
 10
1157.311
 20
197.622
 10
1158.244
 20
197.701
 10
1159.133
 20
197.783
 10
1159.978
 20
197.868
 10
1160.778
 20
197.956
 10
1161.533
 20
198.046
 10
1162.244
 20
198.139
 10
1162.911
 20
198.235
 10
1163.533
 20
198.333
 10
1164.116
 20
198.438
 10
1164.665
 20
198.551
 10
1165.18
 20
198.674
 10
1165.661
 20
198.806
 10
1166.108
 20
198.946
 10
1166.521
 20
199.096
 10
1166.9
 20
199.255
 10
1167.244
 20
199.422
 10
1167.559
 20
199.602
 10
1167.849
 20
199.797
 10
1168.112
 20
200.008
 10
1168.35
 20
200.233
 10
1168.562
 20
200.474
 10
1168.749
 20
200.731
 10
1168.909
 20
201.002
 10
1169.044
 20
201.289
 10
1169.159
 20
201.595
 10
1169.258
 20
201.924
 10
1169.342
 20
202.275
 10
1169.411
 20
202.65
 10
1169.465
 20
203.048
 10
1169.503
 20
203.468
 10
1169.526
 20
203.911
 10
1169.533
 20
204.378
 10
1169.547
 20
204.785
 10
1169.588
 20
205.162
 10
1169.655
 20
205.51
 10
1169.75
 20
205.828
 10
1169.872
 20
206.116
 10
1170.021
 20
206.374
 10
1170.197
 20
206.602
 10
1170.4
 20
206.8
 10
1170.623
 20
206.972
 10
1170.86
 20
207.121
 10
1171.109
 20
207.247
 10
1171.372
 20
207.35
 10
1171.648
 20
207.43
 10
1171.938
 20
207.488
 10
1172.24
 20
207.522
 10
1172.556
 20
207.533
 10
1172.893
 20
207.519
 10
1173.215
 20
207.476
 10
1173.523
 20
207.405
 10
1173.817
 20
207.306
 10
1174.095
 20
207.177
 10
1174.36
 20
207.021
 10
1174.609
 20
206.836
 10
1174.844
 20
206.622
 10
1175.058
 20
206.381
 10
1175.243
 20
206.113
 10
1175.4
 20
205.817
 10
1175.528
 20
205.494
 10
1175.627
 20
205.145
 10
1175.699
 20
204.768
 10
1175.741
 20
204.364
 10
1175.756
 20
203.933
 10
1175.752
 20
203.632
 10
1175.743
 20
203.328
 10
1175.727
 20
203.021
 10
1175.706
 20
202.711
 10
1175.677
 20
202.399
 10
1175.643
 20
202.083
 10
1175.602
 20
201.765
 10
1175.556
 20
201.444
 10
1175.499
 20
201.124
 10
1175.431
 20
200.806
 10
1175.349
 20
200.49
 10
1175.256
 20
200.178
 10
1175.149
 20
199.868
 10
1175.031
 20
199.561
 10
1174.899
 20
199.257
 10
1174.756
 20
198.956
 10
1174.597
 20
198.66
 10
1174.421
 20
198.372
 10
1174.227
 20
198.093
 10
1174.017
 20
197.822
 10
1173.789
 20
197.56
 10
1173.543
 20
197.306
 10
1173.28
 20
197.06
 10
1173.0
 20
196.822
 10
1172.699
 20
196.595
 10
1172.375
 20
196.381
 10
1172.027
 20
196.178
 10
1171.656
 20
195.989
 10
1171.26
 20
195.812
 10
1170.842
 20
195.647
 10
1170.399
 20
195.495
 10
1169.933
 20
195.356
 10
1170.2
 20
196.156
 10
1170.74
 20
195.993
 10
1171.247
 20
195.817
 10
1171.723
 20
195.626
 10
1172.167
 20
195.422
 10
1172.578
 20
195.204
 10
1172.958
 20
194.972
 10
1173.306
 20
194.726
 10
1173.622
 20
194.467
 10
1173.911
 20
194.192
 10
1174.176
 20
193.903
 10
1174.419
 20
193.598
 10
1174.639
 20
193.278
 10
1174.836
 20
192.942
 10
1175.01
 20
192.592
 10
1175.161
 20
192.226
 10
1175.289
 20
191.844
 10
1175.398
 20
191.446
 10
1175.493
 20
191.028
 10
1175.573
 20
190.59
 10
1175.639
 20
190.133
 10
1175.69
 20
189.657
 10
1175.726
 20
189.161
 10
1175.748
 20
188.646
 10
1175.756
 20
188.111
 10
1175.747
 20
187.618
 10
1175.722
 20
187.139
 10
1175.681
 20
186.674
 10
1175.622
 20
186.222
 10
1175.547
 20
185.785
 10
1175.456
 20
185.361
 10
1175.347
 20
184.951
 10
1175.222
 20
184.556
 10
1175.078
 20
184.177
 10
1174.912
 20
183.818
 10
1174.725
 20
183.48
 10
1174.517
 20
183.161
 10
1174.286
 20
182.863
 10
1174.035
 20
182.585
 10
1173.761
 20
182.327
 10
1173.467
 20
182.089
 10
1173.148
 20
181.875
 10
1172.801
 20
181.688
 10
1172.428
 20
181.527
 10
1172.028
 20
181.394
 10
1171.6
 20
181.289
 10
1171.146
 20
181.21
 10
1170.664
 20
181.158
 10
1170.156
 20
181.133
 10
1170.156
 20
182.644
 10
1170.758
 20
182.418
 10
1171.319
 20
182.183
 10
1171.841
 20
181.94
 10
1172.322
 20
181.689
 10
1172.763
 20
181.429
 10
1173.164
 20
181.161
 10
1173.524
 20
180.885
 10
1173.844
 20
180.6
 10
1174.131
 20
180.303
 10
1174.392
 20
179.992
 10
1174.626
 20
179.665
 10
1174.833
 20
179.322
 10
1175.015
 20
178.965
 10
1175.169
 20
178.592
 10
1175.298
 20
178.203
 10
1175.4
 20
177.8
 10
1175.483
 20
177.376
 10
1175.556
 20
176.925
 10
1175.617
 20
176.448
 10
1175.667
 20
175.944
 10
1175.706
 20
175.415
 10
1175.733
 20
174.858
 10
1175.75
 20
174.276
 10
1175.756
 20
173.667
 10
1175.75
 20
173.29
 10
1175.735
 20
172.914
 10
1175.709
 20
172.54
 10
1175.672
 20
172.167
 10
1175.625
 20
171.795
 10
1175.568
 20
171.425
 10
1175.5
 20
171.056
 10
1175.422
 20
170.689
 10
1175.325
 20
170.327
 10
1175.2
 20
169.975
 10
1175.047
 20
169.633
 10
1174.867
 20
169.3
 10
1174.658
 20
168.977
 10
1174.422
 20
168.664
 10
1174.158
 20
168.36
 10
1173.867
 20
168.067
 10
1173.539
 20
167.787
 10
1173.165
 20
167.528
 10
1172.747
 20
167.287
 10
1172.283
 20
167.067
 10
1171.775
 20
166.865
 10
1171.221
 20
166.683
 10
1170.622
 20
166.521
 10
1169.978
 20
166.378
 10
1169.889
 20
168.778
 10
1170.523
 20
168.536
 10
1171.114
 20
168.276
 10
1171.662
 20
168.0
 10
1172.167
 20
167.706
 10
1172.628
 20
167.394
 10
1173.047
 20
167.065
 10
1173.423
 20
166.719
 10
1173.756
 20
166.356
 10
1174.053
 20
165.977
 10
1174.324
 20
165.585
 10
1174.567
 20
165.18
 10
1174.783
 20
164.761
 10
1174.973
 20
164.33
 10
1175.135
 20
163.885
 10
1175.27
 20
163.427
 10
1175.378
 20
162.956
 10
1175.466
 20
162.471
 10
1175.543
 20
161.972
 10
1175.608
 20
161.46
 10
1175.661
 20
160.933
 10
1175.702
 20
160.393
 10
1175.732
 20
159.839
 10
1175.75
 20
159.271
 10
1175.756
 20
158.689
  0
LWPOLYLINE
  5
DC
330
17
100
AcDbEntity
  8
ENGRAVE_V
100
AcDbPolyline
 90
65
 70
1
 10
1156.156
 20
218.244
 10
1156.141
 20
217.928
 10
1156.099
 20
217.624
 10
1156.027
 20
217.331
 10
1155.928
 20
217.05
 10
1155.8
 20
216.781
 10
1155.643
 20
216.524
 10
1155.458
 20
216.278
 10
1155.244
 20
216.044
 10
1155.011
 20
215.831
 10
1154.768
 20
215.646
 10
1154.514
 20
215.489
 10
1154.25
 20
215.361
 10
1153.975
 20
215.261
 10
1153.69
 20
215.19
 10
1153.395
 20
215.148
 10
1153.089
 20
215.133
 10
1152.772
 20
215.148
 10
1152.467
 20
215.19
 10
1152.172
 20
215.261
 10
1151.889
 20
215.361
 10
1151.617
 20
215.489
 10
1151.356
 20
215.646
 10
1151.106
 20
215.831
 10
1150.867
 20
216.044
 10
1150.648
 20
216.278
 10
1150.458
 20
216.524
 10
1150.298
 20
216.781
 10
1150.167
 20
217.05
 10
1150.065
 20
217.331
 10
1149.992
 20
217.624
 10
1149.948
 20
217.928
 10
1149.933
 20
218.244
 10
1149.948
 20
218.55
 10
1149.992
 20
218.844
 10
1150.065
 20
219.128
 10
1150.167
 20
219.4
 10
1150.298
 20
219.661
 10
1150.458
 20
219.911
 10
1150.648
 20
220.15
 10
1150.867
 20
220.378
 10
1151.106
 20
220.586
 10
1151.356
 20
220.767
 10
1151.617
 20
220.919
 10
1151.889
 20
221.044
 10
1152.172
 20
221.142
 10
1152.467
 20
221.211
 10
1152.772
 20
221.253
 10
1153.089
 20
221.267
 10
1153.395
 20
221.253
 10
1153.69
 20
221.211
 10
1153.975
 20
221.142
 10
1154.25
 20
221.044
 10
1154.514
 20
220.919
 10
1154.768
 20
220.767
 10
1155.011
 20
220.586
 10
1155.244
 20
220.378
 10
1155.458
 20
220.15
 10
1155.643
 20
219.911
 10
1155.8
 20
219.661
 10
1155.928
 20
219.4
 10
1156.027
 20
219.128
 10
1156.099
 20
218.844
 10
1156.141
 20
218.55
 10
1156.156
 20
218.244
  0
LWPOLYLINE
  5
DD
330
17
100
AcDbEntity
  8
ENGRAVE_V
100
AcDbPolyline
 90
65
 70
1
 10
1156.111
 20
210.556
 10
1156.097
 20
210.239
 10
1156.054
 20
209.935
 10
1155.983
 20
209.642
 10
1155.883
 20
209.361
 10
1155.755
 20
209.092
 10
1155.599
 20
208.835
 10
1155.414
 20
208.589
 10
1155.2
 20
208.356
 10
1154.967
 20
208.142
 10
1154.724
 20
207.957
 10
1154.47
 20
207.8
 10
1154.206
 20
207.672
 10
1153.931
 20
207.573
 10
1153.646
 20
207.501
 10
1153.35
 20
207.459
 10
1153.044
 20
207.444
 10
1152.728
 20
207.459
 10
1152.422
 20
207.501
 10
1152.128
 20
207.573
 10
1151.844
 20
207.672
 10
1151.572
 20
207.8
 10
1151.311
 20
207.957
 10
1151.061
 20
208.142
 10
1150.822
 20
208.356
 10
1150.603
 20
208.589
 10
1150.414
 20
208.835
 10
1150.253
 20
209.092
 10
1150.122
 20
209.361
 10
1150.02
 20
209.642
 10
1149.947
 20
209.935
 10
1149.903
 20
210.239
 10
1149.889
 20
210.556
 10
1149.903
 20
210.861
 10
1149.947
 20
211.156
 10
1150.02
 20
211.439
 10
1150.122
 20
211.711
 10
1150.253
 20
211.972
 10
1150.414
 20
212.222
 10
1150.603
 20
212.461
 10
1150.822
 20
212.689
 10
1151.061
 20
212.897
 10
1151.311
 20
213.078
 10
1151.572
 20
213.231
 10
1151.844
 20
213.356
 10
1152.128
 20
213.453
 10
1152.422
 20
213.522
 10
1152.728
 20
213.564
 10
1153.044
 20
213.578
 10
1153.35
 20
213.564
 10
1153.646
 20
213.522
 10
1153.931
 20
213.453
 10
1154.206
 20
213.356
 10
1154.47
 20
213.231
 10
1154.724
 20
213.078
 10
1154.967
 20
212.897
 10
1155.2
 20
212.689
 10
1155.414
 20
212.461
 10
1155.599
 20
212.222
 10
1155.755
 20
211.972
 10
1155.883
 20
211.711
 10
1155.983
 20
211.439
 10
1156.054
 20
211.156
 10
1156.097
 20
210.861
 10
1156.111
 20
210.556
  0
LWPOLYLINE
  5
DE
330
17
100
AcDbEntity
  8
ENGRAVE_V
100
AcDbPolyline
 90
188
 70
1
 10
1175.756
 20
203.978
 10
1169.533
 20
204.422
 10
1169.528
 20
204.815
 10
1169.514
 20
205.194
 10
1169.49
 20
205.56
 10
1169.456
 20
205.911
 10
1169.412
 20
206.249
 10
1169.358
 20
206.572
 10
1169.295
 20
206.882
 10
1169.222
 20
207.178
 10
1169.134
 20
207.461
 10
1169.026
 20
207.733
 10
1168.898
 20
207.994
 10
1168.75
 20
208.244
 10
1168.582
 20
208.483
 10
1168.393
 20
208.711
 10
1168.184
 20
208.928
 10
1167.956
 20
209.133
 10
1167.702
 20
209.33
 10
1167.421
 20
209.518
 10
1167.111
 20
209.699
 10
1166.772
 20
209.872
 10
1166.405
 20
210.038
 10
1166.01
 20
210.196
 10
1165.586
 20
210.346
 10
1165.133
 20
210.489
 10
1164.647
 20
210.626
 10
1164.122
 20
210.76
 10
1163.558
 20
210.89
 10
1162.956
 20
211.017
 10
1162.314
 20
211.14
 10
1161.633
 20
211.26
 10
1160.914
 20
211.376
 10
1160.156
 20
211.489
 10
1161.133
 20
217.311
 10
1161.303
 20
217.288
 10
1161.481
 20
217.262
 10
1161.665
 20
217.235
 10
1161.856
 20
217.206
 10
1162.053
 20
217.174
 10
1162.258
 20
217.14
 10
1162.47
 20
217.105
 10
1162.689
 20
217.067
 10
1162.911
 20
217.028
 10
1163.135
 20
216.992
 10
1163.359
 20
216.956
 10
1163.583
 20
216.922
 10
1163.809
 20
216.89
 10
1164.035
 20
216.858
 10
1164.261
 20
216.828
 10
1164.489
 20
216.8
 10
1164.715
 20
216.774
 10
1164.938
 20
216.751
 10
1165.157
 20
216.732
 10
1165.372
 20
216.717
 10
1165.584
 20
216.705
 10
1165.793
 20
216.696
 10
1165.998
 20
216.691
 10
1166.2
 20
216.689
 10
1166.397
 20
216.694
 10
1166.589
 20
216.708
 10
1166.775
 20
216.733
 10
1166.956
 20
216.767
 10
1167.131
 20
216.81
 10
1167.3
 20
216.864
 10
1167.464
 20
216.927
 10
1167.622
 20
217.0
 10
1167.775
 20
217.084
 10
1167.921
 20
217.179
 10
1168.061
 20
217.286
 10
1168.194
 20
217.406
 10
1168.322
 20
217.536
 10
1168.443
 20
217.679
 10
1168.558
 20
217.834
 10
1168.667
 20
218.0
 10
1168.769
 20
218.179
 10
1168.865
 20
218.372
 10
1168.955
 20
218.579
 10
1169.039
 20
218.8
 10
1169.116
 20
219.035
 10
1169.188
 20
219.283
 10
1169.252
 20
219.546
 10
1169.311
 20
219.822
 10
1169.363
 20
220.114
 10
1169.408
 20
220.421
 10
1169.447
 20
220.744
 10
1169.478
 20
221.083
 10
1169.502
 20
221.439
 10
1169.519
 20
221.81
 10
1169.53
 20
222.197
 10
1169.533
 20
222.6
 10
1169.547
 20
223.007
 10
1169.588
 20
223.383
 10
1169.655
 20
223.729
 10
1169.75
 20
224.044
 10
1169.872
 20
224.329
 10
1170.021
 20
224.583
 10
1170.197
 20
224.807
 10
1170.4
 20
225.0
 10
1170.623
 20
225.167
 10
1170.86
 20
225.311
 10
1171.109
 20
225.433
 10
1171.372
 20
225.533
 10
1171.648
 20
225.611
 10
1171.938
 20
225.667
 10
1172.24
 20
225.7
 10
1172.556
 20
225.711
 10
1172.893
 20
225.697
 10
1173.215
 20
225.654
 10
1173.523
 20
225.583
 10
1173.817
 20
225.483
 10
1174.095
 20
225.355
 10
1174.36
 20
225.199
 10
1174.609
 20
225.014
 10
1174.844
 20
224.8
 10
1175.058
 20
224.559
 10
1175.243
 20
224.293
 10
1175.4
 20
224.001
 10
1175.528
 20
223.683
 10
1175.627
 20
223.34
 10
1175.699
 20
222.971
 10
1175.741
 20
222.576
 10
1175.756
 20
222.156
 10
1175.751
 20
221.661
 10
1175.736
 20
221.179
 10
1175.712
 20
220.709
 10
1175.678
 20
220.25
 10
1175.634
 20
219.803
 10
1175.581
 20
219.368
 10
1175.517
 20
218.945
 10
1175.444
 20
218.533
 10
1175.36
 20
218.135
 10
1175.263
 20
217.75
 10
1175.152
 20
217.379
 10
1175.028
 20
217.022
 10
1174.891
 20
216.679
 10
1174.74
 20
216.35
 10
1174.577
 20
216.035
 10
1174.4
 20
215.733
 10
1174.209
 20
215.446
 10
1174.003
 20
215.172
 10
1173.781
 20
214.912
 10
1173.544
 20
214.667
 10
1173.292
 20
214.435
 10
1173.025
 20
214.217
 10
1172.742
 20
214.012
 10
1172.444
 20
213.822
 10
1172.13
 20
213.648
 10
1171.799
 20
213.49
 10
1171.45
 20
213.35
 10
1171.083
 20
213.228
 10
1170.7
 20
213.123
 10
1170.299
 20
213.035
 10
1169.88
 20
212.964
 10
1169.444
 20
212.911
 10
1169.444
 20
215.044
 10
1169.964
 20
214.838
 10
1170.457
 20
214.618
 10
1170.923
 20
214.385
 10
1171.361
 20
214.139
 10
1171.773
 20
213.88
 10
1172.157
 20
213.607
 10
1172.514
 20
213.321
 10
1172.844
 20
213.022
 10
1173.151
 20
212.712
 10
1173.438
 20
212.393
 10
1173.704
 20
212.065
 10
1173.95
 20
211.728
 10
1174.176
 20
211.382
 10
1174.382
 20
211.026
 10
1174.568
 20
210.662
 10
1174.733
 20
210.289
 10
1174.882
 20
209.909
 10
1175.018
 20
209.526
 10
1175.141
 20
209.14
 10
1175.25
 20
208.75
 10
1175.346
 20
208.357
 10
1175.429
 20
207.96
 10
1175.499
 20
207.559
 10
1175.556
 20
207.156
 10
1175.602
 20
206.751
 10
1175.643
 20
206.349
 10
1175.677
 20
205.948
 10
1175.706
 20
205.55
 10
1175.727
 20
205.154
 10
1175.743
 20
204.76
 10
1175.752
 20
204.368
 10
1175.756
 20
203.978
  0
LWPOLYLINE
  5
DF
330
17
100
AcDbEntity
  8
ENGRAVE_V
100
AcDbPolyline
 90
65
 70
1
 10
1185.978
 20
227.622
 10
1185.964
 20
227.306
 10
1185.922
 20
227.001
 10
1185.853
 20
226.709
 10
1185.756
 20
226.428
 10
1185.631
 20
226.159
 10
1185.478
 20
225.901
 10
1185.297
 20
225.656
 10
1185.089
 20
225.422
 10
1184.86
 20
225.209
 10
1184.619
 20
225.024
 10
1184.366
 20
224.867
 10
1184.1
 20
224.739
 10
1183.822
 20
224.639
 10
1183.531
 20
224.568
 10
1183.227
 20
224.525
 10
1182.911
 20
224.511
 10
1182.594
 20
224.525
 10
1182.287
 20
224.568
 10
1181.991
 20
224.639
 10
1181.706
 20
224.739
 10
1181.43
 20
224.867
 10
1181.165
 20
225.024
 10
1180.911
 20
225.209
 10
1180.667
 20
225.422
 10
1180.443
 20
225.656
 10
1180.249
 20
225.901
 10
1180.084
 20
226.159
 10
1179.95
 20
226.428
 10
1179.845
 20
226.709
 10
1179.771
 20
227.001
 10
1179.726
 20
227.306
 10
1179.711
 20
227.622
 10
1179.726
 20
227.939
 10
1179.771
 20
228.243
 10
1179.845
 20
228.536
 10
1179.95
 20
228.817
 10
1180.084
 20
229.086
 10
1180.249
 20
229.343
 10
1180.443
 20
229.589
 10
1180.667
 20
229.822
 10
1180.911
 20
230.036
 10
1181.165
 20
230.221
 10
1181.43
 20
230.377
 10
1181.706
 20
230.506
 10
1181.991
 20
230.605
 10
1182.287
 20
230.676
 10
1182.594
 20
230.719
 10
1182.911
 20
230.733
 10
1183.227
 20
230.719
 10
1183.531
 20
230.676
 10
1183.822
 20
230.605
 10
1184.1
 20
230.506
 10
1184.366
 20
230.377
 10
1184.619
 20
230.221
 10
1184.86
 20
230.036
 10
1185.089
 20
229.822
 10
1185.297
 20
229.589
 10
1185.478
 20
229.343
 10
1185.631
 20
229.086
 10
1185.756
 20
228.817
 10
1185.853
 20
228.536
 10
1185.922
 20
228.243
 10
1185.964
 20
227.939
 10
1185.978
 20
227.622
  0
LWPOLYLINE
  5
E0
330
17
100
AcDbEntity
  8
ENGRAVE_V
100
AcDbPolyline
 90
115
 70
1
 10
1175.756
 20
222.156
 10
1169.533
 20
222.6
 10
1169.529
 20
223.076
 10
1169.517
 20
223.526
 10
1169.496
 20
223.951
 10
1169.467
 20
224.35
 10
1169.429
 20
224.723
 10
1169.383
 20
225.071
 10
1169.329
 20
225.393
 10
1169.267
 20
225.689
 10
1169.193
 20
225.962
 10
1169.104
 20
226.215
 10
1169.001
 20
226.448
 10
1168.883
 20
226.661
 10
1168.751
 20
226.854
 10
1168.604
 20
227.026
 10
1168.443
 20
227.179
 10
1168.267
 20
227.311
 10
1168.073
 20
227.426
 10
1167.86
 20
227.525
 10
1167.626
 20
227.609
 10
1167.372
 20
227.678
 10
1167.098
 20
227.731
 10
1166.804
 20
227.769
 10
1166.49
 20
227.792
 10
1166.156
 20
227.8
 10
1165.837
 20
227.795
 10
1165.503
 20
227.779
 10
1165.153
 20
227.753
 10
1164.789
 20
227.717
 10
1164.409
 20
227.67
 10
1164.014
 20
227.613
 10
1163.603
 20
227.545
 10
1163.178
 20
227.467
 10
1162.742
 20
227.38
 10
1162.303
 20
227.287
 10
1161.859
 20
227.189
 10
1161.411
 20
227.083
 10
1160.959
 20
226.972
 10
1160.503
 20
226.854
 10
1160.042
 20
226.73
 10
1159.578
 20
226.6
 10
1159.116
 20
226.467
 10
1158.664
 20
226.333
 10
1158.222
 20
226.2
 10
1157.789
 20
226.067
 10
1157.366
 20
225.933
 10
1156.953
 20
225.8
 10
1156.549
 20
225.667
 10
1156.156
 20
225.533
 10
1154.467
 20
231.667
 10
1154.852
 20
231.8
 10
1155.253
 20
231.933
 10
1155.669
 20
232.067
 10
1156.1
 20
232.2
 10
1156.547
 20
232.333
 10
1157.008
 20
232.467
 10
1157.485
 20
232.6
 10
1157.978
 20
232.733
 10
1158.48
 20
232.864
 10
1158.985
 20
232.99
 10
1159.493
 20
233.111
 10
1160.006
 20
233.228
 10
1160.521
 20
233.339
 10
1161.04
 20
233.446
 10
1161.563
 20
233.548
 10
1162.089
 20
233.644
 10
1162.614
 20
233.733
 10
1163.135
 20
233.81
 10
1163.65
 20
233.875
 10
1164.161
 20
233.928
 10
1164.667
 20
233.969
 10
1165.168
 20
233.999
 10
1165.664
 20
234.016
 10
1166.156
 20
234.022
 10
1166.755
 20
234.012
 10
1167.329
 20
233.983
 10
1167.88
 20
233.935
 10
1168.406
 20
233.867
 10
1168.907
 20
233.779
 10
1169.385
 20
233.672
 10
1169.838
 20
233.546
 10
1170.267
 20
233.4
 10
1170.674
 20
233.237
 10
1171.064
 20
233.06
 10
1171.435
 20
232.868
 10
1171.789
 20
232.661
 10
1172.124
 20
232.44
 10
1172.442
 20
232.204
 10
1172.741
 20
231.954
 10
1173.022
 20
231.689
 10
1173.287
 20
231.41
 10
1173.536
 20
231.119
 10
1173.77
 20
230.816
 10
1173.989
 20
230.5
 10
1174.192
 20
230.172
 10
1174.381
 20
229.831
 10
1174.553
 20
229.477
 10
1174.711
 20
229.111
 10
1174.855
 20
228.734
 10
1174.987
 20
228.349
 10
1175.108
 20
227.954
 10
1175.217
 20
227.55
 10
1175.314
 20
227.137
 10
1175.399
 20
226.715
 10
1175.472
 20
226.284
 10
1175.533
 20
225.844
 10
1175.585
 20
225.398
 10
1175.631
 20
224.947
 10
1175.669
 20
224.492
 10
1175.7
 20
224.033
 10
1175.724
 20
223.57
 10
1175.742
 20
223.103
 10
1175.752
 20
222.631
 10
1175.756
 20
222.156
  0
LWPOLYLINE
  5
E1
330
17
100
AcDbEntity
  8
ENGRAVE_V
100
AcDbPolyline
 90
5
 70
1
 10
1175.533
 20
239.8
 10
1143.0
 20
238.867
 10
1143.0
 20
245.089
 10
1175.533
 20
246.022
 10
1175.533
 20
239.8
  0
TEXT
  5
E2
330
17
100
AcDbEntity
  8
LABELS
100
AcDbText
 10
918.0
 20
188.0
 30
0.0
 40
14.0
  1
Front panel — Neon
 72
1
 11
918.0
 21
188.0
 31
0.0
100
AcDbText
 73
2
  0
LWPOLYLINE
  5
E3
330
17
100
AcDbEntity
  8
CUT_OUTSIDE
100
AcDbPolyline
 90
4
 70
1
 10
1608.0
 20
738.0
 10
8.0
 20
738.0
 10
8.0
 20
378.0
 10
1608.0
 20
378.0
  0
CIRCLE
  5
E4
330
17
100
AcDbEntity
  8
CUT_INSIDE
100
AcDbCircle
 10
758.0
 20
668.0
 30
0.0
 40
14.0
  0
CIRCLE
  5
E5
330
17
100
AcDbEntity
  8
CUT_INSIDE
100
AcDbCircle
 10
1418.0
 20
668.0
 30
0.0
 40
14.0
  0
LWPOLYLINE
  5
E6
330
17
100
AcDbEntity
  8
CUT_INSIDE
100
AcDbPolyline
 90
50
 70
1
 10
53.0
 20
461.0
 10
52.347
 20
461.043
 10
51.706
 20
461.17
 10
51.087
 20
461.381
 10
50.5
 20
461.67
 10
49.956
 20
462.033
 10
49.464
 20
462.464
 10
49.033
 20
462.956
 10
48.67
 20
463.5
 10
48.381
 20
464.087
 10
48.17
 20
464.706
 10
48.043
 20
465.347
 10
48.0
 20
466.0
 10
48.043
 20
466.653
 10
48.17
 20
467.294
 10
48.381
 20
467.913
 10
48.67
 20
468.5
 10
49.033
 20
469.044
 10
49.464
 20
469.536
 10
49.956
 20
469.967
 10
50.5
 20
470.33
 10
51.087
 20
470.619
 10
51.706
 20
470.83
 10
52.347
 20
470.957
 10
53.0
 20
471.0
 10
123.0
 20
471.0
 10
123.653
 20
470.957
 10
124.294
 20
470.83
 10
124.913
 20
470.619
 10
125.5
 20
470.33
 10
126.044
 20
469.967
 10
126.536
 20
469.536
 10
126.967
 20
469.044
 10
127.33
 20
468.5
 10
127.619
 20
467.913
 10
127.83
 20
467.294
 10
127.957
 20
466.653
 10
128.0
 20
466.0
 10
127.957
 20
465.347
 10
127.83
 20
464.706
 10
127.619
 20
464.087
 10
127.33
 20
463.5
 10
126.967
 20
462.956
 10
126.536
 20
462.464
 10
126.044
 20
462.033
 10
125.5
 20
461.67
 10
124.913
 20
461.381
 10
124.294
 20
461.17
 10
123.653
 20
461.043
 10
123.0
 20
461.0
  0
LWPOLYLINE
  5
E7
330
17
100
AcDbEntity
  8
CUT_INSIDE
100
AcDbPolyline
 90
50
 70
1
 10
1453.0
 20
461.0
 10
1452.347
 20
461.043
 10
1451.706
 20
461.17
 10
1451.087
 20
461.381
 10
1450.5
 20
461.67
 10
1449.956
 20
462.033
 10
1449.464
 20
462.464
 10
1449.033
 20
462.956
 10
1448.67
 20
463.5
 10
1448.381
 20
464.087
 10
1448.17
 20
464.706
 10
1448.043
 20
465.347
 10
1448.0
 20
466.0
 10
1448.043
 20
466.653
 10
1448.17
 20
467.294
 10
1448.381
 20
467.913
 10
1448.67
 20
468.5
 10
1449.033
 20
469.044
 10
1449.464
 20
469.536
 10
1449.956
 20
469.967
 10
1450.5
 20
470.33
 10
1451.087
 20
470.619
 10
1451.706
 20
470.83
 10
1452.347
 20
470.957
 10
1453.0
 20
471.0
 10
1513.0
 20
471.0
 10
1513.653
 20
470.957
 10
1514.294
 20
470.83
 10
1514.913
 20
470.619
 10
1515.5
 20
470.33
 10
1516.044
 20
469.967
 10
1516.536
 20
469.536
 10
1516.967
 20
469.044
 10
1517.33
 20
468.5
 10
1517.619
 20
467.913
 10
1517.83
 20
467.294
 10
1517.957
 20
466.653
 10
1518.0
 20
466.0
 10
1517.957
 20
465.347
 10
1517.83
 20
464.706
 10
1517.619
 20
464.087
 10
1517.33
 20
463.5
 10
1516.967
 20
462.956
 10
1516.536
 20
462.464
 10
1516.044
 20
462.033
 10
1515.5
 20
461.67
 10
1514.913
 20
461.381
 10
1514.294
 20
461.17
 10
1513.653
 20
461.043
 10
1513.0
 20
461.0
  0
LWPOLYLINE
  5
E8
330
17
100
AcDbEntity
  8
CUT_INSIDE
100
AcDbPolyline
 90
50
 70
1
 10
53.0
 20
506.0
 10
52.347
 20
506.043
 10
51.706
 20
506.17
 10
51.087
 20
506.381
 10
50.5
 20
506.67
 10
49.956
 20
507.033
 10
49.464
 20
507.464
 10
49.033
 20
507.956
 10
48.67
 20
508.5
 10
48.381
 20
509.087
 10
48.17
 20
509.706
 10
48.043
 20
510.347
 10
48.0
 20
511.0
 10
48.043
 20
511.653
 10
48.17
 20
512.294
 10
48.381
 20
512.913
 10
48.67
 20
513.5
 10
49.033
 20
514.044
 10
49.464
 20
514.536
 10
49.956
 20
514.967
 10
50.5
 20
515.33
 10
51.087
 20
515.619
 10
51.706
 20
515.83
 10
52.347
 20
515.957
 10
53.0
 20
516.0
 10
123.0
 20
516.0
 10
123.653
 20
515.957
 10
124.294
 20
515.83
 10
124.913
 20
515.619
 10
125.5
 20
515.33
 10
126.044
 20
514.967
 10
126.536
 20
514.536
 10
126.967
 20
514.044
 10
127.33
 20
513.5
 10
127.619
 20
512.913
 10
127.83
 20
512.294
 10
127.957
 20
511.653
 10
128.0
 20
511.0
 10
127.957
 20
510.347
 10
127.83
 20
509.706
 10
127.619
 20
509.087
 10
127.33
 20
508.5
 10
126.967
 20
507.956
 10
126.536
 20
507.464
 10
126.044
 20
507.033
 10
125.5
 20
506.67
 10
124.913
 20
506.381
 10
124.294
 20
506.17
 10
123.653
 20
506.043
 10
123.0
 20
506.0
  0
LWPOLYLINE
  5
E9
330
17
100
AcDbEntity
  8
CUT_INSIDE
100
AcDbPolyline
 90
50
 70
1
 10
1453.0
 20
506.0
 10
1452.347
 20
506.043
 10
1451.706
 20
506.17
 10
1451.087
 20
506.381
 10
1450.5
 20
506.67
 10
1449.956
 20
507.033
 10
1449.464
 20
507.464
 10
1449.033
 20
507.956
 10
1448.67
 20
508.5
 10
1448.381
 20
509.087
 10
1448.17
 20
509.706
 10
1448.043
 20
510.347
 10
1448.0
 20
511.0
 10
1448.043
 20
511.653
 10
1448.17
 20
512.294
 10
1448.381
 20
512.913
 10
1448.67
 20
513.5
 10
1449.033
 20
514.044
 10
1449.464
 20
514.536
 10
1449.956
 20
514.967
 10
1450.5
 20
515.33
 10
1451.087
 20
515.619
 10
1451.706
 20
515.83
 10
1452.347
 20
515.957
 10
1453.0
 20
516.0
 10
1513.0
 20
516.0
 10
1513.653
 20
515.957
 10
1514.294
 20
515.83
 10
1514.913
 20
515.619
 10
1515.5
 20
515.33
 10
1516.044
 20
514.967
 10
1516.536
 20
514.536
 10
1516.967
 20
514.044
 10
1517.33
 20
513.5
 10
1517.619
 20
512.913
 10
1517.83
 20
512.294
 10
1517.957
 20
511.653
 10
1518.0
 20
511.0
 10
1517.957
 20
510.347
 10
1517.83
 20
509.706
 10
1517.619
 20
509.087
 10
1517.33
 20
508.5
 10
1516.967
 20
507.956
 10
1516.536
 20
507.464
 10
1516.044
 20
507.033
 10
1515.5
 20
506.67
 10
1514.913
 20
506.381
 10
1514.294
 20
506.17
 10
1513.653
 20
506.043
 10
1513.0
 20
506.0
  0
LWPOLYLINE
  5
EA
330
17
100
AcDbEntity
  8
CUT_INSIDE
100
AcDbPolyline
 90
50
 70
1
 10
53.0
 20
551.0
 10
52.347
 20
551.043
 10
51.706
 20
551.17
 10
51.087
 20
551.381
 10
50.5
 20
551.67
 10
49.956
 20
552.033
 10
49.464
 20
552.464
 10
49.033
 20
552.956
 10
48.67
 20
553.5
 10
48.381
 20
554.087
 10
48.17
 20
554.706
 10
48.043
 20
555.347
 10
48.0
 20
556.0
 10
48.043
 20
556.653
 10
48.17
 20
557.294
 10
48.381
 20
557.913
 10
48.67
 20
558.5
 10
49.033
 20
559.044
 10
49.464
 20
559.536
 10
49.956
 20
559.967
 10
50.5
 20
560.33
 10
51.087
 20
560.619
 10
51.706
 20
560.83
 10
52.347
 20
560.957
 10
53.0
 20
561.0
 10
123.0
 20
561.0
 10
123.653
 20
560.957
 10
124.294
 20
560.83
 10
124.913
 20
560.619
 10
125.5
 20
560.33
 10
126.044
 20
559.967
 10
126.536
 20
559.536
 10
126.967
 20
559.044
 10
127.33
 20
558.5
 10
127.619
 20
557.913
 10
127.83
 20
557.294
 10
127.957
 20
556.653
 10
128.0
 20
556.0
 10
127.957
 20
555.347
 10
127.83
 20
554.706
 10
127.619
 20
554.087
 10
127.33
 20
553.5
 10
126.967
 20
552.956
 10
126.536
 20
552.464
 10
126.044
 20
552.033
 10
125.5
 20
551.67
 10
124.913
 20
551.381
 10
124.294
 20
551.17
 10
123.653
 20
551.043
 10
123.0
 20
551.0
  0
LWPOLYLINE
  5
EB
330
17
100
AcDbEntity
  8
CUT_INSIDE
100
AcDbPolyline
 90
50
 70
1
 10
1453.0
 20
551.0
 10
1452.347
 20
551.043
 10
1451.706
 20
551.17
 10
1451.087
 20
551.381
 10
1450.5
 20
551.67
 10
1449.956
 20
552.033
 10
1449.464
 20
552.464
 10
1449.033
 20
552.956
 10
1448.67
 20
553.5
 10
1448.381
 20
554.087
 10
1448.17
 20
554.706
 10
1448.043
 20
555.347
 10
1448.0
 20
556.0
 10
1448.043
 20
556.653
 10
1448.17
 20
557.294
 10
1448.381
 20
557.913
 10
1448.67
 20
558.5
 10
1449.033
 20
559.044
 10
1449.464
 20
559.536
 10
1449.956
 20
559.967
 10
1450.5
 20
560.33
 10
1451.087
 20
560.619
 10
1451.706
 20
560.83
 10
1452.347
 20
560.957
 10
1453.0
 20
561.0
 10
1513.0
 20
561.0
 10
1513.653
 20
560.957
 10
1514.294
 20
560.83
 10
1514.913
 20
560.619
 10
1515.5
 20
560.33
 10
1516.044
 20
559.967
 10
1516.536
 20
559.536
 10
1516.967
 20
559.044
 10
1517.33
 20
558.5
 10
1517.619
 20
557.913
 10
1517.83
 20
557.294
 10
1517.957
 20
556.653
 10
1518.0
 20
556.0
 10
1517.957
 20
555.347
 10
1517.83
 20
554.706
 10
1517.619
 20
554.087
 10
1517.33
 20
553.5
 10
1516.967
 20
552.956
 10
1516.536
 20
552.464
 10
1516.044
 20
552.033
 10
1515.5
 20
551.67
 10
1514.913
 20
551.381
 10
1514.294
 20
551.17
 10
1513.653
 20
551.043
 10
1513.0
 20
551.0
  0
LWPOLYLINE
  5
EC
330
17
100
AcDbEntity
  8
CUT_INSIDE
100
AcDbPolyline
 90
50
 70
1
 10
53.0
 20
596.0
 10
52.347
 20
596.043
 10
51.706
 20
596.17
 10
51.087
 20
596.381
 10
50.5
 20
596.67
 10
49.956
 20
597.033
 10
49.464
 20
597.464
 10
49.033
 20
597.956
 10
48.67
 20
598.5
 10
48.381
 20
599.087
 10
48.17
 20
599.706
 10
48.043
 20
600.347
 10
48.0
 20
601.0
 10
48.043
 20
601.653
 10
48.17
 20
602.294
 10
48.381
 20
602.913
 10
48.67
 20
603.5
 10
49.033
 20
604.044
 10
49.464
 20
604.536
 10
49.956
 20
604.967
 10
50.5
 20
605.33
 10
51.087
 20
605.619
 10
51.706
 20
605.83
 10
52.347
 20
605.957
 10
53.0
 20
606.0
 10
123.0
 20
606.0
 10
123.653
 20
605.957
 10
124.294
 20
605.83
 10
124.913
 20
605.619
 10
125.5
 20
605.33
 10
126.044
 20
604.967
 10
126.536
 20
604.536
 10
126.967
 20
604.044
 10
127.33
 20
603.5
 10
127.619
 20
602.913
 10
127.83
 20
602.294
 10
127.957
 20
601.653
 10
128.0
 20
601.0
 10
127.957
 20
600.347
 10
127.83
 20
599.706
 10
127.619
 20
599.087
 10
127.33
 20
598.5
 10
126.967
 20
597.956
 10
126.536
 20
597.464
 10
126.044
 20
597.033
 10
125.5
 20
596.67
 10
124.913
 20
596.381
 10
124.294
 20
596.17
 10
123.653
 20
596.043
 10
123.0
 20
596.0
  0
LWPOLYLINE
  5
ED
330
17
100
AcDbEntity
  8
CUT_INSIDE
100
AcDbPolyline
 90
50
 70
1
 10
1453.0
 20
596.0
 10
1452.347
 20
596.043
 10
1451.706
 20
596.17
 10
1451.087
 20
596.381
 10
1450.5
 20
596.67
 10
1449.956
 20
597.033
 10
1449.464
 20
597.464
 10
1449.033
 20
597.956
 10
1448.67
 20
598.5
 10
1448.381
 20
599.087
 10
1448.17
 20
599.706
 10
1448.043
 20
600.347
 10
1448.0
 20
601.0
 10
1448.043
 20
601.653
 10
1448.17
 20
602.294
 10
1448.381
 20
602.913
 10
1448.67
 20
603.5
 10
1449.033
 20
604.044
 10
1449.464
 20
604.536
 10
1449.956
 20
604.967
 10
1450.5
 20
605.33
 10
1451.087
 20
605.619
 10
1451.706
 20
605.83
 10
1452.347
 20
605.957
 10
1453.0
 20
606.0
 10
1513.0
 20
606.0
 10
1513.653
 20
605.957
 10
1514.294
 20
605.83
 10
1514.913
 20
605.619
 10
1515.5
 20
605.33
 10
1516.044
 20
604.967
 10
1516.536
 20
604.536
 10
1516.967
 20
604.044
 10
1517.33
 20
603.5
 10
1517.619
 20
602.913
 10
1517.83
 20
602.294
 10
1517.957
 20
601.653
 10
1518.0
 20
601.0
 10
1517.957
 20
600.347
 10
1517.83
 20
599.706
 10
1517.619
 20
599.087
 10
1517.33
 20
598.5
 10
1516.967
 20
597.956
 10
1516.536
 20
597.464
 10
1516.044
 20
597.033
 10
1515.5
 20
596.67
 10
1514.913
 20
596.381
 10
1514.294
 20
596.17
 10
1513.653
 20
596.043
 10
1513.0
 20
596.0
  0
LWPOLYLINE
  5
EE
330
17
100
AcDbEntity
  8
CUT_INSIDE
100
AcDbPolyline
 90
50
 70
1
 10
53.0
 20
641.0
 10
52.347
 20
641.043
 10
51.706
 20
641.17
 10
51.087
 20
641.381
 10
50.5
 20
641.67
 10
49.956
 20
642.033
 10
49.464
 20
642.464
 10
49.033
 20
642.956
 10
48.67
 20
643.5
 10
48.381
 20
644.087
 10
48.17
 20
644.706
 10
48.043
 20
645.347
 10
48.0
 20
646.0
 10
48.043
 20
646.653
 10
48.17
 20
647.294
 10
48.381
 20
647.913
 10
48.67
 20
648.5
 10
49.033
 20
649.044
 10
49.464
 20
649.536
 10
49.956
 20
649.967
 10
50.5
 20
650.33
 10
51.087
 20
650.619
 10
51.706
 20
650.83
 10
52.347
 20
650.957
 10
53.0
 20
651.0
 10
123.0
 20
651.0
 10
123.653
 20
650.957
 10
124.294
 20
650.83
 10
124.913
 20
650.619
 10
125.5
 20
650.33
 10
126.044
 20
649.967
 10
126.536
 20
649.536
 10
126.967
 20
649.044
 10
127.33
 20
648.5
 10
127.619
 20
647.913
 10
127.83
 20
647.294
 10
127.957
 20
646.653
 10
128.0
 20
646.0
 10
127.957
 20
645.347
 10
127.83
 20
644.706
 10
127.619
 20
644.087
 10
127.33
 20
643.5
 10
126.967
 20
642.956
 10
126.536
 20
642.464
 10
126.044
 20
642.033
 10
125.5
 20
641.67
 10
124.913
 20
641.381
 10
124.294
 20
641.17
 10
123.653
 20
641.043
 10
123.0
 20
641.0
  0
LWPOLYLINE
  5
EF
330
17
100
AcDbEntity
  8
CUT_INSIDE
100
AcDbPolyline
 90
50
 70
1
 10
1453.0
 20
641.0
 10
1452.347
 20
641.043
 10
1451.706
 20
641.17
 10
1451.087
 20
641.381
 10
1450.5
 20
641.67
 10
1449.956
 20
642.033
 10
1449.464
 20
642.464
 10
1449.033
 20
642.956
 10
1448.67
 20
643.5
 10
1448.381
 20
644.087
 10
1448.17
 20
644.706
 10
1448.043
 20
645.347
 10
1448.0
 20
646.0
 10
1448.043
 20
646.653
 10
1448.17
 20
647.294
 10
1448.381
 20
647.913
 10
1448.67
 20
648.5
 10
1449.033
 20
649.044
 10
1449.464
 20
649.536
 10
1449.956
 20
649.967
 10
1450.5
 20
650.33
 10
1451.087
 20
650.619
 10
1451.706
 20
650.83
 10
1452.347
 20
650.957
 10
1453.0
 20
651.0
 10
1513.0
 20
651.0
 10
1513.653
 20
650.957
 10
1514.294
 20
650.83
 10
1514.913
 20
650.619
 10
1515.5
 20
650.33
 10
1516.044
 20
649.967
 10
1516.536
 20
649.536
 10
1516.967
 20
649.044
 10
1517.33
 20
648.5
 10
1517.619
 20
647.913
 10
1517.83
 20
647.294
 10
1517.957
 20
646.653
 10
1518.0
 20
646.0
 10
1517.957
 20
645.347
 10
1517.83
 20
644.706
 10
1517.619
 20
644.087
 10
1517.33
 20
643.5
 10
1516.967
 20
642.956
 10
1516.536
 20
642.464
 10
1516.044
 20
642.033
 10
1515.5
 20
641.67
 10
1514.913
 20
641.381
 10
1514.294
 20
641.17
 10
1513.653
 20
641.043
 10
1513.0
 20
641.0
  0
LWPOLYLINE
  5
F0
330
17
100
AcDbEntity
  8
CUT_DOOR
100
AcDbPolyline
 90
4
 70
1
 10
1213.0
 20
698.0
 10
296.0
 20
698.0
 10
296.0
 20
418.0
 10
1213.0
 20
418.0
  0
LWPOLYLINE
  5
F1
330
17
100
AcDbEntity
  8
CUT_DOOR
100
AcDbPolyline
 90
4
 70
1
 10
1568.0
 20
698.0
 10
1268.0
 20
698.0
 10
1268.0
 20
418.0
 10
1568.0
 20
418.0
  0
CIRCLE
  5
F2
330
17
100
AcDbEntity
  8
DRILL_7
100
AcDbCircle
 10
1548.0
 20
387.0
 30
0.0
 40
3.5
  0
CIRCLE
  5
F3
330
17
100
AcDbEntity
  8
DRILL_7
100
AcDbCircle
 10
1548.0
 20
729.0
 30
0.0
 40
3.5
  0
CIRCLE
  5
F4
330
17
100
AcDbEntity
  8
DRILL_7
100
AcDbCircle
 10
1358.0
 20
387.0
 30
0.0
 40
3.5
  0
CIRCLE
  5
F5
330
17
100
AcDbEntity
  8
DRILL_7
100
AcDbCircle
 10
1358.0
 20
729.0
 30
0.0
 40
3.5
  0
CIRCLE
  5
F6
330
17
100
AcDbEntity
  8
DRILL_7
100
AcDbCircle
 10
1128.0
 20
387.0
 30
0.0
 40
3.5
  0
CIRCLE
  5
F7
330
17
100
AcDbEntity
  8
DRILL_7
100
AcDbCircle
 10
1128.0
 20
729.0
 30
0.0
 40
3.5
  0
CIRCLE
  5
F8
330
17
100
AcDbEntity
  8
DRILL_7
100
AcDbCircle
 10
888.0
 20
387.0
 30
0.0
 40
3.5
  0
CIRCLE
  5
F9
330
17
100
AcDbEntity
  8
DRILL_7
100
AcDbCircle
 10
888.0
 20
729.0
 30
0.0
 40
3.5
  0
CIRCLE
  5
FA
330
17
100
AcDbEntity
  8
DRILL_7
100
AcDbCircle
 10
648.0
 20
387.0
 30
0.0
 40
3.5
  0
CIRCLE
  5
FB
330
17
100
AcDbEntity
  8
DRILL_7
100
AcDbCircle
 10
648.0
 20
729.0
 30
0.0
 40
3.5
  0
CIRCLE
  5
FC
330
17
100
AcDbEntity
  8
DRILL_7
100
AcDbCircle
 10
408.0
 20
387.0
 30
0.0
 40
3.5
  0
CIRCLE
  5
FD
330
17
100
AcDbEntity
  8
DRILL_7
100
AcDbCircle
 10
408.0
 20
729.0
 30
0.0
 40
3.5
  0
CIRCLE
  5
FE
330
17
100
AcDbEntity
  8
DRILL_7
100
AcDbCircle
 10
188.0
 20
387.0
 30
0.0
 40
3.5
  0
CIRCLE
  5
FF
330
17
100
AcDbEntity
  8
DRILL_7
100
AcDbCircle
 10
188.0
 20
729.0
 30
0.0
 40
3.5
  0
CIRCLE
  5
100
330
17
100
AcDbEntity
  8
DRILL_7
100
AcDbCircle
 10
68.0
 20
387.0
 30
0.0
 40
3.5
  0
CIRCLE
  5
101
330
17
100
AcDbEntity
  8
DRILL_7
100
AcDbCircle
 10
68.0
 20
729.0
 30
0.0
 40
3.5
  0
CIRCLE
  5
102
330
17
100
AcDbEntity
  8
DRILL_7
100
AcDbCircle
 10
1599.0
 20
448.0
 30
0.0
 40
3.5
  0
CIRCLE
  5
103
330
17
100
AcDbEntity
  8
DRILL_7
100
AcDbCircle
 10
1599.0
 20
668.0
 30
0.0
 40
3.5
  0
CIRCLE
  5
104
330
17
100
AcDbEntity
  8
DRILL_7
100
AcDbCircle
 10
1237.0
 20
448.0
 30
0.0
 40
3.5
  0
CIRCLE
  5
105
330
17
100
AcDbEntity
  8
DRILL_7
100
AcDbCircle
 10
1237.0
 20
668.0
 30
0.0
 40
3.5
  0
CIRCLE
  5
106
330
17
100
AcDbEntity
  8
DRILL_7
100
AcDbCircle
 10
272.0
 20
448.0
 30
0.0
 40
3.5
  0
CIRCLE
  5
107
330
17
100
AcDbEntity
  8
DRILL_7
100
AcDbCircle
 10
272.0
 20
668.0
 30
0.0
 40
3.5
  0
CIRCLE
  5
108
330
17
100
AcDbEntity
  8
DRILL_7
100
AcDbCircle
 10
17.0
 20
448.0
 30
0.0
 40
3.5
  0
CIRCLE
  5
109
330
17
100
AcDbEntity
  8
DRILL_7
100
AcDbCircle
 10
17.0
 20
668.0
 30
0.0
 40
3.5
  0
CIRCLE
  5
10A
330
17
100
AcDbEntity
  8
DRILL_7
100
AcDbCircle
 10
1237.0
 20
558.0
 30
0.0
 40
3.5
  0
CIRCLE
  5
10B
330
17
100
AcDbEntity
  8
DRILL_7
100
AcDbCircle
 10
272.0
 20
558.0
 30
0.0
 40
3.5
  0
CIRCLE
  5
10C
330
17
100
AcDbEntity
  8
DRILL_7
100
AcDbCircle
 10
17.0
 20
558.0
 30
0.0
 40
3.5
  0
TEXT
  5
10D
330
17
100
AcDbEntity
  8
LABELS
100
AcDbText
 10
808.0
 20
558.0
 30
0.0
 40
14.0
  1
Back panel (with 2 doors)
 72
1
 11
808.0
 21
558.0
 31
0.0
100
AcDbText
 73
2
  0
LWPOLYLINE
  5
10E
330
17
100
AcDbEntity
  8
CUT_OUTSIDE
100
AcDbPolyline
 90
4
 70
1
 10
1608.0
 20
972.0
 10
8.0
 20
972.0
 10
8.0
 20
748.0
 10
1608.0
 20
748.0
  0
LWPOLYLINE
  5
10F
330
17
100
AcDbEntity
  8
CUT_INSIDE
100
AcDbPolyline
 90
50
 70
1
 10
494.0
 20
903.0
 10
494.145
 20
905.219
 10
494.579
 20
907.4
 10
495.294
 20
909.506
 10
496.278
 20
911.5
 10
497.513
 20
913.349
 10
498.979
 20
915.021
 10
500.651
 20
916.487
 10
502.5
 20
917.722
 10
504.494
 20
918.706
 10
506.6
 20
919.421
 10
508.781
 20
919.855
 10
511.0
 20
920.0
 10
513.219
 20
919.855
 10
515.4
 20
919.421
 10
517.506
 20
918.706
 10
519.5
 20
917.722
 10
521.349
 20
916.487
 10
523.021
 20
915.021
 10
524.487
 20
913.349
 10
525.722
 20
911.5
 10
526.706
 20
909.506
 10
527.421
 20
907.4
 10
527.855
 20
905.219
 10
528.0
 20
903.0
 10
528.0
 20
817.0
 10
527.855
 20
814.781
 10
527.421
 20
812.6
 10
526.706
 20
810.494
 10
525.722
 20
808.5
 10
524.487
 20
806.651
 10
523.021
 20
804.979
 10
521.349
 20
803.513
 10
519.5
 20
802.278
 10
517.506
 20
801.294
 10
515.4
 20
800.579
 10
513.219
 20
800.145
 10
511.0
 20
800.0
 10
508.781
 20
800.145
 10
506.6
 20
800.579
 10
504.494
 20
801.294
 10
502.5
 20
802.278
 10
500.651
 20
803.513
 10
498.979
 20
804.979
 10
497.513
 20
806.651
 10
496.278
 20
808.5
 10
495.294
 20
810.494
 10
494.579
 20
812.6
 10
494.145
 20
814.781
 10
494.0
 20
817.0
  0
CIRCLE
  5
110
330
17
100
AcDbEntity
  8
CUT_INSIDE
100
AcDbCircle
 10
1538.0
 20
860.0
 30
0.0
 40
22.0
  0
CIRCLE
  5
111
330
17
100
AcDbEntity
  8
DRILL_7
100
AcDbCircle
 10
1599.0
 20
793.0
 30
0.0
 40
3.5
  0
CIRCLE
  5
112
330
17
100
AcDbEntity
  8
DRILL_7
100
AcDbCircle
 10
1599.0
 20
860.0
 30
0.0
 40
3.5
  0
CIRCLE
  5
113
330
17
100
AcDbEntity
  8
DRILL_7
100
AcDbCircle
 10
1599.0
 20
927.0
 30
0.0
 40
3.5
  0
CIRCLE
  5
114
330
17
100
AcDbEntity
  8
DRILL_7
100
AcDbCircle
 10
1237.0
 20
793.0
 30
0.0
 40
3.5
  0
CIRCLE
  5
115
330
17
100
AcDbEntity
  8
DRILL_7
100
AcDbCircle
 10
1237.0
 20
860.0
 30
0.0
 40
3.5
  0
CIRCLE
  5
116
330
17
100
AcDbEntity
  8
DRILL_7
100
AcDbCircle
 10
1237.0
 20
927.0
 30
0.0
 40
3.5
  0
CIRCLE
  5
117
330
17
100
AcDbEntity
  8
DRILL_7
100
AcDbCircle
 10
272.0
 20
793.0
 30
0.0
 40
3.5
  0
CIRCLE
  5
118
330
17
100
AcDbEntity
  8
DRILL_7
100
AcDbCircle
 10
272.0
 20
860.0
 30
0.0
 40
3.5
  0
CIRCLE
  5
119
330
17
100
AcDbEntity
  8
DRILL_7
100
AcDbCircle
 10
272.0
 20
927.0
 30
0.0
 40
3.5
  0
CIRCLE
  5
11A
330
17
100
AcDbEntity
  8
DRILL_7
100
AcDbCircle
 10
17.0
 20
793.0
 30
0.0
 40
3.5
  0
CIRCLE
  5
11B
330
17
100
AcDbEntity
  8
DRILL_7
100
AcDbCircle
 10
17.0
 20
860.0
 30
0.0
 40
3.5
  0
CIRCLE
  5
11C
330
17
100
AcDbEntity
  8
DRILL_7
100
AcDbCircle
 10
17.0
 20
927.0
 30
0.0
 40
3.5
  0
TEXT
  5
11D
330
17
100
AcDbEntity
  8
LABELS
100
AcDbText
 10
808.0
 20
860.0
 30
0.0
 40
14.0
  1
Side panel 1
 72
1
 11
808.0
 21
860.0
 31
0.0
100
AcDbText
 73
2
  0
LWPOLYLINE
  5
11E
330
17
100
AcDbEntity
  8
CUT_OUTSIDE
100
AcDbPolyline
 90
4
 70
1
 10
1608.0
 20
1206.0
 10
8.0
 20
1206.0
 10
8.0
 20
982.0
 10
1608.0
 20
982.0
  0
LWPOLYLINE
  5
11F
330
17
100
AcDbEntity
  8
CUT_INSIDE
100
AcDbPolyline
 90
50
 70
1
 10
494.0
 20
1137.0
 10
494.145
 20
1139.219
 10
494.579
 20
1141.4
 10
495.294
 20
1143.506
 10
496.278
 20
1145.5
 10
497.513
 20
1147.349
 10
498.979
 20
1149.021
 10
500.651
 20
1150.487
 10
502.5
 20
1151.722
 10
504.494
 20
1152.706
 10
506.6
 20
1153.421
 10
508.781
 20
1153.855
 10
511.0
 20
1154.0
 10
513.219
 20
1153.855
 10
515.4
 20
1153.421
 10
517.506
 20
1152.706
 10
519.5
 20
1151.722
 10
521.349
 20
1150.487
 10
523.021
 20
1149.021
 10
524.487
 20
1147.349
 10
525.722
 20
1145.5
 10
526.706
 20
1143.506
 10
527.421
 20
1141.4
 10
527.855
 20
1139.219
 10
528.0
 20
1137.0
 10
528.0
 20
1051.0
 10
527.855
 20
1048.781
 10
527.421
 20
1046.6
 10
526.706
 20
1044.494
 10
525.722
 20
1042.5
 10
524.487
 20
1040.651
 10
523.021
 20
1038.979
 10
521.349
 20
1037.513
 10
519.5
 20
1036.278
 10
517.506
 20
1035.294
 10
515.4
 20
1034.579
 10
513.219
 20
1034.145
 10
511.0
 20
1034.0
 10
508.781
 20
1034.145
 10
506.6
 20
1034.579
 10
504.494
 20
1035.294
 10
502.5
 20
1036.278
 10
500.651
 20
1037.513
 10
498.979
 20
1038.979
 10
497.513
 20
1040.651
 10
496.278
 20
1042.5
 10
495.294
 20
1044.494
 10
494.579
 20
1046.6
 10
494.145
 20
1048.781
 10
494.0
 20
1051.0
  0
CIRCLE
  5
120
330
17
100
AcDbEntity
  8
DRILL_7
100
AcDbCircle
 10
1599.0
 20
1027.0
 30
0.0
 40
3.5
  0
CIRCLE
  5
121
330
17
100
AcDbEntity
  8
DRILL_7
100
AcDbCircle
 10
1599.0
 20
1094.0
 30
0.0
 40
3.5
  0
CIRCLE
  5
122
330
17
100
AcDbEntity
  8
DRILL_7
100
AcDbCircle
 10
1599.0
 20
1161.0
 30
0.0
 40
3.5
  0
CIRCLE
  5
123
330
17
100
AcDbEntity
  8
DRILL_7
100
AcDbCircle
 10
1237.0
 20
1027.0
 30
0.0
 40
3.5
  0
CIRCLE
  5
124
330
17
100
AcDbEntity
  8
DRILL_7
100
AcDbCircle
 10
1237.0
 20
1094.0
 30
0.0
 40
3.5
  0
CIRCLE
  5
125
330
17
100
AcDbEntity
  8
DRILL_7
100
AcDbCircle
 10
1237.0
 20
1161.0
 30
0.0
 40
3.5
  0
CIRCLE
  5
126
330
17
100
AcDbEntity
  8
DRILL_7
100
AcDbCircle
 10
272.0
 20
1027.0
 30
0.0
 40
3.5
  0
CIRCLE
  5
127
330
17
100
AcDbEntity
  8
DRILL_7
100
AcDbCircle
 10
272.0
 20
1094.0
 30
0.0
 40
3.5
  0
CIRCLE
  5
128
330
17
100
AcDbEntity
  8
DRILL_7
100
AcDbCircle
 10
272.0
 20
1161.0
 30
0.0
 40
3.5
  0
CIRCLE
  5
129
330
17
100
AcDbEntity
  8
DRILL_7
100
AcDbCircle
 10
17.0
 20
1027.0
 30
0.0
 40
3.5
  0
CIRCLE
  5
12A
330
17
100
AcDbEntity
  8
DRILL_7
100
AcDbCircle
 10
17.0
 20
1094.0
 30
0.0
 40
3.5
  0
CIRCLE
  5
12B
330
17
100
AcDbEntity
  8
DRILL_7
100
AcDbCircle
 10
17.0
 20
1161.0
 30
0.0
 40
3.5
  0
TEXT
  5
12C
330
17
100
AcDbEntity
  8
LABELS
100
AcDbText
 10
808.0
 20
1094.0
 30
0.0
 40
14.0
  1
Side panel 2
 72
1
 11
808.0
 21
1094.0
 31
0.0
100
AcDbText
 73
2
  0
LWPOLYLINE
  5
12D
330
17
100
AcDbEntity
  8
CUT_OUTSIDE
100
AcDbPolyline
 90
4
 70
1
 10
2432.0
 20
378.0
 10
2432.0
 20
602.0
 10
2108.0
 20
602.0
 10
2108.0
 20
378.0
  0
CIRCLE
  5
12E
330
17
100
AcDbEntity
  8
DRILL_10
100
AcDbCircle
 10
2148.0
 20
418.0
 30
0.0
 40
5.0
  0
CIRCLE
  5
12F
330
17
100
AcDbEntity
  8
DRILL_10
100
AcDbCircle
 10
2392.0
 20
418.0
 30
0.0
 40
5.0
  0
CIRCLE
  5
130
330
17
100
AcDbEntity
  8
DRILL_10
100
AcDbCircle
 10
2148.0
 20
562.0
 30
0.0
 40
5.0
  0
CIRCLE
  5
131
330
17
100
AcDbEntity
  8
DRILL_10
100
AcDbCircle
 10
2392.0
 20
562.0
 30
0.0
 40
5.0
  0
TEXT
  5
132
330
17
100
AcDbEntity
  8
LABELS
100
AcDbText
 10
2270.0
 20
490.0
 30
0.0
 40
14.0
  1
Floor plate
 72
1
 11
2270.0
 21
490.0
 31
0.0
100
AcDbText
 73
2
  0
LWPOLYLINE
  5
133
330
17
100
AcDbEntity
  8
CUT_OUTSIDE
100
AcDbPolyline
 90
88
 70
1
 10
2157.997
 20
796.003
 10
2158.0
 20
796.074
 10
2158.0
 20
833.0
 10
2158.014
 20
833.294
 10
2158.058
 20
833.585
 10
2158.129
 20
833.871
 10
2158.228
 20
834.148
 10
2158.354
 20
834.414
 10
2158.506
 20
834.667
 10
2158.681
 20
834.903
 10
2158.879
 20
835.121
 10
2159.097
 20
835.319
 10
2159.333
 20
835.494
 10
2159.586
 20
835.646
 10
2159.852
 20
835.772
 10
2160.129
 20
835.871
 10
2160.415
 20
835.942
 10
2160.706
 20
835.986
 10
2161.0
 20
836.0
 10
2429.0
 20
836.0
 10
2429.294
 20
835.986
 10
2429.585
 20
835.942
 10
2429.871
 20
835.871
 10
2430.148
 20
835.772
 10
2430.414
 20
835.646
 10
2430.667
 20
835.494
 10
2430.903
 20
835.319
 10
2431.121
 20
835.121
 10
2431.319
 20
834.903
 10
2431.494
 20
834.667
 10
2431.646
 20
834.414
 10
2431.772
 20
834.148
 10
2431.871
 20
833.871
 10
2431.942
 20
833.585
 10
2431.986
 20
833.294
 10
2432.0
 20
833.0
 10
2432.0
 20
615.0
 10
2431.986
 20
614.706
 10
2431.942
 20
614.415
 10
2431.871
 20
614.129
 10
2431.772
 20
613.852
 10
2431.646
 20
613.586
 10
2431.494
 20
613.333
 10
2431.319
 20
613.097
 10
2431.121
 20
612.879
 10
2430.903
 20
612.681
 10
2430.667
 20
612.506
 10
2430.414
 20
612.354
 10
2430.148
 20
612.228
 10
2429.871
 20
612.129
 10
2429.585
 20
612.058
 10
2429.294
 20
612.014
 10
2429.0
 20
612.0
 10
2111.0
 20
612.0
 10
2110.706
 20
612.014
 10
2110.415
 20
612.058
 10
2110.129
 20
612.129
 10
2109.852
 20
612.228
 10
2109.586
 20
612.354
 10
2109.333
 20
612.506
 10
2109.097
 20
612.681
 10
2108.879
 20
612.879
 10
2108.681
 20
613.097
 10
2108.506
 20
613.333
 10
2108.354
 20
613.586
 10
2108.228
 20
613.852
 10
2108.129
 20
614.129
 10
2108.058
 20
614.415
 10
2108.014
 20
614.706
 10
2108.0
 20
615.0
 10
2108.0
 20
793.0
 10
2108.014
 20
793.294
 10
2108.058
 20
793.585
 10
2108.129
 20
793.871
 10
2108.228
 20
794.148
 10
2108.354
 20
794.414
 10
2108.506
 20
794.667
 10
2108.681
 20
794.903
 10
2108.879
 20
795.121
 10
2109.097
 20
795.319
 10
2109.333
 20
795.494
 10
2109.586
 20
795.646
 10
2109.852
 20
795.772
 10
2110.129
 20
795.871
 10
2110.415
 20
795.942
 10
2110.706
 20
795.986
 10
2111.0
 20
796.0
 10
2157.926
 20
796.0
  0
TEXT
  5
134
330
17
100
AcDbEntity
  8
LABELS
100
AcDbText
 10
2270.0
 20
704.0
 30
0.0
 40
14.0
  1
Printer shelf
 72
1
 11
2270.0
 21
704.0
 31
0.0
100
AcDbText
 73
2
  0
LWPOLYLINE
  5
135
330
17
100
AcDbEntity
  8
CUT_OUTSIDE
100
AcDbPolyline
 90
88
 70
1
 10
2157.997
 20
1030.003
 10
2158.0
 20
1030.074
 10
2158.0
 20
1067.0
 10
2158.014
 20
1067.294
 10
2158.058
 20
1067.585
 10
2158.129
 20
1067.871
 10
2158.228
 20
1068.148
 10
2158.354
 20
1068.414
 10
2158.506
 20
1068.667
 10
2158.681
 20
1068.903
 10
2158.879
 20
1069.121
 10
2159.097
 20
1069.319
 10
2159.333
 20
1069.494
 10
2159.586
 20
1069.646
 10
2159.852
 20
1069.772
 10
2160.129
 20
1069.871
 10
2160.415
 20
1069.942
 10
2160.706
 20
1069.986
 10
2161.0
 20
1070.0
 10
2429.0
 20
1070.0
 10
2429.294
 20
1069.986
 10
2429.585
 20
1069.942
 10
2429.871
 20
1069.871
 10
2430.148
 20
1069.772
 10
2430.414
 20
1069.646
 10
2430.667
 20
1069.494
 10
2430.903
 20
1069.319
 10
2431.121
 20
1069.121
 10
2431.319
 20
1068.903
 10
2431.494
 20
1068.667
 10
2431.646
 20
1068.414
 10
2431.772
 20
1068.148
 10
2431.871
 20
1067.871
 10
2431.942
 20
1067.585
 10
2431.986
 20
1067.294
 10
2432.0
 20
1067.0
 10
2432.0
 20
849.0
 10
2431.986
 20
848.706
 10
2431.942
 20
848.415
 10
2431.871
 20
848.129
 10
2431.772
 20
847.852
 10
2431.646
 20
847.586
 10
2431.494
 20
847.333
 10
2431.319
 20
847.097
 10
2431.121
 20
846.879
 10
2430.903
 20
846.681
 10
2430.667
 20
846.506
 10
2430.414
 20
846.354
 10
2430.148
 20
846.228
 10
2429.871
 20
846.129
 10
2429.585
 20
846.058
 10
2429.294
 20
846.014
 10
2429.0
 20
846.0
 10
2111.0
 20
846.0
 10
2110.706
 20
846.014
 10
2110.415
 20
846.058
 10
2110.129
 20
846.129
 10
2109.852
 20
846.228
 10
2109.586
 20
846.354
 10
2109.333
 20
846.506
 10
2109.097
 20
846.681
 10
2108.879
 20
846.879
 10
2108.681
 20
847.097
 10
2108.506
 20
847.333
 10
2108.354
 20
847.586
 10
2108.228
 20
847.852
 10
2108.129
 20
848.129
 10
2108.058
 20
848.415
 10
2108.014
 20
848.706
 10
2108.0
 20
849.0
 10
2108.0
 20
1027.0
 10
2108.014
 20
1027.294
 10
2108.058
 20
1027.585
 10
2108.129
 20
1027.871
 10
2108.228
 20
1028.148
 10
2108.354
 20
1028.414
 10
2108.506
 20
1028.667
 10
2108.681
 20
1028.903
 10
2108.879
 20
1029.121
 10
2109.097
 20
1029.319
 10
2109.333
 20
1029.494
 10
2109.586
 20
1029.646
 10
2109.852
 20
1029.772
 10
2110.129
 20
1029.871
 10
2110.415
 20
1029.942
 10
2110.706
 20
1029.986
 10
2111.0
 20
1030.0
 10
2157.926
 20
1030.0
  0
LWPOLYLINE
  5
136
330
17
100
AcDbEntity
  8
CUT_INSIDE
100
AcDbPolyline
 90
50
 70
1
 10
2266.5
 20
997.5
 10
2266.53
 20
997.957
 10
2266.619
 20
998.406
 10
2266.766
 20
998.839
 10
2266.969
 20
999.25
 10
2267.223
 20
999.631
 10
2267.525
 20
999.975
 10
2267.869
 20
1000.277
 10
2268.25
 20
1000.531
 10
2268.661
 20
1000.734
 10
2269.094
 20
1000.881
 10
2269.543
 20
1000.97
 10
2270.0
 20
1001.0
 10
2270.457
 20
1000.97
 10
2270.906
 20
1000.881
 10
2271.339
 20
1000.734
 10
2271.75
 20
1000.531
 10
2272.131
 20
1000.277
 10
2272.475
 20
999.975
 10
2272.777
 20
999.631
 10
2273.031
 20
999.25
 10
2273.234
 20
998.839
 10
2273.381
 20
998.406
 10
2273.47
 20
997.957
 10
2273.5
 20
997.5
 10
2273.5
 20
894.5
 10
2273.47
 20
894.043
 10
2273.381
 20
893.594
 10
2273.234
 20
893.161
 10
2273.031
 20
892.75
 10
2272.777
 20
892.369
 10
2272.475
 20
892.025
 10
2272.131
 20
891.723
 10
2271.75
 20
891.469
 10
2271.339
 20
891.266
 10
2270.906
 20
891.119
 10
2270.457
 20
891.03
 10
2270.0
 20
891.0
 10
2269.543
 20
891.03
 10
2269.094
 20
891.119
 10
2268.661
 20
891.266
 10
2268.25
 20
891.469
 10
2267.869
 20
891.723
 10
2267.525
 20
892.025
 10
2267.223
 20
892.369
 10
2266.969
 20
892.75
 10
2266.766
 20
893.161
 10
2266.619
 20
893.594
 10
2266.53
 20
894.043
 10
2266.5
 20
894.5
  0
TEXT
  5
137
330
17
100
AcDbEntity
  8
LABELS
100
AcDbText
 10
2270.0
 20
938.0
 30
0.0
 40
14.0
  1
Camera shelf
 72
1
 11
2270.0
 21
938.0
 31
0.0
100
AcDbText
 73
2
  0
LWPOLYLINE
  5
138
330
17
100
AcDbEntity
  8
CUT_OUTSIDE
100
AcDbPolyline
 90
4
 70
1
 10
2062.0
 20
332.0
 10
1838.0
 20
332.0
 10
1838.0
 20
8.0
 10
2062.0
 20
8.0
  0
CIRCLE
  5
139
330
17
100
AcDbEntity
  8
CUT_INSIDE
100
AcDbCircle
 10
1950.0
 20
89.0
 30
0.0
 40
14.0
  0
CIRCLE
  5
13A
330
17
100
AcDbEntity
  8
CUT_INSIDE
100
AcDbCircle
 10
1950.0
 20
170.0
 30
0.0
 40
14.0
  0
CIRCLE
  5
13B
330
17
100
AcDbEntity
  8
CUT_INSIDE
100
AcDbCircle
 10
1950.0
 20
251.0
 30
0.0
 40
14.0
  0
TEXT
  5
13C
330
17
100
AcDbEntity
  8
LABELS
100
AcDbText
 10
1950.0
 20
170.0
 30
0.0
 40
14.0
  1
Top plate
 72
1
 11
1950.0
 21
170.0
 31
0.0
100
AcDbText
 73
2
  0
LWPOLYLINE
  5
13D
330
17
100
AcDbEntity
  8
CUT_OUTSIDE
100
AcDbPolyline
 90
52
 70
1
 10
2038.0
 20
978.0
 10
2045.832
 20
977.487
 10
2053.529
 20
975.956
 10
2060.961
 20
973.433
 10
2068.0
 20
969.962
 10
2074.526
 20
965.601
 10
2080.426
 20
960.426
 10
2085.601
 20
954.526
 10
2089.962
 20
948.0
 10
2093.433
 20
940.961
 10
2095.956
 20
933.529
 10
2097.487
 20
925.832
 10
2098.0
 20
918.0
 10
2098.0
 20
438.0
 10
2097.487
 20
430.168
 10
2095.956
 20
422.471
 10
2093.433
 20
415.039
 10
2089.962
 20
408.0
 10
2085.601
 20
401.474
 10
2080.426
 20
395.574
 10
2074.526
 20
390.399
 10
2068.0
 20
386.038
 10
2060.961
 20
382.567
 10
2053.529
 20
380.044
 10
2045.832
 20
378.513
 10
2038.0
 20
378.0
 10
1678.0
 20
378.0
 10
1670.168
 20
378.513
 10
1662.471
 20
380.044
 10
1655.039
 20
382.567
 10
1648.0
 20
386.038
 10
1641.474
 20
390.399
 10
1635.574
 20
395.574
 10
1630.399
 20
401.474
 10
1626.038
 20
408.0
 10
1622.567
 20
415.039
 10
1620.044
 20
422.471
 10
1618.513
 20
430.168
 10
1618.0
 20
438.0
 10
1618.0
 20
918.0
 10
1618.513
 20
925.832
 10
1620.044
 20
933.529
 10
1622.567
 20
940.961
 10
1626.038
 20
948.0
 10
1630.399
 20
954.526
 10
1635.574
 20
960.426
 10
1641.474
 20
965.601
 10
1648.0
 20
969.962
 10
1655.039
 20
973.433
 10
1662.471
 20
975.956
 10
1670.168
 20
977.487
 10
1678.0
 20
978.0
  0
CIRCLE
  5
13E
330
17
100
AcDbEntity
  8
DRILL_10
100
AcDbCircle
 10
1930.0
 20
556.0
 30
0.0
 40
5.0
  0
CIRCLE
  5
13F
330
17
100
AcDbEntity
  8
DRILL_10
100
AcDbCircle
 10
1930.0
 20
800.0
 30
0.0
 40
5.0
  0
CIRCLE
  5
140
330
17
100
AcDbEntity
  8
DRILL_10
100
AcDbCircle
 10
1786.0
 20
556.0
 30
0.0
 40
5.0
  0
CIRCLE
  5
141
330
17
100
AcDbEntity
  8
DRILL_10
100
AcDbCircle
 10
1786.0
 20
800.0
 30
0.0
 40
5.0
  0
CIRCLE
  5
142
330
17
100
AcDbEntity
  8
DRILL_10
100
AcDbCircle
 10
2043.0
 20
433.0
 30
0.0
 40
5.0
  0
CIRCLE
  5
143
330
17
100
AcDbEntity
  8
DRILL_10
100
AcDbCircle
 10
2043.0
 20
923.0
 30
0.0
 40
5.0
  0
CIRCLE
  5
144
330
17
100
AcDbEntity
  8
DRILL_10
100
AcDbCircle
 10
1673.0
 20
433.0
 30
0.0
 40
5.0
  0
CIRCLE
  5
145
330
17
100
AcDbEntity
  8
DRILL_10
100
AcDbCircle
 10
1673.0
 20
923.0
 30
0.0
 40
5.0
  0
LWPOLYLINE
  5
146
330
17
100
AcDbEntity
  8
POCKET_8
100
AcDbPolyline
 90
104
 70
1
 10
2030.0
 20
956.0
 10
2030.392
 20
955.987
 10
2035.613
 20
955.645
 10
2036.392
 20
955.543
 10
2041.523
 20
954.522
 10
2042.281
 20
954.319
 10
2047.236
 20
952.637
 10
2047.961
 20
952.336
 10
2052.654
 20
950.022
 10
2053.333
 20
949.63
 10
2057.684
 20
946.723
 10
2058.307
 20
946.245
 10
2062.24
 20
942.795
 10
2062.795
 20
942.24
 10
2066.245
 20
938.307
 10
2066.723
 20
937.684
 10
2069.63
 20
933.333
 10
2070.022
 20
932.654
 10
2072.336
 20
927.961
 10
2072.637
 20
927.236
 10
2074.319
 20
922.281
 10
2074.522
 20
921.523
 10
2075.543
 20
916.392
 10
2075.645
 20
915.613
 10
2075.987
 20
910.392
 10
2076.0
 20
910.0
 10
2076.0
 20
446.0
 10
2075.987
 20
445.608
 10
2075.645
 20
440.387
 10
2075.543
 20
439.608
 10
2074.522
 20
434.477
 10
2074.319
 20
433.719
 10
2072.637
 20
428.764
 10
2072.336
 20
428.039
 10
2070.022
 20
423.346
 10
2069.63
 20
422.667
 10
2066.723
 20
418.316
 10
2066.245
 20
417.693
 10
2062.795
 20
413.76
 10
2062.24
 20
413.205
 10
2058.307
 20
409.755
 10
2057.684
 20
409.277
 10
2053.333
 20
406.37
 10
2052.654
 20
405.978
 10
2047.961
 20
403.664
 10
2047.236
 20
403.363
 10
2042.281
 20
401.681
 10
2041.523
 20
401.478
 10
2036.392
 20
400.457
 10
2035.613
 20
400.355
 10
2030.392
 20
400.013
 10
2030.0
 20
400.0
 10
1686.0
 20
400.0
 10
1685.608
 20
400.013
 10
1680.387
 20
400.355
 10
1679.608
 20
400.457
 10
1674.477
 20
401.478
 10
1673.719
 20
401.681
 10
1668.764
 20
403.363
 10
1668.039
 20
403.664
 10
1663.346
 20
405.978
 10
1662.667
 20
406.37
 10
1658.316
 20
409.277
 10
1657.693
 20
409.755
 10
1653.76
 20
413.205
 10
1653.205
 20
413.76
 10
1649.755
 20
417.693
 10
1649.277
 20
418.316
 10
1646.37
 20
422.667
 10
1645.978
 20
423.346
 10
1643.664
 20
428.039
 10
1643.363
 20
428.764
 10
1641.681
 20
433.719
 10
1641.478
 20
434.477
 10
1640.457
 20
439.608
 10
1640.355
 20
440.387
 10
1640.013
 20
445.608
 10
1640.0
 20
446.0
 10
1640.0
 20
910.0
 10
1640.013
 20
910.392
 10
1640.355
 20
915.613
 10
1640.457
 20
916.392
 10
1641.478
 20
921.523
 10
1641.681
 20
922.281
 10
1643.363
 20
927.236
 10
1643.664
 20
927.961
 10
1645.978
 20
932.654
 10
1646.37
 20
933.333
 10
1649.277
 20
937.684
 10
1649.755
 20
938.307
 10
1653.205
 20
942.24
 10
1653.76
 20
942.795
 10
1657.693
 20
946.245
 10
1658.316
 20
946.723
 10
1662.667
 20
949.63
 10
1663.346
 20
950.022
 10
1668.039
 20
952.336
 10
1668.764
 20
952.637
 10
1673.719
 20
954.319
 10
1674.477
 20
954.522
 10
1679.608
 20
955.543
 10
1680.387
 20
955.645
 10
1685.608
 20
955.987
 10
1686.0
 20
956.0
  0
LWPOLYLINE
  5
147
330
17
100
AcDbEntity
  8
POCKET_8
100
AcDbPolyline
 90
52
 70
1
 10
2029.804
 20
944.0
 10
1686.196
 20
944.0
 10
1681.564
 20
943.696
 10
1677.203
 20
942.829
 10
1672.994
 20
941.4
 10
1669.006
 20
939.434
 10
1665.31
 20
936.964
 10
1661.967
 20
934.033
 10
1659.036
 20
930.69
 10
1656.566
 20
926.994
 10
1654.6
 20
923.006
 10
1653.171
 20
918.797
 10
1652.304
 20
914.436
 10
1652.0
 20
909.804
 10
1652.0
 20
446.196
 10
1652.304
 20
441.564
 10
1653.171
 20
437.203
 10
1654.6
 20
432.994
 10
1656.566
 20
429.006
 10
1659.036
 20
425.31
 10
1661.967
 20
421.967
 10
1665.31
 20
419.036
 10
1669.006
 20
416.566
 10
1672.994
 20
414.6
 10
1677.203
 20
413.171
 10
1681.564
 20
412.304
 10
1686.196
 20
412.0
 10
2029.804
 20
412.0
 10
2034.436
 20
412.304
 10
2038.797
 20
413.171
 10
2043.006
 20
414.6
 10
2046.994
 20
416.566
 10
2050.69
 20
419.036
 10
2054.033
 20
421.967
 10
2056.964
 20
425.31
 10
2059.434
 20
429.006
 10
2061.4
 20
432.994
 10
2062.829
 20
437.203
 10
2063.696
 20
441.564
 10
2064.0
 20
446.196
 10
2064.0
 20
909.804
 10
2063.696
 20
914.436
 10
2062.829
 20
918.797
 10
2061.4
 20
923.006
 10
2059.434
 20
926.994
 10
2056.964
 20
930.69
 10
2054.033
 20
934.033
 10
2050.69
 20
936.964
 10
2046.994
 20
939.434
 10
2043.006
 20
941.4
 10
2038.797
 20
942.829
 10
2034.436
 20
943.696
  0
TEXT
  5
148
330
17
100
AcDbEntity
  8
LABELS
100
AcDbText
 10
1858.0
 20
678.0
 30
0.0
 40
14.0
  1
Base plate — rounded
 72
1
 11
1858.0
 21
678.0
 31
0.0
100
AcDbText
 73
2
  0
LWPOLYLINE
  5
149
330
17
100
AcDbEntity
  8
CUT_OUTSIDE
100
AcDbPolyline
 90
128
 70
1
 10
2382.0
 20
163.0
 10
2381.813
 20
155.395
 10
2381.254
 20
147.807
 10
2380.322
 20
140.257
 10
2379.022
 20
132.761
 10
2377.355
 20
125.338
 10
2375.326
 20
118.006
 10
2372.939
 20
110.782
 10
2370.201
 20
103.684
 10
2367.118
 20
96.729
 10
2363.698
 20
89.934
 10
2359.948
 20
83.314
 10
2355.878
 20
76.887
 10
2351.497
 20
70.667
 10
2346.817
 20
64.669
 10
2341.847
 20
58.908
 10
2336.602
 20
53.398
 10
2331.092
 20
48.153
 10
2325.331
 20
43.183
 10
2319.333
 20
38.503
 10
2313.113
 20
34.122
 10
2306.686
 20
30.052
 10
2300.066
 20
26.302
 10
2293.271
 20
22.882
 10
2286.316
 20
19.799
 10
2279.218
 20
17.061
 10
2271.994
 20
14.674
 10
2264.662
 20
12.645
 10
2257.239
 20
10.978
 10
2249.743
 20
9.678
 10
2242.193
 20
8.746
 10
2234.605
 20
8.187
 10
2227.0
 20
8.0
 10
2219.395
 20
8.187
 10
2211.807
 20
8.746
 10
2204.257
 20
9.678
 10
2196.761
 20
10.978
 10
2189.338
 20
12.645
 10
2182.006
 20
14.674
 10
2174.782
 20
17.061
 10
2167.684
 20
19.799
 10
2160.729
 20
22.882
 10
2153.934
 20
26.302
 10
2147.314
 20
30.052
 10
2140.887
 20
34.122
 10
2134.667
 20
38.503
 10
2128.669
 20
43.183
 10
2122.908
 20
48.153
 10
2117.398
 20
53.398
 10
2112.153
 20
58.908
 10
2107.183
 20
64.669
 10
2102.503
 20
70.667
 10
2098.122
 20
76.887
 10
2094.052
 20
83.314
 10
2090.302
 20
89.934
 10
2086.882
 20
96.729
 10
2083.799
 20
103.684
 10
2081.061
 20
110.782
 10
2078.674
 20
118.006
 10
2076.645
 20
125.338
 10
2074.978
 20
132.761
 10
2073.678
 20
140.257
 10
2072.746
 20
147.807
 10
2072.187
 20
155.395
 10
2072.0
 20
163.0
 10
2072.187
 20
170.605
 10
2072.746
 20
178.193
 10
2073.678
 20
185.743
 10
2074.978
 20
193.239
 10
2076.645
 20
200.662
 10
2078.674
 20
207.994
 10
2081.061
 20
215.218
 10
2083.799
 20
222.316
 10
2086.882
 20
229.271
 10
2090.302
 20
236.066
 10
2094.052
 20
242.686
 10
2098.122
 20
249.113
 10
2102.503
 20
255.333
 10
2107.183
 20
261.331
 10
2112.153
 20
267.092
 10
2117.398
 20
272.602
 10
2122.908
 20
277.847
 10
2128.669
 20
282.817
 10
2134.667
 20
287.497
 10
2140.887
 20
291.878
 10
2147.314
 20
295.948
 10
2153.934
 20
299.698
 10
2160.729
 20
303.118
 10
2167.684
 20
306.201
 10
2174.782
 20
308.939
 10
2182.006
 20
311.326
 10
2189.338
 20
313.355
 10
2196.761
 20
315.022
 10
2204.257
 20
316.322
 10
2211.807
 20
317.254
 10
2219.395
 20
317.813
 10
2227.0
 20
318.0
 10
2234.605
 20
317.813
 10
2242.193
 20
317.254
 10
2249.743
 20
316.322
 10
2257.239
 20
315.022
 10
2264.662
 20
313.355
 10
2271.994
 20
311.326
 10
2279.218
 20
308.939
 10
2286.316
 20
306.201
 10
2293.271
 20
303.118
 10
2300.066
 20
299.698
 10
2306.686
 20
295.948
 10
2313.113
 20
291.878
 10
2319.333
 20
287.497
 10
2325.331
 20
282.817
 10
2331.092
 20
277.847
 10
2336.602
 20
272.602
 10
2341.847
 20
267.092
 10
2346.817
 20
261.331
 10
2351.497
 20
255.333
 10
2355.878
 20
249.113
 10
2359.948
 20
242.686
 10
2363.698
 20
236.066
 10
2367.118
 20
229.271
 10
2370.201
 20
222.316
 10
2372.939
 20
215.218
 10
2375.326
 20
207.994
 10
2377.355
 20
200.662
 10
2379.022
 20
193.239
 10
2380.322
 20
185.743
 10
2381.254
 20
178.193
 10
2381.813
 20
170.605
  0
CIRCLE
  5
14A
330
17
100
AcDbEntity
  8
CUT_INSIDE
100
AcDbCircle
 10
2227.0
 20
163.0
 30
0.0
 40
131.0
  0
LWPOLYLINE
  5
14B
330
17
100
AcDbEntity
  8
ENGRAVE_V
100
AcDbPolyline
 90
129
 70
1
 10
2373.0
 20
163.0
 10
2372.824
 20
155.836
 10
2372.297
 20
148.689
 10
2371.42
 20
141.577
 10
2370.195
 20
134.517
 10
2368.625
 20
127.525
 10
2366.713
 20
120.618
 10
2364.465
 20
113.814
 10
2361.886
 20
107.128
 10
2358.982
 20
100.577
 10
2355.761
 20
94.176
 10
2352.228
 20
87.941
 10
2348.395
 20
81.887
 10
2344.268
 20
76.028
 10
2339.86
 20
70.379
 10
2335.179
 20
64.952
 10
2330.238
 20
59.762
 10
2325.048
 20
54.821
 10
2319.621
 20
50.14
 10
2313.972
 20
45.732
 10
2308.113
 20
41.605
 10
2302.059
 20
37.772
 10
2295.824
 20
34.239
 10
2289.423
 20
31.018
 10
2282.872
 20
28.114
 10
2276.186
 20
25.535
 10
2269.382
 20
23.287
 10
2262.475
 20
21.375
 10
2255.483
 20
19.805
 10
2248.423
 20
18.58
 10
2241.311
 20
17.703
 10
2234.164
 20
17.176
 10
2227.0
 20
17.0
 10
2219.836
 20
17.176
 10
2212.689
 20
17.703
 10
2205.577
 20
18.58
 10
2198.517
 20
19.805
 10
2191.525
 20
21.375
 10
2184.618
 20
23.287
 10
2177.814
 20
25.535
 10
2171.128
 20
28.114
 10
2164.577
 20
31.018
 10
2158.176
 20
34.239
 10
2151.941
 20
37.772
 10
2145.887
 20
41.605
 10
2140.028
 20
45.732
 10
2134.379
 20
50.14
 10
2128.952
 20
54.821
 10
2123.762
 20
59.762
 10
2118.821
 20
64.952
 10
2114.14
 20
70.379
 10
2109.732
 20
76.028
 10
2105.605
 20
81.887
 10
2101.772
 20
87.941
 10
2098.239
 20
94.176
 10
2095.018
 20
100.577
 10
2092.114
 20
107.128
 10
2089.535
 20
113.814
 10
2087.287
 20
120.618
 10
2085.375
 20
127.525
 10
2083.805
 20
134.517
 10
2082.58
 20
141.577
 10
2081.703
 20
148.689
 10
2081.176
 20
155.836
 10
2081.0
 20
163.0
 10
2081.176
 20
170.164
 10
2081.703
 20
177.311
 10
2082.58
 20
184.423
 10
2083.805
 20
191.483
 10
2085.375
 20
198.475
 10
2087.287
 20
205.382
 10
2089.535
 20
212.186
 10
2092.114
 20
218.872
 10
2095.018
 20
225.423
 10
2098.239
 20
231.824
 10
2101.772
 20
238.059
 10
2105.605
 20
244.113
 10
2109.732
 20
249.972
 10
2114.14
 20
255.621
 10
2118.821
 20
261.048
 10
2123.762
 20
266.238
 10
2128.952
 20
271.179
 10
2134.379
 20
275.86
 10
2140.028
 20
280.268
 10
2145.887
 20
284.395
 10
2151.941
 20
288.228
 10
2158.176
 20
291.761
 10
2164.577
 20
294.982
 10
2171.128
 20
297.886
 10
2177.814
 20
300.465
 10
2184.618
 20
302.713
 10
2191.525
 20
304.625
 10
2198.517
 20
306.195
 10
2205.577
 20
307.42
 10
2212.689
 20
308.297
 10
2219.836
 20
308.824
 10
2227.0
 20
309.0
 10
2234.164
 20
308.824
 10
2241.311
 20
308.297
 10
2248.423
 20
307.42
 10
2255.483
 20
306.195
 10
2262.475
 20
304.625
 10
2269.382
 20
302.713
 10
2276.186
 20
300.465
 10
2282.872
 20
297.886
 10
2289.423
 20
294.982
 10
2295.824
 20
291.761
 10
2302.059
 20
288.228
 10
2308.113
 20
284.395
 10
2313.972
 20
280.268
 10
2319.621
 20
275.86
 10
2325.048
 20
271.179
 10
2330.238
 20
266.238
 10
2335.179
 20
261.048
 10
2339.86
 20
255.621
 10
2344.268
 20
249.972
 10
2348.395
 20
244.113
 10
2352.228
 20
238.059
 10
2355.761
 20
231.824
 10
2358.982
 20
225.423
 10
2361.886
 20
218.872
 10
2364.465
 20
212.186
 10
2366.713
 20
205.382
 10
2368.625
 20
198.475
 10
2370.195
 20
191.483
 10
2371.42
 20
184.423
 10
2372.297
 20
177.311
 10
2372.824
 20
170.164
 10
2373.0
 20
163.0
  0
TEXT
  5
14C
330
17
100
AcDbEntity
  8
LABELS
100
AcDbText
 10
2227.0
 20
166.80274476037482
 30
0.0
 40
14.0
  1
Camera ring (glue on front)
 72
1
 11
2227.0
 21
166.80274476037482
 31
0.0
100
AcDbText
 73
2
  0
LWPOLYLINE
  5
14D
330
17
100
AcDbEntity
  8
CUT_OUTSIDE
100
AcDbPolyline
 90
4
 70
1
 10
1998.0
 20
988.0
 10
1998.0
 20
1028.0
 10
1618.0
 20
1028.0
 10
1618.0
 20
988.0
  0
TEXT
  5
14E
330
17
100
AcDbEntity
  8
LABELS
100
AcDbText
 10
1808.0
 20
1008.0
 30
0.0
 40
14.0
  1
Monitor rail 1
 72
1
 11
1808.0
 21
1008.0
 31
0.0
100
AcDbText
 73
2
  0
LWPOLYLINE
  5
14F
330
17
100
AcDbEntity
  8
CUT_OUTSIDE
100
AcDbPolyline
 90
4
 70
1
 10
1998.0
 20
1038.0
 10
1998.0
 20
1078.0
 10
1618.0
 20
1078.0
 10
1618.0
 20
1038.0
  0
TEXT
  5
150
330
17
100
AcDbEntity
  8
LABELS
100
AcDbText
 10
1808.0
 20
1058.0
 30
0.0
 40
14.0
  1
Monitor rail 2
 72
1
 11
1808.0
 21
1058.0
 31
0.0
100
AcDbText
 73
2
  0
LWPOLYLINE
  5
151
330
17
100
AcDbEntity
  8
CUT_OUTSIDE
100
AcDbPolyline
 90
52
 70
1
 10
2408.0
 20
1088.0
 10
2407.932
 20
1086.956
 10
2407.727
 20
1085.929
 10
2407.391
 20
1084.939
 10
2406.928
 20
1084.0
 10
2406.347
 20
1083.13
 10
2405.657
 20
1082.343
 10
2404.87
 20
1081.653
 10
2404.0
 20
1081.072
 10
2403.061
 20
1080.609
 10
2402.071
 20
1080.273
 10
2401.044
 20
1080.068
 10
2400.0
 20
1080.0
 10
2116.0
 20
1080.0
 10
2114.956
 20
1080.068
 10
2113.929
 20
1080.273
 10
2112.939
 20
1080.609
 10
2112.0
 20
1081.072
 10
2111.13
 20
1081.653
 10
2110.343
 20
1082.343
 10
2109.653
 20
1083.13
 10
2109.072
 20
1084.0
 10
2108.609
 20
1084.939
 10
2108.273
 20
1085.929
 10
2108.068
 20
1086.956
 10
2108.0
 20
1088.0
 10
2108.0
 20
1127.0
 10
2108.068
 20
1128.044
 10
2108.273
 20
1129.071
 10
2108.609
 20
1130.061
 10
2109.072
 20
1131.0
 10
2109.653
 20
1131.87
 10
2110.343
 20
1132.657
 10
2111.13
 20
1133.347
 10
2112.0
 20
1133.928
 10
2112.939
 20
1134.391
 10
2113.929
 20
1134.727
 10
2114.956
 20
1134.932
 10
2116.0
 20
1135.0
 10
2400.0
 20
1135.0
 10
2401.044
 20
1134.932
 10
2402.071
 20
1134.727
 10
2403.061
 20
1134.391
 10
2404.0
 20
1133.928
 10
2404.87
 20
1133.347
 10
2405.657
 20
1132.657
 10
2406.347
 20
1131.87
 10
2406.928
 20
1131.0
 10
2407.391
 20
1130.061
 10
2407.727
 20
1129.071
 10
2407.932
 20
1128.044
 10
2408.0
 20
1127.0
  0
LWPOLYLINE
  5
152
330
17
100
AcDbEntity
  8
CUT_INSIDE
100
AcDbPolyline
 90
50
 70
1
 10
2138.5
 20
1115.0
 10
2139.479
 20
1114.936
 10
2140.441
 20
1114.744
 10
2141.37
 20
1114.429
 10
2142.25
 20
1113.995
 10
2143.066
 20
1113.45
 10
2143.803
 20
1112.803
 10
2144.45
 20
1112.066
 10
2144.995
 20
1111.25
 10
2145.429
 20
1110.37
 10
2145.744
 20
1109.441
 10
2145.936
 20
1108.479
 10
2146.0
 20
1107.5
 10
2145.936
 20
1106.521
 10
2145.744
 20
1105.559
 10
2145.429
 20
1104.63
 10
2144.995
 20
1103.75
 10
2144.45
 20
1102.934
 10
2143.803
 20
1102.197
 10
2143.066
 20
1101.55
 10
2142.25
 20
1101.005
 10
2141.37
 20
1100.571
 10
2140.441
 20
1100.256
 10
2139.479
 20
1100.064
 10
2138.5
 20
1100.0
 10
2123.5
 20
1100.0
 10
2122.521
 20
1100.064
 10
2121.559
 20
1100.256
 10
2120.63
 20
1100.571
 10
2119.75
 20
1101.005
 10
2118.934
 20
1101.55
 10
2118.197
 20
1102.197
 10
2117.55
 20
1102.934
 10
2117.005
 20
1103.75
 10
2116.571
 20
1104.63
 10
2116.256
 20
1105.559
 10
2116.064
 20
1106.521
 10
2116.0
 20
1107.5
 10
2116.064
 20
1108.479
 10
2116.256
 20
1109.441
 10
2116.571
 20
1110.37
 10
2117.005
 20
1111.25
 10
2117.55
 20
1112.066
 10
2118.197
 20
1112.803
 10
2118.934
 20
1113.45
 10
2119.75
 20
1113.995
 10
2120.63
 20
1114.429
 10
2121.559
 20
1114.744
 10
2122.521
 20
1114.936
 10
2123.5
 20
1115.0
  0
LWPOLYLINE
  5
153
330
17
100
AcDbEntity
  8
CUT_INSIDE
100
AcDbPolyline
 90
50
 70
1
 10
2392.5
 20
1115.0
 10
2393.479
 20
1114.936
 10
2394.441
 20
1114.744
 10
2395.37
 20
1114.429
 10
2396.25
 20
1113.995
 10
2397.066
 20
1113.45
 10
2397.803
 20
1112.803
 10
2398.45
 20
1112.066
 10
2398.995
 20
1111.25
 10
2399.429
 20
1110.37
 10
2399.744
 20
1109.441
 10
2399.936
 20
1108.479
 10
2400.0
 20
1107.5
 10
2399.936
 20
1106.521
 10
2399.744
 20
1105.559
 10
2399.429
 20
1104.63
 10
2398.995
 20
1103.75
 10
2398.45
 20
1102.934
 10
2397.803
 20
1102.197
 10
2397.066
 20
1101.55
 10
2396.25
 20
1101.005
 10
2395.37
 20
1100.571
 10
2394.441
 20
1100.256
 10
2393.479
 20
1100.064
 10
2392.5
 20
1100.0
 10
2377.5
 20
1100.0
 10
2376.521
 20
1100.064
 10
2375.559
 20
1100.256
 10
2374.63
 20
1100.571
 10
2373.75
 20
1101.005
 10
2372.934
 20
1101.55
 10
2372.197
 20
1102.197
 10
2371.55
 20
1102.934
 10
2371.005
 20
1103.75
 10
2370.571
 20
1104.63
 10
2370.256
 20
1105.559
 10
2370.064
 20
1106.521
 10
2370.0
 20
1107.5
 10
2370.064
 20
1108.479
 10
2370.256
 20
1109.441
 10
2370.571
 20
1110.37
 10
2371.005
 20
1111.25
 10
2371.55
 20
1112.066
 10
2372.197
 20
1112.803
 10
2372.934
 20
1113.45
 10
2373.75
 20
1113.995
 10
2374.63
 20
1114.429
 10
2375.559
 20
1114.744
 10
2376.521
 20
1114.936
 10
2377.5
 20
1115.0
  0
TEXT
  5
154
330
17
100
AcDbEntity
  8
LABELS
100
AcDbText
 10
2258.0
 20
1107.5
 30
0.0
 40
14.0
  1
Monitor clamp bar 1
 72
1
 11
2258.0
 21
1107.5
 31
0.0
100
AcDbText
 73
2
  0
LWPOLYLINE
  5
155
330
17
100
AcDbEntity
  8
CUT_OUTSIDE
100
AcDbPolyline
 90
52
 70
1
 10
2408.0
 20
1153.0
 10
2407.932
 20
1151.956
 10
2407.727
 20
1150.929
 10
2407.391
 20
1149.939
 10
2406.928
 20
1149.0
 10
2406.347
 20
1148.13
 10
2405.657
 20
1147.343
 10
2404.87
 20
1146.653
 10
2404.0
 20
1146.072
 10
2403.061
 20
1145.609
 10
2402.071
 20
1145.273
 10
2401.044
 20
1145.068
 10
2400.0
 20
1145.0
 10
2116.0
 20
1145.0
 10
2114.956
 20
1145.068
 10
2113.929
 20
1145.273
 10
2112.939
 20
1145.609
 10
2112.0
 20
1146.072
 10
2111.13
 20
1146.653
 10
2110.343
 20
1147.343
 10
2109.653
 20
1148.13
 10
2109.072
 20
1149.0
 10
2108.609
 20
1149.939
 10
2108.273
 20
1150.929
 10
2108.068
 20
1151.956
 10
2108.0
 20
1153.0
 10
2108.0
 20
1192.0
 10
2108.068
 20
1193.044
 10
2108.273
 20
1194.071
 10
2108.609
 20
1195.061
 10
2109.072
 20
1196.0
 10
2109.653
 20
1196.87
 10
2110.343
 20
1197.657
 10
2111.13
 20
1198.347
 10
2112.0
 20
1198.928
 10
2112.939
 20
1199.391
 10
2113.929
 20
1199.727
 10
2114.956
 20
1199.932
 10
2116.0
 20
1200.0
 10
2400.0
 20
1200.0
 10
2401.044
 20
1199.932
 10
2402.071
 20
1199.727
 10
2403.061
 20
1199.391
 10
2404.0
 20
1198.928
 10
2404.87
 20
1198.347
 10
2405.657
 20
1197.657
 10
2406.347
 20
1196.87
 10
2406.928
 20
1196.0
 10
2407.391
 20
1195.061
 10
2407.727
 20
1194.071
 10
2407.932
 20
1193.044
 10
2408.0
 20
1192.0
  0
LWPOLYLINE
  5
156
330
17
100
AcDbEntity
  8
CUT_INSIDE
100
AcDbPolyline
 90
50
 70
1
 10
2138.5
 20
1180.0
 10
2139.479
 20
1179.936
 10
2140.441
 20
1179.744
 10
2141.37
 20
1179.429
 10
2142.25
 20
1178.995
 10
2143.066
 20
1178.45
 10
2143.803
 20
1177.803
 10
2144.45
 20
1177.066
 10
2144.995
 20
1176.25
 10
2145.429
 20
1175.37
 10
2145.744
 20
1174.441
 10
2145.936
 20
1173.479
 10
2146.0
 20
1172.5
 10
2145.936
 20
1171.521
 10
2145.744
 20
1170.559
 10
2145.429
 20
1169.63
 10
2144.995
 20
1168.75
 10
2144.45
 20
1167.934
 10
2143.803
 20
1167.197
 10
2143.066
 20
1166.55
 10
2142.25
 20
1166.005
 10
2141.37
 20
1165.571
 10
2140.441
 20
1165.256
 10
2139.479
 20
1165.064
 10
2138.5
 20
1165.0
 10
2123.5
 20
1165.0
 10
2122.521
 20
1165.064
 10
2121.559
 20
1165.256
 10
2120.63
 20
1165.571
 10
2119.75
 20
1166.005
 10
2118.934
 20
1166.55
 10
2118.197
 20
1167.197
 10
2117.55
 20
1167.934
 10
2117.005
 20
1168.75
 10
2116.571
 20
1169.63
 10
2116.256
 20
1170.559
 10
2116.064
 20
1171.521
 10
2116.0
 20
1172.5
 10
2116.064
 20
1173.479
 10
2116.256
 20
1174.441
 10
2116.571
 20
1175.37
 10
2117.005
 20
1176.25
 10
2117.55
 20
1177.066
 10
2118.197
 20
1177.803
 10
2118.934
 20
1178.45
 10
2119.75
 20
1178.995
 10
2120.63
 20
1179.429
 10
2121.559
 20
1179.744
 10
2122.521
 20
1179.936
 10
2123.5
 20
1180.0
  0
LWPOLYLINE
  5
157
330
17
100
AcDbEntity
  8
CUT_INSIDE
100
AcDbPolyline
 90
50
 70
1
 10
2392.5
 20
1180.0
 10
2393.479
 20
1179.936
 10
2394.441
 20
1179.744
 10
2395.37
 20
1179.429
 10
2396.25
 20
1178.995
 10
2397.066
 20
1178.45
 10
2397.803
 20
1177.803
 10
2398.45
 20
1177.066
 10
2398.995
 20
1176.25
 10
2399.429
 20
1175.37
 10
2399.744
 20
1174.441
 10
2399.936
 20
1173.479
 10
2400.0
 20
1172.5
 10
2399.936
 20
1171.521
 10
2399.744
 20
1170.559
 10
2399.429
 20
1169.63
 10
2398.995
 20
1168.75
 10
2398.45
 20
1167.934
 10
2397.803
 20
1167.197
 10
2397.066
 20
1166.55
 10
2396.25
 20
1166.005
 10
2395.37
 20
1165.571
 10
2394.441
 20
1165.256
 10
2393.479
 20
1165.064
 10
2392.5
 20
1165.0
 10
2377.5
 20
1165.0
 10
2376.521
 20
1165.064
 10
2375.559
 20
1165.256
 10
2374.63
 20
1165.571
 10
2373.75
 20
1166.005
 10
2372.934
 20
1166.55
 10
2372.197
 20
1167.197
 10
2371.55
 20
1167.934
 10
2371.005
 20
1168.75
 10
2370.571
 20
1169.63
 10
2370.256
 20
1170.559
 10
2370.064
 20
1171.521
 10
2370.0
 20
1172.5
 10
2370.064
 20
1173.479
 10
2370.256
 20
1174.441
 10
2370.571
 20
1175.37
 10
2371.005
 20
1176.25
 10
2371.55
 20
1177.066
 10
2372.197
 20
1177.803
 10
2372.934
 20
1178.45
 10
2373.75
 20
1178.995
 10
2374.63
 20
1179.429
 10
2375.559
 20
1179.744
 10
2376.521
 20
1179.936
 10
2377.5
 20
1180.0
  0
TEXT
  5
158
330
17
100
AcDbEntity
  8
LABELS
100
AcDbText
 10
2258.0
 20
1172.5
 30
0.0
 40
14.0
  1
Monitor clamp bar 2
 72
1
 11
2258.0
 21
1172.5
 31
0.0
100
AcDbText
 73
2
  0
TEXT
  5
159
330
17
100
AcDbEntity
  8
LABELS
100
AcDbText
 10
20.0
 20
1240.0
 30
0.0
 40
16.0
  1
PHOTOBOOTH EVENTS - sheet 1 - MDF 18 mm 1220x2440 - tool 6 mm
 11
20.0
 21
1240.0
 31
0.0
100
AcDbText
  0
ENDSEC
  0
SECTION
  2
OBJECTS
  0
DICTIONARY
  5
A
330
0
100
AcDbDictionary
281
1
  3
ACAD_COLOR
350
B
  3
ACAD_GROUP
350
C
  3
ACAD_LAYOUT
350
D
  3
ACAD_MATERIAL
350
E
  3
ACAD_MLEADERSTYLE
350
F
  3
ACAD_MLINESTYLE
350
10
  3
ACAD_PLOTSETTINGS
350
11
  3
ACAD_PLOTSTYLENAME
350
12
  3
ACAD_SCALELIST
350
14
  3
ACAD_TABLESTYLE
350
15
  3
ACAD_VISUALSTYLE
350
16
  3
EZDXF_META
350
2D
  0
DICTIONARY
  5
B
330
A
100
AcDbDictionary
281
1
  0
DICTIONARY
  5
C
330
A
100
AcDbDictionary
281
1
  0
DICTIONARY
  5
D
330
A
100
AcDbDictionary
281
1
  3
Model
350
1A
  3
Layout1
350
1E
  0
DICTIONARY
  5
E
330
A
100
AcDbDictionary
281
1
  3
ByBlock
350
1F
  3
ByLayer
350
20
  3
Global
350
21
  0
DICTIONARY
  5
F
330
A
100
AcDbDictionary
281
1
  3
Standard
350
2C
  0
DICTIONARY
  5
10
330
A
100
AcDbDictionary
281
1
  3
Standard
350
22
  0
DICTIONARY
  5
11
330
A
100
AcDbDictionary
281
1
  0
ACDBDICTIONARYWDFLT
  5
12
330
A
100
AcDbDictionary
281
1
  3
Normal
350
13
100
AcDbDictionaryWithDefault
340
13
  0
ACDBPLACEHOLDER
  5
13
330
12
  0
DICTIONARY
  5
14
330
A
100
AcDbDictionary
281
1
  0
DICTIONARY
  5
15
330
A
100
AcDbDictionary
281
1
  0
DICTIONARY
  5
16
330
A
100
AcDbDictionary
281
1
  3
2dWireframe
350
5A
  3
Basic
350
5B
  3
Brighten
350
5C
  3
ColorChange
350
5D
  3
Conceptual
350
5E
  3
Dim
350
5F
  3
EdgeColorOff
350
60
  3
Facepattern
350
61
  3
Flat
350
62
  3
FlatWithEdges
350
63
  3
Gouraud
350
64
  3
GouraudWithEdges
350
65
  3
Hidden
350
66
  3
JitterOff
350
67
  3
Linepattern
350
68
  3
Modeling
350
69
  3
OverhangOff
350
6A
  3
Realistic
350
6B
  3
Shaded
350
6C
  3
Shaded with edges
350
6D
  3
Shades of Gray
350
6E
  3
Sketchy
350
6F
  3
Thicken
350
70
  3
Wireframe
350
71
  3
X-Ray
350
72
  0
LAYOUT
  5
1A
330
D
100
AcDbPlotSettings
  1

  4
A3
  6

 40
7.5
 41
20.0
 42
7.5
 43
20.0
 44
420.0
 45
297.0
 46
0.0
 47
0.0
 48
0.0
 49
0.0
140
0.0
141
0.0
142
1.0
143
1.0
 70
1024
 72
1
 73
0
 74
5
  7

 75
16
 76
0
 77
2
 78
300
147
1.0
148
0.0
149
0.0
100
AcDbLayout
  1
Model
 70
1
 71
0
 10
0.0
 20
0.0
 11
420.0
 21
297.0
 12
0.0
 22
0.0
 32
0.0
 14
1e+20
 24
1e+20
 34
1e+20
 15
-1e+20
 25
-1e+20
 35
-1e+20
146
0.0
 13
0.0
 23
0.0
 33
0.0
 16
1.0
 26
0.0
 36
0.0
 17
0.0
 27
1.0
 37
0.0
 76
1
330
17
  0
LAYOUT
  5
1E
330
D
100
AcDbPlotSettings
  1

  4
A3
  6

 40
7.5
 41
20.0
 42
7.5
 43
20.0
 44
420.0
 45
297.0
 46
0.0
 47
0.0
 48
0.0
 49
0.0
140
0.0
141
0.0
142
1.0
143
1.0
 70
0
 72
1
 73
0
 74
5
  7

 75
16
 76
0
 77
2
 78
300
147
1.0
148
0.0
149
0.0
100
AcDbLayout
  1
Layout1
 70
1
 71
1
 10
0.0
 20
0.0
 11
420.0
 21
297.0
 12
0.0
 22
0.0
 32
0.0
 14
1e+20
 24
1e+20
 34
1e+20
 15
-1e+20
 25
-1e+20
 35
-1e+20
146
0.0
 13
0.0
 23
0.0
 33
0.0
 16
1.0
 26
0.0
 36
0.0
 17
0.0
 27
1.0
 37
0.0
 76
1
330
1B
  0
MATERIAL
  5
1F
102
{ACAD_REACTORS
330
E
102
}
330
E
100
AcDbMaterial
  1
ByBlock
  2

 70
0
 40
1.0
 71
1
 41
1.0
 91
-1023410177
 42
1.0
 72
1
  3

 73
1
 74
1
 75
1
 44
0.5
 73
0
 45
1.0
 46
1.0
 77
1
  4

 78
1
 79
1
170
1
 48
1.0
171
1
  6

172
1
173
1
174
1
140
1.0
141
1.0
175
1
  7

176
1
177
1
178
1
143
1.0
179
1
  8

270
1
271
1
272
1
145
1.0
146
1.0
273
1
  9

274
1
275
1
276
1
 42
1.0
 72
1
  3

 73
1
 74
1
 75
1
 94
63
  0
MATERIAL
  5
20
102
{ACAD_REACTORS
330
E
102
}
330
E
100
AcDbMaterial
  1
ByLayer
  2

 70
0
 40
1.0
 71
1
 41
1.0
 91
-1023410177
 42
1.0
 72
1
  3

 73
1
 74
1
 75
1
 44
0.5
 73
0
 45
1.0
 46
1.0
 77
1
  4

 78
1
 79
1
170
1
 48
1.0
171
1
  6

172
1
173
1
174
1
140
1.0
141
1.0
175
1
  7

176
1
177
1
178
1
143
1.0
179
1
  8

270
1
271
1
272
1
145
1.0
146
1.0
273
1
  9

274
1
275
1
276
1
 42
1.0
 72
1
  3

 73
1
 74
1
 75
1
 94
63
  0
MATERIAL
  5
21
102
{ACAD_REACTORS
330
E
102
}
330
E
100
AcDbMaterial
  1
Global
  2

 70
0
 40
1.0
 71
1
 41
1.0
 91
-1023410177
 42
1.0
 72
1
  3

 73
1
 74
1
 75
1
 44
0.5
 73
0
 45
1.0
 46
1.0
 77
1
  4

 78
1
 79
1
170
1
 48
1.0
171
1
  6

172
1
173
1
174
1
140
1.0
141
1.0
175
1
  7

176
1
177
1
178
1
143
1.0
179
1
  8

270
1
271
1
272
1
145
1.0
146
1.0
273
1
  9

274
1
275
1
276
1
 42
1.0
 72
1
  3

 73
1
 74
1
 75
1
 94
63
  0
MLINESTYLE
  5
22
102
{ACAD_REACTORS
330
10
102
}
330
10
100
AcDbMlineStyle
  2
Standard
 70
0
  3

 62
256
 51
90.0
 52
90.0
 71
2
 49
0.5
 62
256
  6
BYLAYER
 49
-0.5
 62
256
  6
BYLAYER
  0
MLEADERSTYLE
  5
2C
102
{ACAD_REACTORS
330
F
102
}
330
F
100
AcDbMLeaderStyle
179
2
170
2
171
1
172
0
 90
2
 40
0.0
 41
0.0
173
1
 91
-1056964608
 92
-2
290
1
 42
2.0
291
1
 43
8.0
  3
Standard
 44
4.0
300

342
29
174
1
175
1
176
0
178
1
 93
-1056964608
 45
4.0
292
0
297
0
 46
4.0
 94
-1056964608
 47
1.0
 49
1.0
140
1.0
294
1
141
0.0
177
0
142
1.0
295
0
296
0
143
3.75
271
0
272
9
273
9
  0
DICTIONARY
  5
2D
330
A
100
AcDbDictionary
280
1
281
1
  3
CREATED_BY_EZDXF
350
2E
  3
WRITTEN_BY_EZDXF
350
15C
  0
DICTIONARYVAR
  5
2E
330
2D
100
DictionaryVariables
280
0
  1
1.4.4 @ 2026-10-01T06:48:47.044545+00:00
  0
VISUALSTYLE
  5
5A
102
{ACAD_REACTORS
330
16
102
}
330
16
100
AcDbVisualStyle
  2
2dWireframe
 70
4
 90
0
 40
0.6
 62
7
290
0
291
0
  0
VISUALSTYLE
  5
5B
102
{ACAD_REACTORS
330
16
102
}
330
16
100
AcDbVisualStyle
  2
Basic
 70
7
 90
1
 40
0.6
 62
7
290
0
291
1
  0
VISUALSTYLE
  5
5C
102
{ACAD_REACTORS
330
16
102
}
330
16
100
AcDbVisualStyle
  2
Brighten
 70
12
 90
2
 40
0.6
 62
7
290
0
291
1
  0
VISUALSTYLE
  5
5D
102
{ACAD_REACTORS
330
16
102
}
330
16
100
AcDbVisualStyle
  2
ColorChange
 70
16
 90
2
 40
0.6
 62
8
290
0
291
1
  0
VISUALSTYLE
  5
5E
102
{ACAD_REACTORS
330
16
102
}
330
16
100
AcDbVisualStyle
  2
Conceptual
 70
9
 90
3
 40
0.6
 62
7
290
0
291
0
  0
VISUALSTYLE
  5
5F
102
{ACAD_REACTORS
330
16
102
}
330
16
100
AcDbVisualStyle
  2
Dim
 70
11
 90
2
 40
0.6
 62
7
290
0
291
1
  0
VISUALSTYLE
  5
60
102
{ACAD_REACTORS
330
16
102
}
330
16
100
AcDbVisualStyle
  2
EdgeColorOff
 70
22
 90
2
 40
0.6
 62
7
290
0
291
1
  0
VISUALSTYLE
  5
61
102
{ACAD_REACTORS
330
16
102
}
330
16
100
AcDbVisualStyle
  2
Facepattern
 70
15
 90
2
 40
0.6
 62
7
290
0
291
1
  0
VISUALSTYLE
  5
62
102
{ACAD_REACTORS
330
16
102
}
330
16
100
AcDbVisualStyle
  2
Flat
 70
0
 90
2
 40
0.6
 62
7
290
0
291
1
  0
VISUALSTYLE
  5
63
102
{ACAD_REACTORS
330
16
102
}
330
16
100
AcDbVisualStyle
  2
FlatWithEdges
 70
1
 90
2
 40
0.6
 62
7
290
0
291
1
  0
VISUALSTYLE
  5
64
102
{ACAD_REACTORS
330
16
102
}
330
16
100
AcDbVisualStyle
  2
Gouraud
 70
2
 90
2
 40
0.6
 62
7
290
0
291
1
  0
VISUALSTYLE
  5
65
102
{ACAD_REACTORS
330
16
102
}
330
16
100
AcDbVisualStyle
  2
GouraudWithEdges
 70
3
 90
2
 40
0.6
 62
7
290
0
291
1
  0
VISUALSTYLE
  5
66
102
{ACAD_REACTORS
330
16
102
}
330
16
100
AcDbVisualStyle
  2
Hidden
 70
6
 90
1
 40
0.6
 62
7
290
0
291
0
  0
VISUALSTYLE
  5
67
102
{ACAD_REACTORS
330
16
102
}
330
16
100
AcDbVisualStyle
  2
JitterOff
 70
20
 90
2
 40
0.6
 62
7
290
0
291
1
  0
VISUALSTYLE
  5
68
102
{ACAD_REACTORS
330
16
102
}
330
16
100
AcDbVisualStyle
  2
Linepattern
 70
14
 90
2
 40
0.6
 62
7
290
0
291
1
  0
VISUALSTYLE
  5
69
102
{ACAD_REACTORS
330
16
102
}
330
16
100
AcDbVisualStyle
  2
Modeling
 70
10
 90
2
 40
0.6
 62
7
290
0
291
0
  0
VISUALSTYLE
  5
6A
102
{ACAD_REACTORS
330
16
102
}
330
16
100
AcDbVisualStyle
  2
OverhangOff
 70
21
 90
2
 40
0.6
 62
7
290
0
291
1
  0
VISUALSTYLE
  5
6B
102
{ACAD_REACTORS
330
16
102
}
330
16
100
AcDbVisualStyle
  2
Realistic
 70
8
 90
2
 40
0.6
 62
7
290
0
291
0
  0
VISUALSTYLE
  5
6C
102
{ACAD_REACTORS
330
16
102
}
330
16
100
AcDbVisualStyle
  2
Shaded
 70
27
 90
2
 40
0.6
 62
7
290
0
291
0
  0
VISUALSTYLE
  5
6D
102
{ACAD_REACTORS
330
16
102
}
330
16
100
AcDbVisualStyle
  2
Shaded with edges
 70
26
 90
2
 40
0.6
 62
7
290
0
291
0
  0
VISUALSTYLE
  5
6E
102
{ACAD_REACTORS
330
16
102
}
330
16
100
AcDbVisualStyle
  2
Shades of Gray
 70
23
 90
2
 40
0.6
 62
7
290
0
291
0
  0
VISUALSTYLE
  5
6F
102
{ACAD_REACTORS
330
16
102
}
330
16
100
AcDbVisualStyle
  2
Sketchy
 70
24
 90
1
 40
0.6
 62
7
290
0
291
0
  0
VISUALSTYLE
  5
70
102
{ACAD_REACTORS
330
16
102
}
330
16
100
AcDbVisualStyle
  2
Thicken
 70
13
 90
2
 40
0.6
 62
7
290
0
291
1
  0
VISUALSTYLE
  5
71
102
{ACAD_REACTORS
330
16
102
}
330
16
100
AcDbVisualStyle
  2
Wireframe
 70
5
 90
0
 40
0.6
 62
7
290
0
291
0
  0
VISUALSTYLE
  5
72
102
{ACAD_REACTORS
330
16
102
}
330
16
100
AcDbVisualStyle
  2
X-Ray
 70
25
 90
2
 40
0.5
 62
7
290
0
291
0
  0
DICTIONARYVAR
  5
15C
330
2D
100
DictionaryVariables
280
0
  1
1.4.4 @ 2026-10-01T06:48:47.098639+00:00
  0
ENDSEC
  0
EOF
